<?xml version="1.0" encoding="utf-8" standalone="no"?>
<!DOCTYPE svg PUBLIC "-//W3C//DTD SVG 1.1//EN"
  "http://www.w3.org/Graphics/SVG/1.1/DTD/svg11.dtd">
<svg xmlns:xlink="http://www.w3.org/1999/xlink" width="432pt" height="288pt" viewBox="0 0 432 288" xmlns="http://www.w3.org/2000/svg" version="1.1">
 <metadata>
  <rdf:RDF xmlns:dc="http://purl.org/dc/elements/1.1/" xmlns:cc="http://creativecommons.org/ns#" xmlns:rdf="http://www.w3.org/1999/02/22-rdf-syntax-ns#">
   <cc:Work>
    <dc:type rdf:resource="http://purl.org/dc/dcmitype/StillImage"/>
    <dc:date>2023-08-10T08:45:41.023900</dc:date>
    <dc:format>image/svg+xml</dc:format>
    <dc:creator>
     <cc:Agent>
      <dc:title>Matplotlib v3.7.1, https://matplotlib.org/</dc:title>
     </cc:Agent>
    </dc:creator>
   </cc:Work>
  </rdf:RDF>
 </metadata>
 <defs>
  <style type="text/css">*{stroke-linejoin: round; stroke-linecap: butt}</style>
 </defs>
 <g id="figure_1">
  <g id="patch_1">
   <path d="M 0 288 
L 432 288 
L 432 0 
L 0 0 
z
"/>
  </g>
  <g id="axes_1">
   <g id="patch_2">
    <path d="M 55.447234 255.181443 
L 428.99976 255.181443 
L 428.99976 3.00024 
L 55.447234 3.00024 
z
"/>
   </g>
   <g id="matplotlib.axis_1">
    <g id="xtick_1">
     <g id="line2d_1">
      <path d="M 76.954803 255.181443 
L 76.954803 3.00024 
" clip-path="url(#p2e80903345)" style="fill: none; stroke: #ffffff; stroke-opacity: 0.15; stroke-width: 0.8; stroke-linecap: square"/>
     </g>
     <g id="line2d_2">
      <defs>
       <path id="m1445d3dd51" d="M 0 0 
L 0 3.5 
" style="stroke: #ffffff; stroke-width: 0.8"/>
      </defs>
      <g>
       <use xlink:href="#m1445d3dd51" x="76.954803" y="255.181443" style="fill: #ffffff; stroke: #ffffff; stroke-width: 0.8"/>
      </g>
     </g>
     <g id="text_1">
      <!-- $\mathdefault{400}$ -->
      <g style="fill: #ffffff" transform="translate(69.4828 269.099942) scale(0.1 -0.1)">
       <defs>
        <path id="CMR17-34" d="M 2150 4122 
C 2150 4256 2144 4256 2029 4256 
L 128 1254 
L 128 1088 
L 1779 1088 
L 1779 457 
C 1779 224 1766 160 1318 160 
L 1197 160 
L 1197 0 
C 1402 0 1747 0 1965 0 
C 2182 0 2528 0 2733 0 
L 2733 160 
L 2611 160 
C 2163 160 2150 224 2150 457 
L 2150 1088 
L 2803 1088 
L 2803 1254 
L 2150 1254 
L 2150 4122 
z
M 1798 3703 
L 1798 1254 
L 256 1254 
L 1798 3703 
z
" transform="scale(0.015625)"/>
        <path id="CMR17-30" d="M 2688 2025 
C 2688 2416 2682 3080 2413 3591 
C 2176 4039 1798 4198 1466 4198 
C 1158 4198 768 4058 525 3597 
C 269 3118 243 2524 243 2025 
C 243 1661 250 1106 448 619 
C 723 -39 1216 -128 1466 -128 
C 1760 -128 2208 -7 2470 600 
C 2662 1042 2688 1559 2688 2025 
z
M 1466 -26 
C 1056 -26 813 325 723 812 
C 653 1188 653 1738 653 2096 
C 653 2588 653 2997 736 3387 
C 858 3929 1216 4096 1466 4096 
C 1728 4096 2067 3923 2189 3400 
C 2272 3036 2278 2607 2278 2096 
C 2278 1680 2278 1169 2202 792 
C 2067 95 1690 -26 1466 -26 
z
" transform="scale(0.015625)"/>
       </defs>
       <use xlink:href="#CMR17-34" transform="scale(0.996264)"/>
       <use xlink:href="#CMR17-30" transform="translate(45.690477 0) scale(0.996264)"/>
       <use xlink:href="#CMR17-30" transform="translate(91.380954 0) scale(0.996264)"/>
      </g>
     </g>
    </g>
    <g id="xtick_2">
     <g id="line2d_3">
      <path d="M 133.553671 255.181443 
L 133.553671 3.00024 
" clip-path="url(#p2e80903345)" style="fill: none; stroke: #ffffff; stroke-opacity: 0.15; stroke-width: 0.8; stroke-linecap: square"/>
     </g>
     <g id="line2d_4">
      <g>
       <use xlink:href="#m1445d3dd51" x="133.553671" y="255.181443" style="fill: #ffffff; stroke: #ffffff; stroke-width: 0.8"/>
      </g>
     </g>
     <g id="text_2">
      <!-- $\mathdefault{500}$ -->
      <g style="fill: #ffffff" transform="translate(126.081668 269.099942) scale(0.1 -0.1)">
       <defs>
        <path id="CMR17-35" d="M 730 3692 
C 794 3666 1056 3584 1325 3584 
C 1920 3584 2246 3911 2432 4100 
C 2432 4157 2432 4192 2394 4192 
C 2387 4192 2374 4192 2323 4163 
C 2099 4058 1837 3973 1517 3973 
C 1325 3973 1037 3999 723 4139 
C 653 4171 640 4171 634 4171 
C 602 4171 595 4164 595 4037 
L 595 2203 
C 595 2089 595 2057 659 2057 
C 691 2057 704 2070 736 2114 
C 941 2401 1222 2522 1542 2522 
C 1766 2522 2246 2382 2246 1289 
C 2246 1085 2246 715 2054 421 
C 1894 159 1645 25 1370 25 
C 947 25 518 320 403 814 
C 429 807 480 795 506 795 
C 589 795 749 840 749 1038 
C 749 1210 627 1280 506 1280 
C 358 1280 262 1190 262 1011 
C 262 454 704 -128 1382 -128 
C 2042 -128 2669 440 2669 1264 
C 2669 2030 2170 2624 1549 2624 
C 1222 2624 947 2503 730 2274 
L 730 3692 
z
" transform="scale(0.015625)"/>
       </defs>
       <use xlink:href="#CMR17-35" transform="scale(0.996264)"/>
       <use xlink:href="#CMR17-30" transform="translate(45.690477 0) scale(0.996264)"/>
       <use xlink:href="#CMR17-30" transform="translate(91.380954 0) scale(0.996264)"/>
      </g>
     </g>
    </g>
    <g id="xtick_3">
     <g id="line2d_5">
      <path d="M 190.152539 255.181443 
L 190.152539 3.00024 
" clip-path="url(#p2e80903345)" style="fill: none; stroke: #ffffff; stroke-opacity: 0.15; stroke-width: 0.8; stroke-linecap: square"/>
     </g>
     <g id="line2d_6">
      <g>
       <use xlink:href="#m1445d3dd51" x="190.152539" y="255.181443" style="fill: #ffffff; stroke: #ffffff; stroke-width: 0.8"/>
      </g>
     </g>
     <g id="text_3">
      <!-- $\mathdefault{600}$ -->
      <g style="fill: #ffffff" transform="translate(182.680536 269.099942) scale(0.1 -0.1)">
       <defs>
        <path id="CMR17-36" d="M 678 2176 
C 678 3690 1395 4032 1811 4032 
C 1946 4032 2272 4009 2400 3776 
C 2298 3776 2106 3776 2106 3553 
C 2106 3381 2246 3323 2336 3323 
C 2394 3323 2566 3348 2566 3560 
C 2566 3954 2246 4179 1805 4179 
C 1043 4179 243 3390 243 1984 
C 243 253 966 -128 1478 -128 
C 2099 -128 2688 427 2688 1283 
C 2688 2081 2170 2662 1517 2662 
C 1126 2662 838 2407 678 1960 
L 678 2176 
z
M 1478 25 
C 691 25 691 1200 691 1436 
C 691 1896 909 2560 1504 2560 
C 1613 2560 1926 2560 2138 2120 
C 2253 1870 2253 1609 2253 1289 
C 2253 944 2253 690 2118 434 
C 1978 171 1773 25 1478 25 
z
" transform="scale(0.015625)"/>
       </defs>
       <use xlink:href="#CMR17-36" transform="scale(0.996264)"/>
       <use xlink:href="#CMR17-30" transform="translate(45.690477 0) scale(0.996264)"/>
       <use xlink:href="#CMR17-30" transform="translate(91.380954 0) scale(0.996264)"/>
      </g>
     </g>
    </g>
    <g id="xtick_4">
     <g id="line2d_7">
      <path d="M 246.751406 255.181443 
L 246.751406 3.00024 
" clip-path="url(#p2e80903345)" style="fill: none; stroke: #ffffff; stroke-opacity: 0.15; stroke-width: 0.8; stroke-linecap: square"/>
     </g>
     <g id="line2d_8">
      <g>
       <use xlink:href="#m1445d3dd51" x="246.751406" y="255.181443" style="fill: #ffffff; stroke: #ffffff; stroke-width: 0.8"/>
      </g>
     </g>
     <g id="text_4">
      <!-- $\mathdefault{700}$ -->
      <g style="fill: #ffffff" transform="translate(239.279403 269.099942) scale(0.1 -0.1)">
       <defs>
        <path id="CMR17-37" d="M 2886 3941 
L 2886 4081 
L 1382 4081 
C 634 4081 621 4165 595 4288 
L 480 4288 
L 294 3094 
L 410 3094 
C 429 3215 474 3540 550 3661 
C 589 3712 1062 3712 1171 3712 
L 2579 3712 
L 1869 2661 
C 1395 1954 1069 999 1069 165 
C 1069 89 1069 -128 1299 -128 
C 1530 -128 1530 89 1530 171 
L 1530 465 
C 1530 1508 1709 2196 2003 2636 
L 2886 3941 
z
" transform="scale(0.015625)"/>
       </defs>
       <use xlink:href="#CMR17-37" transform="scale(0.996264)"/>
       <use xlink:href="#CMR17-30" transform="translate(45.690477 0) scale(0.996264)"/>
       <use xlink:href="#CMR17-30" transform="translate(91.380954 0) scale(0.996264)"/>
      </g>
     </g>
    </g>
    <g id="xtick_5">
     <g id="line2d_9">
      <path d="M 303.350274 255.181443 
L 303.350274 3.00024 
" clip-path="url(#p2e80903345)" style="fill: none; stroke: #ffffff; stroke-opacity: 0.15; stroke-width: 0.8; stroke-linecap: square"/>
     </g>
     <g id="line2d_10">
      <g>
       <use xlink:href="#m1445d3dd51" x="303.350274" y="255.181443" style="fill: #ffffff; stroke: #ffffff; stroke-width: 0.8"/>
      </g>
     </g>
     <g id="text_5">
      <!-- $\mathdefault{800}$ -->
      <g style="fill: #ffffff" transform="translate(295.878271 269.099942) scale(0.1 -0.1)">
       <defs>
        <path id="CMR17-38" d="M 1741 2264 
C 2144 2467 2554 2773 2554 3263 
C 2554 3841 1990 4179 1472 4179 
C 890 4179 378 3759 378 3180 
C 378 3021 416 2747 666 2505 
C 730 2442 998 2251 1171 2130 
C 883 1983 211 1634 211 934 
C 211 279 838 -128 1459 -128 
C 2144 -128 2720 362 2720 1010 
C 2720 1590 2330 1857 2074 2029 
L 1741 2264 
z
M 902 2822 
C 851 2854 595 3051 595 3351 
C 595 3739 998 4032 1459 4032 
C 1965 4032 2336 3676 2336 3262 
C 2336 2669 1670 2331 1638 2331 
C 1632 2331 1626 2331 1574 2370 
L 902 2822 
z
M 2080 1519 
C 2176 1449 2483 1240 2483 851 
C 2483 381 2010 25 1472 25 
C 890 25 448 438 448 940 
C 448 1443 838 1862 1280 2060 
L 2080 1519 
z
" transform="scale(0.015625)"/>
       </defs>
       <use xlink:href="#CMR17-38" transform="scale(0.996264)"/>
       <use xlink:href="#CMR17-30" transform="translate(45.690477 0) scale(0.996264)"/>
       <use xlink:href="#CMR17-30" transform="translate(91.380954 0) scale(0.996264)"/>
      </g>
     </g>
    </g>
    <g id="xtick_6">
     <g id="line2d_11">
      <path d="M 359.949141 255.181443 
L 359.949141 3.00024 
" clip-path="url(#p2e80903345)" style="fill: none; stroke: #ffffff; stroke-opacity: 0.15; stroke-width: 0.8; stroke-linecap: square"/>
     </g>
     <g id="line2d_12">
      <g>
       <use xlink:href="#m1445d3dd51" x="359.949141" y="255.181443" style="fill: #ffffff; stroke: #ffffff; stroke-width: 0.8"/>
      </g>
     </g>
     <g id="text_6">
      <!-- $\mathdefault{900}$ -->
      <g style="fill: #ffffff" transform="translate(352.477139 269.099942) scale(0.1 -0.1)">
       <defs>
        <path id="CMR17-39" d="M 2253 1864 
C 2253 464 1670 31 1190 31 
C 1043 31 685 31 538 294 
C 704 268 826 357 826 518 
C 826 692 685 749 595 749 
C 538 749 365 723 365 506 
C 365 71 742 -128 1203 -128 
C 1939 -128 2688 674 2688 2073 
C 2688 3817 1971 4179 1485 4179 
C 851 4179 243 3628 243 2778 
C 243 1991 762 1408 1414 1408 
C 1952 1408 2189 1903 2253 2112 
L 2253 1864 
z
M 1427 1510 
C 1254 1510 1011 1542 813 1922 
C 678 2169 678 2461 678 2771 
C 678 3146 678 3405 858 3684 
C 947 3817 1114 4032 1485 4032 
C 2240 4032 2240 2885 2240 2632 
C 2240 2182 2035 1510 1427 1510 
z
" transform="scale(0.015625)"/>
       </defs>
       <use xlink:href="#CMR17-39" transform="scale(0.996264)"/>
       <use xlink:href="#CMR17-30" transform="translate(45.690477 0) scale(0.996264)"/>
       <use xlink:href="#CMR17-30" transform="translate(91.380954 0) scale(0.996264)"/>
      </g>
     </g>
    </g>
    <g id="xtick_7">
     <g id="line2d_13">
      <path d="M 416.548009 255.181443 
L 416.548009 3.00024 
" clip-path="url(#p2e80903345)" style="fill: none; stroke: #ffffff; stroke-opacity: 0.15; stroke-width: 0.8; stroke-linecap: square"/>
     </g>
     <g id="line2d_14">
      <g>
       <use xlink:href="#m1445d3dd51" x="416.548009" y="255.181443" style="fill: #ffffff; stroke: #ffffff; stroke-width: 0.8"/>
      </g>
     </g>
     <g id="text_7">
      <!-- $\mathdefault{1000}$ -->
      <g style="fill: #ffffff" transform="translate(406.585339 269.099942) scale(0.1 -0.1)">
       <defs>
        <path id="CMR17-31" d="M 1702 4058 
C 1702 4192 1696 4192 1606 4192 
C 1357 3916 979 3827 621 3827 
C 602 3827 570 3827 563 3808 
C 557 3795 557 3782 557 3648 
C 755 3648 1088 3686 1344 3839 
L 1344 461 
C 1344 236 1331 160 781 160 
L 589 160 
L 589 0 
C 896 0 1216 0 1523 0 
C 1830 0 2150 0 2458 0 
L 2458 160 
L 2266 160 
C 1715 160 1702 230 1702 458 
L 1702 4058 
z
" transform="scale(0.015625)"/>
       </defs>
       <use xlink:href="#CMR17-31" transform="scale(0.996264)"/>
       <use xlink:href="#CMR17-30" transform="translate(45.690477 0) scale(0.996264)"/>
       <use xlink:href="#CMR17-30" transform="translate(91.380954 0) scale(0.996264)"/>
       <use xlink:href="#CMR17-30" transform="translate(137.071431 0) scale(0.996264)"/>
      </g>
     </g>
    </g>
    <g id="xtick_8">
     <g id="line2d_15">
      <path d="M 65.63503 255.181443 
L 65.63503 3.00024 
" clip-path="url(#p2e80903345)" style="fill: none; stroke: #ffffff; stroke-opacity: 0.05; stroke-width: 0.8; stroke-linecap: square"/>
     </g>
     <g id="line2d_16">
      <defs>
       <path id="m63b39059c7" d="M 0 0 
L 0 2 
" style="stroke: #ffffff; stroke-width: 0.6"/>
      </defs>
      <g>
       <use xlink:href="#m63b39059c7" x="65.63503" y="255.181443" style="fill: #ffffff; stroke: #ffffff; stroke-width: 0.6"/>
      </g>
     </g>
    </g>
    <g id="xtick_9">
     <g id="line2d_17">
      <path d="M 88.274577 255.181443 
L 88.274577 3.00024 
" clip-path="url(#p2e80903345)" style="fill: none; stroke: #ffffff; stroke-opacity: 0.05; stroke-width: 0.8; stroke-linecap: square"/>
     </g>
     <g id="line2d_18">
      <g>
       <use xlink:href="#m63b39059c7" x="88.274577" y="255.181443" style="fill: #ffffff; stroke: #ffffff; stroke-width: 0.6"/>
      </g>
     </g>
    </g>
    <g id="xtick_10">
     <g id="line2d_19">
      <path d="M 99.59435 255.181443 
L 99.59435 3.00024 
" clip-path="url(#p2e80903345)" style="fill: none; stroke: #ffffff; stroke-opacity: 0.05; stroke-width: 0.8; stroke-linecap: square"/>
     </g>
     <g id="line2d_20">
      <g>
       <use xlink:href="#m63b39059c7" x="99.59435" y="255.181443" style="fill: #ffffff; stroke: #ffffff; stroke-width: 0.6"/>
      </g>
     </g>
    </g>
    <g id="xtick_11">
     <g id="line2d_21">
      <path d="M 110.914124 255.181443 
L 110.914124 3.00024 
" clip-path="url(#p2e80903345)" style="fill: none; stroke: #ffffff; stroke-opacity: 0.05; stroke-width: 0.8; stroke-linecap: square"/>
     </g>
     <g id="line2d_22">
      <g>
       <use xlink:href="#m63b39059c7" x="110.914124" y="255.181443" style="fill: #ffffff; stroke: #ffffff; stroke-width: 0.6"/>
      </g>
     </g>
    </g>
    <g id="xtick_12">
     <g id="line2d_23">
      <path d="M 122.233897 255.181443 
L 122.233897 3.00024 
" clip-path="url(#p2e80903345)" style="fill: none; stroke: #ffffff; stroke-opacity: 0.05; stroke-width: 0.8; stroke-linecap: square"/>
     </g>
     <g id="line2d_24">
      <g>
       <use xlink:href="#m63b39059c7" x="122.233897" y="255.181443" style="fill: #ffffff; stroke: #ffffff; stroke-width: 0.6"/>
      </g>
     </g>
    </g>
    <g id="xtick_13">
     <g id="line2d_25">
      <path d="M 144.873444 255.181443 
L 144.873444 3.00024 
" clip-path="url(#p2e80903345)" style="fill: none; stroke: #ffffff; stroke-opacity: 0.05; stroke-width: 0.8; stroke-linecap: square"/>
     </g>
     <g id="line2d_26">
      <g>
       <use xlink:href="#m63b39059c7" x="144.873444" y="255.181443" style="fill: #ffffff; stroke: #ffffff; stroke-width: 0.6"/>
      </g>
     </g>
    </g>
    <g id="xtick_14">
     <g id="line2d_27">
      <path d="M 156.193218 255.181443 
L 156.193218 3.00024 
" clip-path="url(#p2e80903345)" style="fill: none; stroke: #ffffff; stroke-opacity: 0.05; stroke-width: 0.8; stroke-linecap: square"/>
     </g>
     <g id="line2d_28">
      <g>
       <use xlink:href="#m63b39059c7" x="156.193218" y="255.181443" style="fill: #ffffff; stroke: #ffffff; stroke-width: 0.6"/>
      </g>
     </g>
    </g>
    <g id="xtick_15">
     <g id="line2d_29">
      <path d="M 167.512992 255.181443 
L 167.512992 3.00024 
" clip-path="url(#p2e80903345)" style="fill: none; stroke: #ffffff; stroke-opacity: 0.05; stroke-width: 0.8; stroke-linecap: square"/>
     </g>
     <g id="line2d_30">
      <g>
       <use xlink:href="#m63b39059c7" x="167.512992" y="255.181443" style="fill: #ffffff; stroke: #ffffff; stroke-width: 0.6"/>
      </g>
     </g>
    </g>
    <g id="xtick_16">
     <g id="line2d_31">
      <path d="M 178.832765 255.181443 
L 178.832765 3.00024 
" clip-path="url(#p2e80903345)" style="fill: none; stroke: #ffffff; stroke-opacity: 0.05; stroke-width: 0.8; stroke-linecap: square"/>
     </g>
     <g id="line2d_32">
      <g>
       <use xlink:href="#m63b39059c7" x="178.832765" y="255.181443" style="fill: #ffffff; stroke: #ffffff; stroke-width: 0.6"/>
      </g>
     </g>
    </g>
    <g id="xtick_17">
     <g id="line2d_33">
      <path d="M 201.472312 255.181443 
L 201.472312 3.00024 
" clip-path="url(#p2e80903345)" style="fill: none; stroke: #ffffff; stroke-opacity: 0.05; stroke-width: 0.8; stroke-linecap: square"/>
     </g>
     <g id="line2d_34">
      <g>
       <use xlink:href="#m63b39059c7" x="201.472312" y="255.181443" style="fill: #ffffff; stroke: #ffffff; stroke-width: 0.6"/>
      </g>
     </g>
    </g>
    <g id="xtick_18">
     <g id="line2d_35">
      <path d="M 212.792086 255.181443 
L 212.792086 3.00024 
" clip-path="url(#p2e80903345)" style="fill: none; stroke: #ffffff; stroke-opacity: 0.05; stroke-width: 0.8; stroke-linecap: square"/>
     </g>
     <g id="line2d_36">
      <g>
       <use xlink:href="#m63b39059c7" x="212.792086" y="255.181443" style="fill: #ffffff; stroke: #ffffff; stroke-width: 0.6"/>
      </g>
     </g>
    </g>
    <g id="xtick_19">
     <g id="line2d_37">
      <path d="M 224.111859 255.181443 
L 224.111859 3.00024 
" clip-path="url(#p2e80903345)" style="fill: none; stroke: #ffffff; stroke-opacity: 0.05; stroke-width: 0.8; stroke-linecap: square"/>
     </g>
     <g id="line2d_38">
      <g>
       <use xlink:href="#m63b39059c7" x="224.111859" y="255.181443" style="fill: #ffffff; stroke: #ffffff; stroke-width: 0.6"/>
      </g>
     </g>
    </g>
    <g id="xtick_20">
     <g id="line2d_39">
      <path d="M 235.431633 255.181443 
L 235.431633 3.00024 
" clip-path="url(#p2e80903345)" style="fill: none; stroke: #ffffff; stroke-opacity: 0.05; stroke-width: 0.8; stroke-linecap: square"/>
     </g>
     <g id="line2d_40">
      <g>
       <use xlink:href="#m63b39059c7" x="235.431633" y="255.181443" style="fill: #ffffff; stroke: #ffffff; stroke-width: 0.6"/>
      </g>
     </g>
    </g>
    <g id="xtick_21">
     <g id="line2d_41">
      <path d="M 258.07118 255.181443 
L 258.07118 3.00024 
" clip-path="url(#p2e80903345)" style="fill: none; stroke: #ffffff; stroke-opacity: 0.05; stroke-width: 0.8; stroke-linecap: square"/>
     </g>
     <g id="line2d_42">
      <g>
       <use xlink:href="#m63b39059c7" x="258.07118" y="255.181443" style="fill: #ffffff; stroke: #ffffff; stroke-width: 0.6"/>
      </g>
     </g>
    </g>
    <g id="xtick_22">
     <g id="line2d_43">
      <path d="M 269.390953 255.181443 
L 269.390953 3.00024 
" clip-path="url(#p2e80903345)" style="fill: none; stroke: #ffffff; stroke-opacity: 0.05; stroke-width: 0.8; stroke-linecap: square"/>
     </g>
     <g id="line2d_44">
      <g>
       <use xlink:href="#m63b39059c7" x="269.390953" y="255.181443" style="fill: #ffffff; stroke: #ffffff; stroke-width: 0.6"/>
      </g>
     </g>
    </g>
    <g id="xtick_23">
     <g id="line2d_45">
      <path d="M 280.710727 255.181443 
L 280.710727 3.00024 
" clip-path="url(#p2e80903345)" style="fill: none; stroke: #ffffff; stroke-opacity: 0.05; stroke-width: 0.8; stroke-linecap: square"/>
     </g>
     <g id="line2d_46">
      <g>
       <use xlink:href="#m63b39059c7" x="280.710727" y="255.181443" style="fill: #ffffff; stroke: #ffffff; stroke-width: 0.6"/>
      </g>
     </g>
    </g>
    <g id="xtick_24">
     <g id="line2d_47">
      <path d="M 292.0305 255.181443 
L 292.0305 3.00024 
" clip-path="url(#p2e80903345)" style="fill: none; stroke: #ffffff; stroke-opacity: 0.05; stroke-width: 0.8; stroke-linecap: square"/>
     </g>
     <g id="line2d_48">
      <g>
       <use xlink:href="#m63b39059c7" x="292.0305" y="255.181443" style="fill: #ffffff; stroke: #ffffff; stroke-width: 0.6"/>
      </g>
     </g>
    </g>
    <g id="xtick_25">
     <g id="line2d_49">
      <path d="M 314.670047 255.181443 
L 314.670047 3.00024 
" clip-path="url(#p2e80903345)" style="fill: none; stroke: #ffffff; stroke-opacity: 0.05; stroke-width: 0.8; stroke-linecap: square"/>
     </g>
     <g id="line2d_50">
      <g>
       <use xlink:href="#m63b39059c7" x="314.670047" y="255.181443" style="fill: #ffffff; stroke: #ffffff; stroke-width: 0.6"/>
      </g>
     </g>
    </g>
    <g id="xtick_26">
     <g id="line2d_51">
      <path d="M 325.989821 255.181443 
L 325.989821 3.00024 
" clip-path="url(#p2e80903345)" style="fill: none; stroke: #ffffff; stroke-opacity: 0.05; stroke-width: 0.8; stroke-linecap: square"/>
     </g>
     <g id="line2d_52">
      <g>
       <use xlink:href="#m63b39059c7" x="325.989821" y="255.181443" style="fill: #ffffff; stroke: #ffffff; stroke-width: 0.6"/>
      </g>
     </g>
    </g>
    <g id="xtick_27">
     <g id="line2d_53">
      <path d="M 337.309594 255.181443 
L 337.309594 3.00024 
" clip-path="url(#p2e80903345)" style="fill: none; stroke: #ffffff; stroke-opacity: 0.05; stroke-width: 0.8; stroke-linecap: square"/>
     </g>
     <g id="line2d_54">
      <g>
       <use xlink:href="#m63b39059c7" x="337.309594" y="255.181443" style="fill: #ffffff; stroke: #ffffff; stroke-width: 0.6"/>
      </g>
     </g>
    </g>
    <g id="xtick_28">
     <g id="line2d_55">
      <path d="M 348.629368 255.181443 
L 348.629368 3.00024 
" clip-path="url(#p2e80903345)" style="fill: none; stroke: #ffffff; stroke-opacity: 0.05; stroke-width: 0.8; stroke-linecap: square"/>
     </g>
     <g id="line2d_56">
      <g>
       <use xlink:href="#m63b39059c7" x="348.629368" y="255.181443" style="fill: #ffffff; stroke: #ffffff; stroke-width: 0.6"/>
      </g>
     </g>
    </g>
    <g id="xtick_29">
     <g id="line2d_57">
      <path d="M 371.268915 255.181443 
L 371.268915 3.00024 
" clip-path="url(#p2e80903345)" style="fill: none; stroke: #ffffff; stroke-opacity: 0.05; stroke-width: 0.8; stroke-linecap: square"/>
     </g>
     <g id="line2d_58">
      <g>
       <use xlink:href="#m63b39059c7" x="371.268915" y="255.181443" style="fill: #ffffff; stroke: #ffffff; stroke-width: 0.6"/>
      </g>
     </g>
    </g>
    <g id="xtick_30">
     <g id="line2d_59">
      <path d="M 382.588689 255.181443 
L 382.588689 3.00024 
" clip-path="url(#p2e80903345)" style="fill: none; stroke: #ffffff; stroke-opacity: 0.05; stroke-width: 0.8; stroke-linecap: square"/>
     </g>
     <g id="line2d_60">
      <g>
       <use xlink:href="#m63b39059c7" x="382.588689" y="255.181443" style="fill: #ffffff; stroke: #ffffff; stroke-width: 0.6"/>
      </g>
     </g>
    </g>
    <g id="xtick_31">
     <g id="line2d_61">
      <path d="M 393.908462 255.181443 
L 393.908462 3.00024 
" clip-path="url(#p2e80903345)" style="fill: none; stroke: #ffffff; stroke-opacity: 0.05; stroke-width: 0.8; stroke-linecap: square"/>
     </g>
     <g id="line2d_62">
      <g>
       <use xlink:href="#m63b39059c7" x="393.908462" y="255.181443" style="fill: #ffffff; stroke: #ffffff; stroke-width: 0.6"/>
      </g>
     </g>
    </g>
    <g id="xtick_32">
     <g id="line2d_63">
      <path d="M 405.228236 255.181443 
L 405.228236 3.00024 
" clip-path="url(#p2e80903345)" style="fill: none; stroke: #ffffff; stroke-opacity: 0.05; stroke-width: 0.8; stroke-linecap: square"/>
     </g>
     <g id="line2d_64">
      <g>
       <use xlink:href="#m63b39059c7" x="405.228236" y="255.181443" style="fill: #ffffff; stroke: #ffffff; stroke-width: 0.6"/>
      </g>
     </g>
    </g>
    <g id="xtick_33">
     <g id="line2d_65">
      <path d="M 427.867783 255.181443 
L 427.867783 3.00024 
" clip-path="url(#p2e80903345)" style="fill: none; stroke: #ffffff; stroke-opacity: 0.05; stroke-width: 0.8; stroke-linecap: square"/>
     </g>
     <g id="line2d_66">
      <g>
       <use xlink:href="#m63b39059c7" x="427.867783" y="255.181443" style="fill: #ffffff; stroke: #ffffff; stroke-width: 0.6"/>
      </g>
     </g>
    </g>
    <g id="text_8">
     <!-- $\lambda\ (\mathrm{nm})$ -->
     <g style="fill: #ffffff" transform="translate(226.864384 282.5091) scale(0.1 -0.1)">
      <defs>
       <path id="CMMI12-15" d="M 1978 3965 
C 1818 4416 1312 4416 1229 4416 
C 1190 4416 1120 4416 1120 4352 
C 1120 4302 1158 4295 1190 4289 
C 1286 4276 1363 4263 1466 4080 
C 1530 3959 2189 2059 2189 2046 
C 2189 2040 2182 2033 2131 1982 
L 467 311 
C 390 234 339 183 339 102 
C 339 12 416 -64 518 -64 
C 544 -64 614 -51 653 -13 
C 755 82 1670 1194 2253 1881 
C 2419 1383 2624 797 2822 261 
C 2854 166 2886 76 2976 -6 
C 3040 -64 3053 -64 3232 -64 
L 3354 -64 
C 3379 -64 3424 -64 3424 -13 
C 3424 13 3418 19 3392 45 
C 3334 115 3290 229 3264 306 
L 1978 3965 
z
" transform="scale(0.015625)"/>
       <path id="CMR17-28" d="M 1958 -1561 
C 1958 -1555 1958 -1542 1939 -1523 
C 1645 -1224 858 -407 858 1581 
C 858 3569 1632 4379 1946 4697 
C 1946 4704 1958 4717 1958 4736 
C 1958 4755 1939 4768 1914 4768 
C 1843 4768 1299 4296 986 3594 
C 666 2887 576 2199 576 1588 
C 576 1128 621 351 1005 -471 
C 1312 -1135 1837 -1600 1914 -1600 
C 1946 -1600 1958 -1587 1958 -1561 
z
" transform="scale(0.015625)"/>
       <path id="CMR17-6e" d="M 2656 1933 
C 2656 2259 2592 2790 1837 2790 
C 1331 2790 1069 2400 973 2144 
L 966 2144 
L 966 2790 
L 211 2720 
L 211 2554 
C 589 2554 646 2515 646 2208 
L 646 428 
C 646 184 621 153 211 153 
L 211 -13 
C 365 0 646 0 813 0 
C 979 0 1267 0 1421 -13 
L 1421 153 
C 1011 153 986 178 986 428 
L 986 1658 
C 986 2247 1344 2688 1792 2688 
C 2266 2688 2317 2266 2317 1958 
L 2317 428 
C 2317 184 2291 153 1882 153 
L 1882 -13 
C 2035 0 2317 0 2483 0 
C 2650 0 2938 0 3091 -13 
L 3091 153 
C 2682 153 2656 178 2656 428 
L 2656 1933 
z
" transform="scale(0.015625)"/>
       <path id="CMR17-6d" d="M 4326 1933 
C 4326 2252 4269 2790 3507 2790 
C 3072 2790 2771 2496 2656 2151 
L 2650 2151 
C 2573 2676 2195 2790 1837 2790 
C 1331 2790 1069 2400 973 2144 
L 966 2144 
L 966 2790 
L 211 2720 
L 211 2554 
C 589 2554 646 2515 646 2208 
L 646 428 
C 646 184 621 153 211 153 
L 211 -13 
C 365 0 646 0 813 0 
C 979 0 1267 0 1421 -13 
L 1421 153 
C 1011 153 986 178 986 428 
L 986 1658 
C 986 2247 1344 2688 1792 2688 
C 2266 2688 2317 2266 2317 1958 
L 2317 428 
C 2317 184 2291 153 1882 153 
L 1882 -13 
C 2035 0 2317 0 2483 0 
C 2650 0 2938 0 3091 -13 
L 3091 153 
C 2682 153 2656 178 2656 428 
L 2656 1658 
C 2656 2247 3014 2688 3462 2688 
C 3936 2688 3987 2266 3987 1958 
L 3987 428 
C 3987 184 3962 153 3552 153 
L 3552 -13 
C 3706 0 3987 0 4154 0 
C 4320 0 4608 0 4762 -13 
L 4762 153 
C 4352 153 4326 178 4326 428 
L 4326 1933 
z
" transform="scale(0.015625)"/>
       <path id="CMR17-29" d="M 1683 1581 
C 1683 2040 1638 2817 1254 3639 
C 947 4303 422 4768 346 4768 
C 326 4768 301 4761 301 4729 
C 301 4717 307 4710 314 4697 
C 621 4378 1402 3568 1402 1584 
C 1402 -407 627 -1217 314 -1537 
C 307 -1549 301 -1556 301 -1568 
C 301 -1600 326 -1600 346 -1600 
C 416 -1600 960 -1128 1274 -426 
C 1594 281 1683 969 1683 1581 
z
" transform="scale(0.015625)"/>
      </defs>
      <use xlink:href="#CMMI12-15" transform="scale(0.996264)"/>
      <use xlink:href="#CMR17-28" transform="translate(88.133185 0) scale(0.996264)"/>
      <use xlink:href="#CMR17-6e" transform="translate(123.413952 0) scale(0.996264)"/>
      <use xlink:href="#CMR17-6d" transform="translate(174.309322 0) scale(0.996264)"/>
      <use xlink:href="#CMR17-29" transform="translate(251.228912 0) scale(0.996264)"/>
     </g>
    </g>
   </g>
   <g id="matplotlib.axis_2">
    <g id="ytick_1">
     <g id="line2d_67">
      <path d="M 55.447234 248.954553 
L 428.99976 248.954553 
" clip-path="url(#p2e80903345)" style="fill: none; stroke: #ffffff; stroke-opacity: 0.05; stroke-width: 0.8; stroke-linecap: square"/>
     </g>
     <g id="line2d_68">
      <defs>
       <path id="m6b8eca6067" d="M 0 0 
L -2 0 
" style="stroke: #ffffff; stroke-width: 0.6"/>
      </defs>
      <g>
       <use xlink:href="#m6b8eca6067" x="55.447234" y="248.954553" style="fill: #ffffff; stroke: #ffffff; stroke-width: 0.6"/>
      </g>
     </g>
     <g id="text_9">
      <!-- $\mathdefault{2\times10^{1}}$ -->
      <g style="fill: #ffffff" transform="translate(18.955515 252.455881) scale(0.1 -0.1)">
       <defs>
        <path id="CMR17-32" d="M 2669 989 
L 2554 989 
C 2490 536 2438 459 2413 420 
C 2381 369 1920 369 1830 369 
L 602 369 
C 832 619 1280 1072 1824 1597 
C 2214 1967 2669 2402 2669 3035 
C 2669 3790 2067 4224 1395 4224 
C 691 4224 262 3604 262 3030 
C 262 2780 448 2748 525 2748 
C 589 2748 781 2787 781 3010 
C 781 3207 614 3264 525 3264 
C 486 3264 448 3258 422 3245 
C 544 3790 915 4058 1306 4058 
C 1862 4058 2227 3617 2227 3035 
C 2227 2479 1901 2000 1536 1584 
L 262 146 
L 262 0 
L 2515 0 
L 2669 989 
z
" transform="scale(0.015625)"/>
        <path id="CMSY10-2" d="M 2490 1785 
L 1210 3059 
C 1133 3136 1120 3148 1069 3148 
C 1005 3148 941 3091 941 3020 
C 941 2976 954 2963 1024 2892 
L 2304 1606 
L 1024 320 
C 954 249 941 236 941 192 
C 941 121 1005 64 1069 64 
C 1120 64 1133 76 1210 153 
L 2483 1427 
L 3808 102 
C 3821 96 3866 64 3904 64 
C 3981 64 4032 121 4032 192 
C 4032 204 4032 230 4013 262 
C 4006 275 2989 1280 2669 1606 
L 3840 2777 
C 3872 2816 3968 2899 4000 2937 
C 4006 2950 4032 2976 4032 3020 
C 4032 3091 3981 3148 3904 3148 
C 3853 3148 3827 3123 3757 3052 
L 2490 1785 
z
" transform="scale(0.015625)"/>
       </defs>
       <use xlink:href="#CMR17-32" transform="scale(0.996264)"/>
       <use xlink:href="#CMSY10-2" transform="translate(67.829684 0) scale(0.996264)"/>
       <use xlink:href="#CMR17-31" transform="translate(167.456359 0) scale(0.996264)"/>
       <use xlink:href="#CMR17-30" transform="translate(213.146836 0) scale(0.996264)"/>
       <use xlink:href="#CMR17-31" transform="translate(258.837313 36.153639) scale(0.697382)"/>
      </g>
     </g>
    </g>
    <g id="ytick_2">
     <g id="line2d_69">
      <path d="M 55.447234 180.253288 
L 428.99976 180.253288 
" clip-path="url(#p2e80903345)" style="fill: none; stroke: #ffffff; stroke-opacity: 0.05; stroke-width: 0.8; stroke-linecap: square"/>
     </g>
     <g id="line2d_70">
      <g>
       <use xlink:href="#m6b8eca6067" x="55.447234" y="180.253288" style="fill: #ffffff; stroke: #ffffff; stroke-width: 0.6"/>
      </g>
     </g>
     <g id="text_10">
      <!-- $\mathdefault{3\times10^{1}}$ -->
      <g style="fill: #ffffff" transform="translate(18.955515 183.754616) scale(0.1 -0.1)">
       <defs>
        <path id="CMR17-33" d="M 1414 2157 
C 1984 2157 2234 1662 2234 1090 
C 2234 320 1824 25 1453 25 
C 1114 25 563 194 390 693 
C 422 680 454 680 486 680 
C 640 680 755 782 755 948 
C 755 1133 614 1216 486 1216 
C 378 1216 211 1165 211 926 
C 211 335 787 -128 1466 -128 
C 2176 -128 2720 430 2720 1085 
C 2720 1707 2208 2157 1600 2227 
C 2086 2328 2554 2756 2554 3329 
C 2554 3820 2048 4179 1472 4179 
C 890 4179 378 3829 378 3329 
C 378 3110 544 3072 627 3072 
C 762 3072 877 3155 877 3321 
C 877 3486 762 3569 627 3569 
C 602 3569 570 3569 544 3557 
C 730 3959 1235 4032 1459 4032 
C 1683 4032 2106 3925 2106 3320 
C 2106 3143 2080 2828 1862 2550 
C 1670 2304 1453 2304 1242 2284 
C 1210 2284 1062 2269 1037 2269 
C 992 2263 966 2257 966 2208 
C 966 2163 973 2157 1101 2157 
L 1414 2157 
z
" transform="scale(0.015625)"/>
       </defs>
       <use xlink:href="#CMR17-33" transform="scale(0.996264)"/>
       <use xlink:href="#CMSY10-2" transform="translate(67.829684 0) scale(0.996264)"/>
       <use xlink:href="#CMR17-31" transform="translate(167.456359 0) scale(0.996264)"/>
       <use xlink:href="#CMR17-30" transform="translate(213.146836 0) scale(0.996264)"/>
       <use xlink:href="#CMR17-31" transform="translate(258.837313 36.153639) scale(0.697382)"/>
      </g>
     </g>
    </g>
    <g id="ytick_3">
     <g id="line2d_71">
      <path d="M 55.447234 131.508965 
L 428.99976 131.508965 
" clip-path="url(#p2e80903345)" style="fill: none; stroke: #ffffff; stroke-opacity: 0.05; stroke-width: 0.8; stroke-linecap: square"/>
     </g>
     <g id="line2d_72">
      <g>
       <use xlink:href="#m6b8eca6067" x="55.447234" y="131.508965" style="fill: #ffffff; stroke: #ffffff; stroke-width: 0.6"/>
      </g>
     </g>
     <g id="text_11">
      <!-- $\mathdefault{4\times10^{1}}$ -->
      <g style="fill: #ffffff" transform="translate(18.955515 135.010293) scale(0.1 -0.1)">
       <use xlink:href="#CMR17-34" transform="scale(0.996264)"/>
       <use xlink:href="#CMSY10-2" transform="translate(67.829684 0) scale(0.996264)"/>
       <use xlink:href="#CMR17-31" transform="translate(167.456359 0) scale(0.996264)"/>
       <use xlink:href="#CMR17-30" transform="translate(213.146836 0) scale(0.996264)"/>
       <use xlink:href="#CMR17-31" transform="translate(258.837313 36.153639) scale(0.697382)"/>
      </g>
     </g>
    </g>
    <g id="ytick_4">
     <g id="line2d_73">
      <path d="M 55.447234 93.699931 
L 428.99976 93.699931 
" clip-path="url(#p2e80903345)" style="fill: none; stroke: #ffffff; stroke-opacity: 0.05; stroke-width: 0.8; stroke-linecap: square"/>
     </g>
     <g id="line2d_74">
      <g>
       <use xlink:href="#m6b8eca6067" x="55.447234" y="93.699931" style="fill: #ffffff; stroke: #ffffff; stroke-width: 0.6"/>
      </g>
     </g>
    </g>
    <g id="ytick_5">
     <g id="line2d_75">
      <path d="M 55.447234 62.807701 
L 428.99976 62.807701 
" clip-path="url(#p2e80903345)" style="fill: none; stroke: #ffffff; stroke-opacity: 0.05; stroke-width: 0.8; stroke-linecap: square"/>
     </g>
     <g id="line2d_76">
      <g>
       <use xlink:href="#m6b8eca6067" x="55.447234" y="62.807701" style="fill: #ffffff; stroke: #ffffff; stroke-width: 0.6"/>
      </g>
     </g>
     <g id="text_12">
      <!-- $\mathdefault{6\times10^{1}}$ -->
      <g style="fill: #ffffff" transform="translate(18.955515 66.309029) scale(0.1 -0.1)">
       <use xlink:href="#CMR17-36" transform="scale(0.996264)"/>
       <use xlink:href="#CMSY10-2" transform="translate(67.829684 0) scale(0.996264)"/>
       <use xlink:href="#CMR17-31" transform="translate(167.456359 0) scale(0.996264)"/>
       <use xlink:href="#CMR17-30" transform="translate(213.146836 0) scale(0.996264)"/>
       <use xlink:href="#CMR17-31" transform="translate(258.837313 36.153639) scale(0.697382)"/>
      </g>
     </g>
    </g>
    <g id="ytick_6">
     <g id="line2d_77">
      <path d="M 55.447234 36.688692 
L 428.99976 36.688692 
" clip-path="url(#p2e80903345)" style="fill: none; stroke: #ffffff; stroke-opacity: 0.05; stroke-width: 0.8; stroke-linecap: square"/>
     </g>
     <g id="line2d_78">
      <g>
       <use xlink:href="#m6b8eca6067" x="55.447234" y="36.688692" style="fill: #ffffff; stroke: #ffffff; stroke-width: 0.6"/>
      </g>
     </g>
    </g>
    <g id="ytick_7">
     <g id="line2d_79">
      <path d="M 55.447234 14.063378 
L 428.99976 14.063378 
" clip-path="url(#p2e80903345)" style="fill: none; stroke: #ffffff; stroke-opacity: 0.05; stroke-width: 0.8; stroke-linecap: square"/>
     </g>
     <g id="line2d_80">
      <g>
       <use xlink:href="#m6b8eca6067" x="55.447234" y="14.063378" style="fill: #ffffff; stroke: #ffffff; stroke-width: 0.6"/>
      </g>
     </g>
    </g>
    <g id="text_13">
     <!-- $f_{\lambda}\ \left(10^{-18} \, \mathrm{W \, m^{-2} \, nm^{-1}}\right)$ -->
     <g style="fill: #ffffff" transform="translate(11.46853 182.958357) rotate(-90) scale(0.1 -0.1)">
      <defs>
       <path id="CMMI12-66" d="M 2854 2566 
C 2982 2566 3034 2566 3034 2688 
C 3034 2752 2982 2752 2867 2752 
L 2349 2752 
C 2470 3429 2560 3897 2611 4107 
C 2650 4265 2784 4416 2950 4416 
C 3085 4416 3219 4358 3283 4298 
C 3034 4272 2957 4082 2957 3969 
C 2957 3837 3053 3759 3174 3759 
C 3302 3759 3494 3870 3494 4119 
C 3494 4393 3226 4544 2944 4544 
C 2669 4544 2400 4334 2272 4078 
C 2157 3848 2093 3611 1946 2752 
L 1517 2752 
C 1395 2752 1331 2752 1331 2637 
C 1331 2566 1370 2566 1498 2566 
L 1907 2566 
C 1792 1976 1530 542 1382 -137 
C 1274 -689 1178 -1152 858 -1152 
C 838 -1152 653 -1152 538 -1031 
C 864 -1005 864 -726 864 -720 
C 864 -593 768 -517 646 -517 
C 518 -517 326 -625 326 -867 
C 326 -1140 608 -1280 858 -1280 
C 1510 -1280 1779 -118 1850 199 
C 1965 688 2278 2376 2310 2566 
L 2854 2566 
z
" transform="scale(0.015625)"/>
       <path id="CMEX10-0" d="M 2643 -7354 
C 2643 -7328 2630 -7315 2618 -7296 
C 2323 -6982 1888 -6464 1619 -5421 
C 1472 -4838 1414 -4179 1414 -3584 
C 1414 -1901 1818 -723 2586 109 
C 2643 166 2643 179 2643 192 
C 2643 256 2592 256 2566 256 
C 2470 256 2125 -128 2042 -224 
C 1389 -998 973 -2150 973 -3578 
C 973 -4486 1133 -5773 1971 -6854 
C 2035 -6931 2451 -7418 2566 -7418 
C 2592 -7418 2643 -7418 2643 -7354 
z
" transform="scale(0.015625)"/>
       <path id="CMSY10-0" d="M 4218 1472 
C 4326 1472 4442 1472 4442 1600 
C 4442 1728 4326 1728 4218 1728 
L 755 1728 
C 646 1728 531 1728 531 1600 
C 531 1472 646 1472 755 1472 
L 4218 1472 
z
" transform="scale(0.015625)"/>
       <path id="CMR17-57" d="M 5523 3764 
C 5581 3936 5677 4160 6048 4160 
L 6048 4326 
C 5939 4326 5715 4326 5600 4326 
C 5440 4326 5158 4326 5005 4332 
L 5005 4160 
C 5293 4160 5414 4000 5414 3847 
C 5414 3802 5408 3777 5382 3707 
L 4390 555 
L 3347 3873 
C 3328 3937 3322 3963 3322 3988 
C 3322 4160 3603 4160 3725 4160 
L 3725 4326 
C 3539 4326 3219 4326 3021 4326 
C 2861 4326 2573 4326 2426 4332 
L 2426 4160 
C 2720 4160 2797 4141 2861 4027 
C 2886 3969 2989 3638 2989 3619 
C 2989 3593 2976 3555 2970 3536 
L 2029 561 
L 986 3867 
C 954 3957 954 3969 954 3982 
C 954 4160 1235 4160 1363 4160 
L 1363 4326 
C 1178 4326 858 4326 659 4326 
C 493 4326 211 4326 58 4332 
L 58 4160 
C 442 4160 467 4122 531 3918 
L 1779 -20 
C 1811 -115 1811 -128 1869 -128 
C 1920 -128 1939 -115 1965 -26 
L 3053 3433 
L 4141 -26 
C 4166 -115 4186 -128 4237 -128 
C 4294 -128 4294 -115 4326 -20 
L 5523 3764 
z
" transform="scale(0.015625)"/>
       <path id="CMEX10-1" d="M 1952 -3584 
C 1952 -2675 1792 -1389 954 -307 
C 890 -230 474 256 358 256 
C 326 256 282 243 282 192 
C 282 166 294 147 320 128 
C 627 -205 1043 -723 1306 -1741 
C 1453 -2323 1510 -2982 1510 -3578 
C 1510 -4224 1453 -4877 1286 -5504 
C 1043 -6400 666 -6912 339 -7270 
C 282 -7328 282 -7341 282 -7354 
C 282 -7405 326 -7418 358 -7418 
C 454 -7418 806 -7027 883 -6938 
C 1536 -6163 1952 -5011 1952 -3584 
z
" transform="scale(0.015625)"/>
      </defs>
      <use xlink:href="#CMMI12-66" transform="scale(0.996264)"/>
      <use xlink:href="#CMMI12-15" transform="translate(48.083238 -14.943915) scale(0.697382)"/>
      <use xlink:href="#CMEX10-0" transform="translate(136.247556 80.698084) scale(0.996264)"/>
      <use xlink:href="#CMR17-31" transform="translate(181.909909 0) scale(0.996264)"/>
      <use xlink:href="#CMR17-30" transform="translate(227.600386 0) scale(0.996264)"/>
      <use xlink:href="#CMSY10-0" transform="translate(273.290864 36.153639) scale(0.697382)"/>
      <use xlink:href="#CMR17-31" transform="translate(327.531857 36.153639) scale(0.697382)"/>
      <use xlink:href="#CMR17-38" transform="translate(359.515039 36.153639) scale(0.697382)"/>
      <use xlink:href="#CMR17-57" transform="translate(408.600758 0) scale(0.996264)"/>
      <use xlink:href="#CMR17-6d" transform="translate(521.602979 0) scale(0.996264)"/>
      <use xlink:href="#CMSY10-0" transform="translate(598.522569 36.153639) scale(0.697382)"/>
      <use xlink:href="#CMR17-32" transform="translate(652.763562 36.153639) scale(0.697382)"/>
      <use xlink:href="#CMR17-6e" transform="translate(701.849282 0) scale(0.996264)"/>
      <use xlink:href="#CMR17-6d" transform="translate(752.744651 0) scale(0.996264)"/>
      <use xlink:href="#CMSY10-0" transform="translate(829.664241 36.153639) scale(0.697382)"/>
      <use xlink:href="#CMR17-31" transform="translate(883.905235 36.153639) scale(0.697382)"/>
      <use xlink:href="#CMEX10-1" transform="translate(916.386548 80.698084) scale(0.996264)"/>
     </g>
    </g>
   </g>
   <g id="line2d_81">
    <path d="M 72.426894 65.262404 
L 78.086781 31.163974 
L 83.746667 60.557577 
L 89.406554 14.463022 
L 95.066441 68.922327 
L 100.726328 42.086283 
L 106.386214 36.682506 
L 112.046101 41.3137 
L 117.705988 43.615911 
L 123.365875 72.432254 
L 129.025762 81.543327 
L 134.685648 56.114663 
L 140.345535 64.051783 
L 146.005422 72.806134 
L 151.665309 68.931173 
L 157.325195 74.68547 
L 162.985082 79.896208 
L 168.644969 82.184805 
L 174.304856 83.221622 
L 179.964742 90.130865 
L 185.624629 100.990498 
L 191.284516 100.926326 
L 196.944403 102.318665 
L 202.604289 110.043131 
L 208.264176 113.645463 
L 213.924063 122.528669 
L 219.58395 131.96001 
L 225.243836 148.323466 
L 230.903723 132.490547 
L 236.56361 135.250982 
L 242.223497 143.226059 
L 247.883384 149.240681 
L 253.54327 149.727884 
L 259.203157 157.607771 
L 264.863044 161.833562 
L 270.522931 163.443703 
L 276.182817 170.872096 
L 281.842704 174.543824 
L 287.502591 183.067449 
L 293.162478 181.2952 
L 298.822364 187.807719 
L 304.482251 187.559569 
L 310.142138 196.814441 
L 315.802025 201.248933 
L 321.461911 205.829505 
L 327.121798 207.135275 
L 332.781685 217.444471 
L 338.441572 211.671329 
L 344.101459 213.561742 
L 349.761345 210.910809 
L 355.421232 215.933156 
L 361.081119 215.602767 
L 366.741006 214.20312 
L 372.400892 223.817706 
L 378.060779 219.334034 
L 383.720666 220.86771 
L 389.380553 235.471908 
L 395.040439 232.178539 
L 400.700326 235.962626 
L 406.360213 243.718661 
L 412.0201 229.954819 
" clip-path="url(#p2e80903345)" style="fill: none; stroke: #8dd3c7; stroke-width: 1.5; stroke-linecap: square"/>
   </g>
   <g id="patch_3">
    <path d="M 55.447234 255.181443 
L 55.447234 3.00024 
" style="fill: none; stroke: #ffffff; stroke-width: 0.8; stroke-linejoin: miter; stroke-linecap: square"/>
   </g>
   <g id="patch_4">
    <path d="M 428.99976 255.181443 
L 428.99976 3.00024 
" style="fill: none; stroke: #ffffff; stroke-width: 0.8; stroke-linejoin: miter; stroke-linecap: square"/>
   </g>
   <g id="patch_5">
    <path d="M 55.447234 255.181443 
L 428.99976 255.181443 
" style="fill: none; stroke: #ffffff; stroke-width: 0.8; stroke-linejoin: miter; stroke-linecap: square"/>
   </g>
   <g id="patch_6">
    <path d="M 55.447234 3.00024 
L 428.99976 3.00024 
" style="fill: none; stroke: #ffffff; stroke-width: 0.8; stroke-linejoin: miter; stroke-linecap: square"/>
   </g>
  </g>
 </g>
 <defs>
  <clipPath id="p2e80903345">
   <rect x="55.447234" y="3.00024" width="373.552526" height="252.181203"/>
  </clipPath>
 </defs>
</svg>
