<?xml version="1.0" encoding="utf-8" standalone="no"?>
<!DOCTYPE svg PUBLIC "-//W3C//DTD SVG 1.1//EN"
  "http://www.w3.org/Graphics/SVG/1.1/DTD/svg11.dtd">
<svg xmlns:xlink="http://www.w3.org/1999/xlink" width="432pt" height="288pt" viewBox="0 0 432 288" xmlns="http://www.w3.org/2000/svg" version="1.1">
 <metadata>
  <rdf:RDF xmlns:dc="http://purl.org/dc/elements/1.1/" xmlns:cc="http://creativecommons.org/ns#" xmlns:rdf="http://www.w3.org/1999/02/22-rdf-syntax-ns#">
   <cc:Work>
    <dc:type rdf:resource="http://purl.org/dc/dcmitype/StillImage"/>
    <dc:date>2023-08-29T23:38:58.766358</dc:date>
    <dc:format>image/svg+xml</dc:format>
    <dc:creator>
     <cc:Agent>
      <dc:title>Matplotlib v3.7.1, https://matplotlib.org/</dc:title>
     </cc:Agent>
    </dc:creator>
   </cc:Work>
  </rdf:RDF>
 </metadata>
 <defs>
  <style type="text/css">*{stroke-linejoin: round; stroke-linecap: butt}</style>
 </defs>
 <g id="figure_1">
  <g id="patch_1">
   <path d="M 0 288 
L 432 288 
L 432 0 
L 0 0 
z
"/>
  </g>
  <g id="axes_1">
   <g id="patch_2">
    <path d="M 36.692959 255.181443 
L 428.99976 255.181443 
L 428.99976 3.00024 
L 36.692959 3.00024 
z
"/>
   </g>
   <g id="matplotlib.axis_1">
    <g id="xtick_1">
     <g id="line2d_1">
      <defs>
       <path id="m469d40cc7e" d="M 0 0 
L 0 3.5 
" style="stroke: #ffffff; stroke-width: 0.8"/>
      </defs>
      <g>
       <use xlink:href="#m469d40cc7e" x="73.01507" y="255.181443" style="fill: #ffffff; stroke: #ffffff; stroke-width: 0.8"/>
      </g>
     </g>
     <g id="text_1">
      <!-- $\mathdefault{385}$ -->
      <g style="fill: #ffffff" transform="translate(65.543067 269.099942) scale(0.1 -0.1)">
       <defs>
        <path id="CMR17-33" d="M 1414 2157 
C 1984 2157 2234 1662 2234 1090 
C 2234 320 1824 25 1453 25 
C 1114 25 563 194 390 693 
C 422 680 454 680 486 680 
C 640 680 755 782 755 948 
C 755 1133 614 1216 486 1216 
C 378 1216 211 1165 211 926 
C 211 335 787 -128 1466 -128 
C 2176 -128 2720 430 2720 1085 
C 2720 1707 2208 2157 1600 2227 
C 2086 2328 2554 2756 2554 3329 
C 2554 3820 2048 4179 1472 4179 
C 890 4179 378 3829 378 3329 
C 378 3110 544 3072 627 3072 
C 762 3072 877 3155 877 3321 
C 877 3486 762 3569 627 3569 
C 602 3569 570 3569 544 3557 
C 730 3959 1235 4032 1459 4032 
C 1683 4032 2106 3925 2106 3320 
C 2106 3143 2080 2828 1862 2550 
C 1670 2304 1453 2304 1242 2284 
C 1210 2284 1062 2269 1037 2269 
C 992 2263 966 2257 966 2208 
C 966 2163 973 2157 1101 2157 
L 1414 2157 
z
" transform="scale(0.015625)"/>
        <path id="CMR17-38" d="M 1741 2264 
C 2144 2467 2554 2773 2554 3263 
C 2554 3841 1990 4179 1472 4179 
C 890 4179 378 3759 378 3180 
C 378 3021 416 2747 666 2505 
C 730 2442 998 2251 1171 2130 
C 883 1983 211 1634 211 934 
C 211 279 838 -128 1459 -128 
C 2144 -128 2720 362 2720 1010 
C 2720 1590 2330 1857 2074 2029 
L 1741 2264 
z
M 902 2822 
C 851 2854 595 3051 595 3351 
C 595 3739 998 4032 1459 4032 
C 1965 4032 2336 3676 2336 3262 
C 2336 2669 1670 2331 1638 2331 
C 1632 2331 1626 2331 1574 2370 
L 902 2822 
z
M 2080 1519 
C 2176 1449 2483 1240 2483 851 
C 2483 381 2010 25 1472 25 
C 890 25 448 438 448 940 
C 448 1443 838 1862 1280 2060 
L 2080 1519 
z
" transform="scale(0.015625)"/>
        <path id="CMR17-35" d="M 730 3692 
C 794 3666 1056 3584 1325 3584 
C 1920 3584 2246 3911 2432 4100 
C 2432 4157 2432 4192 2394 4192 
C 2387 4192 2374 4192 2323 4163 
C 2099 4058 1837 3973 1517 3973 
C 1325 3973 1037 3999 723 4139 
C 653 4171 640 4171 634 4171 
C 602 4171 595 4164 595 4037 
L 595 2203 
C 595 2089 595 2057 659 2057 
C 691 2057 704 2070 736 2114 
C 941 2401 1222 2522 1542 2522 
C 1766 2522 2246 2382 2246 1289 
C 2246 1085 2246 715 2054 421 
C 1894 159 1645 25 1370 25 
C 947 25 518 320 403 814 
C 429 807 480 795 506 795 
C 589 795 749 840 749 1038 
C 749 1210 627 1280 506 1280 
C 358 1280 262 1190 262 1011 
C 262 454 704 -128 1382 -128 
C 2042 -128 2669 440 2669 1264 
C 2669 2030 2170 2624 1549 2624 
C 1222 2624 947 2503 730 2274 
L 730 3692 
z
" transform="scale(0.015625)"/>
       </defs>
       <use xlink:href="#CMR17-33" transform="scale(0.996264)"/>
       <use xlink:href="#CMR17-38" transform="translate(45.690477 0) scale(0.996264)"/>
       <use xlink:href="#CMR17-35" transform="translate(91.380954 0) scale(0.996264)"/>
      </g>
     </g>
    </g>
    <g id="xtick_2">
     <g id="line2d_2">
      <g>
       <use xlink:href="#m469d40cc7e" x="142.362937" y="255.181443" style="fill: #ffffff; stroke: #ffffff; stroke-width: 0.8"/>
      </g>
     </g>
     <g id="text_2">
      <!-- $\mathdefault{390}$ -->
      <g style="fill: #ffffff" transform="translate(134.890934 269.099942) scale(0.1 -0.1)">
       <defs>
        <path id="CMR17-39" d="M 2253 1864 
C 2253 464 1670 31 1190 31 
C 1043 31 685 31 538 294 
C 704 268 826 357 826 518 
C 826 692 685 749 595 749 
C 538 749 365 723 365 506 
C 365 71 742 -128 1203 -128 
C 1939 -128 2688 674 2688 2073 
C 2688 3817 1971 4179 1485 4179 
C 851 4179 243 3628 243 2778 
C 243 1991 762 1408 1414 1408 
C 1952 1408 2189 1903 2253 2112 
L 2253 1864 
z
M 1427 1510 
C 1254 1510 1011 1542 813 1922 
C 678 2169 678 2461 678 2771 
C 678 3146 678 3405 858 3684 
C 947 3817 1114 4032 1485 4032 
C 2240 4032 2240 2885 2240 2632 
C 2240 2182 2035 1510 1427 1510 
z
" transform="scale(0.015625)"/>
        <path id="CMR17-30" d="M 2688 2025 
C 2688 2416 2682 3080 2413 3591 
C 2176 4039 1798 4198 1466 4198 
C 1158 4198 768 4058 525 3597 
C 269 3118 243 2524 243 2025 
C 243 1661 250 1106 448 619 
C 723 -39 1216 -128 1466 -128 
C 1760 -128 2208 -7 2470 600 
C 2662 1042 2688 1559 2688 2025 
z
M 1466 -26 
C 1056 -26 813 325 723 812 
C 653 1188 653 1738 653 2096 
C 653 2588 653 2997 736 3387 
C 858 3929 1216 4096 1466 4096 
C 1728 4096 2067 3923 2189 3400 
C 2272 3036 2278 2607 2278 2096 
C 2278 1680 2278 1169 2202 792 
C 2067 95 1690 -26 1466 -26 
z
" transform="scale(0.015625)"/>
       </defs>
       <use xlink:href="#CMR17-33" transform="scale(0.996264)"/>
       <use xlink:href="#CMR17-39" transform="translate(45.690477 0) scale(0.996264)"/>
       <use xlink:href="#CMR17-30" transform="translate(91.380954 0) scale(0.996264)"/>
      </g>
     </g>
    </g>
    <g id="xtick_3">
     <g id="line2d_3">
      <g>
       <use xlink:href="#m469d40cc7e" x="211.710804" y="255.181443" style="fill: #ffffff; stroke: #ffffff; stroke-width: 0.8"/>
      </g>
     </g>
     <g id="text_3">
      <!-- $\mathdefault{395}$ -->
      <g style="fill: #ffffff" transform="translate(204.238801 269.099942) scale(0.1 -0.1)">
       <use xlink:href="#CMR17-33" transform="scale(0.996264)"/>
       <use xlink:href="#CMR17-39" transform="translate(45.690477 0) scale(0.996264)"/>
       <use xlink:href="#CMR17-35" transform="translate(91.380954 0) scale(0.996264)"/>
      </g>
     </g>
    </g>
    <g id="xtick_4">
     <g id="line2d_4">
      <g>
       <use xlink:href="#m469d40cc7e" x="281.058671" y="255.181443" style="fill: #ffffff; stroke: #ffffff; stroke-width: 0.8"/>
      </g>
     </g>
     <g id="text_4">
      <!-- $\mathdefault{400}$ -->
      <g style="fill: #ffffff" transform="translate(273.586668 269.099942) scale(0.1 -0.1)">
       <defs>
        <path id="CMR17-34" d="M 2150 4122 
C 2150 4256 2144 4256 2029 4256 
L 128 1254 
L 128 1088 
L 1779 1088 
L 1779 457 
C 1779 224 1766 160 1318 160 
L 1197 160 
L 1197 0 
C 1402 0 1747 0 1965 0 
C 2182 0 2528 0 2733 0 
L 2733 160 
L 2611 160 
C 2163 160 2150 224 2150 457 
L 2150 1088 
L 2803 1088 
L 2803 1254 
L 2150 1254 
L 2150 4122 
z
M 1798 3703 
L 1798 1254 
L 256 1254 
L 1798 3703 
z
" transform="scale(0.015625)"/>
       </defs>
       <use xlink:href="#CMR17-34" transform="scale(0.996264)"/>
       <use xlink:href="#CMR17-30" transform="translate(45.690477 0) scale(0.996264)"/>
       <use xlink:href="#CMR17-30" transform="translate(91.380954 0) scale(0.996264)"/>
      </g>
     </g>
    </g>
    <g id="xtick_5">
     <g id="line2d_5">
      <g>
       <use xlink:href="#m469d40cc7e" x="350.406538" y="255.181443" style="fill: #ffffff; stroke: #ffffff; stroke-width: 0.8"/>
      </g>
     </g>
     <g id="text_5">
      <!-- $\mathdefault{405}$ -->
      <g style="fill: #ffffff" transform="translate(342.934535 269.099942) scale(0.1 -0.1)">
       <use xlink:href="#CMR17-34" transform="scale(0.996264)"/>
       <use xlink:href="#CMR17-30" transform="translate(45.690477 0) scale(0.996264)"/>
       <use xlink:href="#CMR17-35" transform="translate(91.380954 0) scale(0.996264)"/>
      </g>
     </g>
    </g>
    <g id="xtick_6">
     <g id="line2d_6">
      <g>
       <use xlink:href="#m469d40cc7e" x="419.754405" y="255.181443" style="fill: #ffffff; stroke: #ffffff; stroke-width: 0.8"/>
      </g>
     </g>
     <g id="text_6">
      <!-- $\mathdefault{410}$ -->
      <g style="fill: #ffffff" transform="translate(412.282402 269.099942) scale(0.1 -0.1)">
       <defs>
        <path id="CMR17-31" d="M 1702 4058 
C 1702 4192 1696 4192 1606 4192 
C 1357 3916 979 3827 621 3827 
C 602 3827 570 3827 563 3808 
C 557 3795 557 3782 557 3648 
C 755 3648 1088 3686 1344 3839 
L 1344 461 
C 1344 236 1331 160 781 160 
L 589 160 
L 589 0 
C 896 0 1216 0 1523 0 
C 1830 0 2150 0 2458 0 
L 2458 160 
L 2266 160 
C 1715 160 1702 230 1702 458 
L 1702 4058 
z
" transform="scale(0.015625)"/>
       </defs>
       <use xlink:href="#CMR17-34" transform="scale(0.996264)"/>
       <use xlink:href="#CMR17-31" transform="translate(45.690477 0) scale(0.996264)"/>
       <use xlink:href="#CMR17-30" transform="translate(91.380954 0) scale(0.996264)"/>
      </g>
     </g>
    </g>
    <g id="text_7">
     <!-- Time (days) -->
     <g style="fill: #ffffff" transform="translate(207.524614 282.5091) scale(0.1 -0.1)">
      <defs>
       <path id="CMSS17-54" d="M 2317 3968 
L 2848 3968 
C 2925 3968 3002 3968 3078 3968 
L 3878 3968 
L 3878 4376 
L 218 4376 
L 218 3968 
L 1018 3968 
C 1094 3968 1171 3968 1248 3968 
L 1779 3968 
L 1779 -32 
L 2317 -32 
L 2317 3968 
z
" transform="scale(0.015625)"/>
       <path id="CMSS17-69" d="M 979 4183 
L 442 4183 
L 442 3648 
L 979 3648 
L 979 4183 
z
M 947 2739 
L 474 2739 
L 474 0 
L 947 0 
L 947 2739 
z
" transform="scale(0.015625)"/>
       <path id="CMSS17-6d" d="M 4288 1877 
C 4288 2308 4179 2816 3462 2816 
C 2982 2816 2694 2516 2566 2331 
C 2451 2670 2182 2816 1798 2816 
C 1363 2816 1088 2568 941 2389 
L 941 2758 
L 474 2758 
L 474 0 
L 960 0 
L 960 1559 
C 960 1939 1101 2428 1555 2428 
C 2138 2428 2138 2016 2138 1829 
L 2138 0 
L 2624 0 
L 2624 1559 
C 2624 1939 2765 2428 3219 2428 
C 3802 2428 3802 2016 3802 1829 
L 3802 0 
L 4288 0 
L 4288 1877 
z
" transform="scale(0.015625)"/>
       <path id="CMSS17-65" d="M 2502 1377 
C 2502 1590 2490 2003 2285 2345 
C 2061 2713 1696 2816 1421 2816 
C 755 2816 192 2188 192 1375 
C 192 582 774 -64 1510 -64 
C 1798 -64 2150 19 2470 248 
C 2470 274 2458 414 2451 420 
C 2451 433 2432 630 2432 656 
C 2125 407 1773 325 1517 325 
C 1107 325 666 667 646 1377 
L 2502 1377 
z
M 698 1728 
C 781 2084 1062 2421 1421 2421 
C 1517 2421 1965 2421 2080 1728 
L 698 1728 
z
" transform="scale(0.015625)"/>
       <path id="CMSS17-28" d="M 1613 4768 
C 1267 4417 474 3601 474 1588 
C 474 -433 1267 -1243 1613 -1600 
L 2003 -1600 
C 1216 -784 960 357 960 1581 
C 960 2798 1203 3946 2003 4768 
L 1613 4768 
z
" transform="scale(0.015625)"/>
       <path id="CMSS17-64" d="M 2611 4416 
L 2138 4416 
L 2138 2438 
C 1939 2603 1613 2756 1254 2756 
C 672 2756 211 2131 211 1347 
C 211 562 666 -64 1235 -64 
C 1677 -64 1971 172 2125 306 
L 2125 -13 
L 2611 -13 
L 2611 4416 
z
M 2125 836 
C 2125 747 2125 653 1926 482 
C 1798 375 1645 325 1498 325 
C 1152 325 698 576 698 1340 
C 698 2134 1210 2368 1562 2368 
C 1798 2368 1990 2254 2125 2065 
L 2125 836 
z
" transform="scale(0.015625)"/>
       <path id="CMSS17-61" d="M 2406 1791 
C 2406 2392 1978 2808 1402 2808 
C 1120 2808 813 2757 461 2553 
L 499 2135 
C 659 2248 934 2432 1395 2432 
C 1722 2432 1920 2180 1920 1782 
L 1920 1536 
C 896 1536 256 1238 256 726 
C 256 461 416 -64 947 -64 
C 1043 -64 1562 -64 1933 217 
L 1933 -19 
L 2406 -19 
L 2406 1791 
z
M 1920 816 
C 1920 701 1920 548 1728 434 
C 1562 325 1350 325 1261 325 
C 941 325 723 511 723 744 
C 723 1211 1722 1211 1920 1211 
L 1920 816 
z
" transform="scale(0.015625)"/>
       <path id="CMSS17-79" d="M 2675 2752 
L 2176 2752 
C 1632 1294 1446 702 1434 383 
L 1427 383 
C 1408 696 1126 1460 902 2007 
L 602 2752 
L 83 2752 
L 1216 13 
C 1146 -178 1043 -465 1011 -529 
C 870 -885 774 -885 672 -885 
C 646 -885 442 -885 211 -809 
L 250 -1229 
C 410 -1261 570 -1280 685 -1280 
C 845 -1280 1165 -1280 1459 -497 
L 2675 2752 
z
" transform="scale(0.015625)"/>
       <path id="CMSS17-73" d="M 2061 2627 
C 1683 2807 1389 2807 1197 2807 
C 742 2807 198 2648 198 2003 
C 198 1359 902 1218 1094 1179 
C 1389 1122 1715 1058 1715 740 
C 1715 337 1254 337 1171 337 
C 915 337 563 407 243 638 
L 166 210 
C 531 0 883 -64 1178 -64 
C 1965 -64 2163 416 2163 781 
C 2163 1094 1984 1305 1862 1401 
C 1651 1568 1574 1587 1050 1696 
C 960 1709 646 1779 646 2066 
C 646 2432 1050 2432 1139 2432 
C 1555 2432 1811 2303 1984 2208 
L 2061 2627 
z
" transform="scale(0.015625)"/>
       <path id="CMSS17-29" d="M 723 -1600 
C 1069 -1249 1862 -433 1862 1581 
C 1862 3601 1069 4411 723 4768 
L 333 4768 
C 1120 3952 1376 2811 1376 1588 
C 1376 370 1133 -778 333 -1600 
L 723 -1600 
z
" transform="scale(0.015625)"/>
      </defs>
      <use xlink:href="#CMSS17-54" transform="scale(0.996264)"/>
      <use xlink:href="#CMSS17-69" transform="translate(63.819454 0) scale(0.996264)"/>
      <use xlink:href="#CMSS17-6d" transform="translate(86.000177 0) scale(0.996264)"/>
      <use xlink:href="#CMSS17-65" transform="translate(160.229431 0) scale(0.996264)"/>
      <use xlink:href="#CMSS17-28" transform="translate(233.097366 0) scale(0.996264)"/>
      <use xlink:href="#CMSS17-64" transform="translate(269.53128 0) scale(0.996264)"/>
      <use xlink:href="#CMSS17-61" transform="translate(317.736224 0) scale(0.996264)"/>
      <use xlink:href="#CMSS17-79" transform="translate(360.05569 0) scale(0.996264)"/>
      <use xlink:href="#CMSS17-73" transform="translate(403.055832 0) scale(0.996264)"/>
      <use xlink:href="#CMSS17-29" transform="translate(438.969374 0) scale(0.996264)"/>
     </g>
    </g>
    <g id="text_8">
     <!-- $\mathdefault{+2.458 \times 10^{6}}$ -->
     <g style="fill: #ffffff" transform="translate(372.447883 281.039775) scale(0.1 -0.1)">
      <defs>
       <path id="CMR17-2b" d="M 2413 1472 
L 4109 1472 
C 4198 1472 4307 1472 4307 1580 
C 4307 1695 4205 1695 4109 1695 
L 2413 1695 
L 2413 3386 
C 2413 3475 2413 3584 2304 3584 
C 2189 3584 2189 3482 2189 3386 
L 2189 1695 
L 493 1695 
C 403 1695 294 1695 294 1587 
C 294 1472 397 1472 493 1472 
L 2189 1472 
L 2189 -218 
C 2189 -307 2189 -416 2298 -416 
C 2413 -416 2413 -314 2413 -218 
L 2413 1472 
z
" transform="scale(0.015625)"/>
       <path id="CMR17-32" d="M 2669 989 
L 2554 989 
C 2490 536 2438 459 2413 420 
C 2381 369 1920 369 1830 369 
L 602 369 
C 832 619 1280 1072 1824 1597 
C 2214 1967 2669 2402 2669 3035 
C 2669 3790 2067 4224 1395 4224 
C 691 4224 262 3604 262 3030 
C 262 2780 448 2748 525 2748 
C 589 2748 781 2787 781 3010 
C 781 3207 614 3264 525 3264 
C 486 3264 448 3258 422 3245 
C 544 3790 915 4058 1306 4058 
C 1862 4058 2227 3617 2227 3035 
C 2227 2479 1901 2000 1536 1584 
L 262 146 
L 262 0 
L 2515 0 
L 2669 989 
z
" transform="scale(0.015625)"/>
       <path id="CMMI12-3a" d="M 1178 307 
C 1178 492 1024 619 870 619 
C 685 619 557 466 557 313 
C 557 128 710 0 864 0 
C 1050 0 1178 153 1178 307 
z
" transform="scale(0.015625)"/>
       <path id="CMSY10-2" d="M 2490 1785 
L 1210 3059 
C 1133 3136 1120 3148 1069 3148 
C 1005 3148 941 3091 941 3020 
C 941 2976 954 2963 1024 2892 
L 2304 1606 
L 1024 320 
C 954 249 941 236 941 192 
C 941 121 1005 64 1069 64 
C 1120 64 1133 76 1210 153 
L 2483 1427 
L 3808 102 
C 3821 96 3866 64 3904 64 
C 3981 64 4032 121 4032 192 
C 4032 204 4032 230 4013 262 
C 4006 275 2989 1280 2669 1606 
L 3840 2777 
C 3872 2816 3968 2899 4000 2937 
C 4006 2950 4032 2976 4032 3020 
C 4032 3091 3981 3148 3904 3148 
C 3853 3148 3827 3123 3757 3052 
L 2490 1785 
z
" transform="scale(0.015625)"/>
       <path id="CMR17-36" d="M 678 2176 
C 678 3690 1395 4032 1811 4032 
C 1946 4032 2272 4009 2400 3776 
C 2298 3776 2106 3776 2106 3553 
C 2106 3381 2246 3323 2336 3323 
C 2394 3323 2566 3348 2566 3560 
C 2566 3954 2246 4179 1805 4179 
C 1043 4179 243 3390 243 1984 
C 243 253 966 -128 1478 -128 
C 2099 -128 2688 427 2688 1283 
C 2688 2081 2170 2662 1517 2662 
C 1126 2662 838 2407 678 1960 
L 678 2176 
z
M 1478 25 
C 691 25 691 1200 691 1436 
C 691 1896 909 2560 1504 2560 
C 1613 2560 1926 2560 2138 2120 
C 2253 1870 2253 1609 2253 1289 
C 2253 944 2253 690 2118 434 
C 1978 171 1773 25 1478 25 
z
" transform="scale(0.015625)"/>
      </defs>
      <use xlink:href="#CMR17-2b" transform="scale(0.996264)"/>
      <use xlink:href="#CMR17-32" transform="translate(71.714788 0) scale(0.996264)"/>
      <use xlink:href="#CMMI12-3a" transform="translate(117.405266 0) scale(0.996264)"/>
      <use xlink:href="#CMR17-34" transform="translate(144.502443 0) scale(0.996264)"/>
      <use xlink:href="#CMR17-35" transform="translate(190.19292 0) scale(0.996264)"/>
      <use xlink:href="#CMR17-38" transform="translate(235.883397 0) scale(0.996264)"/>
      <use xlink:href="#CMSY10-2" transform="translate(303.713081 0) scale(0.996264)"/>
      <use xlink:href="#CMR17-31" transform="translate(403.339756 0) scale(0.996264)"/>
      <use xlink:href="#CMR17-30" transform="translate(449.030233 0) scale(0.996264)"/>
      <use xlink:href="#CMR17-36" transform="translate(494.72071 36.153639) scale(0.697382)"/>
     </g>
    </g>
   </g>
   <g id="matplotlib.axis_2">
    <g id="ytick_1">
     <g id="line2d_7">
      <defs>
       <path id="m3a6b01cae7" d="M 0 0 
L -3.5 0 
" style="stroke: #ffffff; stroke-width: 0.8"/>
      </defs>
      <g>
       <use xlink:href="#m3a6b01cae7" x="36.692959" y="45.496962" style="fill: #ffffff; stroke: #ffffff; stroke-width: 0.8"/>
      </g>
     </g>
     <g id="text_9">
      <!-- $\mathdefault{2.9}$ -->
      <g style="fill: #ffffff" transform="translate(16.96288 48.956211) scale(0.1 -0.1)">
       <use xlink:href="#CMR17-32" transform="scale(0.996264)"/>
       <use xlink:href="#CMMI12-3a" transform="translate(45.690477 0) scale(0.996264)"/>
       <use xlink:href="#CMR17-39" transform="translate(72.787654 0) scale(0.996264)"/>
      </g>
     </g>
    </g>
    <g id="ytick_2">
     <g id="line2d_8">
      <g>
       <use xlink:href="#m3a6b01cae7" x="36.692959" y="96.67023" style="fill: #ffffff; stroke: #ffffff; stroke-width: 0.8"/>
      </g>
     </g>
     <g id="text_10">
      <!-- $\mathdefault{3.0}$ -->
      <g style="fill: #ffffff" transform="translate(16.96288 100.129479) scale(0.1 -0.1)">
       <use xlink:href="#CMR17-33" transform="scale(0.996264)"/>
       <use xlink:href="#CMMI12-3a" transform="translate(45.690477 0) scale(0.996264)"/>
       <use xlink:href="#CMR17-30" transform="translate(72.787654 0) scale(0.996264)"/>
      </g>
     </g>
    </g>
    <g id="ytick_3">
     <g id="line2d_9">
      <g>
       <use xlink:href="#m3a6b01cae7" x="36.692959" y="147.843497" style="fill: #ffffff; stroke: #ffffff; stroke-width: 0.8"/>
      </g>
     </g>
     <g id="text_11">
      <!-- $\mathdefault{3.1}$ -->
      <g style="fill: #ffffff" transform="translate(16.96288 151.302747) scale(0.1 -0.1)">
       <use xlink:href="#CMR17-33" transform="scale(0.996264)"/>
       <use xlink:href="#CMMI12-3a" transform="translate(45.690477 0) scale(0.996264)"/>
       <use xlink:href="#CMR17-31" transform="translate(72.787654 0) scale(0.996264)"/>
      </g>
     </g>
    </g>
    <g id="ytick_4">
     <g id="line2d_10">
      <g>
       <use xlink:href="#m3a6b01cae7" x="36.692959" y="199.016765" style="fill: #ffffff; stroke: #ffffff; stroke-width: 0.8"/>
      </g>
     </g>
     <g id="text_12">
      <!-- $\mathdefault{3.2}$ -->
      <g style="fill: #ffffff" transform="translate(16.96288 202.476014) scale(0.1 -0.1)">
       <use xlink:href="#CMR17-33" transform="scale(0.996264)"/>
       <use xlink:href="#CMMI12-3a" transform="translate(45.690477 0) scale(0.996264)"/>
       <use xlink:href="#CMR17-32" transform="translate(72.787654 0) scale(0.996264)"/>
      </g>
     </g>
    </g>
    <g id="ytick_5">
     <g id="line2d_11">
      <g>
       <use xlink:href="#m3a6b01cae7" x="36.692959" y="250.190033" style="fill: #ffffff; stroke: #ffffff; stroke-width: 0.8"/>
      </g>
     </g>
     <g id="text_13">
      <!-- $\mathdefault{3.3}$ -->
      <g style="fill: #ffffff" transform="translate(16.96288 253.649282) scale(0.1 -0.1)">
       <use xlink:href="#CMR17-33" transform="scale(0.996264)"/>
       <use xlink:href="#CMMI12-3a" transform="translate(45.690477 0) scale(0.996264)"/>
       <use xlink:href="#CMR17-33" transform="translate(72.787654 0) scale(0.996264)"/>
      </g>
     </g>
    </g>
    <g id="text_14">
     <!-- Brightness (magnitudes) -->
     <g style="fill: #ffffff" transform="translate(10.47222 179.983391) rotate(-90) scale(0.1 -0.1)">
      <defs>
       <path id="CMSS17-42" d="M 570 4416 
L 570 0 
L 2163 0 
C 3034 0 3667 574 3667 1200 
C 3667 1685 3251 2176 2502 2317 
C 3334 2558 3501 3040 3501 3313 
C 3501 3883 2874 4416 1997 4416 
L 570 4416 
z
M 1088 2496 
L 1088 4059 
L 1824 4059 
C 2483 4059 3002 3724 3002 3306 
C 3002 2926 2592 2496 1766 2496 
L 1088 2496 
z
M 1088 357 
L 1088 2107 
L 1939 2107 
C 2630 2107 3162 1679 3162 1206 
C 3162 772 2694 357 1984 357 
L 1088 357 
z
" transform="scale(0.015625)"/>
       <path id="CMSS17-72" d="M 954 1363 
C 954 1965 1395 2368 1958 2368 
L 1958 2789 
C 1549 2789 1165 2585 934 2253 
L 934 2758 
L 480 2758 
L 480 0 
L 954 0 
L 954 1363 
z
" transform="scale(0.015625)"/>
       <path id="CMSS17-67" d="M 2848 2808 
C 2483 2808 2170 2738 1914 2617 
C 1702 2777 1485 2808 1338 2808 
C 781 2808 358 2349 358 1814 
C 358 1468 550 1207 563 1195 
C 448 1035 384 863 384 672 
C 384 448 474 289 544 200 
C 211 -3 166 -314 166 -435 
C 166 -898 749 -1280 1498 -1280 
C 2253 -1280 2835 -898 2835 -428 
C 2835 448 1856 448 1587 448 
L 1069 448 
C 973 448 717 448 717 791 
C 717 921 774 1004 781 1010 
C 877 940 1075 832 1338 832 
C 1869 832 2310 1278 2310 1827 
C 2310 2132 2170 2355 2112 2432 
L 2131 2432 
C 2150 2432 2419 2432 2515 2432 
C 2720 2432 2739 2429 2918 2419 
L 2848 2808 
z
M 1338 1182 
C 1120 1182 813 1315 813 1823 
C 813 2375 1165 2464 1331 2464 
C 1549 2464 1856 2331 1856 1823 
C 1856 1271 1504 1182 1338 1182 
z
M 1581 -10 
C 1734 -10 2381 -10 2381 -442 
C 2381 -714 1984 -929 1504 -929 
C 1018 -929 621 -720 621 -435 
C 621 -403 621 -10 1062 -10 
L 1581 -10 
z
" transform="scale(0.015625)"/>
       <path id="CMSS17-68" d="M 2618 1891 
C 2618 2292 2522 2820 1798 2820 
C 1395 2820 1133 2623 947 2407 
L 947 4448 
L 474 4448 
L 474 32 
L 960 32 
L 960 1573 
C 960 1973 1114 2432 1549 2432 
C 2112 2432 2131 2056 2131 1839 
L 2131 32 
L 2618 32 
L 2618 1891 
z
" transform="scale(0.015625)"/>
       <path id="CMSS17-74" d="M 1069 2368 
L 1901 2368 
L 1901 2737 
L 1069 2737 
L 1069 3520 
L 614 3520 
L 614 2737 
L 109 2737 
L 109 2368 
L 602 2368 
L 602 749 
C 602 384 685 -64 1107 -64 
C 1427 -64 1722 25 2003 172 
L 1901 548 
C 1747 414 1562 337 1363 337 
C 1082 337 1069 696 1069 856 
L 1069 2368 
z
" transform="scale(0.015625)"/>
       <path id="CMSS17-6e" d="M 2618 1877 
C 2618 2283 2522 2816 1798 2816 
C 1389 2816 1120 2606 941 2389 
L 941 2758 
L 474 2758 
L 474 0 
L 960 0 
L 960 1559 
C 960 1964 1114 2428 1549 2428 
C 2112 2428 2131 2048 2131 1829 
L 2131 0 
L 2618 0 
L 2618 1877 
z
" transform="scale(0.015625)"/>
       <path id="CMSS17-75" d="M 2618 2739 
L 2131 2739 
L 2131 972 
C 2131 498 1786 306 1421 306 
C 998 306 960 447 960 709 
L 960 2739 
L 474 2739 
L 474 678 
C 474 179 646 -64 1088 -64 
C 1306 -64 1798 -13 2144 306 
L 2144 0 
L 2618 0 
L 2618 2739 
z
" transform="scale(0.015625)"/>
      </defs>
      <use xlink:href="#CMSS17-42" transform="scale(0.996264)"/>
      <use xlink:href="#CMSS17-72" transform="translate(62.33804 0) scale(0.996264)"/>
      <use xlink:href="#CMSS17-69" transform="translate(94.247813 0) scale(0.996264)"/>
      <use xlink:href="#CMSS17-67" transform="translate(116.428536 0) scale(0.996264)"/>
      <use xlink:href="#CMSS17-68" transform="translate(163.272159 0) scale(0.996264)"/>
      <use xlink:href="#CMSS17-74" transform="translate(211.477102 0) scale(0.996264)"/>
      <use xlink:href="#CMSS17-6e" transform="translate(245.308669 0) scale(0.996264)"/>
      <use xlink:href="#CMSS17-65" transform="translate(293.513612 0) scale(0.996264)"/>
      <use xlink:href="#CMSS17-73" transform="translate(335.152434 0) scale(0.996264)"/>
      <use xlink:href="#CMSS17-73" transform="translate(371.065976 0) scale(0.996264)"/>
      <use xlink:href="#CMSS17-28" transform="translate(438.208631 0) scale(0.996264)"/>
      <use xlink:href="#CMSS17-6d" transform="translate(474.642545 0) scale(0.996264)"/>
      <use xlink:href="#CMSS17-61" transform="translate(548.8718 0) scale(0.996264)"/>
      <use xlink:href="#CMSS17-67" transform="translate(593.79372 0) scale(0.996264)"/>
      <use xlink:href="#CMSS17-6e" transform="translate(640.637344 0) scale(0.996264)"/>
      <use xlink:href="#CMSS17-69" transform="translate(688.842287 0) scale(0.996264)"/>
      <use xlink:href="#CMSS17-74" transform="translate(711.02301 0) scale(0.996264)"/>
      <use xlink:href="#CMSS17-75" transform="translate(744.854577 0) scale(0.996264)"/>
      <use xlink:href="#CMSS17-64" transform="translate(793.05952 0) scale(0.996264)"/>
      <use xlink:href="#CMSS17-65" transform="translate(841.264463 0) scale(0.996264)"/>
      <use xlink:href="#CMSS17-73" transform="translate(882.903285 0) scale(0.996264)"/>
      <use xlink:href="#CMSS17-29" transform="translate(918.816827 0) scale(0.996264)"/>
     </g>
    </g>
   </g>
   <g id="line2d_12">
    <path d="M 54.525086 131.178923 
L 54.679194 129.224104 
L 54.698457 129.329521 
L 54.756248 129.130969 
L 54.794775 129.180095 
L 55.199307 127.320458 
L 55.237834 127.550738 
L 55.314888 126.694609 
L 55.372678 126.816913 
L 55.449732 126.015028 
L 55.507523 126.138868 
L 55.757947 124.765377 
L 55.777211 124.855442 
L 55.796474 124.586782 
L 56.123953 123.232738 
L 56.143217 123.492698 
L 56.201007 122.969707 
L 56.66333 121.276384 
L 56.740384 121.304017 
L 57.453132 118.481812 
L 57.472395 118.618444 
L 57.510922 118.190124 
L 57.78061 117.383633 
L 57.915454 116.923586 
L 57.934718 116.98397 
L 58.22367 116.037265 
L 58.28146 115.84383 
L 58.493358 115.292694 
L 58.801573 114.333707 
L 58.820837 114.652516 
L 58.878627 114.198097 
L 58.897891 114.213961 
L 59.244633 113.068703 
L 59.263896 113.246275 
L 59.302423 113.169515 
L 59.321687 113.199707 
L 59.495058 112.632195 
L 59.572112 112.573346 
L 59.610639 112.835353 
L 59.745483 112.143491 
L 60.053698 111.543228 
L 60.072962 111.638922 
L 60.092225 111.328301 
L 60.111488 111.363098 
L 60.227069 111.074993 
L 60.265596 111.237724 
L 60.28486 111.448046 
L 60.34265 110.924032 
L 60.361913 110.917379 
L 60.419704 110.941942 
L 60.496758 110.608804 
L 60.516021 110.673283 
L 60.535284 110.405647 
L 60.573811 110.560702 
L 60.708656 110.127776 
L 60.747183 110.136987 
L 60.766446 110.537674 
L 60.8435 110.094001 
L 60.978344 109.652888 
L 60.997607 109.773145 
L 61.055398 109.877538 
L 61.170979 109.383205 
L 61.190242 109.960951 
L 61.267296 109.37297 
L 61.440667 109.032156 
L 61.45993 109.058766 
L 62.615738 107.619262 
L 62.635001 107.70421 
L 62.692792 107.459601 
L 62.712055 107.551713 
L 62.846899 107.331157 
L 62.923953 107.405358 
L 62.943216 107.463184 
L 62.96248 107.276913 
L 63.001007 107.131069 
L 63.02027 107.200153 
L 63.386276 107.331157 
L 63.501857 106.614731 
L 63.52112 106.69712 
L 63.578911 106.666416 
L 63.598174 106.890043 
L 63.675228 106.579421 
L 63.694491 106.733453 
L 63.829335 106.383939 
L 63.848599 106.58505 
L 63.906389 106.320996 
L 63.925653 106.421296 
L 63.983443 106.101975 
L 64.002707 106.626501 
L 64.099024 106.312809 
L 64.156814 106.144449 
L 64.176078 106.445859 
L 64.214605 106.240654 
L 64.272395 106.331231 
L 64.368712 105.925939 
L 64.426503 106.129097 
L 64.445766 105.780607 
L 64.46503 105.897282 
L 64.619137 105.707941 
L 64.503556 105.981718 
L 64.638401 105.809775 
L 64.696191 105.770884 
L 64.773245 105.84355 
L 64.811772 105.643974 
L 64.869562 105.855831 
L 64.888826 105.632204 
L 64.946616 105.439793 
L 64.965879 105.759626 
L 65.02367 105.39476 
L 65.042933 105.457703 
L 65.254831 105.30623 
L 65.274095 105.508877 
L 65.351148 105.19979 
L 65.389675 105.09335 
L 65.505256 105.55135 
L 65.58231 104.999703 
L 65.620837 105.200302 
L 65.697891 104.934712 
L 65.659364 105.304695 
L 65.755681 105.152199 
L 65.851998 104.882516 
L 65.871262 104.711597 
L 65.890525 104.938806 
L 65.967579 104.818549 
L 66.02537 105.451562 
L 66.044633 104.796545 
L 66.063896 104.87484 
L 66.198741 104.479782 
L 66.218004 104.494111 
L 66.352848 104.155344 
L 66.391375 104.556542 
L 66.468429 104.27253 
L 66.6418 103.943486 
L 66.680327 104.584176 
L 66.738117 103.896919 
L 67.181177 103.4425 
L 67.316021 103.176399 
L 67.335284 103.229619 
L 67.720554 102.557714 
L 67.739817 102.489654 
L 67.778344 102.543897 
L 67.797607 102.711746 
L 67.874661 102.463555 
L 67.932452 102.480443 
L 68.009505 102.150375 
L 68.028769 102.273703 
L 68.067296 102.001972 
L 68.125086 102.205642 
L 68.25993 101.698515 
L 68.317721 101.736383 
L 68.433302 101.391475 
L 68.529619 101.201623 
L 68.548882 101.26866 
L 68.683726 100.959061 
L 68.876361 100.474962 
L 69.646899 98.620443 
L 69.666163 98.660358 
L 69.685426 98.761681 
L 69.70469 98.401421 
L 69.723953 98.436219 
L 69.878061 97.850285 
L 69.897324 97.908111 
L 70.109222 97.190662 
L 70.128485 97.190662 
L 70.282593 96.691211 
L 70.301857 96.735732 
L 70.32112 96.604216 
L 70.76418 95.022451 
L 70.783443 95.292134 
L 70.841233 94.729739 
L 71.053131 93.997962 
L 71.130185 93.640772 
L 73.229902 83.670685 
L 75.194774 71.517033 
L 75.368145 70.259706 
L 75.387409 70.436766 
L 75.406672 71.556437 
L 75.464462 69.715734 
L 75.483726 69.719828 
L 75.657097 68.335591 
L 76.601006 61.74908 
L 76.870694 59.712384 
L 77.005539 58.764655 
L 77.275227 56.742799 
L 77.352281 56.244884 
L 77.987975 51.762617 
L 78.007238 51.809696 
L 78.026502 51.605003 
L 78.257663 49.817521 
L 78.315453 49.494106 
L 78.642932 47.291609 
L 79.374943 42.414284 
L 79.663895 40.521897 
L 79.683159 40.640107 
L 79.721685 40.448208 
L 79.991374 38.59113 
L 80.106954 38.030271 
L 80.338116 36.657292 
L 80.357379 37.184377 
L 80.41517 36.17831 
L 80.627068 35.091902 
L 80.646331 35.097531 
L 80.800439 34.248054 
L 80.819702 34.238331 
L 81.012337 33.101261 
L 81.204971 32.259973 
L 81.378342 31.365464 
L 81.59024 30.328694 
L 81.628767 30.263192 
L 81.898455 29.207999 
L 81.917719 29.254055 
L 82.052563 28.440912 
L 82.071827 28.461893 
L 82.09109 28.51716 
L 82.129617 28.296092 
L 82.168144 28.355453 
L 82.64973 26.491211 
L 82.668993 26.633472 
L 82.70752 26.331038 
L 82.746047 26.432873 
L 82.900155 25.707748 
L 82.919418 25.84438 
L 82.977209 25.578791 
L 83.034999 25.643781 
L 83.054262 25.406849 
L 83.20837 25.016909 
L 83.227634 25.081899 
L 83.246897 25.018444 
L 83.381741 24.576307 
L 83.420268 24.717545 
L 83.458795 24.53588 
L 83.478058 24.557373 
L 83.612903 24.141334 
L 83.632166 24.515411 
L 83.728483 24.494941 
L 83.844064 23.834806 
L 83.863327 23.993955 
L 83.921118 24.016983 
L 83.998172 23.698685 
L 84.229333 23.335867 
L 84.26786 23.416209 
L 84.287123 23.564611 
L 84.306387 23.299022 
L 84.364177 23.343031 
L 84.460494 23.228403 
L 84.499021 23.266271 
L 84.518285 23.535954 
L 84.614602 23.411092 
L 84.633865 23.397275 
L 84.730183 23.194629 
L 84.749446 23.197699 
L 84.787973 23.481199 
L 84.865027 23.410068 
L 84.94208 23.486316 
L 84.980608 23.111728 
L 85.076925 23.631137 
L 85.096188 23.371176 
L 85.115452 23.260642 
L 85.134715 23.385505 
L 85.963043 24.569654 
L 86.040097 24.0308 
L 86.097888 24.086067 
L 86.251995 24.404365 
L 86.386839 24.681724 
L 86.50242 25.051195 
L 86.521683 25.043519 
L 86.56021 25.029702 
L 86.579474 25.081387 
L 86.829899 25.946727 
L 86.868426 25.902718 
L 86.945479 26.018881 
L 87.11885 26.651383 
L 87.138114 26.62989 
L 87.330748 27.243458 
L 87.350012 27.231688 
L 92.185137 46.829002 
L 92.570406 47.969143 
L 92.76304 48.523349 
L 92.820831 48.540236 
L 93.013465 49.095466 
L 93.456524 50.18341 
L 93.475788 50.128655 
L 93.533578 50.205414 
L 93.706949 50.667509 
L 93.726213 50.614801 
L 95.248025 52.988217 
L 95.267288 52.904804 
L 96.480885 54.184136 
L 96.500149 54.005541 
L 96.577202 54.224051 
L 96.615729 54.269084 
L 96.634993 54.218422 
L 96.750574 54.420045 
L 96.808364 54.329468 
L 96.827627 54.486058 
L 96.846891 54.437444 
L 96.866154 54.460472 
L 96.885418 54.709685 
L 96.981735 54.561795 
L 97.000998 54.542349 
L 97.020262 54.667212 
L 97.039525 54.807938 
L 97.058789 54.577147 
L 97.135842 54.760859 
L 97.174369 54.774164 
L 97.193633 54.623203 
L 97.23216 54.814079 
L 97.270687 54.808962 
L 97.28995 54.913867 
L 97.34774 54.790539 
L 97.386267 54.848877 
L 97.405531 54.838642 
L 97.521111 55.092973 
L 97.540375 55.021331 
L 97.598165 55.101673 
L 97.713746 55.189179 
L 97.733009 55.177409 
L 97.810063 55.30176 
L 97.829326 55.471655 
L 97.84859 55.268498 
L 97.925644 55.341164 
L 97.983434 55.506453 
L 98.041224 55.438905 
L 98.099015 55.475749 
L 98.195332 55.709099 
L 98.214595 55.548927 
L 98.349439 55.752597 
L 98.368703 55.713705 
L 98.40723 55.789441 
L 98.426493 55.779207 
L 98.599864 56.021768 
L 98.619128 55.908675 
L 98.696181 56.107739 
L 98.715445 56.052984 
L 98.734708 56.152772 
L 98.792499 56.14049 
L 98.927343 56.306291 
L 99.466719 56.780668 
L 99.601563 56.965403 
L 99.659353 56.919859 
L 99.871251 57.246344 
L 99.890515 57.174702 
L 99.967569 57.284724 
L 100.275784 57.741702 
L 100.295047 57.685923 
L 100.31431 57.597393 
L 100.372101 57.838931 
L 100.391364 57.820508 
L 100.410628 57.90085 
L 100.429891 57.909038 
L 100.603262 58.333265 
L 100.487682 57.890616 
L 100.622526 58.238082 
L 100.661052 58.124478 
L 100.738106 58.140853 
L 100.930741 58.511348 
L 100.950004 58.46785 
L 100.969268 58.551263 
L 100.988531 58.521582 
L 101.181165 58.919198 
L 101.200429 58.848579 
L 101.238956 59.022568 
L 101.277483 58.928921 
L 101.412327 59.137197 
L 101.470117 59.301975 
L 101.48938 59.430419 
L 101.585698 59.372082 
L 101.797595 59.637671 
L 101.913176 59.98872 
L 101.93244 59.949828 
L 101.951703 59.889955 
L 101.99023 60.075714 
L 102.009493 60.036311 
L 102.202128 60.498917 
L 102.221391 60.345909 
L 102.298445 60.545997 
L 102.336972 60.488171 
L 102.433289 60.947195 
L 102.491079 60.770647 
L 102.54887 60.852525 
L 102.799294 61.387285 
L 102.818558 61.343276 
L 102.953402 61.708142 
L 102.972665 61.610912 
L 103.030456 61.783366 
L 103.049719 61.778761 
L 103.800993 63.256133 
L 103.897311 63.470549 
L 103.916574 63.463385 
L 103.955101 63.395324 
L 103.974364 63.534515 
L 103.993628 63.504835 
L 104.706375 65.046174 
L 104.860483 65.398246 
L 104.899009 65.483705 
L 104.976063 65.757482 
L 104.995327 65.624943 
L 105.110907 66.491307 
L 105.130171 65.93403 
L 105.226488 66.148446 
L 105.476913 66.839797 
L 105.496176 66.783506 
L 105.534703 66.959031 
L 105.553966 66.897623 
L 105.57323 66.902228 
L 105.669547 67.402703 
L 105.708074 67.295239 
L 105.919972 67.736864 
L 106.093343 68.253714 
L 106.921671 70.217233 
L 107.210622 70.936217 
L 107.441783 71.648037 
L 107.48031 71.68744 
L 108.058213 73.270741 
L 108.077477 73.243108 
L 108.250848 73.912966 
L 108.289375 73.832624 
L 108.327902 73.977444 
L 108.636116 74.832038 
L 108.693907 74.997839 
L 109.079176 76.127233 
L 109.098439 76.112393 
L 109.291073 76.78481 
L 111.101836 82.287983 
L 111.294471 82.919973 
L 111.313734 82.891316 
L 111.448578 83.302237 
L 113.991352 91.779089 
L 114.145459 92.314361 
L 114.164723 92.287751 
L 114.338094 92.916671 
L 114.434411 93.250832 
L 115.012314 95.331025 
L 115.031577 95.296739 
L 115.204948 95.979391 
L 115.224212 95.972226 
L 115.4939 96.984434 
L 115.55169 97.190662 
L 116.746023 101.51685 
L 117.208345 103.225525 
L 117.266136 103.315079 
L 117.439506 104.152273 
L 117.45877 104.079607 
L 117.51656 104.280206 
L 118.152254 106.717077 
L 118.171517 106.709401 
L 118.19078 106.808678 
L 119.905226 113.280561 
L 119.943753 113.412076 
L 120.425338 115.30037 
L 120.483129 115.523997 
L 120.887661 117.160006 
L 120.906924 117.154377 
L 120.926188 117.250583 
L 121.080295 117.819118 
L 121.4463 119.327706 
L 121.484827 119.427494 
L 121.715988 120.512879 
L 121.754515 120.476034 
L 121.870096 120.893096 
L 122.06273 121.808586 
L 122.081993 121.435021 
L 122.139784 122.038865 
L 122.313155 122.770643 
L 122.602106 123.828906 
L 122.929584 125.311396 
L 122.948848 125.274551 
L 122.968111 125.343123 
L 123.391907 127.094273 
L 123.41117 127.079944 
L 123.430434 127.200713 
L 123.738648 128.501537 
L 123.777175 128.601325 
L 124.066127 129.743513 
L 124.990771 133.54671 
L 125.144879 134.330173 
L 125.164142 134.299469 
L 125.183406 134.403862 
L 125.356776 135.143316 
L 125.607201 136.076716 
L 125.838362 137.113487 
L 125.934679 137.529014 
L 130.307477 156.084952 
L 130.384531 157.742454 
L 130.423057 156.544488 
L 130.480848 156.703125 
L 130.731272 157.845824 
L 130.769799 158.020837 
L 131.347702 160.56159 
L 131.366965 160.555449 
L 131.521073 161.320489 
L 131.5596 161.465309 
L 132.368663 164.969655 
L 132.580561 165.826295 
L 132.734668 166.589289 
L 132.908039 167.680303 
L 132.965829 167.598426 
L 132.985093 167.595867 
L 133.158464 168.372165 
L 133.717103 170.69799 
L 133.986791 172.077622 
L 134.006054 172.014167 
L 134.121635 172.467562 
L 134.217952 173.937258 
L 134.352796 173.590304 
L 134.372059 173.603097 
L 134.60322 174.656754 
L 134.834382 175.531817 
L 135.027016 176.43349 
L 136.182821 181.41572 
L 136.336928 182.022635 
L 136.606616 183.21139 
L 136.645143 183.377703 
L 136.991885 184.905736 
L 137.030412 184.974309 
L 139.014544 193.260284 
L 139.033807 193.265401 
L 139.245705 194.314453 
L 139.264968 194.243834 
L 139.303495 194.370744 
L 139.457602 195.042137 
L 139.6695 195.805642 
L 140.632671 199.966029 
L 140.671198 199.903086 
L 140.690461 200.019761 
L 140.863832 200.699342 
L 141.152783 201.765281 
L 141.306891 202.511387 
L 141.345417 202.549767 
L 142.674593 207.810891 
L 142.693857 207.786328 
L 142.71312 207.769441 
L 142.732383 207.861553 
L 142.886491 208.752991 
L 142.925018 208.689024 
L 142.982808 208.783695 
L 143.059862 209.097899 
L 143.233232 209.946863 
L 143.252496 209.788738 
L 143.291023 210.069167 
L 143.406603 210.725209 
L 143.425866 210.545079 
L 143.618501 211.282486 
L 143.637764 211.769655 
L 143.734081 211.763003 
L 143.753345 211.765049 
L 143.907452 212.491198 
L 143.791871 211.747139 
L 143.945979 212.485057 
L 143.965242 212.367871 
L 144.003769 212.599685 
L 144.23493 213.686094 
L 144.254193 213.501358 
L 144.311984 213.854454 
L 144.331247 213.81198 
L 144.485354 214.558598 
L 144.504618 214.392285 
L 144.562408 214.841586 
L 144.581671 214.701372 
L 144.620198 215.059584 
L 144.755042 215.71972 
L 144.812832 215.665988 
L 144.832096 215.636307 
L 144.851359 215.769869 
L 145.02473 216.367061 
L 145.043993 216.313841 
L 145.063257 216.357338 
L 145.121047 217.074276 
L 145.198101 216.836832 
L 145.217364 216.837855 
L 145.294418 217.617736 
L 145.332945 217.391038 
L 145.641159 218.335697 
L 145.660423 218.292711 
L 145.679686 218.393523 
L 145.87232 219.579719 
L 145.891584 219.14577 
L 145.910847 219.075662 
L 145.949374 219.350975 
L 147.721608 224.900716 
L 147.779398 225.047583 
L 147.972032 225.676502 
L 147.991296 225.655521 
L 148.010559 225.771173 
L 148.704042 227.768977 
L 149.281944 229.342555 
L 149.301208 229.316457 
L 149.474578 229.906485 
L 149.532369 229.99092 
L 149.744266 230.547174 
L 149.76353 230.537963 
L 149.782793 230.612164 
L 152.36409 236.697689 
L 152.383353 236.47048 
L 152.460407 236.654703 
L 152.518197 236.81334 
L 152.595251 236.998588 
L 152.633778 236.959184 
L 152.653041 236.970442 
L 152.807148 237.36243 
L 153.019046 237.647976 
L 153.15389 237.981626 
L 153.192417 237.964227 
L 153.250207 238.034335 
L 153.346524 238.361332 
L 153.404314 238.339839 
L 153.712529 238.896092 
L 153.731792 238.828032 
L 153.789582 238.995369 
L 153.962953 239.368422 
L 153.982216 239.167311 
L 154.05927 239.363816 
L 154.11706 239.407825 
L 154.232641 239.608424 
L 154.251904 239.501472 
L 154.271168 239.696442 
L 154.328958 239.647828 
L 154.425275 239.834098 
L 154.560119 240.078707 
L 154.637172 240.138579 
L 154.79128 240.450736 
L 154.810543 240.277771 
L 154.887597 240.418497 
L 155.426972 241.022853 
L 155.484762 241.168697 
L 155.465499 240.988567 
L 155.542552 241.085797 
L 155.619606 241.369297 
L 155.677396 241.312494 
L 155.75445 241.21373 
L 155.792977 241.274626 
L 156.274562 241.831903 
L 156.293825 241.763331 
L 156.313089 241.672754 
L 156.370879 241.828832 
L 156.409406 241.730068 
L 156.524986 241.903034 
L 156.54425 241.86056 
L 156.794674 242.015615 
L 156.813937 241.923503 
L 156.871728 242.014591 
L 156.929518 242.103633 
L 156.987308 242.042225 
L 157.006571 242.034549 
L 157.064362 242.366152 
L 157.122152 242.153271 
L 157.199205 242.089304 
L 157.160679 242.222867 
L 157.237732 242.165041 
L 157.256996 242.136384 
L 157.314786 242.22082 
L 157.334049 242.195745 
L 157.44963 242.267387 
L 157.468893 242.259711 
L 157.56521 242.201886 
L 157.603737 242.24743 
L 157.623 242.491015 
L 157.700054 242.270969 
L 157.911951 242.382527 
L 157.989005 242.281716 
L 158.008268 242.49255 
L 158.104585 242.249988 
L 158.123849 242.29758 
L 158.200902 242.427048 
L 158.239429 242.28581 
L 158.277956 242.190627 
L 158.29722 242.306279 
L 158.316483 242.242824 
L 158.335746 242.501249 
L 158.432063 242.311908 
L 158.451327 242.396856 
L 158.47059 242.293997 
L 158.52838 242.358476 
L 158.566907 242.40402 
L 158.721014 242.15583 
L 158.740278 242.346194 
L 158.817331 242.157365 
L 158.990702 242.36871 
L 159.009966 242.253571 
L 159.164073 242.019709 
L 159.221863 242.119497 
L 159.26039 241.962906 
L 159.279653 242.021756 
L 159.703448 241.769471 
L 159.722711 242.468498 
L 159.799765 241.712157 
L 159.819028 241.704481 
L 159.838292 241.568361 
L 159.915345 241.788406 
L 159.934609 241.679407 
L 159.992399 241.597018 
L 160.011662 241.629768 
L 160.030926 241.865165 
L 160.088716 241.598041 
L 160.10798 241.60674 
L 160.16577 241.260297 
L 160.185033 242.293486 
L 160.262087 241.327846 
L 160.493248 241.179444 
L 160.512511 241.320682 
L 160.531774 241.116501 
L 160.589565 241.168186 
L 160.801462 240.80025 
L 161.032623 240.556153 
L 161.109676 240.781316 
L 161.090413 240.494745 
L 161.12894 240.510097 
L 161.283047 240.173889 
L 161.321574 240.362718 
L 161.360101 240.094059 
L 161.417891 240.172354 
L 161.456418 240.034186 
L 161.475681 240.300799 
L 161.533471 239.845868 
L 161.803159 239.520918 
L 161.822422 239.824887 
L 161.880213 239.388379 
L 161.899476 239.425736 
L 162.169164 238.84799 
L 162.188427 238.96927 
L 162.246217 238.798352 
L 162.419588 238.348539 
L 162.438851 238.454979 
L 162.515905 238.387942 
L 162.650749 237.999537 
L 162.670012 238.140263 
L 162.689275 237.833735 
L 162.747066 237.943246 
L 162.901173 237.513391 
L 163.151597 236.932574 
L 163.17086 236.971466 
L 163.421285 236.451545 
L 163.710236 235.641473 
L 163.479075 236.531888 
L 163.729499 235.6732 
L 163.787289 236.604042 
L 163.806553 235.522751 
L 163.825816 235.534009 
L 163.84508 235.462878 
L 164.191821 234.432248 
L 164.211084 234.448624 
L 164.249611 234.346789 
L 164.86604 232.686216 
L 164.885303 232.718456 
L 164.904567 232.540884 
L 164.962357 232.379689 
L 165.174254 231.713413 
L 165.193517 231.708295 
L 165.386151 231.123385 
L 165.501732 230.741121 
L 165.848473 229.542643 
L 166.175951 228.433718 
L 166.195214 228.450605 
L 166.214478 228.344676 
L 166.387848 227.582706 
L 166.407111 227.662537 
L 166.445638 227.450168 
L 167.293228 224.171496 
L 167.312491 224.534315 
L 167.370281 223.898743 
L 167.524389 223.302574 
L 167.543652 225.219525 
L 167.620706 222.883465 
L 167.851866 221.83339 
L 168.0445 221.00643 
L 168.063764 221.226475 
L 168.217871 220.2593 
L 168.815036 217.482639 
L 168.872826 217.175087 
L 169.026934 216.472478 
L 169.720416 212.991673 
L 169.778206 212.736318 
L 170.105684 210.933996 
L 170.124947 210.947301 
L 170.14421 210.883846 
L 170.375371 209.49398 
L 170.394635 209.522125 
L 170.625795 208.039636 
L 170.645059 208.133794 
L 170.683585 207.787863 
L 172.436554 197.63304 
L 172.706242 195.944322 
L 173.303407 192.358611 
L 173.32267 192.390339 
L 173.515304 191.06751 
L 173.534568 191.409347 
L 173.573094 190.767634 
L 173.592358 190.843882 
L 173.765728 189.579391 
L 173.784992 189.486767 
L 173.804255 189.962167 
L 173.862045 189.040536 
L 173.881309 189.009321 
L 174.035416 187.967433 
L 173.919835 189.683273 
L 174.054679 188.017071 
L 174.497737 185.271625 
L 174.536264 185.092519 
L 175.017849 182.392106 
L 175.210483 181.541094 
L 175.383853 180.505859 
L 176.077335 176.948805 
L 176.096598 176.966716 
L 176.115862 176.974903 
L 176.289232 176.012334 
L 176.327759 175.831693 
L 176.462603 175.237059 
L 176.481866 175.293862 
L 176.6745 174.296495 
L 177.464299 171.179019 
L 177.483562 171.254244 
L 177.502826 171.384224 
L 177.522089 171.124264 
L 177.560616 171.150874 
L 177.69546 170.309074 
L 177.714723 170.508649 
L 177.733986 170.551635 
L 177.888094 169.659685 
L 177.907357 169.877683 
L 177.965147 169.521517 
L 177.98441 169.540963 
L 178.003674 169.54301 
L 178.157781 168.826072 
L 178.196308 168.764664 
L 178.234834 168.903856 
L 178.427468 168.033398 
L 178.446732 168.046192 
L 178.485258 168.278007 
L 178.523785 167.988878 
L 178.639366 167.464863 
L 178.658629 167.599961 
L 178.677892 167.704866 
L 178.697156 167.331813 
L 178.735682 167.594332 
L 178.88979 166.848226 
L 178.909053 166.919868 
L 178.986107 166.797052 
L 179.12095 166.271503 
L 179.140214 166.583148 
L 179.198004 166.138452 
L 179.217267 166.339052 
L 179.236531 166.334446 
L 179.313584 165.852394 
L 179.371374 165.884633 
L 179.390638 165.93683 
L 179.429164 165.543307 
L 179.506218 165.627743 
L 179.525481 165.619555 
L 179.544745 165.893844 
L 179.602535 165.282324 
L 179.698852 165.009058 
L 179.718115 165.155414 
L 179.737379 165.258784 
L 179.775905 164.908759 
L 179.814432 164.887266 
L 179.833695 165.176395 
L 179.872222 164.674897 
L 179.891486 165.108334 
L 180.007066 164.542358 
L 180.026329 164.597625 
L 180.084119 164.83814 
L 180.122646 164.213826 
L 180.14191 164.561804 
L 180.180436 164.057235 
L 180.218963 164.513189 
L 180.353807 163.850495 
L 180.37307 163.694929 
L 180.411597 164.231225 
L 180.546441 163.586441 
L 180.584967 163.107971 
L 180.662021 163.185755 
L 181.162869 162.264636 
L 181.182132 162.289199 
L 181.220659 162.26003 
L 181.239922 162.32502 
L 181.297713 162.333208 
L 181.374766 162.037427 
L 181.432556 161.915634 
L 181.586663 161.619853 
L 181.605927 161.72527 
L 181.663717 161.519041 
L 181.68298 161.609618 
L 181.837087 161.194091 
L 181.856351 161.240659 
L 181.894878 161.103514 
L 181.914141 161.173622 
L 182.299408 160.46436 
L 182.376462 160.394765 
L 182.530569 159.983843 
L 182.684676 159.795014 
L 182.87731 159.395863 
L 182.896573 159.408656 
L 183.069944 159.008993 
L 183.320368 158.525917 
L 183.455211 158.278238 
L 183.763426 157.597122 
L 183.994586 157.030122 
L 184.013849 157.048033 
L 184.033113 156.914983 
L 184.090903 156.884279 
L 184.264273 156.381245 
L 184.283537 156.413485 
L 184.341327 156.296809 
L 185.092599 154.252949 
L 185.304496 153.554434 
L 185.400813 153.37021 
L 185.959451 151.50955 
L 185.997977 151.523367 
L 186.171348 150.79466 
L 186.383245 150.162158 
L 186.556615 149.429357 
L 186.575879 149.487694 
L 186.614406 149.338269 
L 188.290319 142.700584 
L 188.309583 142.747152 
L 188.328846 142.514313 
L 188.386636 142.275334 
L 190.101076 134.925829 
L 190.216657 134.457594 
L 190.40929 133.530334 
L 190.756031 132.073431 
L 190.967928 131.109327 
L 191.333932 129.589993 
L 191.565092 128.575739 
L 191.699936 127.974964 
L 191.931097 127.054869 
L 192.412681 125.103121 
L 194.435334 117.930164 
L 194.454598 117.971614 
L 194.493124 117.803254 
L 194.512388 117.857498 
L 194.705021 117.066871 
L 194.936182 116.446651 
L 194.955445 116.315647 
L 194.974709 116.399571 
L 194.993972 116.975271 
L 195.051762 116.113513 
L 195.071025 116.138588 
L 195.186606 115.67547 
L 195.205869 116.112489 
L 195.282922 115.455425 
L 195.706716 114.307608 
L 195.937877 113.710416 
L 195.95714 113.7795 
L 195.995667 113.565084 
L 196.13051 113.240134 
L 196.303881 112.873733 
L 196.901045 111.50229 
L 196.920308 111.592355 
L 197.112942 111.183992 
L 197.247786 110.857506 
L 197.267049 110.908168 
L 197.286312 110.795075 
L 197.305576 110.809404 
L 197.536736 110.307394 
L 197.555999 110.405135 
L 197.594526 110.251103 
L 197.613789 110.316605 
L 197.78716 109.955322 
L 198.01832 109.605297 
L 198.172427 109.283417 
L 198.19169 109.348919 
L 198.326534 109.213821 
L 198.499904 108.881195 
L 198.538431 108.886312 
L 198.557694 108.806482 
L 198.750328 108.626352 
L 198.769591 108.647845 
L 198.808118 108.550104 
L 198.981488 108.233853 
L 199.020015 108.320336 
L 199.039278 108.213895 
L 199.077805 108.203149 
L 199.212648 108.044 
L 199.308965 108.124854 
L 199.251175 107.97901 
L 199.328228 108.051676 
L 199.424545 107.827537 
L 199.443808 107.842889 
L 199.463072 107.903785 
L 199.501599 107.750777 
L 199.520862 107.807068 
L 199.674969 107.50054 
L 199.732759 107.442714 
L 199.771286 107.548131 
L 199.925393 107.267702 
L 200.464767 106.78872 
L 200.59961 106.647993 
L 200.618873 106.700702 
L 200.676663 106.574304 
L 200.695927 106.644923 
L 200.83077 106.452 
L 200.850034 106.519549 
L 200.907824 106.365517 
L 201.081194 106.301039 
L 201.177511 106.140355 
L 201.196774 106.216603 
L 201.235301 106.164918 
L 201.293091 106.080994 
L 201.312354 106.232978 
L 201.331617 106.110674 
L 201.350881 106.158265 
L 201.370144 105.937709 
L 201.408671 106.024191 
L 201.601305 105.727898 
L 201.620568 105.78163 
L 201.716885 105.649603 
L 201.774675 105.700776 
L 201.870991 105.527299 
L 201.890255 105.578984 
L 201.948045 105.434164 
L 202.140678 105.262221 
L 202.333312 105.053946 
L 202.352575 105.129683 
L 202.371839 104.991003 
L 202.410365 105.000214 
L 203.12311 104.205493 
L 203.142373 104.400464 
L 203.200163 104.073466 
L 203.219426 104.092912 
L 203.23869 104.14255 
L 203.257953 104.062208 
L 203.277216 104.070396 
L 203.41206 103.829882 
L 203.431323 103.843187 
L 203.450586 103.751587 
L 203.46985 103.760286 
L 203.64322 103.491626 
L 203.662483 103.789455 
L 203.681747 103.44557 
L 203.739537 103.443012 
L 203.7588 103.479345 
L 203.778063 103.365228 
L 203.93217 103.05563 
L 203.951434 103.166164 
L 203.98996 102.979894 
L 204.009224 102.990128 
L 204.278911 102.506029 
L 204.298174 102.710722 
L 204.375227 102.35865 
L 205.627345 99.700199 
L 205.665872 99.799475 
L 205.800715 99.23964 
L 205.819978 99.309235 
L 205.858505 99.140875 
L 205.897032 99.163391 
L 206.243772 98.177794 
L 206.436406 97.444481 
L 206.455669 97.46188 
L 206.474932 97.383073 
L 206.590512 96.956288 
L 206.609776 97.061705 
L 206.783146 96.405664 
L 207.534416 93.733396 
L 207.55368 93.983121 
L 207.61147 93.373136 
L 207.90042 92.16033 
L 207.919683 92.247324 
L 207.938947 91.997599 
L 207.95821 91.994017 
L 208.035263 91.64348 
L 208.18937 90.854388 
L 208.208633 90.911702 
L 208.227897 91.025818 
L 208.24716 90.640995 
L 208.670954 88.661613 
L 208.921377 87.531196 
L 208.979167 87.134091 
L 209.364434 85.177737 
L 209.634121 83.53354 
L 209.653384 83.578573 
L 209.807491 82.642614 
L 210.134968 80.686771 
L 210.154231 80.784512 
L 210.173494 80.434487 
L 210.308338 79.68531 
L 210.520234 78.344571 
L 210.539498 78.455105 
L 210.674341 77.444433 
L 210.809184 76.50438 
L 210.828448 77.306777 
L 210.886238 76.094994 
L 211.021081 75.044407 
L 210.924765 77.045282 
L 211.040345 75.059759 
L 211.059608 75.03366 
L 211.213715 73.807037 
L 211.232978 74.497365 
L 211.290768 73.316797 
L 211.579718 71.315923 
L 211.598982 71.81128 
L 211.656771 70.819542 
L 211.676035 70.829777 
L 211.695298 70.722824 
L 211.945722 68.717856 
L 211.964985 68.732184 
L 211.984248 68.630861 
L 212.003512 68.653889 
L 212.215408 67.000481 
L 212.523622 64.70536 
L 212.542885 64.689496 
L 212.735518 63.131782 
L 212.754782 63.34671 
L 212.793308 62.68811 
L 213.197838 59.723131 
L 213.217102 59.794773 
L 213.236365 59.929871 
L 213.255629 59.636136 
L 213.486789 57.69411 
L 213.506052 57.690017 
L 213.833529 55.118048 
L 213.852792 55.420994 
L 213.910582 54.726061 
L 213.968372 54.210746 
L 214.161005 52.7825 
L 214.180269 52.797852 
L 214.430692 50.684908 
L 214.488482 50.981201 
L 214.507745 50.410619 
L 214.546272 50.72994 
L 215.605755 42.397397 
L 215.740599 41.551503 
L 216.029549 39.550117 
L 216.318499 37.821484 
L 216.645976 35.746919 
L 216.723029 35.370796 
L 217.089032 33.217937 
L 217.262402 32.375625 
L 217.647669 30.257051 
L 217.821039 29.466936 
L 220.094113 21.756148 
L 220.479379 21.090896 
L 220.537169 21.10983 
L 220.556433 21.038699 
L 220.575696 21.078102 
L 220.749066 20.859081 
L 220.883909 20.842705 
L 220.999489 20.642106 
L 221.038016 20.655923 
L 221.57739 20.641083 
L 221.770023 20.784368 
L 221.80855 20.693279 
L 221.86634 20.795626 
L 222.020446 21.026417 
L 222.03971 20.966545 
L 222.38645 21.43171 
L 222.521293 21.666595 
L 222.540557 21.646126 
L 222.55982 21.639473 
L 222.579083 21.738237 
L 222.656137 21.870264 
L 224.235731 26.376071 
L 224.466891 27.386743 
L 224.543945 27.656938 
L 225.179635 30.401872 
L 225.372269 31.303545 
L 226.451017 36.430594 
L 226.836284 38.162298 
L 227.028918 39.048107 
L 227.510502 41.173333 
L 228.338826 44.393666 
L 228.569987 45.190946 
L 228.64704 45.439648 
L 228.820411 45.999995 
L 229.186415 47.110455 
L 229.359785 47.631399 
L 229.379048 47.59609 
L 229.417575 47.732722 
L 229.552419 48.070466 
L 229.899159 48.939388 
L 230.091793 49.344168 
L 230.168847 49.50127 
L 230.438534 50.027331 
L 230.496324 50.136842 
L 230.708221 50.647551 
L 230.727485 50.560045 
L 230.804538 50.711518 
L 231.38244 51.621891 
L 231.517283 51.829142 
L 231.536547 51.764152 
L 231.594337 51.871616 
L 232.345609 53.317773 
L 232.461189 53.24613 
L 232.480453 53.596667 
L 232.557506 53.465152 
L 232.596033 53.462081 
L 232.63456 53.2492 
L 232.730877 53.743022 
L 232.827194 53.407326 
L 232.846457 53.570057 
L 232.865721 53.509672 
L 232.884984 53.704131 
L 232.904247 54.113005 
L 232.962038 53.547029 
L 232.981301 53.669845 
L 233.000564 53.638629 
L 233.019828 53.806989 
L 233.039091 53.728182 
L 233.135408 54.163667 
L 233.077618 53.701572 
L 233.212462 54.129892 
L 233.231725 54.147291 
L 233.250988 53.871467 
L 233.328042 54.205117 
L 233.347305 54.420045 
L 233.385832 54.134498 
L 233.443622 54.378083 
L 233.462886 54.420557 
L 233.482149 54.151897 
L 234.406792 54.934336 
L 234.483846 54.664141 
L 234.522373 54.791563 
L 234.580163 54.863205 
L 234.599426 54.788492 
L 234.73427 55.112931 
L 234.753533 55.015702 
L 234.772797 54.946106 
L 234.84985 55.013655 
L 234.984694 55.204019 
L 235.119538 55.277197 
L 235.196592 55.391825 
L 235.369962 55.612382 
L 235.562596 55.764367 
L 235.69744 55.955755 
L 235.774494 55.899464 
L 235.81302 55.973153 
L 235.909337 56.174264 
L 235.967128 56.141002 
L 236.159762 56.470046 
L 236.198288 56.583651 
L 236.294605 56.428596 
L 236.506503 56.94391 
L 236.525766 56.894272 
L 236.564293 56.843611 
L 236.622083 56.941863 
L 236.699137 56.893761 
L 236.7184 56.954145 
L 237.065142 57.499652 
L 237.084405 57.459225 
L 237.103668 57.3927 
L 237.161459 57.565666 
L 237.219249 57.544173 
L 237.315566 57.710998 
L 237.546727 58.025713 
L 237.681571 58.222219 
L 237.700834 58.206867 
L 238.105366 58.859837 
L 238.124629 58.835786 
L 238.143893 58.864955 
L 238.24021 59.113145 
L 238.259473 59.068113 
L 238.278736 59.002099 
L 238.336527 59.147431 
L 238.586951 59.605944 
L 238.606214 59.596733 
L 238.625478 59.573193 
L 238.644741 59.693962 
L 238.837375 60.032217 
L 238.856639 59.963133 
L 238.875902 60.068038 
L 238.914429 60.07725 
L 239.396014 60.920585 
L 239.415278 60.90728 
L 239.434541 60.850989 
L 239.473068 61.051077 
L 240.571082 63.202913 
L 240.590346 63.188584 
L 240.609609 63.305259 
L 240.705926 63.447009 
L 240.975614 64.107656 
L 240.994878 64.037037 
L 241.052668 64.18851 
L 241.264566 64.67005 
L 241.322356 64.764209 
L 241.688361 65.614709 
L 241.765414 65.766693 
L 242.516688 67.600232 
L 242.535951 67.549058 
L 242.574478 67.724583 
L 242.921219 68.585829 
L 243.229434 69.352404 
L 243.441332 69.969554 
L 243.537649 70.124609 
L 244.173342 71.820491 
L 244.404503 72.515424 
L 244.423766 72.488302 
L 244.44303 72.577344 
L 246.215265 77.659873 
L 246.369372 78.245295 
L 246.427162 78.287257 
L 246.793167 79.461172 
L 246.889484 79.750301 
L 247.717812 82.350414 
L 247.737075 82.321757 
L 247.891182 82.926625 
L 247.910446 82.869311 
L 247.948973 83.041253 
L 248.16087 83.835974 
L 248.276451 84.114869 
L 248.449822 84.740718 
L 248.469085 84.714619 
L 249.104778 86.822958 
L 249.5671 88.33871 
L 249.759735 89.044901 
L 249.798261 89.108868 
L 250.491745 91.566208 
L 250.511008 91.532945 
L 250.530272 91.633757 
L 251.262282 94.173998 
L 251.666814 95.595079 
L 251.743868 95.775209 
L 251.975029 96.788952 
L 252.090609 97.094456 
L 252.283244 97.767385 
L 252.861146 99.823015 
L 253.015254 100.560933 
L 253.034517 100.54814 
L 253.824318 103.657428 
L 253.843581 103.615466 
L 253.862845 103.475763 
L 253.920635 103.706042 
L 254.055479 104.229545 
L 254.440747 105.649091 
L 255.461709 109.532631 
L 255.596553 110.010589 
L 256.3093 112.744777 
L 257.118364 115.883745 
L 257.137627 115.867881 
L 257.407315 117.026956 
L 257.426579 116.991646 
L 257.445842 117.143631 
L 257.619213 117.753616 
L 257.927428 118.962329 
L 258.254906 120.34196 
L 258.794282 122.545481 
L 258.813545 122.433411 
L 258.871336 122.685184 
L 259.237341 124.201448 
L 260.605044 129.662659 
L 260.816942 130.587872 
L 261.433372 133.117878 
L 261.606742 133.933068 
L 261.626006 133.88343 
L 262.146118 136.047547 
L 262.184645 136.18725 
L 262.820338 138.958795 
L 262.897392 139.237689 
L 263.10929 140.144991 
L 263.321187 141.031312 
L 263.533085 141.835244 
L 263.937617 143.553642 
L 265.575008 150.623741 
L 265.806169 151.618549 
L 266.441862 154.264207 
L 266.673024 155.300466 
L 266.692287 155.36085 
L 266.71155 156.106445 
L 266.807868 155.864907 
L 267.135346 157.307993 
L 267.674722 159.627166 
L 267.790302 160.191095 
L 268.753474 164.336642 
L 269.793698 168.933024 
L 269.967069 169.691924 
L 272.086046 179.01467 
L 272.355734 180.243852 
L 272.394261 180.349269 
L 272.818056 182.225281 
L 272.991427 182.875181 
L 273.164798 183.672972 
L 274.185759 188.132211 
L 274.205023 188.118394 
L 274.455447 189.222713 
L 274.532501 189.547664 
L 275.726833 194.563156 
L 275.784623 194.751985 
L 275.996521 195.629095 
L 277.344961 201.220798 
L 277.518331 201.914195 
L 278.134761 204.346461 
L 280.022576 211.737928 
L 280.080367 211.975883 
L 280.330791 212.838665 
L 280.465635 213.414876 
L 280.658269 214.385121 
L 280.677533 214.171216 
L 280.735323 214.434247 
L 280.850903 214.85745 
L 280.870167 214.845168 
L 280.88943 214.93114 
L 281.101328 215.742236 
L 281.44807 216.889029 
L 281.640704 217.625412 
L 283.258831 223.202275 
L 283.297358 223.187946 
L 283.335885 223.316903 
L 283.470729 223.766716 
L 284.010104 225.521959 
L 284.029368 225.469251 
L 284.048631 225.449805 
L 284.241265 226.172371 
L 284.260529 226.15139 
L 284.279792 226.249131 
L 284.530217 227.003937 
L 285.724549 230.444316 
L 285.743812 230.396213 
L 285.763075 230.496001 
L 285.917183 231.006198 
L 286.206134 231.847487 
L 286.225397 231.737464 
L 286.283188 231.957509 
L 286.302451 231.888425 
L 286.495085 232.448772 
L 286.514349 232.461054 
L 286.668456 232.876069 
L 286.918881 233.596589 
L 286.957407 233.561279 
L 287.111515 234.101157 
L 287.5931 235.075496 
L 287.727944 235.328292 
L 287.882051 235.865612 
L 287.920578 235.811368 
L 287.939842 235.786293 
L 287.959105 235.881475 
L 288.171003 236.424424 
L 288.190266 236.403954 
L 288.32511 236.731463 
L 288.363637 236.74221 
L 288.3829 236.797477 
L 288.575534 237.230403 
L 288.729642 237.602432 
L 288.748905 237.490363 
L 288.806695 237.778468 
L 288.845222 237.750323 
L 289.095647 238.286107 
L 289.11491 238.116212 
L 289.1727 238.50257 
L 289.191964 238.436557 
L 289.211227 238.583424 
L 289.249754 238.544532 
L 289.500178 239.036307 
L 289.577232 239.46821 
L 289.615759 239.184198 
L 289.654286 239.142748 
L 289.673549 239.168334 
L 289.78913 239.543946 
L 289.808393 239.507101 
L 289.827657 239.431877 
L 289.885447 239.625823 
L 289.90471 239.58949 
L 290.020291 239.983013 
L 290.039554 239.804418 
L 290.116608 240.087406 
L 290.135871 240.013717 
L 290.155135 240.412868 
L 290.251452 240.1918 
L 290.270715 240.160584 
L 290.405559 240.476323 
L 290.540403 240.700462 
L 290.598193 240.550012 
L 290.57893 240.802808 
L 290.63672 240.728607 
L 290.733037 241.037182 
L 290.771564 240.927159 
L 290.790827 240.919995 
L 290.925671 241.709599 
L 290.944935 241.367761 
L 290.964198 240.983962 
L 291.060515 241.173303 
L 291.176096 241.368785 
L 291.195359 241.346269 
L 291.36873 241.728021 
L 291.387993 241.713181 
L 291.407257 241.71011 
L 291.42652 241.944484 
L 291.522837 241.857489 
L 291.657681 241.938855 
L 291.965896 242.336471 
L 292.004422 242.263293 
L 292.042949 242.309861 
L 292.177793 242.480268 
L 292.21632 242.484362 
L 292.293374 242.686496 
L 292.331901 242.65221 
L 292.408954 242.649652 
L 292.389691 242.732041 
L 292.428218 242.691614 
L 292.447481 242.691614 
L 292.466744 242.840528 
L 292.563062 242.804195 
L 292.659379 242.813918 
L 292.774959 243.02424 
L 292.794223 243.011958 
L 292.89054 242.900912 
L 292.852013 243.053409 
L 292.909803 243.011447 
L 292.929066 243.149614 
L 292.94833 242.995071 
L 293.025384 243.088207 
L 293.083174 243.189018 
L 293.140964 243.114817 
L 293.275808 243.387058 
L 293.295071 243.320021 
L 293.352862 243.249402 
L 293.391388 243.301599 
L 293.410652 243.417251 
L 293.506969 243.363007 
L 293.564759 243.303134 
L 293.622549 243.423903 
L 293.641813 243.336909 
L 293.718867 243.421856 
L 293.776657 243.513456 
L 293.834447 243.485311 
L 293.85371 243.428509 
L 293.930764 243.485823 
L 294.027081 243.559001 
L 294.046344 243.548766 
L 294.084871 243.431067 
L 294.142662 243.566677 
L 294.335296 243.590728 
L 294.373823 243.611709 
L 294.431613 243.458701 
L 294.52793 243.718661 
L 294.547193 243.644972 
L 294.624247 243.534949 
L 294.662774 243.550301 
L 294.797618 243.645483 
L 294.816881 243.63269 
L 294.913198 243.507827 
L 294.932462 243.513968 
L 295.048042 243.6593 
L 295.182886 243.429021 
L 295.279203 243.541602 
L 295.31773 243.4761 
L 295.471837 243.295458 
L 295.510364 243.41111 
L 295.587418 243.314392 
L 295.702998 243.345096 
L 295.741525 243.376312 
L 295.760788 243.293411 
L 295.818579 243.318998 
L 295.876369 243.208464 
L 295.953422 243.24582 
L 295.991949 243.068761 
L 296.069003 243.240703 
L 296.10753 243.114305 
L 296.184583 243.130169 
L 296.261637 242.896307 
L 296.319427 242.916264 
L 296.338691 242.958226 
L 296.396481 242.83234 
L 296.454271 242.835922 
L 296.589115 242.716689 
L 296.762486 242.542188 
L 296.801013 242.616389 
L 296.83954 242.471057 
L 296.993647 242.363081 
L 297.032174 242.379969 
L 297.089964 242.252035 
L 297.109227 242.419884 
L 297.186281 242.125637 
L 297.224808 242.216726 
L 297.244071 242.076511 
L 297.263335 242.126661 
L 297.417442 241.82525 
L 297.571549 241.751049 
L 297.648603 241.559661 
L 297.706393 241.612881 
L 297.956817 241.040764 
L 297.976081 241.185073 
L 298.053134 240.999314 
L 298.900725 239.576185 
L 299.016305 239.244582 
L 299.035568 239.352046 
L 299.054832 239.349999 
L 299.189676 238.977458 
L 299.208939 239.076222 
L 299.266729 238.850548 
L 299.285993 238.846966 
L 299.4401 238.40227 
L 299.459364 238.409946 
L 299.632734 238.042011 
L 299.690525 237.905378 
L 299.940949 237.305116 
L 301.308651 233.727081 
L 301.559075 232.864299 
L 301.597602 232.917008 
L 301.616866 232.797262 
L 301.828763 232.012265 
L 302.214031 230.784106 
L 302.233295 230.846026 
L 302.406665 230.131647 
L 302.946041 228.251541 
L 302.965304 228.238748 
L 303.138675 227.453238 
L 303.157938 227.496735 
L 303.793631 224.910438 
L 303.812894 225.068052 
L 303.851421 224.620798 
L 304.776065 220.683015 
L 305.007226 219.554644 
L 305.065016 219.318224 
L 305.353967 217.925287 
L 305.450284 217.564516 
L 305.662181 216.393672 
L 306.066713 214.413778 
L 306.374928 212.715849 
L 306.394191 212.708173 
L 306.644615 211.344917 
L 307.06841 208.975595 
L 307.087674 209.380375 
L 307.145464 208.67879 
L 307.376625 207.251567 
L 307.588522 206.082258 
L 307.80042 204.874057 
L 307.819683 204.856147 
L 308.089371 203.14133 
L 308.474639 200.789407 
L 308.493902 200.961861 
L 308.532429 200.504372 
L 308.725063 199.457879 
L 310.034975 191.521928 
L 310.439506 189.092221 
L 310.555087 188.450509 
L 311.306359 184.184193 
L 311.653101 182.297947 
L 312.115422 179.892803 
L 312.26953 179.226015 
L 312.4429 178.3443 
L 312.539217 177.861224 
L 312.924485 176.102399 
L 313.309753 174.464855 
L 313.868392 172.272592 
L 313.887656 172.328371 
L 313.906919 172.140053 
L 313.926182 172.169734 
L 314.118816 171.182601 
L 314.157343 171.281366 
L 314.19587 171.085372 
L 314.446294 170.428819 
L 314.465558 170.79829 
L 314.523348 170.072141 
L 314.581138 169.833674 
L 315.332411 167.758086 
L 315.351674 167.774462 
L 315.370938 167.875785 
L 315.409464 167.638852 
L 315.428728 167.705889 
L 315.640625 167.040637 
L 315.659889 167.062642 
L 315.698415 166.938802 
L 315.756206 166.97667 
L 315.852523 166.575472 
L 315.929576 166.502294 
L 316.06442 166.169668 
L 316.083684 166.216236 
L 316.12221 166.0315 
L 316.391898 165.519256 
L 316.411161 165.684545 
L 316.430425 165.438914 
L 316.468952 165.512091 
L 316.584532 165.067396 
L 316.603795 165.121639 
L 316.623059 165.132898 
L 316.777166 164.813576 
L 316.796429 164.827393 
L 316.931273 164.432847 
L 316.950537 164.501931 
L 317.200961 163.957448 
L 316.989063 164.615024 
L 317.220224 163.995828 
L 317.335805 163.844355 
L 317.355068 163.923162 
L 317.528439 163.486654 
L 317.624756 163.425246 
L 317.798126 163.003066 
L 317.87518 163.045028 
L 317.93297 162.807073 
L 317.952234 162.892532 
L 317.99076 162.670952 
L 318.183394 162.249796 
L 318.029287 162.712402 
L 318.221921 162.448348 
L 318.241184 162.463188 
L 318.395292 162.005699 
L 318.549399 161.730387 
L 318.568662 162.146937 
L 318.587926 161.9054 
L 318.664979 161.796401 
L 318.819086 161.121425 
L 318.915403 160.944366 
L 319.223618 160.359455 
L 319.242881 160.426492 
L 319.281408 160.287813 
L 319.589622 159.534542 
L 319.666676 159.403027 
L 319.685939 159.475693 
L 319.85931 158.983918 
L 319.9171 158.90767 
L 320.071207 158.441481 
L 320.090471 158.454786 
L 320.109734 158.497772 
L 320.148261 158.381097 
L 320.167524 158.388773 
L 320.321632 157.857082 
L 320.379422 157.764459 
L 320.552792 157.310552 
L 320.783953 156.770674 
L 321.072904 155.872071 
L 321.227011 155.582431 
L 321.438909 154.809714 
L 321.458172 154.844512 
L 321.477436 154.751377 
L 321.90123 153.402449 
L 321.920494 153.430083 
L 321.939757 153.299079 
L 321.978284 153.227437 
L 322.151654 152.646109 
L 322.267235 152.242351 
L 322.517659 151.348354 
L 323.114824 149.114641 
L 323.211141 148.781503 
L 323.654199 147.119907 
L 323.71199 146.939266 
L 324.174311 145.011057 
L 324.212838 144.832462 
L 324.540316 143.430315 
L 324.559579 143.434409 
L 324.578843 143.330527 
L 324.96411 141.67763 
L 325.002637 141.511317 
L 325.156744 140.910543 
L 325.349378 140.081536 
L 326.235495 136.167293 
L 326.254758 136.190833 
L 326.274021 136.052665 
L 326.909713 133.332294 
L 328.87458 125.091863 
L 328.893843 125.098515 
L 329.086477 124.172279 
L 329.10574 124.192237 
L 329.125004 124.074538 
L 329.413955 122.937468 
L 329.529535 122.548039 
L 329.722169 121.710845 
L 330.492705 119.010431 
L 330.511968 119.030901 
L 330.531231 118.896315 
L 330.781656 117.99106 
L 331.128397 116.946102 
L 331.14766 116.981411 
L 331.301767 116.359656 
L 331.321031 116.367332 
L 331.532928 115.743018 
L 331.821879 114.814735 
L 332.149356 114.053277 
L 332.39978 113.45455 
L 332.419044 113.499582 
L 332.438307 113.379837 
L 332.611678 112.927977 
L 332.688731 112.76064 
L 332.823575 112.360977 
L 332.862102 112.409592 
L 332.881365 112.61582 
L 332.939155 112.26733 
L 333.093263 111.835428 
L 333.151053 111.72694 
L 333.170316 112.044215 
L 333.24737 111.577514 
L 333.324423 111.411201 
L 333.440004 111.105185 
L 333.459267 111.199856 
L 333.47853 111.257681 
L 333.497794 111.109279 
L 333.594111 110.848295 
L 333.632638 110.868253 
L 333.671164 110.877464 
L 333.863798 110.308417 
L 333.902325 110.34168 
L 334.711387 109.090494 
L 334.730651 109.324355 
L 334.807704 108.969725 
L 334.961811 108.796247 
L 334.981075 108.822857 
L 335.000338 108.677525 
L 335.038865 108.745074 
L 335.192972 108.478973 
L 335.366343 108.325453 
L 335.385606 108.406819 
L 335.404869 108.154534 
L 335.462659 108.287585 
L 335.481923 108.299355 
L 335.57824 108.089033 
L 335.616767 108.111549 
L 335.790137 107.82549 
L 335.828664 107.902762 
L 335.886454 107.777387 
L 336.021298 107.590093 
L 336.059825 107.655083 
L 336.079088 107.861823 
L 336.117615 107.505657 
L 336.136878 107.616192 
L 336.213932 107.403311 
L 336.252458 107.488259 
L 336.271722 107.539432 
L 336.310249 107.393076 
L 336.329512 107.453461 
L 336.445092 107.224716 
L 336.464356 107.339344 
L 336.522146 107.199641 
L 336.560673 107.25235 
L 336.676253 107.108041 
L 336.811097 106.970897 
L 336.849623 107.183778 
L 336.88815 107.009788 
L 337.022994 106.8184 
L 337.061521 106.893113 
L 337.119311 106.825565 
L 337.138574 106.717077 
L 337.196364 106.767227 
L 337.215628 106.982155 
L 337.273418 106.636735 
L 337.292681 106.669998 
L 337.350472 106.519549 
L 337.388998 106.553835 
L 337.408262 106.675627 
L 337.485315 106.507779 
L 337.562369 106.534389 
L 337.581632 106.40492 
L 337.600896 106.590679 
L 337.677949 106.317926 
L 337.697213 106.45507 
L 337.774266 106.181293 
L 337.832056 106.213532 
L 337.889846 106.369611 
L 337.870583 106.181805 
L 337.928373 106.1685 
L 338.198061 106.049778 
L 338.275114 105.871695 
L 338.332904 105.92338 
L 338.429221 105.781118 
L 338.448485 105.945896 
L 338.525538 105.738644 
L 338.564065 105.7934 
L 338.621855 105.762184 
L 338.775962 105.48329 
L 338.795226 105.546233 
L 338.833753 105.519623 
L 338.853016 105.341028 
L 338.949333 105.454121 
L 339.16123 105.21463 
L 339.180494 105.2351 
L 339.199757 105.295484 
L 339.257547 105.145546 
L 339.334601 105.260686 
L 339.392391 104.96951 
L 339.411654 105.045758 
L 339.469444 104.922431 
L 339.507971 105.018637 
L 339.565761 105.0345 
L 339.662078 104.72132 
L 339.681341 104.866652 
L 339.739132 104.635861 
L 339.758395 104.640466 
L 339.816185 104.591852 
L 339.835449 105.617876 
L 339.893239 104.452149 
L 339.912502 104.500763 
L 339.989556 104.424003 
L 340.028082 104.5765 
L 340.162926 104.221357 
L 340.182189 104.304258 
L 340.201453 104.093936 
L 340.259243 104.157391 
L 340.432613 103.770521 
L 340.451877 103.807365 
L 340.605984 103.620583 
L 340.625247 103.74084 
L 340.683038 103.433289 
L 340.721564 103.479345 
L 340.760091 103.35397 
L 340.798618 103.381604 
L 341.164622 102.716351 
L 341.183886 102.864242 
L 341.203149 102.703558 
L 341.260939 102.746032 
L 341.43431 102.249651 
L 341.703997 101.738942 
L 341.72326 101.793697 
L 341.742524 101.693398 
L 341.877367 101.333138 
L 341.896631 101.366401 
L 341.915894 101.377659 
L 342.031474 100.981578 
L 342.050738 101.007164 
L 342.070001 101.123839 
L 342.108528 100.850574 
L 342.127791 100.856715 
L 342.416742 100.21449 
L 342.436006 100.278457 
L 342.570849 99.687406 
L 342.956117 98.649612 
L 343.148751 98.040138 
L 343.168014 98.081077 
L 343.187278 98.006364 
L 343.399175 97.196803 
L 343.418438 97.232112 
L 345.075089 90.568841 
L 345.132879 90.791956 
L 345.267723 89.620089 
L 345.286986 89.635952 
L 345.47962 88.527539 
L 345.498883 88.629374 
L 345.787834 86.986712 
L 345.807098 87.064496 
L 345.826361 86.810165 
L 345.845624 86.833193 
L 346.982164 80.143311 
L 347.194061 78.746793 
L 347.791226 74.886793 
L 348.04165 73.204728 
L 348.465444 70.256636 
L 350.160621 58.090192 
L 350.507362 55.507477 
L 350.526626 55.55558 
L 350.545889 55.307901 
L 350.584416 55.394384 
L 350.661469 54.40981 
L 351.277897 49.934196 
L 351.470531 48.75977 
L 351.682428 47.15907 
L 351.759482 46.684694 
L 352.048432 44.625481 
L 352.279593 43.214123 
L 352.510754 41.505959 
L 353.127182 37.73756 
L 353.358342 36.224366 
L 353.396869 36.148118 
L 353.685819 34.448142 
L 354.282984 31.3583 
L 354.437091 30.67002 
L 354.687515 29.491499 
L 354.937939 28.43733 
L 355.785527 25.407872 
L 355.804791 25.471839 
L 355.843317 25.294268 
L 356.035951 24.73955 
L 356.093741 24.589612 
L 356.344165 23.955575 
L 356.363428 24.052804 
L 356.421219 23.860393 
L 356.767959 23.121451 
L 357.037646 22.746863 
L 357.05691 22.603577 
L 357.153227 22.702854 
L 357.480704 22.341058 
L 357.499967 22.36511 
L 357.519231 22.519141 
L 357.538494 22.305749 
L 357.596284 22.35334 
L 357.731128 22.310866 
L 357.750391 22.327242 
L 357.769655 22.402466 
L 357.827445 22.244341 
L 357.904498 22.193679 
L 357.865972 22.336965 
L 357.923762 22.270951 
L 357.962288 22.497137 
L 358.020078 22.250482 
L 358.039342 22.321613 
L 358.097132 22.337988 
L 358.116395 22.470015 
L 358.193449 22.419354 
L 358.212712 22.332871 
L 358.309029 22.373809 
L 358.328292 22.520165 
L 358.347556 22.361016 
L 358.424609 22.491508 
L 358.443873 22.461316 
L 358.520926 22.529376 
L 358.578716 22.568268 
L 358.617243 23.405462 
L 358.694296 22.833345 
L 358.77135 22.740722 
L 358.809877 22.901406 
L 359.079564 23.368618 
L 359.156617 23.568193 
L 359.118091 23.317956 
L 359.195144 23.425932 
L 359.503358 24.127006 
L 359.522621 24.066621 
L 359.561148 24.294854 
L 359.599675 24.440186 
L 359.618938 24.857248 
L 359.638202 24.411529 
L 359.715255 24.56249 
L 359.927152 25.261005 
L 359.946416 25.122326 
L 360.023469 25.35977 
L 360.350946 26.457948 
L 360.37021 26.43492 
L 360.389473 26.517309 
L 360.639897 27.493695 
L 360.678424 27.447127 
L 360.813267 28.082187 
L 360.871057 28.187604 
L 361.526012 31.001111 
L 361.545275 30.967336 
L 361.583802 31.071218 
L 362.527707 35.345209 
L 362.54697 35.346744 
L 362.874448 36.945909 
L 362.912974 37.132692 
L 363.105608 37.850141 
L 363.490875 39.563933 
L 363.625719 40.138609 
L 364.704467 44.407995 
L 364.723731 44.380361 
L 364.742994 44.479126 
L 364.993418 45.515384 
L 365.012681 45.37517 
L 365.031945 45.606985 
L 365.089735 45.566558 
L 365.263105 46.156074 
L 365.282368 46.173984 
L 365.436475 46.701581 
L 365.609846 47.26244 
L 365.629109 47.253229 
L 365.860269 48.07763 
L 365.898796 48.006499 
L 365.918059 48.140061 
L 365.956586 48.06586 
L 366.14922 48.645653 
L 366.20701 48.602156 
L 366.187746 48.674822 
L 366.245537 48.679939 
L 366.49596 49.517134 
L 366.534487 49.39176 
L 366.573014 49.519181 
L 366.592277 49.779141 
L 366.688594 49.66963 
L 366.919754 50.385544 
L 366.939018 50.222813 
L 367.016071 50.382474 
L 367.150915 50.709983 
L 367.170178 50.609683 
L 367.189441 50.59996 
L 367.208705 50.861456 
L 367.247232 50.683885 
L 368.017766 52.334734 
L 368.094819 52.270768 
L 368.114083 52.017972 
L 368.15261 52.426846 
L 368.2104 52.195031 
L 368.422297 52.703182 
L 368.44156 52.635121 
L 368.460823 52.452433 
L 368.49935 52.743609 
L 368.537877 52.701646 
L 368.595667 52.615164 
L 368.576404 52.810134 
L 368.61493 52.682201 
L 368.67272 52.969283 
L 368.73051 52.857213 
L 368.769037 52.882288 
L 368.7883 53.20468 
L 368.884617 53.058836 
L 368.923144 52.995381 
L 369.077251 53.513766 
L 369.154304 53.142248 
L 369.192831 53.350523 
L 369.250621 53.417049 
L 369.385465 53.723065 
L 369.443255 53.516837 
L 369.481781 53.803919 
L 369.558835 53.570057 
L 369.578098 53.766562 
L 369.635888 54.01987 
L 369.712942 53.905753 
L 369.770732 53.935946 
L 369.867049 54.115564 
L 369.886312 53.962044 
L 369.963365 54.177483 
L 369.982629 54.066949 
L 370.078946 54.360172 
L 370.098209 54.254755 
L 370.155999 54.167249 
L 370.387159 54.623714 
L 370.425686 54.553095 
L 370.444949 54.62832 
L 370.464213 54.812544 
L 370.50274 54.574588 
L 370.56053 54.680517 
L 370.656846 54.921543 
L 370.695373 54.828919 
L 370.79169 55.011096 
L 370.830217 54.939453 
L 370.90727 54.933313 
L 370.96506 55.299202 
L 371.003587 55.035147 
L 371.042114 55.330929 
L 371.061377 55.099626 
L 371.176957 55.403083 
L 371.19622 55.175874 
L 371.273274 55.292549 
L 371.408117 55.596006 
L 371.427381 55.612894 
L 371.446644 55.477796 
L 371.523698 55.664579 
L 371.542961 55.509524 
L 371.716331 55.981853 
L 371.774121 55.755155 
L 371.793385 56.005393 
L 371.812648 55.83345 
L 371.928228 56.146631 
L 371.947492 56.046331 
L 371.986018 55.993111 
L 372.043808 56.144584 
L 372.063072 56.016651 
L 372.101598 56.145607 
L 372.178652 56.547829 
L 372.217178 56.293498 
L 372.236442 56.264329 
L 372.255705 56.298615 
L 372.371285 56.62766 
L 372.390549 56.302198 
L 372.429075 56.755081 
L 372.486865 56.516614 
L 372.737289 57.032952 
L 372.756552 56.758151 
L 372.775816 57.082078 
L 372.852869 56.948004 
L 372.987713 57.268349 
L 373.026239 57.128646 
L 373.045503 57.074402 
L 373.08403 57.261696 
L 373.103293 57.213593 
L 373.238136 57.522168 
L 373.276663 57.39577 
L 373.31519 57.561572 
L 373.411507 57.715603 
L 373.43077 57.637308 
L 373.450033 57.467925 
L 373.469297 57.92439 
L 373.527087 57.680805 
L 373.66193 58.041065 
L 373.681194 57.853259 
L 373.738984 58.289767 
L 373.758247 58.044647 
L 373.873827 58.385973 
L 373.893091 58.346058 
L 373.912354 58.297443 
L 373.931617 58.437658 
L 373.970144 58.392114 
L 373.989407 58.623417 
L 374.047197 58.314842 
L 374.066461 58.485761 
L 374.085724 58.381367 
L 374.104987 58.741627 
L 374.143514 58.560986 
L 374.316884 59.08807 
L 374.336148 58.912546 
L 374.413201 59.074253 
L 374.548045 59.156642 
L 374.779205 59.756393 
L 374.798468 59.60185 
L 374.817732 59.795285 
L 374.875522 59.649441 
L 374.991102 59.906843 
L 375.010365 59.864369 
L 375.048892 60.009701 
L 375.087419 60.060874 
L 375.106682 59.957504 
L 375.241525 60.36382 
L 375.260789 60.21337 
L 375.299315 60.487147 
L 375.337842 60.416528 
L 376.01206 61.741404 
L 376.050586 62.0029 
L 376.089113 61.641105 
L 376.12764 61.885713 
L 376.146903 61.769549 
L 376.166166 62.061237 
L 376.223956 61.982942 
L 376.339537 62.245461 
L 376.3588 61.682555 
L 376.435853 62.610838 
L 376.493643 62.410239 
L 376.570697 62.787386 
L 376.58996 62.577064 
L 376.667014 62.943464 
L 376.686277 62.784315 
L 376.70554 63.055022 
L 376.76333 62.920436 
L 377.052281 63.976653 
L 377.071544 63.572895 
L 377.129334 64.171623 
L 377.148597 63.772471 
L 377.302704 64.269364 
L 377.321968 63.977676 
L 377.360494 64.682332 
L 377.399021 64.399855 
L 377.418284 64.389621 
L 377.553128 64.905959 
L 377.572391 64.728388 
L 377.880605 65.73036 
L 377.899868 65.608568 
L 377.919131 65.515433 
L 377.938395 65.781534 
L 377.957658 65.581958 
L 378.111765 66.169939 
L 378.131028 66.175568 
L 378.150292 65.916119 
L 378.227345 66.284055 
L 378.246608 66.263586 
L 378.285135 66.25898 
L 378.381452 66.76099 
L 378.439242 66.622822 
L 378.477769 66.845426 
L 378.651139 67.485603 
L 378.670402 67.23639 
L 378.747456 67.36637 
L 378.920826 68.110941 
L 378.940089 67.799296 
L 379.017142 68.245015 
L 379.036406 68.14625 
L 379.074933 68.381136 
L 379.113459 68.282883 
L 379.151986 68.834019 
L 379.229039 68.811503 
L 379.248303 68.581223 
L 379.286829 68.873934 
L 379.306093 68.839648 
L 379.440936 69.216283 
L 379.460199 68.976792 
L 379.51799 69.452704 
L 379.86473 70.460817 
L 379.883993 70.214674 
L 379.941783 70.703379 
L 379.961047 70.552929 
L 379.98031 70.541671 
L 380.076627 70.986878 
L 380.09589 70.912677 
L 380.15368 70.921377 
L 380.288524 71.388589 
L 380.50042 72.088127 
L 380.538947 72.052306 
L 380.577474 72.033372 
L 380.693054 72.777431 
L 380.712317 72.568644 
L 380.731581 72.965749 
L 380.770107 72.880801 
L 380.866424 72.851121 
L 380.904951 73.238502 
L 380.924214 73.160207 
L 380.962741 73.415562 
L 380.982004 73.242084 
L 381.097584 74.029641 
L 381.136111 73.803967 
L 381.155374 73.730789 
L 381.174638 74.013265 
L 381.193901 73.949299 
L 381.367271 74.524998 
L 381.386534 74.518346 
L 382.657915 78.377322 
L 382.696442 78.333824 
L 382.715705 78.19361 
L 382.754232 78.679756 
L 382.812022 78.667986 
L 382.889075 78.982702 
L 382.908339 78.915153 
L 382.927602 79.185859 
L 382.946865 78.990378 
L 383.043182 79.689916 
L 383.081709 79.646419 
L 383.100972 79.485735 
L 383.158762 79.858788 
L 383.178026 79.814267 
L 383.216552 80.001561 
L 383.389922 80.706729 
L 383.621082 81.265029 
L 383.755926 82.070496 
L 383.775189 81.688232 
L 383.852243 82.162097 
L 383.871506 82.147256 
L 384.044876 82.895921 
L 384.102666 82.92816 
L 384.276036 83.834439 
L 384.333826 83.614394 
L 385.62447 87.891456 
L 385.74005 88.445662 
L 385.759314 88.356109 
L 385.79784 88.367879 
L 385.951947 89.109891 
L 386.43353 90.96134 
L 386.472057 90.733619 
L 386.587637 91.410641 
L 386.934377 92.386004 
L 387.049957 93.002642 
L 387.069221 92.937652 
L 388.302074 97.517147 
L 388.321338 97.316548 
L 388.340601 97.0484 
L 388.359864 97.675273 
L 388.398391 97.609771 
L 388.513971 98.357412 
L 388.552498 98.215151 
L 388.591024 98.168583 
L 388.687341 98.832812 
L 388.725868 98.634771 
L 388.918501 99.657213 
L 388.937764 99.597852 
L 388.976291 99.827109 
L 388.995554 99.773888 
L 389.149661 100.408437 
L 389.168924 100.372104 
L 389.303768 101.052197 
L 389.323031 100.934498 
L 389.361558 101.184224 
L 389.400084 101.158125 
L 389.477138 101.811096 
L 389.496401 101.501498 
L 389.573455 101.917025 
L 389.592718 101.871481 
L 389.611981 101.940053 
L 389.823878 102.912857 
L 389.843141 102.919509 
L 389.862404 102.791064 
L 389.900931 103.225014 
L 389.939458 103.160024 
L 390.093564 104.004894 
L 390.112828 103.754145 
L 390.132091 104.06579 
L 390.170618 103.977772 
L 390.343988 104.808314 
L 390.382515 104.98998 
L 390.401778 104.835436 
L 390.536621 105.501712 
L 390.555885 105.351263 
L 390.594411 105.798005 
L 390.671465 105.791865 
L 390.806308 106.728847 
L 390.844835 106.686885 
L 390.864098 106.687397 
L 390.979678 107.366978 
L 390.998941 107.066591 
L 391.037468 107.554272 
L 391.075995 107.448855 
L 391.249365 108.411936 
L 391.268628 108.234876 
L 391.345681 108.479485 
L 391.653895 109.799755 
L 391.673158 109.740394 
L 391.692421 109.574593 
L 391.730948 109.938946 
L 391.904318 110.635414 
L 391.923581 110.543814 
L 391.942844 110.828849 
L 391.962108 110.822197 
L 392.443691 112.735054 
L 392.462954 112.596374 
L 392.501481 112.983244 
L 392.520745 112.937188 
L 392.790431 114.060953 
L 392.983064 114.889448 
L 393.002328 114.861815 
L 393.021591 114.741046 
L 393.060118 114.955973 
L 393.194961 115.762976 
L 393.214224 115.554189 
L 393.291278 115.917007 
L 393.426121 116.508059 
L 393.560964 117.047937 
L 393.580228 116.957872 
L 394.813081 121.875623 
L 394.832344 121.794769 
L 394.851607 122.018908 
L 395.256137 123.769545 
L 395.2754 123.575599 
L 395.33319 124.012618 
L 395.352454 123.892361 
L 395.50656 124.634885 
L 395.545087 124.833438 
L 395.56435 124.734673 
L 395.718457 125.657327 
L 396.180777 127.544086 
L 395.756984 125.595919 
L 396.20004 127.490354 
L 396.296357 127.689929 
L 396.450463 128.493861 
L 396.469727 128.431942 
L 396.508253 128.650963 
L 396.758676 129.868375 
L 396.797203 129.712297 
L 396.83573 129.964581 
L 399.205118 139.857397 
L 399.243645 139.765285 
L 399.397752 140.645977 
L 399.436278 140.445378 
L 399.474805 140.851694 
L 399.725228 142.053242 
L 399.744491 141.92275 
L 399.783018 142.099298 
L 399.937124 142.658622 
L 399.956388 142.65811 
L 400.110494 143.64166 
L 400.129758 143.492746 
L 400.534287 145.322702 
L 400.553551 145.305303 
L 400.649867 145.998701 
L 400.688394 145.90096 
L 400.707657 145.896355 
L 400.977344 147.188991 
L 400.996607 147.082551 
L 401.035133 147.438717 
L 401.07366 147.404431 
L 401.401137 148.996943 
L 401.458926 149.047604 
L 401.767139 150.660074 
L 401.786403 150.500925 
L 401.844193 150.796707 
L 402.556935 153.953074 
L 402.576199 153.777549 
L 402.633989 154.203823 
L 402.865148 155.168439 
L 402.961465 155.533304 
L 402.980728 155.494924 
L 403.154098 156.374081 
L 403.173361 156.378687 
L 403.443048 157.643178 
L 403.847577 159.278676 
L 404.001684 160.07442 
L 404.020947 159.97105 
L 404.059474 160.251991 
L 404.27137 161.226842 
L 404.290633 161.141383 
L 404.32916 161.397249 
L 404.406213 161.75188 
L 404.56032 162.468306 
L 404.61811 162.674022 
L 404.6759 162.929377 
L 410.088888 186.170228 
L 410.185204 186.603665 
L 410.377837 187.473611 
L 410.397101 187.472588 
L 410.85942 189.556875 
L 411.013526 190.036368 
L 411.167633 190.885333 
L 411.167633 190.885333 
" clip-path="url(#p2c39d148f5)" style="fill: none; stroke: #8dd3c7; stroke-width: 1.5; stroke-linecap: square"/>
   </g>
   <g id="line2d_13">
    <path d="M 84.980608 14.463022 
L 221.40402 14.463022 
" clip-path="url(#p2c39d148f5)" style="fill: none; stroke: #ffffff; stroke-opacity: 0.5; stroke-width: 1.5; stroke-linecap: square"/>
   </g>
   <g id="patch_3">
    <path d="M 36.692959 255.181443 
L 36.692959 3.00024 
" style="fill: none; stroke: #ffffff; stroke-width: 0.8; stroke-linejoin: miter; stroke-linecap: square"/>
   </g>
   <g id="patch_4">
    <path d="M 428.99976 255.181443 
L 428.99976 3.00024 
" style="fill: none; stroke: #ffffff; stroke-width: 0.8; stroke-linejoin: miter; stroke-linecap: square"/>
   </g>
   <g id="patch_5">
    <path d="M 36.692959 255.181443 
L 428.99976 255.181443 
" style="fill: none; stroke: #ffffff; stroke-width: 0.8; stroke-linejoin: miter; stroke-linecap: square"/>
   </g>
   <g id="patch_6">
    <path d="M 36.692959 3.00024 
L 428.99976 3.00024 
" style="fill: none; stroke: #ffffff; stroke-width: 0.8; stroke-linejoin: miter; stroke-linecap: square"/>
   </g>
   <g id="text_15">
    <!-- period -->
    <g style="fill: #ffffff; opacity: 0.5" transform="translate(132.893662 30.442456) scale(0.16 -0.16)">
     <defs>
      <path id="CMSS17-70" d="M 966 333 
C 1178 129 1466 -5 1773 -5 
C 2368 -5 2880 603 2880 1412 
C 2880 2159 2496 2816 1946 2816 
C 1626 2816 1242 2702 954 2472 
L 954 2765 
L 480 2765 
L 480 -1216 
L 966 -1216 
L 966 333 
z
M 966 2100 
C 1018 2176 1235 2415 1587 2415 
C 2035 2415 2394 1960 2394 1412 
C 2394 787 1958 384 1530 384 
C 1402 384 1267 415 1139 523 
C 966 674 966 768 966 857 
L 966 2100 
z
" transform="scale(0.015625)"/>
      <path id="CMSS17-6f" d="M 2829 1356 
C 2829 2176 2221 2816 1504 2816 
C 768 2816 173 2157 173 1356 
C 173 544 787 -64 1498 -64 
C 2227 -64 2829 563 2829 1356 
z
M 1504 337 
C 1050 337 659 709 659 1408 
C 659 2151 1114 2427 1498 2427 
C 1914 2427 2342 2126 2342 1408 
C 2342 683 1926 337 1504 337 
z
" transform="scale(0.015625)"/>
     </defs>
     <use xlink:href="#CMSS17-70" transform="scale(0.996264)"/>
     <use xlink:href="#CMSS17-65" transform="translate(50.807382 0) scale(0.996264)"/>
     <use xlink:href="#CMSS17-72" transform="translate(92.446204 0) scale(0.996264)"/>
     <use xlink:href="#CMSS17-69" transform="translate(124.355976 0) scale(0.996264)"/>
     <use xlink:href="#CMSS17-6f" transform="translate(146.5367 0) scale(0.996264)"/>
     <use xlink:href="#CMSS17-64" transform="translate(195.982762 0) scale(0.996264)"/>
    </g>
   </g>
  </g>
 </g>
 <defs>
  <clipPath id="p2c39d148f5">
   <rect x="36.692959" y="3.00024" width="392.306801" height="252.181203"/>
  </clipPath>
 </defs>
</svg>
