<?xml version="1.0" encoding="UTF-8" standalone="no"?>
<svg
   width="564.50177"
   height="478.63965"
   version="1.1"
   id="svg72"
   sodipodi:docname="Eratosthenes_Measurement_of_Earth.svg"
   inkscape:version="1.1.2 (0a00cf5339, 2022-02-04)"
   xmlns:inkscape="http://www.inkscape.org/namespaces/inkscape"
   xmlns:sodipodi="http://sodipodi.sourceforge.net/DTD/sodipodi-0.dtd"
   xmlns="http://www.w3.org/2000/svg"
   xmlns:svg="http://www.w3.org/2000/svg">
  <defs
     id="defs76" />
  <sodipodi:namedview
     id="namedview74"
     pagecolor="#ffffff"
     bordercolor="#999999"
     borderopacity="1"
     inkscape:pageshadow="0"
     inkscape:pageopacity="0"
     inkscape:pagecheckerboard="true"
     showgrid="false"
     inkscape:zoom="1.204"
     inkscape:cx="310.21595"
     inkscape:cy="220.51495"
     inkscape:window-width="1440"
     inkscape:window-height="836"
     inkscape:window-x="0"
     inkscape:window-y="0"
     inkscape:window-maximized="1"
     inkscape:current-layer="svg72"
     fit-margin-top="5"
     fit-margin-left="5"
     fit-margin-right="5"
     fit-margin-bottom="5"
     lock-margins="true" />
  <path
     d="m 334.93838,107.76812 a 196.02,196.02 0 0 1 19.245,267.68 196.02,196.02 0 0 1 -265.940004,36.02101 196.02,196.02 0 0 1 -52.654,-263.15 196.02,196.02 0 0 1 259.330004,-69.080005"
     id="path2"
     style="fill:#157eb8;fill-opacity:1;stroke:#ffffff;stroke-width:2;stroke-linecap:round;stroke-opacity:1" />
  <path
     d="m 202.03838,251.85812 c 73.208,-79.278 146.42,-158.559995 219.63,-237.839995"
     id="path4"
     style="fill:none;fill-opacity:1;stroke:#ffffff;stroke-width:2;stroke-linecap:round;stroke-opacity:1" />
  <path
     d="m 202.03838,251.85812 c 103.34,-48.13 206.68,-96.261 310.02,-144.38999"
     id="path6"
     style="fill:none;fill-opacity:1;stroke:#ffffff;stroke-width:2;stroke-linecap:round;stroke-opacity:1" />
  <path
     d="m 335.01838,107.84812 c 46.067,-21.454995 92.134,-42.910995 138.2,-64.365995"
     id="path8"
     style="fill:none;fill-opacity:1;stroke:#ffffff;stroke-width:2;stroke-linecap:round;stroke-opacity:1" />
  <path
     d="M 6.0183762,251.85812 H 398.05838"
     id="path12"
     style="fill:#ffffff;fill-opacity:1;stroke:#ffffff;stroke-width:2;stroke-linecap:round;stroke-opacity:1" />
  <path
     d="M 202.03838,55.838125 V 447.87812"
     id="path14"
     style="fill:#ffffff;fill-opacity:1;stroke:#ffffff;stroke-width:2;stroke-linecap:round;stroke-opacity:1" />
  <path
     d="m 256.75838,192.80812 a 22.821,22.821 0 0 1 17.382,24.995"
     fill="none"
     id="path16"
     style="fill:none;fill-opacity:1;stroke:#ffffff;stroke-width:2;stroke-linecap:round;stroke-opacity:1" />
  <path
     d="m 476.05838,133.19812 -22.673,1.59531 16.238,-15.904 c -0.6044,2.8108 -0.2522,5.6589 0.8791,8.1689 1.1292,2.5109 3.0422,4.6816 5.5557,6.1395 z"
     stroke-linejoin="round"
     id="path20"
     style="fill:#ffffff;fill-opacity:1;stroke:#ffffff;stroke-opacity:1" />
  <path
     d="m 438.85838,68.208125 -22.673,1.5953 16.238,-15.904 c -0.6044,2.8108 -0.2523,5.6589 0.8791,8.1689 1.1292,2.5109 3.0422,4.6816 5.5557,6.1395 z"
     stroke-linejoin="round"
     id="path22"
     style="fill:#ffffff;fill-opacity:1;stroke:#ffffff;stroke-opacity:1" />
  <path
     d="m 335.15838,107.96813 a 196.02,196.02 0 0 1 44.588,61.155"
     fill="none"
     stroke-linecap="round"
     stroke-width="4"
     id="path24"
     style="fill:none;fill-opacity:1;stroke:#ffffff;stroke-opacity:1" />
  <circle
     cx="335.01837"
     cy="107.84812"
     r="5.073"
     id="circle28"
     style="fill:#ffffff;fill-opacity:1" />
  <circle
     cx="379.75839"
     cy="169.09813"
     r="5.073"
     id="circle30"
     style="fill:#ffffff;fill-opacity:1" />
  <circle
     cx="202.03838"
     cy="251.85812"
     r="5.073"
     id="circle32"
     style="fill:#ffffff;fill-opacity:1" />
  <path
     d="m 549.15838,44.598125 -6.4943,-5.4514 7.4616,-2.2974 z m 4.625,13.805 -1.4762,-8.3483 7.1946,3.038 z m -5.3354,13.548 4.2371,-7.3356 3.562,6.9477 z m -12.792,6.9527 7.9604,-2.897 -1.7382,7.6077 z m -14.268,-2.897 7.9603,2.897 -6.2222,4.7107 z m -9.0688,-11.391 4.2372,7.3356 -7.7993,-0.38795 z m 0.3779,-14.56 -1.4763,8.3483 -5.7183,-5.3103 z m 9.6431,-10.908 -6.4942,5.4514 -0.9674,-7.7488 z m 14.399,-2.1564 h -8.4743 l 4.2372,-6.5547 z m 11.986,20.863 a 16.223,16.223 0 0 1 -16.223,16.223 16.223,16.223 0 0 1 -16.223,-16.223 16.223,16.223 0 0 1 16.223,-16.223 16.223,16.223 0 0 1 16.223,16.223 z"
     fill="#fd5"
     id="path34"
     style="fill:#fff955;fill-opacity:1" />
  <path
     d="m 202.03838,251.85812 c 73.208,-79.278 146.42,-158.559995 219.63,-237.839995"
     fill="none"
     stroke="#000"
     stroke-linecap="round"
     stroke-width="2"
     id="path36"
     style="stroke:#ffffff;stroke-opacity:1" />
  <path
     d="m 392.39838,46.703125 a 22.821,22.821 0 0 1 17.382,24.995"
     fill="none"
     stroke="#000"
     stroke-linecap="round"
     stroke-width="2"
     id="path38"
     style="stroke:#ffffff;stroke-opacity:1" />
  <text
     x="13.498376"
     y="244.32812"
     id="text40"
     style="font-size:22px;font-family:'DejaVu Sans';fill:#ffffff;fill-opacity:1">Equator</text>
  <text
     x="393.49838"
     y="185.32812"
     id="text42"
     style="font-size:22px;font-family:'DejaVu Sans';fill:#ffffff;fill-opacity:1">Syene</text>
  <text
     x="310.49838"
     y="221.32812"
     id="text44"
     style="font-size:22px;font-family:'DejaVu Sans';fill:#ffffff;fill-opacity:1">R</text>
  <text
     x="253.49838"
     y="174.32812"
     id="text46"
     style="font-size:22px;font-family:'DejaVu Sans';fill:#ffffff;fill-opacity:1">R</text>
  <text
     x="367.49838"
     y="132.32812"
     id="text48"
     style="font-size:22px;font-family:'DejaVu Sans';fill:#ffffff;fill-opacity:1">ΔG</text>
  <text
     x="194.49838"
     y="473.32812"
     id="text52"
     style="font-size:22px;font-family:'DejaVu Sans';fill:#ffffff;fill-opacity:1">S</text>
  <text
     x="193.49838"
     y="43.328125"
     id="text54"
     style="font-size:22px;font-family:'DejaVu Sans';fill:#ffffff;fill-opacity:1">N</text>
  <g
     font-family="'DejaVu Serif'"
     text-anchor="end"
     id="g62"
     style="font-size:22px;fill:#ffffff;fill-opacity:1"
     transform="translate(-16.501624,-11.671875)">
    <text
       x="283"
       y="226"
       id="text58"
       style="fill:#ffffff;fill-opacity:1">γ</text>
    <text
       x="414"
       y="83"
       id="text60"
       style="fill:#ffffff;fill-opacity:1">γ</text>
  </g>
  <text
     x="327.49838"
     y="102.32812"
     id="text64"
     style="font-size:22px;font-family:'DejaVu Sans';text-anchor:end;fill:#ffffff;fill-opacity:1">Alexandria</text>
  <text
     x="549.49835"
     y="21.328125"
     id="text66"
     style="font-size:22px;font-family:'DejaVu Sans';text-anchor:end;fill:#ffffff;fill-opacity:1">Sun</text>
</svg>
