<?xml version="1.0" encoding="UTF-8" standalone="no"?>
<!-- Generator: Adobe Illustrator 13.0.0, SVG Export Plug-In . SVG Version: 6.00 Build 14948)  -->

<svg
   xmlns:osb="http://www.openswatchbook.org/uri/2009/osb"
   xmlns:dc="http://purl.org/dc/elements/1.1/"
   xmlns:cc="http://creativecommons.org/ns#"
   xmlns:rdf="http://www.w3.org/1999/02/22-rdf-syntax-ns#"
   xmlns:svg="http://www.w3.org/2000/svg"
   xmlns="http://www.w3.org/2000/svg"
   xmlns:xlink="http://www.w3.org/1999/xlink"
   xmlns:sodipodi="http://sodipodi.sourceforge.net/DTD/sodipodi-0.dtd"
   xmlns:inkscape="http://www.inkscape.org/namespaces/inkscape"
   version="1.2"
   id="svg2"
   sodipodi:version="0.32"
   sodipodi:docname="Stellar_parallax_diagram.svg"
   inkscape:version="0.92.4 (f8dce91, 2019-08-02)"
   inkscape:output_extension="org.inkscape.output.svg.inkscape"
   x="0px"
   y="0px"
   width="554.74px"
   height="870.07px"
   viewBox="0 0 554.74 870.07"
   xml:space="preserve"><metadata
   id="metadata94"><rdf:RDF><cc:Work
       rdf:about=""><dc:format>image/svg+xml</dc:format><dc:type
         rdf:resource="http://purl.org/dc/dcmitype/StillImage" /><dc:title></dc:title></cc:Work></rdf:RDF></metadata><defs
   id="defs92"><linearGradient
     id="linearGradient898"
     osb:paint="solid"><stop
       style="stop-color:#dadada;stop-opacity:1;"
       offset="0"
       id="stop896" /></linearGradient><linearGradient
     id="linearGradient884"
     osb:paint="solid"><stop
       style="stop-color:#ffffff;stop-opacity:1;"
       offset="0"
       id="stop882" /></linearGradient><linearGradient
     id="linearGradient878"
     osb:paint="solid"><stop
       style="stop-color:#ffffff;stop-opacity:1;"
       offset="0"
       id="stop876" /></linearGradient><linearGradient
     inkscape:collect="always"
     xlink:href="#linearGradient878"
     id="linearGradient880"
     x1="39.462"
     y1="593.07346"
     x2="183.962"
     y2="593.07346"
     gradientUnits="userSpaceOnUse" /><linearGradient
     inkscape:collect="always"
     xlink:href="#linearGradient884"
     id="linearGradient886"
     x1="280.166"
     y1="701.791"
     x2="296.416"
     y2="701.791"
     gradientUnits="userSpaceOnUse" /><linearGradient
     inkscape:collect="always"
     xlink:href="#linearGradient898"
     id="linearGradient900"
     x1="-1.074"
     y1="361.14961"
     x2="141.926"
     y2="361.14961"
     gradientUnits="userSpaceOnUse" /><linearGradient
     inkscape:collect="always"
     xlink:href="#linearGradient898"
     id="linearGradient902"
     x1="199.29117"
     y1="199.26925"
     x2="252.74165"
     y2="199.26925"
     gradientUnits="userSpaceOnUse" /></defs><sodipodi:namedview
   height="870.07px"
   width="554.74px"
   id="base"
   inkscape:current-layer="svg2"
   inkscape:window-y="64"
   inkscape:window-x="0"
   inkscape:window-width="3000"
   inkscape:pageopacity="0.0"
   inkscape:pageshadow="2"
   inkscape:window-height="1864"
   bordercolor="#666666"
   borderopacity="1.0"
   inkscape:cy="589.14156"
   objecttolerance="10.0"
   inkscape:cx="253.50412"
   gridtolerance="10.0"
   guidetolerance="10.0"
   inkscape:zoom="0.8984771"
   pagecolor="#ffffff"
   showgrid="false"
   inkscape:window-maximized="1"
   inkscape:pagecheckerboard="true" /><line
   fill="none"
   stroke="#000000"
   x1="206.58"
   y1="333.145"
   x2="143.728"
   y2="695.916"
   id="line67"
   style="stroke:#ffffff;stroke-opacity:1" /><path
   id="path2045"
   fill="none"
   stroke="#000000"
   d="M304.419,701.901h132.455"
   style="stroke:#ffffff;stroke-opacity:1" /><g
   id="g2209"
   transform="translate(104.454, 109.884)"
   style="stroke:url(#linearGradient880)"><path
     id="path1308"
     fill="none"
     stroke="#000000"
     stroke-width="2.5"
     d="M182.712,591.907c0,10.493-31.788,19-71,19   s-71-8.507-71-19s31.788-19,71-19S182.712,581.414,182.712,591.907z"
     style="stroke:url(#linearGradient880)" /><path
     id="path2185"
     fill="none"
     stroke="#000000"
     stroke-width="2.5"
     d="M40.212,591.907h143"
     style="stroke:url(#linearGradient880)" /><path
     id="path2191"
     fill="none"
     stroke="#000000"
     stroke-width="2.5"
     d="M163.525,570.157l-13.063,5.875l10.563,9.75"
     style="stroke:url(#linearGradient880)" /><path
     id="path2193"
     fill="none"
     stroke="#000000"
     stroke-width="2.5"
     d="M61.587,597.407l6.813,9.688l-9.688,9.125"
     style="stroke:url(#linearGradient880)" /></g><path
   id="path2183"
   fill="#FFFF00"
   stroke="#000000"
   stroke-width="1.25"
   d="M223.291,701.791c0,4.004-3.246,7.25-7.25,7.25  s-7.25-3.246-7.25-7.25s3.246-7.25,7.25-7.25S223.291,697.787,223.291,701.791z"
   style="stroke:#ffffff;stroke-opacity:1" /><path
   id="path2187"
   fill="#0000FF"
   stroke="#000000"
   stroke-width="1.25"
   d="M151.291,701.791c0,4.143-3.358,7.5-7.5,7.5  s-7.5-3.357-7.5-7.5s3.358-7.5,7.5-7.5S151.291,697.648,151.291,701.791z"
   style="stroke:#ffffff;stroke-opacity:1" /><g
   id="use2189"
   transform="translate(144.5, -6.62658e-05)"
   style="stroke:url(#linearGradient886)"><path
     id="path2187_1_"
     fill="#0000FF"
     stroke="#000000"
     stroke-width="1.25"
     d="M295.791,701.791c0,4.142-3.358,7.5-7.5,7.5   s-7.5-3.358-7.5-7.5c0-4.143,3.358-7.5,7.5-7.5S295.791,697.648,295.791,701.791z"
     style="stroke:url(#linearGradient886)" /></g><text
   transform="translate(50.9477,841.4727)"
   font-size="28"
   id="text13"
   style="font-size:28px;line-height:0%;font-family:ArialMT;fill:#ffffff;">Earth's motion around Sun</text>

<path
   id="path2203"
   fill="#FC80FF"
   stroke="#808080"
   stroke-width="1.25"
   d="M157.416,69.791c0,4.004-3.246,7.25-7.25,7.25  c-4.004,0-7.25-3.246-7.25-7.25s3.246-7.25,7.25-7.25C154.17,62.541,157.416,65.787,157.416,69.791z" /><path
   id="path2203_1_"
   fill="#FC80FF"
   stroke="#808080"
   stroke-width="1.25"
   d="M260.666,69.791c0,4.004-3.246,7.25-7.25,7.25  c-4.004,0-7.25-3.246-7.25-7.25s3.246-7.25,7.25-7.25C257.42,62.541,260.666,65.787,260.666,69.791z" /><g
   id="use2215"
   transform="matrix(0.73861, 0, 0, 0.313601, 149.649, -43.8165)"
   style="stroke:url(#linearGradient900);stroke-width:4.32156917;stroke-miterlimit:4;stroke-dasharray:none"><path
     id="path2221"
     fill="none"
     stroke="#808080"
     d="M141.426,361.883c0,10.493-31.788,19-71,19s-71-8.508-71-19   c0-10.494,31.788-19,71-19S141.426,351.389,141.426,361.883z"
     style="stroke:url(#linearGradient900);stroke-width:4.32156917;stroke-miterlimit:4;stroke-dasharray:none" /><path
     id="path2223"
     fill="none"
     stroke="#808080"
     d="M-1.074,361.883h143"
     style="stroke:url(#linearGradient900);stroke-width:4.32156917;stroke-miterlimit:4;stroke-dasharray:none" /><path
     id="path2225"
     fill="none"
     stroke="#808080"
     d="M108.356,333.65l-13.062,9.258l12.956,13.132"
     style="stroke:url(#linearGradient900);stroke-width:4.32156917;stroke-miterlimit:4;stroke-dasharray:none" /><path
     id="path2227"
     fill="none"
     stroke="#808080"
     d="M31.43,365.692l7.291,12.506l-8.97,10.535"
     style="stroke:url(#linearGradient900);stroke-width:4.32156917;stroke-miterlimit:4;stroke-dasharray:none" /></g><text
   transform="translate(136.541,36.791)"
   font-size="28"
   id="text22"
   style="font-size:28px;line-height:0%;font-family:ArialMT;fill:#ffffff;">Distant stars</text>

<text
   font-size="28"
   id="text26"
   x="63.604"
   y="337.36331"
   style="font-size:28px;line-height:0%;font-family:ArialMT;fill:#ffffff;">Near star</text>

<text
   transform="translate(273.4712,155.6992)"
   font-size="28"
   id="text28"
   style="font-size:28px;line-height:0%;font-family:ArialMT;fill:#ffffff;">Apparent parallax</text>

<text
   transform="translate(273.4712,189.2988)"
   font-size="28"
   id="text30"
   style="font-size:28px;line-height:0%;font-family:ArialMT;fill:#ffffff;">motion of near star</text>

<text
   transform="translate(265.8521,256.832)"
   font-size="28"
   id="text32"
   style="font-size:28px;line-height:0%;font-family:ArialMT;fill:#ffffff;">Parallax angle</text>

<text
   transform="translate(265.8521,284.832)"
   font-size="28"
   id="text34"
   style="font-size:28px;line-height:0%;font-family:ArialMT;fill:#ffffff;">= 1 arc second</text>

<path
   id="path2264"
   fill="none"
   stroke="#000000"
   stroke-width="1.25"
   d="M11.791,90.791c124.595-43.23,262.424-45.02,389-9"
   style="stroke:#ffffff;stroke-opacity:1" /><path
   id="path2295"
   d="M31.291,85.791c0,2.209-1.791,4-4,4c-2.209,0-4-1.791-4-4s1.791-4,4-4  C29.5,81.791,31.291,83.582,31.291,85.791z"
   style="fill:#ffffff" /><path
   id="path2295_1_"
   d="M98.791,68.291c0,2.209-1.791,4-4,4c-2.209,0-4-1.791-4-4s1.791-4,4-4  C97,64.291,98.791,66.082,98.791,68.291z"
   style="fill:#ffffff" /><path
   id="path2295_2_"
   d="M160.791,58.291c0,2.209-1.791,4-4,4c-2.209,0-4-1.791-4-4s1.791-4,4-4  C159,54.291,160.791,56.082,160.791,58.291z"
   style="fill:#ffffff" /><path
   id="path2295_3_"
   d="M214.291,56.291c0,2.209-1.791,4-4,4c-2.209,0-4-1.791-4-4s1.791-4,4-4  C212.5,52.291,214.291,54.082,214.291,56.291z"
   style="fill:#ffffff" /><path
   id="path2295_4_"
   d="M298.791,60.291c0,2.209-1.791,4-4,4c-2.21,0-4-1.791-4-4s1.79-4,4-4  C297,56.291,298.791,58.082,298.791,60.291z"
   style="fill:#ffffff" /><path
   id="path2295_5_"
   d="M367.791,72.291c0,2.209-1.791,4-4,4s-4-1.791-4-4s1.791-4,4-4S367.791,70.082,367.791,72.291z"
   style="fill:#ffffff" /><text
   transform="translate(209.0801,211.8447)"
   font-size="24"
   id="text43"
   style="font-size:24px;line-height:0%;font-family:ArialMT;fill:#e6e6e6;">p</text>

<path
   id="path2043"
   fill="none"
   stroke="#000000"
   d="M226.107,329.675h215.601"
   style="stroke:#ffffff;stroke-opacity:1" /><path
   id="path2047"
   fill="none"
   stroke="#000000"
   d="M417.537,308.405v413.799"
   style="stroke:#ffffff;stroke-opacity:1" /><path
   id="path2049"
   fill="none"
   stroke="#000000"
   stroke-width="5"
   d="M401.102,346.111l36.256-36.256"
   style="stroke:#ffffff;stroke-opacity:1" /><path
   id="path2936"
   fill="none"
   stroke="#000000"
   stroke-width="5"
   d="M401.343,720.029l36.256-36.256"
   style="stroke:#ffffff;stroke-opacity:1" /><text
   transform="rotate(-90,487.24265,79.18505)"
   font-size="28"
   id="text50"
   style="font-size:28px;line-height:0%;font-family:ArialMT;fill:#ffffff;">1 Parsec</text>

<path
   id="path2942"
   fill="none"
   stroke="#000000"
   stroke-width="0.5507"
   d="M240.788,784.104H115.294"
   style="fill:#ffffff;stroke:#ffffff;stroke-opacity:1" /><text
   transform="translate(150.207,758.625)"
   font-size="28"
   id="text53"
   style="font-size:28px;line-height:0%;font-family:ArialMT;fill:#ffffff;">1</text>

<text
   transform="translate(165.7793,758.625)"
   font-size="28"
   id="text55"
   style="font-size:28px;font-family:ArialMT" />

<text
   transform="translate(172.0137,758.625)"
   font-size="28"
   id="text57"
   style="font-size:28px;line-height:0%;font-family:ArialMT;fill:#ffffff;">A</text>

<text
   transform="translate(190.6894,758.625)"
   font-size="28"
   id="text59"
   style="font-size:28px;line-height:0%;font-family:ArialMT;fill:#ffffff;">U</text>

<path
   id="path2954"
   fill="none"
   stroke="#000000"
   stroke-width="0.8918"
   d="M142.906,717.217v85.287"
   style="fill:#ffffff;stroke:#ffffff;stroke-opacity:1" /><path
   id="path2956"
   fill="none"
   stroke="#000000"
   stroke-width="0.8918"
   d="M216.038,716.833v85.287"
   style="stroke:#ffffff;stroke-opacity:1" /><path
   id="path2958"
   fill="none"
   stroke="#000000"
   stroke-width="5"
   d="M125.799,800.645l36.256-36.256"
   style="fill:#ffffff;stroke:#ffffff;stroke-opacity:1" /><path
   id="path2960"
   fill="none"
   stroke="#000000"
   stroke-width="5"
   d="M199.789,800.645l36.256-36.256"
   style="fill:#ffffff;stroke:#ffffff;stroke-opacity:1" /><line
   fill="none"
   stroke="#000000"
   x1="207.181"
   y1="329.675"
   x2="206.58"
   y2="333.145"
   id="line65" /><line
   fill="none"
   stroke="#000000"
   x1="206.58"
   y1="333.145"
   x2="216.041"
   y2="701.541"
   id="line69"
   style="stroke:#ffffff;stroke-opacity:1" /><line
   fill="none"
   stroke="#000000"
   x1="206.49"
   y1="329.675"
   x2="206.58"
   y2="333.145"
   id="line71" /><g
   id="g73"
   style="stroke:url(#linearGradient902);stroke-width:1.501;stroke-miterlimit:4;stroke-dasharray:none"><path
     id="path2311"
     fill="none"
     stroke="#808080"
     stroke-width="1.25"
     d="M204.127,224.825c7.299-0.184,13.493,0.269,20.687,1.51"
     style="stroke:url(#linearGradient902);stroke-width:1.501;stroke-miterlimit:4;stroke-dasharray:none" /><line
     fill="none"
     stroke="#808080"
     x1="252.249"
     y1="69.549"
     x2="207.181"
     y2="329.675"
     id="line76"
     style="stroke:url(#linearGradient902);stroke-width:1.501;stroke-miterlimit:4;stroke-dasharray:none" /><line
     fill="none"
     stroke="#808080"
     x1="199.791"
     y1="68.791"
     x2="206.49"
     y2="329.675"
     id="line78"
     style="stroke:url(#linearGradient902);stroke-width:1.501;stroke-miterlimit:4;stroke-dasharray:none" /></g><line
   fill="none"
   stroke="#000000"
   x1="206.49"
   y1="329.675"
   x2="207.181"
   y2="329.675"
   id="line80" /><path
   id="path2203_2_"
   fill="#FF00FF"
   stroke="#000000"
   stroke-width="1.25"
   d="M214.416,330.666c0,4.004-3.246,7.25-7.25,7.25  c-4.004,0-7.25-3.246-7.25-7.25s3.246-7.25,7.25-7.25C211.17,323.416,214.416,326.662,214.416,330.666z"
   style="stroke:#ffffff;stroke-opacity:1" /><g
   id="g2502"
   transform="translate(104.454, 109.884)"><path
     id="path2314"
     fill="none"
     stroke="#FF00FF"
     stroke-width="2.5"
     d="M158.337,125.907l-38.312-20.093" /><path
     id="path2500"
     fill="none"
     stroke="#FF00FF"
     stroke-width="2.5"
     d="M130.587,104.344l-10.625,1.5l5.875,9.688" /></g><g
   id="g2506"
   transform="translate(101.078, 12.7596)"><path
     id="path2508"
     fill="none"
     stroke="#FF00FF"
     stroke-width="2.5"
     d="M167.837,120.907L61.526,70.314" /><path
     id="path2510"
     fill="none"
     stroke="#FF00FF"
     stroke-width="2.5"
     d="M70.95,68.713l-10.702,0.785l5.213,10.06" /></g><g
   id="g2512"
   transform="translate(135.02, -8.45363)"><path
     id="path2514"
     fill="none"
     stroke="#FF00FF"
     stroke-width="2.5"
     d="M138.892,137.221l-13.916-45.195" /><path
     id="path2516"
     fill="none"
     stroke="#FF00FF"
     stroke-width="2.5"
     d="M132.63,97.154l-8.141-6.991l-3.398,10.809" /></g></svg>