<?xml version="1.0" encoding="UTF-8" standalone="no"?>
<svg
   xmlns:dc="http://purl.org/dc/elements/1.1/"
   xmlns:cc="http://creativecommons.org/ns#"
   xmlns:rdf="http://www.w3.org/1999/02/22-rdf-syntax-ns#"
   xmlns:svg="http://www.w3.org/2000/svg"
   xmlns="http://www.w3.org/2000/svg"
   xmlns:xlink="http://www.w3.org/1999/xlink"
   height="213.31648pt"
   version="1.1"
   viewBox="0 0 315.55536 213.31648"
   width="315.55536pt"
   id="svg10866">
  <metadata
     id="metadata10870">
    <rdf:RDF>
      <cc:Work
         rdf:about="">
        <dc:format>image/svg+xml</dc:format>
        <dc:type
           rdf:resource="http://purl.org/dc/dcmitype/StillImage" />
        <dc:title></dc:title>
      </cc:Work>
    </rdf:RDF>
  </metadata>
  <defs
     id="defs8177">
    <style
       type="text/css"
       id="style8175">
*{stroke-linecap:butt;stroke-linejoin:round;}
  </style>
  </defs>
  <g
     id="patch_1"
     transform="matrix(0.63112496,0,0,0.75637622,-0.87550088,-0.83709805)">
    <path
       d="M 0,288 H 504 V 0 H 0 Z"
       id="path8179" />
  </g>
  <g
     id="axes_1"
     transform="translate(-165.42458,-57.701637)">
    <g
       id="text_1">
      <!-- $\mathrm{Collisionless}$ -->
      <defs
         id="defs8189">
        <path
           d="m 62.09375,67.015625 c 0,1.78125 -0.09375,1.890625 -0.6875,1.890625 -0.40625,0 -0.5,-0.109375 -1.203125,-1.296875 L 55.796875,59.25 C 50.90625,65.421875 44.90625,69 37.203125,69 20.09375,69 4.59375,54 4.59375,33.5625 4.59375,12.90625 20.09375,-2 37.296875,-2 52.59375,-2 62.09375,11.40625 62.09375,22.828125 c 0,0.984375 0,1.390625 -0.890625,1.390625 -0.796875,0 -0.796875,-0.296875 -0.90625,-1.1875 C 59.5,9.140625 49.5,0.59375 38.703125,0.59375 c -10.203125,0 -26.5,7.140625 -26.5,32.953125 0,25.90625 16.59375,32.859375 26.296875,32.859375 11.296875,0 19.5,-9.71875 21.40625,-23.515625 0.1875,-1.203125 0.1875,-1.40625 1.09375,-1.40625 1.09375,0 1.09375,0.203125 1.09375,2 z"
           id="CMR17-67" />
        <path
           d="M 43.09375,21.1875 C 43.09375,34 33.796875,44 22.90625,44 12,44 2.703125,34 2.703125,21.1875 2.703125,8.609375 12,-1 22.90625,-1 c 10.890625,0 20.1875,9.609375 20.1875,22.1875 z M 22.90625,0.796875 c -4.703125,0 -8.703125,2.796875 -11,6.703125 -2.5,4.484375 -2.8125,10.09375 -2.8125,14.5 0,4.203125 0.203125,9.40625 2.8125,13.90625 2,3.296875 5.890625,6.5 11,6.5 4.5,0 8.296875,-2.5 10.6875,-6 C 36.703125,31.703125 36.703125,25.109375 36.703125,22 c 0,-3.90625 -0.203125,-9.890625 -2.90625,-14.703125 -2.796875,-4.59375 -7.09375,-6.5 -10.890625,-6.5 z"
           id="CMR17-111" />
        <path
           d="M 15.296875,68.6875 3.40625,67.59375 V 65 c 5.890625,0 6.796875,-0.59375 6.796875,-5.359375 V 6.65625 c 0,-3.78125 -0.40625,-4.265625 -6.796875,-4.265625 v -2.59375 C 5.796875,0 10.203125,0 12.703125,0 c 2.59375,0 7,0 9.390625,-0.203125 v 2.59375 c -6.390625,0 -6.796875,0.390625 -6.796875,4.265625 z"
           id="CMR17-108" />
        <path
           d="m 15.5,61.078125 c 0,2.1875 -1.796875,4.078125 -4.09375,4.078125 -2.203125,0 -4.109375,-1.78125 -4.109375,-4.078125 C 7.296875,58.890625 9.09375,57 11.40625,57 13.59375,57 15.5,58.796875 15.5,61.078125 Z M 3.796875,42.28125 v -2.578125 c 5.609375,0 6.40625,-0.609375 6.40625,-5.375 V 6.671875 c 0,-3.796875 -0.40625,-4.28125 -6.796875,-4.28125 v -2.59375 C 5.796875,0 10.09375,0 12.59375,0 c 2.40625,0 6.5,0 8.8125,-0.203125 v 2.59375 c -5.90625,0 -6.109375,0.59375 -6.109375,4.171875 V 43.375 Z"
           id="CMR17-105" />
        <path
           d="m 30.90625,42.140625 c 0,1.8125 -0.109375,1.90625 -0.703125,1.90625 -0.40625,0 -0.5,-0.09375 -1.703125,-1.59375 -0.296875,-0.40625 -1.203125,-1.421875 -1.5,-1.8125 -3.203125,3.40625 -7.703125,3.40625 -9.40625,3.40625 C 6.5,44.046875 2.5,38.234375 2.5,32.4375 c 0,-9.03125 10.203125,-11.109375 13.09375,-11.734375 6.3125,-1.28125 8.5,-1.6875 10.609375,-3.5 1.296875,-1.1875 3.5,-3.390625 3.5,-6.984375 0,-4.21875 -2.40625,-9.625 -11.609375,-9.625 -8.6875,0 -11.796875,6.59375 -13.59375,15.359375 -0.296875,1.390625 -0.296875,1.5 -1.09375,1.5 -0.8125,0 -0.90625,-0.109375 -0.90625,-2.09375 v -14.375 c 0,-1.78125 0.09375,-1.890625 0.703125,-1.890625 0.5,0 0.59375,0.109375 1.09375,0.90625 C 4.90625,0.890625 6.40625,3.296875 7,4.3125 9,1.609375 12.5,-1 18.09375,-1 28,-1 33.296875,4.421875 33.296875,12.25 c 0,5.125 -2.703125,7.828125 -4,9.03125 -3,3.109375 -6.5,3.8125 -10.703125,4.609375 -5.5,1.21875 -12.5,2.625 -12.5,8.75 0,2.59375 1.40625,8.125 11.5,8.125 10.703125,0 11.3125,-10.046875 11.5,-13.265625 C 29.203125,29 29.703125,28.890625 30,28.890625 c 0.90625,0 0.90625,0.3125 0.90625,2.015625 z"
           id="CMR17-115" />
        <path
           d="m 41.5,30.203125 c 0,5.09375 -1,13.390625 -12.796875,13.390625 -7.90625,0 -12,-6.09375 -13.5,-10.09375 H 15.09375 V 43.59375 L 3.296875,42.5 v -2.59375 c 5.90625,0 6.796875,-0.609375 6.796875,-5.40625 V 6.6875 c 0,-3.8125 -0.390625,-4.296875 -6.796875,-4.296875 v -2.59375 C 5.703125,0 10.09375,0 12.703125,0 c 2.59375,0 7.09375,0 9.5,-0.203125 v 2.59375 c -6.40625,0 -6.796875,0.390625 -6.796875,4.296875 V 25.90625 C 15.40625,35.109375 21,42 28,42 c 7.40625,0 8.203125,-6.59375 8.203125,-11.40625 V 6.6875 c 0,-3.8125 -0.40625,-4.296875 -6.796875,-4.296875 v -2.59375 C 31.796875,0 36.203125,0 38.796875,0 c 2.609375,0 7.109375,0 9.5,-0.203125 v 2.59375 C 41.90625,2.390625 41.5,2.78125 41.5,6.6875 Z"
           id="CMR17-110" />
        <path
           d="M 38.09375,23 C 38.5,23.40625 38.5,23.609375 38.5,24.625 38.5,34.96875 33.09375,44 21.703125,44 c -10.609375,0 -19,-10.109375 -19,-22.390625 0,-13 9.5,-22.609375 20.09375,-22.609375 C 34,-1 38.40625,9.484375 38.40625,11.5625 c 0,0.6875 -0.609375,0.6875 -0.8125,0.6875 -0.6875,0 -0.796875,-0.203125 -1.1875,-1.375 C 34.203125,4.140625 28.703125,0.796875 23.5,0.796875 19.203125,0.796875 14.90625,3.171875 12.203125,7.5 9.09375,12.546875 9.09375,18.375 9.09375,23 Z M 9.203125,24.5 c 0.703125,14.640625 8.390625,17.90625 12.390625,17.90625 6.8125,0 11.40625,-6.515625 11.5,-17.90625 z"
           id="CMR17-101" />
      </defs>
      <g
         style="fill:#ffffff"
         transform="matrix(0.12,0,0,-0.12,417.57167,134.70158)"
         id="g8217">
        <use
           transform="scale(0.996264)"
           xlink:href="#CMR17-67"
           id="use8191"
           x="0"
           y="0"
           width="100%"
           height="100%" />
        <use
           transform="matrix(0.996264,0,0,0.996264,66.509881,0)"
           xlink:href="#CMR17-111"
           id="use8193"
           x="0"
           y="0"
           width="100%"
           height="100%" />
        <use
           transform="matrix(0.996264,0,0,0.996264,112.20036,0)"
           xlink:href="#CMR17-108"
           id="use8195"
           x="0"
           y="0"
           width="100%"
           height="100%" />
        <use
           transform="matrix(0.996264,0,0,0.996264,137.07142,0)"
           xlink:href="#CMR17-108"
           id="use8197"
           x="0"
           y="0"
           width="100%"
           height="100%" />
        <use
           transform="matrix(0.996264,0,0,0.996264,161.94247,0)"
           xlink:href="#CMR17-105"
           id="use8199"
           x="0"
           y="0"
           width="100%"
           height="100%" />
        <use
           transform="matrix(0.996264,0,0,0.996264,186.81353,0)"
           xlink:href="#CMR17-115"
           id="use8201"
           x="0"
           y="0"
           width="100%"
           height="100%" />
        <use
           transform="matrix(0.996264,0,0,0.996264,222.61487,0)"
           xlink:href="#CMR17-105"
           id="use8203"
           x="0"
           y="0"
           width="100%"
           height="100%" />
        <use
           transform="matrix(0.996264,0,0,0.996264,247.48593,0)"
           xlink:href="#CMR17-111"
           id="use8205"
           x="0"
           y="0"
           width="100%"
           height="100%" />
        <use
           transform="matrix(0.996264,0,0,0.996264,293.17641,0)"
           xlink:href="#CMR17-110"
           id="use8207"
           x="0"
           y="0"
           width="100%"
           height="100%" />
        <use
           transform="matrix(0.996264,0,0,0.996264,344.07178,0)"
           xlink:href="#CMR17-108"
           id="use8209"
           x="0"
           y="0"
           width="100%"
           height="100%" />
        <use
           transform="matrix(0.996264,0,0,0.996264,368.94283,0)"
           xlink:href="#CMR17-101"
           id="use8211"
           x="0"
           y="0"
           width="100%"
           height="100%" />
        <use
           transform="matrix(0.996264,0,0,0.996264,409.42849,0)"
           xlink:href="#CMR17-115"
           id="use8213"
           x="0"
           y="0"
           width="100%"
           height="100%" />
        <use
           transform="matrix(0.996264,0,0,0.996264,445.22983,0)"
           xlink:href="#CMR17-115"
           id="use8215"
           x="0"
           y="0"
           width="100%"
           height="100%" />
      </g>
      <!-- $\mathrm{Boltzmann}$ -->
      <defs
         id="defs8224">
        <path
           d="m 5.203125,68 v -2.59375 c 6.890625,0 8,0 8,-4.46875 V 7.0625 c 0,-4.46875 -1.109375,-4.46875 -8,-4.46875 V 0 H 39.59375 c 12.8125,0 21.109375,9.109375 21.109375,18.1875 0,9.015625 -8.203125,16.703125 -18.90625,16.703125 C 51.40625,36.8125 58.09375,43.296875 58.09375,51 58.09375,59.40625 49.90625,68 37,68 Z M 19.5,36 v 25.515625 c 0,3.40625 0.203125,3.890625 4.203125,3.890625 H 36.5 c 9.90625,0 14.296875,-8 14.296875,-14.203125 C 50.796875,43.609375 44.703125,36 33.90625,36 Z M 23.703125,2.59375 c -4,0 -4.203125,0.484375 -4.203125,3.859375 V 34.40625 H 38 c 10.296875,0 15.296875,-9.015625 15.296875,-16.25 0,-7.234375 -5.703125,-15.5625 -16.59375,-15.5625 z"
           id="CMR17-66" />
        <path
           d="m 15.09375,40 h 14 v 2.578125 h -14 V 61 H 13.296875 C 13.09375,50.703125 9.59375,41.6875 1.09375,41.6875 V 40 H 9.796875 V 12.046875 C 9.796875,10.15625 9.796875,-1 21.40625,-1 c 5.890625,0 9.296875,5.78125 9.296875,13.140625 V 17.8125 H 28.90625 V 12.234375 C 28.90625,5.375 26.203125,0.796875 22,0.796875 c -2.90625,0 -6.90625,1.984375 -6.90625,11.046875 z"
           id="CMR17-116" />
        <path
           d="m 36.09375,40.703125 c 0.8125,1.015625 0.8125,1.203125 0.8125,1.40625 C 36.90625,43 36.5,43 34.703125,43 H 4.296875 l -1,-15.5 H 5.09375 c 0.703125,9.703125 1.8125,13.90625 13.3125,13.90625 h 12.1875 L 2,1.5 C 2,0 2.09375,0 4.203125,0 h 31.59375 l 1.40625,18 H 35.40625 C 34.59375,6.90625 33.296875,1.796875 21.09375,1.796875 H 8.296875 Z"
           id="CMR17-122" />
        <path
           d="m 67.59375,30.203125 c 0,4.984375 -0.890625,13.390625 -12.796875,13.390625 C 48,43.59375 43.296875,39 41.5,33.609375 h -0.09375 c -1.203125,8.203125 -7.109375,9.984375 -12.703125,9.984375 -7.90625,0 -12,-6.09375 -13.5,-10.09375 H 15.09375 V 43.59375 L 3.296875,42.5 v -2.59375 c 5.90625,0 6.796875,-0.609375 6.796875,-5.40625 V 6.6875 c 0,-3.8125 -0.390625,-4.296875 -6.796875,-4.296875 v -2.59375 C 5.703125,0 10.09375,0 12.703125,0 c 2.59375,0 7.09375,0 9.5,-0.203125 v 2.59375 c -6.40625,0 -6.796875,0.390625 -6.796875,4.296875 V 25.90625 C 15.40625,35.109375 21,42 28,42 c 7.40625,0 8.203125,-6.59375 8.203125,-11.40625 V 6.6875 c 0,-3.8125 -0.40625,-4.296875 -6.796875,-4.296875 v -2.59375 C 31.796875,0 36.203125,0 38.796875,0 c 2.609375,0 7.109375,0 9.5,-0.203125 v 2.59375 C 41.90625,2.390625 41.5,2.78125 41.5,6.6875 V 25.90625 C 41.5,35.109375 47.09375,42 54.09375,42 61.5,42 62.296875,35.40625 62.296875,30.59375 V 6.6875 C 62.296875,2.875 61.90625,2.390625 55.5,2.390625 v -2.59375 C 57.90625,0 62.296875,0 64.90625,0 67.5,0 72,0 74.40625,-0.203125 v 2.59375 c -6.40625,0 -6.8125,0.390625 -6.8125,4.296875 z"
           id="CMR17-109" />
        <path
           d="M 36,25.828125 C 36,32.375 36,35.84375 31.796875,39.734375 28.09375,43 23.796875,44 20.40625,44 12.5,44 6.796875,37.609375 6.796875,30.796875 6.796875,27 9.796875,27 10.40625,27 11.703125,27 14,27.78125 14,30.53125 14,33 12.09375,34.078125 10.40625,34.078125 10,34.078125 9.5,33.96875 9.203125,33.875 c 2.09375,6.625 7.5,8.53125 11,8.53125 5,0 10.5,-4.453125 10.5,-12.953125 V 25 c -5.90625,0 -13,-0.796875 -18.609375,-3.796875 C 5.796875,17.703125 4,12.703125 4,8.90625 4,1.203125 13,-1 18.296875,-1 c 5.5,0 10.609375,3.171875 12.796875,8.984375 0.203125,-4.34375 3,-8.265625 7.40625,-8.265625 2.09375,0 7.40625,1.375 7.40625,9.140625 V 14.375 h -1.8125 V 8.78125 c 0,-6 -2.6875,-6.78125 -4,-6.78125 C 36,2 36,7.15625 36,11.53125 Z M 30.703125,13.59375 c 0,-8.640625 -6.203125,-13 -11.703125,-13 -5,0 -8.90625,3.703125 -8.90625,8.3125 0,2.984375 1.3125,8.28125 7.109375,11.484375 C 22,23.09375 27.5,23.5 30.703125,23.5 Z"
           id="CMR17-97" />
      </defs>
      <g
         style="fill:#ffffff"
         transform="matrix(0.12,0,0,-0.12,420.67804,146.98879)"
         id="g8244">
        <use
           transform="scale(0.996264)"
           xlink:href="#CMR17-66"
           id="use8226"
           x="0"
           y="0"
           width="100%"
           height="100%" />
        <use
           transform="matrix(0.996264,0,0,0.996264,65.188754,0)"
           xlink:href="#CMR17-111"
           id="use8228"
           x="0"
           y="0"
           width="100%"
           height="100%" />
        <use
           transform="matrix(0.996264,0,0,0.996264,110.87923,0)"
           xlink:href="#CMR17-108"
           id="use8230"
           x="0"
           y="0"
           width="100%"
           height="100%" />
        <use
           transform="matrix(0.996264,0,0,0.996264,135.75029,0)"
           xlink:href="#CMR17-116"
           id="use8232"
           x="0"
           y="0"
           width="100%"
           height="100%" />
        <use
           transform="matrix(0.996264,0,0,0.996264,171.03106,0)"
           xlink:href="#CMR17-122"
           id="use8234"
           x="0"
           y="0"
           width="100%"
           height="100%" />
        <use
           transform="matrix(0.996264,0,0,0.996264,211.51672,0)"
           xlink:href="#CMR17-109"
           id="use8236"
           x="0"
           y="0"
           width="100%"
           height="100%" />
        <use
           transform="matrix(0.996264,0,0,0.996264,288.43631,0)"
           xlink:href="#CMR17-97"
           id="use8238"
           x="0"
           y="0"
           width="100%"
           height="100%" />
        <use
           transform="matrix(0.996264,0,0,0.996264,334.12678,0)"
           xlink:href="#CMR17-110"
           id="use8240"
           x="0"
           y="0"
           width="100%"
           height="100%" />
        <use
           transform="matrix(0.996264,0,0,0.996264,385.02215,0)"
           xlink:href="#CMR17-110"
           id="use8242"
           x="0"
           y="0"
           width="100%"
           height="100%" />
      </g>
      <!-- $\mathrm{equation}$ -->
      <defs
         id="defs8248">
        <path
           d="M 41.09375,43.78125 H 39.5 l -3,-9.84375 c -2.296875,5.265625 -6.5,9.84375 -13.203125,9.84375 -10.203125,0 -20,-9.046875 -20,-22.171875 C 3.296875,8.5625 12.5,-0.59375 22.5,-0.59375 c 7.703125,0 12,5.875 13.296875,8.0625 v -19.796875 c 0,-3.78125 -0.390625,-4.28125 -6.796875,-4.28125 V -19.1875 C 31.40625,-19 35.796875,-19 38.40625,-19 c 2.59375,0 7.09375,0 9.5,-0.1875 v 2.578125 c -6.40625,0 -6.8125,0.40625 -6.8125,4.28125 z M 36,13.84375 C 36,9.5625 32.40625,5.578125 32.09375,5.28125 29,1.796875 25.40625,1 23,1 15.5,1 9.703125,10.453125 9.703125,21.484375 9.703125,33.140625 16.296875,42 24,42 32,42 36,32.9375 36,27.765625 Z"
           id="CMR17-113" />
        <path
           d="M 29.40625,42.078125 V 39.5 c 5.890625,0 6.796875,-0.609375 6.796875,-5.34375 V 16.125 c 0,-8.3125 -4.5,-15.53125 -11.90625,-15.53125 -8.203125,0 -8.890625,4.84375 -8.890625,10 V 43.171875 L 3.296875,42.078125 V 39.5 c 4,0 6.703125,0 6.796875,-3.96875 v -19 c 0,-6.640625 0,-10.890625 2.609375,-13.671875 C 14,1.578125 16.5,-1 23.703125,-1 c 8.5,0 11.796875,6.890625 12.59375,8.90625 H 36.40625 V -0.984375 H 48.296875 V 2 C 42.40625,2 41.5,2.59375 41.5,7.390625 v 35.78125 z"
           id="CMR17-117" />
      </defs>
      <g
         style="fill:#ffffff"
         transform="matrix(0.12,0,0,-0.12,426.61129,159.276)"
         id="g8266">
        <use
           transform="scale(0.996264)"
           xlink:href="#CMR17-101"
           id="use8250"
           x="0"
           y="0"
           width="100%"
           height="100%" />
        <use
           transform="matrix(0.996264,0,0,0.996264,40.48566,0)"
           xlink:href="#CMR17-113"
           id="use8252"
           x="0"
           y="0"
           width="100%"
           height="100%" />
        <use
           transform="matrix(0.996264,0,0,0.996264,88.778576,0)"
           xlink:href="#CMR17-117"
           id="use8254"
           x="0"
           y="0"
           width="100%"
           height="100%" />
        <use
           transform="matrix(0.996264,0,0,0.996264,139.67395,0)"
           xlink:href="#CMR17-97"
           id="use8256"
           x="0"
           y="0"
           width="100%"
           height="100%" />
        <use
           transform="matrix(0.996264,0,0,0.996264,185.36442,0)"
           xlink:href="#CMR17-116"
           id="use8258"
           x="0"
           y="0"
           width="100%"
           height="100%" />
        <use
           transform="matrix(0.996264,0,0,0.996264,220.64519,0)"
           xlink:href="#CMR17-105"
           id="use8260"
           x="0"
           y="0"
           width="100%"
           height="100%" />
        <use
           transform="matrix(0.996264,0,0,0.996264,245.51625,0)"
           xlink:href="#CMR17-111"
           id="use8262"
           x="0"
           y="0"
           width="100%"
           height="100%" />
        <use
           transform="matrix(0.996264,0,0,0.996264,291.20673,0)"
           xlink:href="#CMR17-110"
           id="use8264"
           x="0"
           y="0"
           width="100%"
           height="100%" />
      </g>
    </g>
  </g>
  <g
     id="patch_7"
     transform="translate(-165.42458,-57.701637)">
    <path
       d="m 294.3232,207.36 q 18.15979,0 35.20154,0"
       style="fill:none;stroke:#ffffff;stroke-linecap:round"
       id="path10428" />
    <path
       d="m 325.52474,205.36 4,2 -4,2 z"
       style="stroke:#ffffff;stroke-linecap:round"
       id="path10430" />
  </g>
  <g
     id="patch_8"
     transform="translate(-165.42458,-57.701637)">
    <path
       d="m 374.53254,194.60443 q 18.58738,-14.60437 36.29563,-28.51799"
       style="fill:none;stroke:#ffffff;stroke-linecap:round"
       id="path10433" />
    <path
       d="m 406.44726,166.98508 4.38091,-0.89864 -1.90963,4.04392 z"
       style="stroke:#ffffff;stroke-linecap:round"
       id="path10435" />
  </g>
  <g
     id="patch_9"
     transform="translate(-165.42458,-57.701637)">
    <path
       d="m 384.55717,93.46043 q 13.60232,11.65913 26.35577,22.59066"
       style="fill:none;stroke:#ffffff;stroke-linecap:round"
       id="path10438" />
    <path
       d="m 409.1775,111.92941 1.73544,4.12168 -4.33861,-1.08465 z"
       style="stroke:#ffffff;stroke-linecap:round"
       id="path10440" />
  </g>
  <g
     id="patch_10"
     transform="translate(-165.42458,-57.701637)">
    <path
       d="m 411.28893,143.7735 q -69.69026,-7.73914 -136.12618,10.89856"
       style="opacity:0.25;fill:none;stroke:#ffffff;stroke-linecap:round;stroke-dasharray:3.7, 1.6;stroke-dashoffset:0"
       id="path10443" />
    <path
       d="m 279.55429,155.51729 -4.39154,-0.84523 3.3111,-3.00609 z"
       style="opacity:0.25;stroke:#ffffff;stroke-linecap:round;stroke-dasharray:3.7, 1.6;stroke-dashoffset:0"
       id="path10445" />
  </g>
  <g
     id="text_5"
     transform="translate(-165.42458,-57.701637)">
    <!-- $\mathrm{Update}\ \theta \ \mathrm{until\ CBE\ satisfied}$ -->
    <defs
       id="defs10454">
      <path
         d="M 54,22.390625 C 54,9.046875 45.296875,0.59375 35.796875,0.59375 c -5.09375,0 -9.703125,2.6875 -12.5,6.859375 -3.203125,4.78125 -3.59375,10.953125 -3.59375,14.4375 V 60.53125 c 0,4.46875 1.09375,4.46875 8,4.46875 v 2.5 c -2.90625,0 -8.203125,0 -11.296875,0 -3.109375,0 -8.40625,0 -11.3125,0 V 65 c 6.90625,0 8,0 8,-4.46875 V 22.390625 C 13.09375,8.0625 24,-2 35.59375,-2 c 13,0 20.5,13.234375 20.5,23 v 37.84375 c 0,5.5625 5.109375,6.15625 8,6.15625 v 2.59375 c -2.296875,-0.09375 -6.5,-0.09375 -9,-0.09375 -2.5,0 -6.796875,0 -9.09375,0.09375 V 65 c 8,0 8,-4.671875 8,-7.15625 z"
         id="CMR17-85" />
      <path
         d="m 22,-16.609375 c -6.40625,0 -6.796875,0.40625 -6.796875,4.28125 V 6.28125 c 2.890625,-4.1875 7.09375,-6.875 12.390625,-6.875 10,0 20.109375,8.765625 20.109375,22.28125 0,12.546875 -8.703125,22.09375 -19,22.09375 -6,0 -10.90625,-3.28125 -13.703125,-7.25 v 7.25 L 3.09375,42.6875 v -2.578125 c 5.90625,0 6.8125,-0.609375 6.8125,-5.375 v -47.0625 c 0,-3.78125 -0.40625,-4.28125 -6.8125,-4.28125 V -19.1875 C 5.5,-19 9.90625,-19 12.5,-19 c 2.59375,0 7.09375,0 9.5,-0.1875 z M 15.203125,31.4375 c 0,1.40625 0,3.484375 3.890625,7.171875 C 19.59375,39.015625 23,42 28,42 35.296875,42 41.296875,32.9375 41.296875,21.59375 41.296875,10.25 34.90625,1 27,1 23.40625,1 19.5,2.6875 16.5,7.375 15.203125,9.5625 15.203125,10.15625 15.203125,11.75 Z"
         id="CMR17-112" />
      <path
         d="M 29.203125,67.59375 V 65 C 35.09375,65 36,64.40625 36,59.6875 V 36.640625 c -0.40625,0.5 -4.5,6.953125 -12.59375,6.953125 C 13.203125,43.59375 3.296875,34.5 3.296875,21.3125 3.296875,8.203125 12.59375,-1 22.40625,-1 c 8.5,0 12.890625,6.265625 13.390625,6.9375 V -0.984375 H 47.90625 V 2 C 42,2 41.09375,2.59375 41.09375,7.390625 V 68.6875 Z m 6.59375,-55.796875 c 0,-3 -1.796875,-5.703125 -4.09375,-7.703125 -3.40625,-3 -6.796875,-3.5 -8.703125,-3.5 -2.90625,0 -13.296875,1.5 -13.296875,20.59375 C 9.703125,40.8125 21.296875,42 23.90625,42 28.5,42 32.203125,39.40625 34.5,35.796875 c 1.296875,-2.09375 1.296875,-2.390625 1.296875,-4.1875 z"
         id="CMR17-100" />
      <path
         d="m 44.296875,50 c 0,10.15625 -3.203125,20 -11.390625,20 C 18.90625,70 4,40.859375 4,19 4,14.421875 5,-1 15.5,-1 29.09375,-1 44.296875,27.4375 44.296875,50 Z M 14,36 c 1.5,5.859375 3.59375,14.21875 7.59375,21.265625 C 24.90625,63.234375 28.40625,68 32.796875,68 c 3.296875,0 5.5,-2.78125 5.5,-12.3125 C 38.296875,52.09375 38,47.140625 35.09375,36 Z M 34.40625,33.015625 C 31.90625,23.28125 29.796875,17 26.203125,10.734375 23.296875,5.671875 19.796875,1 15.59375,1 12.5,1 10,3.390625 10,13.21875 c 0,6.46875 1.59375,13.234375 3.203125,19.796875 z"
         id="CMMI12-18" />
      <path
         d="M 60.703125,25.234375 H 58.90625 C 56.703125,10.5625 55.40625,2.59375 37.796875,2.59375 H 23.90625 c -4,0 -4.203125,0.484375 -4.203125,3.875 V 34 H 29.09375 C 38.5,34 39.40625,30.625 39.40625,22.34375 h 1.796875 V 48.140625 H 39.40625 c 0,-8.1875 -0.90625,-11.546875 -10.3125,-11.546875 H 19.703125 V 61.140625 C 19.703125,64.5 19.90625,65 23.90625,65 h 13.6875 c 15.5,0 17.3125,-6.109375 18.703125,-19.234375 h 1.796875 l -2.390625,21.8125 H 5.09375 V 65 c 6.90625,0 8,0 8,-4.46875 V 7.046875 C 13.09375,2.59375 12,2.59375 5.09375,2.59375 V 0 h 52 z"
         id="CMR17-69" />
      <path
         d="m 39.90625,43.1875 c -2.40625,0 -9.8125,0 -11.703125,-0.390625 -0.609375,-0.21875 -0.796875,-0.21875 -2,-0.21875 h -11.40625 v 11.625 C 14.796875,63.640625 22.40625,68 28.40625,68 c 1.890625,0 6.1875,-0.5 8.390625,-3.921875 -1,0 -4.203125,0 -4.203125,-3.484375 0,-2.390625 1.609375,-3.59375 3.609375,-3.59375 1.796875,0 3.59375,1 3.59375,3.703125 0,5 -4.796875,8.890625 -11,8.890625 C 20.90625,69.59375 9.90625,65.125 9.90625,54.203125 v -11.625 h -8 V 40 h 8 V 6.671875 C 9.90625,2.875 9.5,2.390625 3.09375,2.390625 v -2.59375 C 5.5,0 9.90625,0 12.40625,0 c 2.59375,0 7,0 9.390625,-0.203125 v 2.59375 C 15.40625,2.390625 15,2.78125 15,6.671875 V 40 H 29.703125 C 34,40 34.796875,39.09375 34.796875,34.71875 V 6.671875 C 34.796875,2.875 34.40625,2.390625 28,2.390625 v -2.59375 C 30.40625,0 34.796875,0 37.296875,0 c 2.609375,0 7,0 9.40625,-0.203125 v 2.59375 c -6.40625,0 -6.796875,0.390625 -6.796875,4.28125 z"
         id="CMR17-12" />
    </defs>
    <g
       style="opacity:0.5;fill:#ffffff"
       transform="matrix(0.07989036,-0.00418688,-0.00418688,-0.07989036,289.13284,141.01238)"
       id="g10502">
      <use
         transform="scale(0.996264)"
         xlink:href="#CMR17-85"
         id="use10456"
         x="0"
         y="0"
         width="100%"
         height="100%" />
      <use
         transform="matrix(0.996264,0,0,0.996264,69.07243,0)"
         xlink:href="#CMR17-112"
         id="use10458"
         x="0"
         y="0"
         width="100%"
         height="100%" />
      <use
         transform="matrix(0.996264,0,0,0.996264,122.57024,0)"
         xlink:href="#CMR17-100"
         id="use10460"
         x="0"
         y="0"
         width="100%"
         height="100%" />
      <use
         transform="matrix(0.996264,0,0,0.996264,173.46561,0)"
         xlink:href="#CMR17-97"
         id="use10462"
         x="0"
         y="0"
         width="100%"
         height="100%" />
      <use
         transform="matrix(0.996264,0,0,0.996264,219.15608,0)"
         xlink:href="#CMR17-116"
         id="use10464"
         x="0"
         y="0"
         width="100%"
         height="100%" />
      <use
         transform="matrix(0.996264,0,0,0.996264,254.43685,0)"
         xlink:href="#CMR17-101"
         id="use10466"
         x="0"
         y="0"
         width="100%"
         height="100%" />
      <use
         transform="matrix(0.996264,0,0,0.996264,326.15163,0)"
         xlink:href="#CMMI12-18"
         id="use10468"
         x="0"
         y="0"
         width="100%"
         height="100%" />
      <use
         transform="matrix(0.996264,0,0,0.996264,405.55025,0)"
         xlink:href="#CMR17-117"
         id="use10470"
         x="0"
         y="0"
         width="100%"
         height="100%" />
      <use
         transform="matrix(0.996264,0,0,0.996264,456.44562,0)"
         xlink:href="#CMR17-110"
         id="use10472"
         x="0"
         y="0"
         width="100%"
         height="100%" />
      <use
         transform="matrix(0.996264,0,0,0.996264,504.73853,0)"
         xlink:href="#CMR17-116"
         id="use10474"
         x="0"
         y="0"
         width="100%"
         height="100%" />
      <use
         transform="matrix(0.996264,0,0,0.996264,540.0193,0)"
         xlink:href="#CMR17-105"
         id="use10476"
         x="0"
         y="0"
         width="100%"
         height="100%" />
      <use
         transform="matrix(0.996264,0,0,0.996264,564.89036,0)"
         xlink:href="#CMR17-108"
         id="use10478"
         x="0"
         y="0"
         width="100%"
         height="100%" />
      <use
         transform="matrix(0.996264,0,0,0.996264,620.99053,0)"
         xlink:href="#CMR17-67"
         id="use10480"
         x="0"
         y="0"
         width="100%"
         height="100%" />
      <use
         transform="matrix(0.996264,0,0,0.996264,687.50041,0)"
         xlink:href="#CMR17-66"
         id="use10482"
         x="0"
         y="0"
         width="100%"
         height="100%" />
      <use
         transform="matrix(0.996264,0,0,0.996264,752.68916,0)"
         xlink:href="#CMR17-69"
         id="use10484"
         x="0"
         y="0"
         width="100%"
         height="100%" />
      <use
         transform="matrix(0.996264,0,0,0.996264,846.50458,0)"
         xlink:href="#CMR17-115"
         id="use10486"
         x="0"
         y="0"
         width="100%"
         height="100%" />
      <use
         transform="matrix(0.996264,0,0,0.996264,882.30592,0)"
         xlink:href="#CMR17-97"
         id="use10488"
         x="0"
         y="0"
         width="100%"
         height="100%" />
      <use
         transform="matrix(0.996264,0,0,0.996264,927.99639,0)"
         xlink:href="#CMR17-116"
         id="use10490"
         x="0"
         y="0"
         width="100%"
         height="100%" />
      <use
         transform="matrix(0.996264,0,0,0.996264,963.27716,0)"
         xlink:href="#CMR17-105"
         id="use10492"
         x="0"
         y="0"
         width="100%"
         height="100%" />
      <use
         transform="matrix(0.996264,0,0,0.996264,988.14822,0)"
         xlink:href="#CMR17-115"
         id="use10494"
         x="0"
         y="0"
         width="100%"
         height="100%" />
      <use
         transform="matrix(0.996264,0,0,0.996264,1023.9496,0)"
         xlink:href="#CMR17-12"
         id="use10496"
         x="0"
         y="0"
         width="100%"
         height="100%" />
      <use
         transform="matrix(0.996264,0,0,0.996264,1073.6918,0)"
         xlink:href="#CMR17-101"
         id="use10498"
         x="0"
         y="0"
         width="100%"
         height="100%" />
      <use
         transform="matrix(0.996264,0,0,0.996264,1114.1774,0)"
         xlink:href="#CMR17-100"
         id="use10500"
         x="0"
         y="0"
         width="100%"
         height="100%" />
    </g>
  </g>
  <g
     id="axes_4"
     transform="translate(-165.42458,-57.701637)">
    <g
       id="text_10">
      <!-- $\left\{ \frac{\partial f}{\partial \vec{x}} ,\, \frac{\partial f}{\partial \vec{v}} \right\}$ -->
      <defs
         id="defs10703">
        <path
           d="m 37.09375,-113.59375 c 0,6.39062 0,7.79687 -1,10.59375 -3.09375,9.09375 -11.890625,14.40625 -18.5,17 11.5,4.90625 17.203125,11.59375 19,18.59375 0.3125,1.203125 0.5,3 0.5,3.5 v 45 c 0,8.3125 6.609375,14.609375 16,18.609375 C 54.59375,0.40625 54.703125,0.5 54.703125,2 c 0,1.90625 -0.109375,2 -2,2 C 49.796875,4 42.296875,0.296875 38.296875,-2.796875 34.90625,-5.5 29.59375,-11.09375 29.5,-17.90625 29.40625,-25.90625 29.5,-34 29.5,-42 v -15.59375 c 0,-8.8125 0,-12.109375 -5.203125,-18.3125 -1.203125,-1.390625 -4.09375,-4.5 -11,-7.796875 C 12,-84.296875 11.90625,-84.40625 11.90625,-85.90625 11.90625,-87.5 12,-87.59375 14,-88.5 c 10.59375,-4.90625 15.5,-13.40625 15.5,-19.70313 v -41.59374 c 0,-4.70313 0,-10.70313 5.09375,-15.90625 2.203125,-2.20313 4.3125,-4.29688 9.109375,-6.79688 1.203125,-0.70312 6.296875,-3.40625 9,-3.40625 1.890625,0 2,0.10938 2,2 0,1.40625 0,1.70313 -0.90625,2 -5.890625,2.5 -14.796875,7.20313 -16.5,16.5 -0.203125,1.10938 -0.203125,4.5 -0.203125,6.8125 z"
           id="CMEX10-110" />
        <path
           d="m 45.40625,33.515625 c -0.609375,5.609375 -4.109375,12.34375 -13.109375,12.34375 -14.09375,0 -28.5,-14.34375 -28.5,-30.296875 0,-6.125 4.203125,-17.65625 17.796875,-17.65625 23.609375,0 33.703125,34.390625 33.703125,48.09375 0,14.40625 -8.09375,25.5 -20.890625,25.5 -14.5,0 -18.8125,-12.703125 -18.8125,-15.40625 C 15.59375,55.203125 16.203125,53 19,53 c 3.5,0 5,3.203125 5,4.90625 C 24,61 20.90625,61 19.59375,61 23.703125,68.40625 31.296875,69.09375 34,69.09375 c 8.796875,0 14.40625,-6.984375 14.40625,-18.125 C 48.40625,44.578125 46.5,37.1875 45.5,33.515625 Z m -23.5,-32.921875 c -9.40625,0 -11,7.4375 -11,11.65625 0,4.40625 2.796875,14.75 4.296875,18.453125 1.296875,3.015625 7,13.15625 17.390625,13.15625 9.109375,0 11.203125,-7.9375 11.203125,-13.34375 0,-7.4375 -6.5,-29.921875 -21.890625,-29.921875 z"
           id="CMMI12-64" />
        <path
           d="m 37.09375,-114.29688 c 0,8.79688 0,12.09375 5.203125,18.29688 1.109375,1.203125 4.203125,4.59375 11,7.796875 1.296875,0.609375 1.40625,0.703125 1.40625,2.203125 0,1.09375 0,1.296875 -0.203125,1.703125 -0.09375,0.09375 -0.203125,0.09375 -1.90625,0.890625 -10.5,4.90625 -15.5,13.3125 -15.5,19.703125 v 41.609375 c 0,4.6875 0,10.6875 -5.09375,15.890625 C 29.796875,-4 27.703125,-1.90625 22.90625,0.59375 21.90625,1.09375 16.59375,4 14,4 12.09375,4 11.90625,3.90625 11.90625,2 c 0,-1.296875 0,-1.703125 0.890625,-2.09375 C 16.703125,-1.703125 27.5,-6.203125 29.296875,-16.5 29.5,-17.59375 29.5,-21 29.5,-23.296875 v -35 c 0,-6.40625 0,-7.796875 1,-10.609375 C 33.59375,-78 42.40625,-83.296875 49,-85.90625 37.5,-90.796875 31.796875,-97.5 30,-104.5 c -0.296875,-1.20313 -0.5,-3 -0.5,-3.5 v -45 c 0,-8.09375 -6.296875,-14.40625 -16,-18.59375 -1.5,-0.70312 -1.59375,-0.8125 -1.59375,-2.3125 0,-1.89062 0.1875,-2 2.09375,-2 2.703125,0 10.09375,3.60938 14.296875,6.8125 3.40625,2.6875 8.703125,8.29688 8.796875,15.09375 0.109375,8 0,16.09375 0,24.09375 z"
           id="CMEX10-111" />
      </defs>
      <g
         style="fill:#ffffff"
         transform="matrix(0.16,0,0,-0.16,323.92636,82.033056)"
         id="g10735">
        <use
           transform="matrix(0.996264,0,0,0.996264,0,110.58631)"
           xlink:href="#CMEX10-110"
           id="use10705"
           x="0"
           y="0"
           width="100%"
           height="100%" />
        <use
           transform="matrix(0.697382,0,0,0.697382,67.613332,44.444174)"
           xlink:href="#CMMI12-64"
           id="use10707"
           x="0"
           y="0"
           width="100%"
           height="100%" />
        <path
           d="m 138.55292,72.404834 c 1.39476,0 1.96139,0 1.96139,1.329384 0,0.697382 -0.56663,0.697382 -1.81974,0.697382 h -5.64443 c 1.31849,7.376994 2.29918,12.4766 2.85491,14.764885 0.42496,1.721661 1.88511,3.367047 3.69394,3.367047 1.47104,0 2.93119,-0.632002 3.62857,-1.285798 -2.71325,-0.283312 -3.55229,-2.353664 -3.55229,-3.584979 0,-1.438351 1.04607,-2.288285 2.36456,-2.288285 1.39476,0 3.48691,1.209522 3.48691,3.922774 0,2.985666 -2.92029,4.631052 -5.99313,4.631052 -2.99656,0 -5.92775,-2.288285 -7.32251,-5.077813 -1.25311,-2.506216 -1.95049,-5.088709 -3.55229,-14.448883 h -4.67464 c -1.32938,0 -2.02676,0 -2.02676,-1.253108 0,-0.773658 0.42496,-0.773658 1.81973,-0.773658 h 4.4567 c -1.2531,-6.428991 -4.10801,-22.054706 -5.72071,-29.453493 -1.17683,-6.01492 -2.2229,-11.060043 -5.70981,-11.060043 -0.21793,0 -2.2338,0 -3.48691,1.318488 3.55229,0.283311 3.55229,3.323461 3.55229,3.38884 0,1.383868 -1.04608,2.212009 -2.37546,2.212009 -1.39476,0 -3.48691,-1.176832 -3.48691,-3.813808 0,-2.97477 3.07284,-4.500293 5.79699,-4.500293 7.10458,0 10.03576,12.661842 10.80942,16.116062 1.25311,5.328434 4.66374,23.721885 5.01243,25.792238 z"
           id="use10709"
           style="stroke-width:0.697382" />
        <use
           transform="matrix(0.697382,0,0,0.697382,68.763514,-34.355253)"
           xlink:href="#CMMI12-64"
           id="use10711"
           x="0"
           y="0"
           width="100%"
           height="100%" />
        <path
           d="m 144.7781,7.433184 c -0.83904,-0.7736581 -3.42153,-3.2144951 -3.42153,-4.184292 0,-0.697382 0.632,-1.3293844 1.32938,-1.3293844 0.632,0 0.90442,0.4249671 1.39476,1.1223492 1.67808,2.092146 3.55229,3.4106338 5.16499,4.3150511 0.69738,0.4249671 1.17683,0.6320024 1.17683,1.394764 0,0.6320024 -0.55572,0.9806934 -0.96979,1.3293841 -1.95049,1.329385 -2.44084,3.203599 -2.64788,4.042637 -0.21793,0.555726 -0.42496,1.394764 -1.39476,1.394764 -0.42497,0 -1.26401,-0.272415 -1.26401,-1.318488 0,-0.632003 0.42497,-2.310078 1.74346,-4.184292 h -23.42768 c -1.18773,0 -2.37545,0 -2.37545,-1.3293847 0,-1.2531083 1.264,-1.2531083 2.37545,-1.2531083 z"
           id="use10713"
           style="stroke-width:0.697382" />
        <path
           d="m 141.66449,-5.9587297 c -2.23381,-0.4249671 -3.07284,-2.092146 -3.07284,-3.4106338 0,-1.6780755 1.32938,-2.2338015 2.29918,-2.2338015 2.09214,0 3.56318,1.8088343 3.56318,3.693945 0,2.9202872 -3.35615,4.238775 -6.27643,4.238775 -4.26057,0 -6.62513,-4.1733954 -7.25714,-5.4918832 -1.6018,5.4918832 -5.92774,5.4918832 -7.18085,5.4918832 -7.11548,0 -10.8857,-9.109552 -10.8857,-10.645972 0,-0.272415 0.28331,-0.621106 0.77366,-0.621106 0.55573,0 0.69738,0.414071 0.83904,0.697382 2.36456,7.725685 7.0392,9.1858286 9.06596,9.1858286 3.13822,0 3.75933,-2.9311837 3.75933,-4.5983626 0,-1.525523 -0.41407,-3.127322 -1.25311,-6.472577 l -2.37546,-9.534519 c -1.04607,-4.173396 -3.06194,-7.9981 -6.75589,-7.9981 -0.34869,0 -2.09214,0 -3.56318,0.904417 2.51711,0.490347 3.07284,2.571596 3.07284,3.410634 0,1.394764 -1.04608,2.222905 -2.37546,2.222905 -1.66718,0 -3.48691,-1.460143 -3.48691,-3.683048 0,-2.931184 3.27988,-4.249672 6.27644,-4.249672 3.34525,0 5.72071,2.647872 7.18085,5.50278 1.12235,-4.108016 4.60926,-5.50278 7.19176,-5.50278 7.10457,0 10.8748,9.120449 10.8748,10.645972 0,0.348691 -0.28332,0.632003 -0.69739,0.632003 -0.632,0 -0.69738,-0.348691 -0.90441,-0.904418 -1.88511,-6.123885 -5.92775,-8.978793 -9.06597,-8.978793 -2.44084,0 -3.77022,1.808835 -3.77022,4.663742 0,1.525523 0.28331,2.636976 1.39476,7.235338 l 2.44084,9.458244 c 1.04607,4.1842918 3.42153,7.2462346 6.62513,7.2462346 0.14165,0 2.09215,0 3.56319,-0.9044173 z"
           id="use10715"
           style="stroke-width:0.697382" />
        <path
           d="m 169.18073,-0.48256538 c 0,5.82191778 -1.89913,10.11830628 -5.97759,10.11830628 -3.19115,0 -4.77895,-2.5840598 -4.77895,-4.7633873 C 158.42419,2.6774595 159.91859,0 163.29654,0 c 1.3076,0 2.39726,0.40473225 3.30013,1.2920299 0.1868,0.2023661 0.29576,0.2023661 0.38916,0.2023661 0.20237,0 0.20237,-1.41656287 0.20237,-1.91469487 0,-3.31569113 -0.59153,-9.83810713 -6.38232,-16.39165613 -1.08966,-1.19863 -1.08966,-1.400996 -1.08966,-1.603362 0,-0.513699 0.49813,-1.011831 0.99626,-1.011831 0.7939,0 8.46825,7.42528 8.46825,18.94458262 z"
           id="use10717"
           style="stroke-width:0.996264" />
        <use
           transform="matrix(0.697382,0,0,0.697382,211.25508,44.444174)"
           xlink:href="#CMMI12-64"
           id="use10719"
           x="0"
           y="0"
           width="100%"
           height="100%" />
        <path
           d="m 282.19467,72.404834 c 1.39476,0 1.96139,0 1.96139,1.329384 0,0.697382 -0.56663,0.697382 -1.81974,0.697382 h -5.64443 c 1.31849,7.376994 2.29918,12.4766 2.85491,14.764885 0.42496,1.721661 1.88511,3.367047 3.69394,3.367047 1.47104,0 2.93119,-0.632002 3.62857,-1.285798 -2.71325,-0.283312 -3.55229,-2.353664 -3.55229,-3.584979 0,-1.438351 1.04607,-2.288285 2.36456,-2.288285 1.39476,0 3.48691,1.209522 3.48691,3.922774 0,2.985666 -2.92029,4.631052 -5.99313,4.631052 -2.99656,0 -5.92775,-2.288285 -7.32251,-5.077813 -1.25311,-2.506216 -1.95049,-5.088709 -3.55229,-14.448883 h -4.67464 c -1.32938,0 -2.02676,0 -2.02676,-1.253108 0,-0.773658 0.42496,-0.773658 1.81973,-0.773658 h 4.4567 c -1.2531,-6.428991 -4.10801,-22.054706 -5.72071,-29.453493 -1.17683,-6.01492 -2.2229,-11.060043 -5.70981,-11.060043 -0.21793,0 -2.2338,0 -3.48691,1.318488 3.55229,0.283311 3.55229,3.323461 3.55229,3.38884 0,1.383868 -1.04608,2.212009 -2.37546,2.212009 -1.39476,0 -3.48691,-1.176832 -3.48691,-3.813808 0,-2.97477 3.07284,-4.500293 5.79699,-4.500293 7.10458,0 10.03576,12.661842 10.80942,16.116062 1.25311,5.328434 4.66374,23.721885 5.01243,25.792238 z"
           id="use10721"
           style="stroke-width:0.697382" />
        <use
           transform="matrix(0.697382,0,0,0.697382,214.04987,-34.355253)"
           xlink:href="#CMMI12-64"
           id="use10723"
           x="0"
           y="0"
           width="100%"
           height="100%" />
        <path
           d="m 288.41985,7.433184 c -0.83904,-0.7736581 -3.42153,-3.2144951 -3.42153,-4.184292 0,-0.697382 0.632,-1.3293844 1.32938,-1.3293844 0.632,0 0.90442,0.4249671 1.39476,1.1223492 1.67808,2.092146 3.55229,3.4106338 5.16499,4.3150511 0.69738,0.4249671 1.17683,0.6320024 1.17683,1.394764 0,0.6320024 -0.55572,0.9806934 -0.96979,1.3293841 -1.95049,1.329385 -2.44084,3.203599 -2.64788,4.042637 -0.21793,0.555726 -0.42496,1.394764 -1.39476,1.394764 -0.42497,0 -1.26401,-0.272415 -1.26401,-1.318488 0,-0.632003 0.42497,-2.310078 1.74346,-4.184292 h -23.42768 c -1.18773,0 -2.37545,0 -2.37545,-1.3293847 0,-1.2531083 1.264,-1.2531083 2.37545,-1.2531083 z"
           id="use10725"
           style="stroke-width:0.697382" />
        <path
           d="m 285.76312,-8.3232905 c 0,4.3804307 -2.23381,4.6528455 -2.78953,4.6528455 -1.67808,0 -3.2145,-1.6671788 -3.2145,-3.0619428 0,-0.8281412 0.49035,-1.3184879 0.77366,-1.5909027 0.69738,-0.6320025 2.50622,-2.5062165 2.50622,-6.1238855 0,-2.931184 -4.18429,-19.210695 -12.55288,-19.210695 -4.24967,0 -5.08871,3.55229 -5.08871,6.123886 0,3.476013 1.6018,8.346791 3.48691,13.359224 1.11146,2.854907 1.39477,3.552289 1.39477,4.9361566 0,2.9311837 -2.09215,5.5681594 -5.51368,5.5681594 -6.4072,0 -8.98969,-10.090246 -8.98969,-10.645972 0,-0.272415 0.27242,-0.621106 0.76276,-0.621106 0.632,0 0.69738,0.272415 0.9807,1.253108 1.66717,5.9822303 4.39132,8.6301026 7.0392,8.6301026 0.632,0 1.81973,0 1.81973,-2.2991813 0,-1.8088345 -0.77366,-3.8247043 -1.81973,-6.4725763 -3.34526,-8.902517 -3.34526,-11.060043 -3.34526,-12.738118 0,-1.525524 0.20704,-4.380431 2.37546,-6.330921 2.50621,-2.157526 5.99313,-2.157526 6.62513,-2.157526 11.57218,0 15.54944,22.752088 15.54944,26.7293445 z"
           id="use10727"
           style="stroke-width:0.697382" />
        <use
           transform="matrix(0.996264,0,0,0.996264,293.39533,110.58631)"
           xlink:href="#CMEX10-111"
           id="use10729"
           x="0"
           y="0"
           width="100%"
           height="100%" />
        <path
           d="m 67.613332,22.914133 h 80.944728 v 3.98495 H 67.613332 Z"
           id="path10731" />
        <path
           d="m 211.25508,22.914133 h 80.94473 v 3.98495 h -80.94473 z"
           id="path10733" />
      </g>
    </g>
  </g>
  <g
     id="axes_5"
     transform="translate(-165.42458,-57.701637)">
    <g
       id="patch_14">
      <path
         d="m 186.13636,252 h 92.09455 v -86.976 h -92.09455 z"
         id="path10739" />
    </g>
    <g
       id="matplotlib.axis_5">
      <g
         id="xtick_7">
        <g
           id="line2d_17">
          <g
             id="g10744">
            <path
               d="m 203.4041,252 v 3.5"
               id="use10742"
               style="fill:#ffffff;stroke:#ffffff;stroke-width:0.8" />
          </g>
        </g>
      </g>
      <g
         id="xtick_8">
        <g
           id="line2d_18">
          <g
             id="g10750">
            <path
               d="m 232.18364,252 v 3.5"
               id="use10748"
               style="fill:#ffffff;stroke:#ffffff;stroke-width:0.8" />
          </g>
        </g>
      </g>
      <g
         id="xtick_9">
        <g
           id="line2d_19">
          <g
             id="g10756">
            <path
               d="m 260.9632,252 v 3.5"
               id="use10754"
               style="fill:#ffffff;stroke:#ffffff;stroke-width:0.8" />
          </g>
        </g>
      </g>
      <g
         id="text_11">
        <!-- $x$ -->
        <g
           style="fill:#ffffff"
           transform="matrix(0.1,0,0,-0.1,229.33668,264.9185)"
           id="g10762">
          <path
             d="m 47.22914,40.566625 c -3.191158,-0.607099 -4.389788,-2.988792 -4.389788,-4.872354 0,-2.39726 1.899128,-3.191158 3.284558,-3.191158 2.988792,0 5.090286,2.58406 5.090286,5.277086 0,4.171855 -4.79452,6.055417 -8.966376,6.055417 -6.08655,0 -9.464508,-5.962017 -10.367372,-7.845579 -2.288294,7.845579 -8.468244,7.845579 -10.258406,7.845579 -10.165006,0 -15.5510583,-13.013698 -15.5510583,-15.208593 0,-0.389165 0.4047323,-0.887297 1.1052304,-0.887297 0.7938979,0 0.996264,0.591531 1.1986302,0.996264 3.3779577,11.036737 10.0560397,13.122665 12.9514317,13.122665 4.483188,0 5.370486,-4.187422 5.370486,-6.569116 0,-2.179328 -0.591532,-4.467621 -1.790162,-9.246575 L 21.513076,12.422167 C 20.01868,6.4601494 17.138854,0.996264 11.861768,0.996264 c -0.498132,0 -2.9887917,0 -5.0902861,1.2920299 3.5958901,0.7004981 4.3897881,3.6737235 4.3897881,4.8723536 0,1.992528 -1.4943959,3.1755915 -3.3935241,3.1755915 -2.3816936,0 -4.98132,-2.0859277 -4.98132,-5.2615193 0,-4.18742208 4.6855541,-6.0709837 8.9663761,-6.0709837 4.778954,0 8.172478,3.7826899 10.258406,7.8611456 C 23.61457,0.996264 28.59589,-0.996264 32.28518,-0.996264 c 10.14944,0 15.535492,13.029265 15.535492,15.208593 0,0.498132 -0.404732,0.902864 -0.996264,0.902864 -0.902864,0 -0.996264,-0.498132 -1.29203,-1.29203 C 42.839352,5.0747197 37.064134,0.996264 32.580946,0.996264 c -3.486924,0 -5.386052,2.5840598 -5.386052,6.6625155 0,2.1793275 0.404732,3.7671235 1.992528,10.3362385 l 3.486924,13.511831 c 1.494396,5.977584 4.88792,10.351806 9.464508,10.351806 0.202366,0 2.988792,0 5.090286,-1.29203 z"
             id="use10760"
             style="stroke-width:0.996264" />
        </g>
      </g>
    </g>
    <g
       id="matplotlib.axis_6">
      <g
         id="ytick_11">
        <g
           id="line2d_20">
          <g
             id="g10768">
            <path
               d="m 186.13637,248.05229 h -3.5"
               id="use10766"
               style="fill:#ffffff;stroke:#ffffff;stroke-width:0.8" />
          </g>
        </g>
      </g>
      <g
         id="ytick_12">
        <g
           id="line2d_21">
          <g
             id="g10774">
            <path
               d="m 186.13637,212.75102 h -3.5"
               id="use10772"
               style="fill:#ffffff;stroke:#ffffff;stroke-width:0.8" />
          </g>
        </g>
      </g>
      <g
         id="ytick_13">
        <g
           id="line2d_22">
          <g
             id="g10780">
            <path
               d="m 186.13637,177.44975 h -3.5"
               id="use10778"
               style="fill:#ffffff;stroke:#ffffff;stroke-width:0.8" />
          </g>
        </g>
      </g>
      <g
         id="text_12">
        <!-- $\Phi$ -->
        <defs
           id="defs10785">
          <path
             d="m 36.40625,12.78125 c 16.1875,1.390625 25.6875,11.484375 25.6875,21.15625 0,10.09375 -9.890625,19.875 -25.6875,21.28125 v 5.671875 C 36.40625,64.5 36.59375,65.5 44.203125,65.5 H 46.40625 V 68 C 42.296875,68 37.5,68 33.296875,68 29.09375,68 24.203125,68 20.09375,68 v -2.5 h 2.203125 c 7.609375,0 7.796875,-1 7.796875,-4.609375 V 55.21875 c -15.6875,-1.40625 -25.5,-11.296875 -25.5,-21.171875 0,-10.28125 10.203125,-19.875 25.5,-21.265625 V 7.09375 C 30.09375,3.5 29.90625,2.5 22.296875,2.5 H 20.09375 V 0 c 4.109375,0 9,0 13.203125,0 4.203125,0 9,0 13.109375,0 v 2.5 h -2.203125 c -7.609375,0 -7.796875,1 -7.796875,4.59375 z m -6.3125,1.703125 c -9,1 -18.09375,6.1875 -18.09375,19.46875 0,13.671875 9.40625,18.65625 18.09375,19.5625 z m 6.3125,39.03125 C 44.296875,52.8125 54.703125,48.328125 54.703125,34.046875 54.703125,19.375 43.90625,15.1875 36.40625,14.484375 Z"
             id="CMR17-8" />
        </defs>
        <g
           style="fill:#ffffff"
           transform="matrix(0,-0.1,-0.1,0,178.19918,212.10962)"
           id="g10789">
          <use
             transform="scale(0.996264)"
             xlink:href="#CMR17-8"
             id="use10787"
             x="0"
             y="0"
             width="100%"
             height="100%" />
        </g>
      </g>
    </g>
    <g
       id="line2d_23">
      <path
         clip-path="url(#pd33dfcb768)"
         d="m 186.13636,214.16307 0.93025,0.91727 0.93025,0.92536 0.93025,0.93236 0.93024,0.93822 0.93025,0.94297 0.93025,0.9466 0.93025,0.94912 0.93025,0.95051 0.93025,0.9508 0.93024,0.94995 0.93025,0.94801 0.93025,0.94492 0.93025,0.94074 0.93024,0.93542 0.93025,0.929 0.93025,0.92146 0.93025,0.91279 0.93025,0.90302 0.93024,0.89212 0.93025,0.8801 0.93025,0.86697 0.93025,0.85272 0.93025,0.83735 0.93024,0.82087 0.93025,0.80326 0.93025,0.78455 0.93025,0.7647 0.93025,0.74375 0.93024,0.72168 0.93025,0.69848 0.93025,0.67418 0.93025,0.64875 0.93024,0.62221 0.93025,0.59454 0.93025,0.56576 0.93025,0.53587 0.93025,0.50485 0.93024,0.47272 0.93025,0.43947 0.93025,0.4051 0.93025,0.36962 0.93025,0.33301 0.93024,0.29529 0.93025,0.25646 0.93025,0.2165 0.93025,0.17542 0.93025,0.13323 0.93024,0.0899 0.93025,0.0455 0.93025,-4e-5 0.93025,-0.0467 0.93025,-0.0945 0.93024,-0.14338 0.93025,-0.1934 0.93025,-0.24454 0.93025,-0.29678 0.93025,-0.35015 0.93024,-0.40463 0.93025,-0.46024 0.93025,-0.51696 0.93025,-0.5748 0.93025,-0.63376 0.93024,-0.69382 0.93025,-0.75502 0.93025,-0.81733 0.93025,-0.88076 0.93024,-0.9453 0.93025,-1.01096 0.93025,-1.07774 0.93025,-1.14564 0.93025,-1.21465 0.93024,-1.28478 0.93025,-1.35604 0.93025,-1.4284 0.93025,-1.50189 0.93025,-1.57649 0.93024,-1.65222 0.93025,-1.72905 0.93025,-1.80701 0.93025,-1.88608 0.93025,-1.96627 0.93024,-2.04758 0.93025,-2.13001 0.93025,-2.21355 0.93025,-2.29822 0.93025,-2.38399 0.93024,-2.47089 0.93025,-2.55891 0.93025,-2.64804 0.93025,-2.73829 0.93025,-2.82965 0.93024,-2.92215 0.93025,-3.01574 0.93025,-3.11047 0.93025,-3.20631 0.93024,-3.30326 0.93025,-3.40133 0.93025,-3.50053 0.93025,-3.60084"
         style="fill:none;stroke:#8dd3c7;stroke-width:1.5;stroke-linecap:square"
         id="path10793" />
    </g>
    <g
       id="patch_15">
      <path
         d="M 186.13636,252 V 165.024"
         style="fill:none;stroke:#ffffff;stroke-width:0.8;stroke-linecap:square;stroke-linejoin:miter"
         id="path10796" />
    </g>
    <g
       id="patch_16">
      <path
         d="m 186.13636,252 h 92.09455"
         style="fill:none;stroke:#ffffff;stroke-width:0.8;stroke-linecap:square;stroke-linejoin:miter"
         id="path10799" />
    </g>
    <g
       id="text_13">
      <!-- $\Phi_{\theta^{\ast}} \left( \vec{x} \right) : \ \mathrm{MLP}$ -->
      <defs
         id="defs10806">
        <path
           d="M 16.59375,38.921875 C 16.59375,41.40625 14.59375,43 12.5,43 c -2,0 -4.09375,-1.59375 -4.09375,-4.078125 0,-2.484375 2,-4.078125 4.09375,-4.078125 2,0 4.09375,1.59375 4.09375,4.078125 z m 0,-34.84375 c 0,2.484375 -2,4.078125 -4.09375,4.078125 -2,0 -4.09375,-1.59375 -4.09375,-4.078125 C 8.40625,1.59375 10.40625,0 12.5,0 c 2,0 4.09375,1.59375 4.09375,4.078125 z"
           id="CMR17-58" />
        <path
           d="m 20.90625,66 c -0.609375,1.5 -0.703125,1.5 -2.8125,1.5 H 5.296875 V 65 c 6.90625,0 8,0 8,-4.453125 V 9.53125 c 0,-2.484375 0,-7.140625 -8,-7.140625 v -2.59375 C 7.59375,0 11.796875,0 14.296875,0 c 2.5,0 6.703125,0 9,-0.203125 v 2.59375 c -8,0 -8,4.65625 -8,7.140625 v 55.078125 h 0.109375 l 23.5,-63.21875 c 0.390625,-1 0.59375,-1.59375 1.390625,-1.59375 0.796875,0 1,0.59375 1.40625,1.59375 L 65.40625,65.09375 H 65.5 v -58.25 c 0,-4.453125 -1.09375,-4.453125 -8,-4.453125 v -2.59375 C 60.203125,0 65.59375,0 68.5,0 c 2.90625,0 8.40625,0 11.09375,-0.203125 v 2.59375 c -6.890625,0 -8,0 -8,4.453125 V 60.546875 C 71.59375,65 72.703125,65 79.59375,65 v 2.5 h -12.6875 c -2.109375,0 -2.203125,-0.09375 -2.8125,-1.59375 L 42.5,7.84375 Z"
           id="CMR17-77" />
        <path
           d="M 54.203125,25.234375 H 52.40625 C 51.59375,15.359375 50.296875,2.59375 33.203125,2.59375 H 23.90625 c -4,0 -4.203125,0.484375 -4.203125,3.875 v 54.4375 C 19.703125,64.515625 19.90625,65.5 27.5,65.5 h 2.203125 V 68 c -4.109375,0 -8.90625,0 -13,0 C 13.59375,68 8,68 5.09375,68 v -2.5 c 6.90625,0 8,0 8,-4.484375 V 7.0625 c 0,-4.46875 -1.09375,-4.46875 -8,-4.46875 V 0 h 46.703125 z"
           id="CMR17-76" />
        <path
           d="m 19.796875,31.90625 h 16 c 12.90625,0 22.296875,8.375 22.296875,17.84375 0,9.484375 -9.1875,18.25 -22.296875,18.25 H 5.203125 v -2.59375 c 6.890625,0 8,0 8,-4.484375 V 6.96875 C 13.203125,2.5 12.09375,2.5 5.203125,2.5 V 0 C 8.09375,0 13.40625,0 16.5,0 c 3.09375,0 8.40625,0 11.296875,0 v 2.5 c -6.890625,0 -8,0 -8,4.46875 z M 19.59375,34 v 27.53125 c 0,3.390625 0.203125,3.875 4.203125,3.875 H 33.90625 C 46.796875,65.40625 50.5,58.03125 50.5,49.75 50.5,40.6875 46.09375,34 33.90625,34 Z"
           id="CMR17-80" />
      </defs>
      <g
         style="fill:#ffffff"
         transform="matrix(0.12,0,0,-0.12,194.6812,159.024)"
         id="g10830">
        <use
           transform="scale(0.996264)"
           xlink:href="#CMR17-8"
           id="use10808"
           x="0"
           y="0"
           width="100%"
           height="100%" />
        <use
           transform="matrix(0.697382,0,0,0.697382,66.509881,-14.943915)"
           xlink:href="#CMMI12-18"
           id="use10810"
           x="0"
           y="0"
           width="100%"
           height="100%" />
        <path
           d="m 113.92701,26.365485 c 0.0467,0.692714 0.0467,1.891345 -1.24533,1.891345 -0.7939,0 -1.4477,-0.646015 -1.29203,-1.299814 v -0.646015 l 0.69271,-7.721045 -6.37453,4.638854 c -0.45143,0.249066 -0.54483,0.342465 -0.89508,0.342465 -0.7005,0 -1.34651,-0.692714 -1.34651,-1.393212 0,-0.793898 0.49813,-0.996264 0.99626,-1.24533 l 7.07503,-3.385741 -6.87266,-3.331258 c -0.80168,-0.396949 -1.19863,-0.599315 -1.19863,-1.346513 0,-0.747198 0.64601,-1.393213 1.34651,-1.393213 0.35025,0 0.44365,0 1.68898,0.949564 l 5.58063,4.031756 -0.74719,-8.3670611 c 0,-1.0507472 0.89508,-1.2998132 1.29981,-1.2998132 0.59153,0 1.33873,0.3424658 1.33873,1.2998132 l -0.7472,8.3670611 6.38232,-4.631071 c 0.44365,-0.249066 0.54483,-0.350249 0.89508,-0.350249 0.69271,0 1.34651,0.700498 1.34651,1.393213 0,0.747198 -0.45143,0.996264 -1.05075,1.299813 -2.98879,1.486613 -3.08997,1.486613 -7.02054,3.331258 l 6.87266,3.331258 c 0.7939,0.404732 1.19863,0.599315 1.19863,1.346513 0,0.747198 -0.6538,1.393212 -1.34651,1.393212 -0.35025,0 -0.45143,0 -1.69676,-0.94178 l -5.58064,-4.039539 z"
           id="use10812"
           style="stroke-width:0.498132" />
        <path
           d="m 173.21519,-24.296325 c 0,0.0934 0,0.295766 -0.29576,0.591532 -4.57659,4.654421 -16.82753,17.3723536 -16.82753,48.318804 0,30.946451 12.04857,43.555417 16.93649,48.505604 0,0.108966 0.1868,0.311332 0.1868,0.607098 0,0.295766 -0.29576,0.498132 -0.68493,0.498132 -1.10523,0 -9.57347,-7.347447 -14.44583,-18.275218 -4.98132,-11.005604 -6.38231,-21.715442 -6.38231,-31.226649 0,-7.160648 0.70049,-19.2559156 6.67808,-32.0516814 4.77895,-10.3362386 12.95143,-17.5747196 14.15006,-17.5747196 0.49813,0 0.68493,0.202366 0.68493,0.607098 z"
           id="use10814"
           style="stroke-width:0.996264" />
        <path
           d="m 229.6937,59.698007 c -1.19863,-1.105231 -4.88792,-4.592154 -4.88792,-5.977584 0,-0.996264 0.90287,-1.899128 1.89913,-1.899128 0.90287,0 1.29203,0.607098 1.99253,1.603362 2.39726,2.988792 5.07472,4.872354 7.37858,6.164384 0.99626,0.607098 1.6812,0.902864 1.6812,1.992528 0,0.902864 -0.7939,1.400996 -1.38543,1.899128 -2.78643,1.899128 -3.48693,4.576588 -3.78269,5.775218 -0.31134,0.793898 -0.6071,1.992528 -1.99253,1.992528 -0.6071,0 -1.80573,-0.389166 -1.80573,-1.883562 0,-0.902864 0.6071,-3.300124 2.49066,-5.977584 h -33.46824 c -1.69677,0 -3.39353,0 -3.39353,-1.899128 0,-1.790162 1.80573,-1.790162 3.39353,-1.790162 z"
           id="use10816"
           style="stroke-width:0.996264" />
        <path
           d="m 225.24564,40.566625 c -3.19116,-0.607099 -4.38979,-2.988792 -4.38979,-4.872354 0,-2.39726 1.89913,-3.191158 3.28456,-3.191158 2.98879,0 5.09029,2.58406 5.09029,5.277086 0,4.171855 -4.79452,6.055417 -8.96638,6.055417 -6.08655,0 -9.46451,-5.962017 -10.36737,-7.845579 -2.2883,7.845579 -8.46825,7.845579 -10.25841,7.845579 -10.165,0 -15.55106,-13.013698 -15.55106,-15.208593 0,-0.389165 0.40474,-0.887297 1.10523,-0.887297 0.7939,0 0.99627,0.591531 1.19863,0.996264 3.37796,11.036737 10.05604,13.122665 12.95144,13.122665 4.48318,0 5.37048,-4.187422 5.37048,-6.569116 0,-2.179328 -0.59153,-4.467621 -1.79016,-9.246575 l -3.39352,-13.620797 c -1.4944,-5.9620176 -4.37423,-11.425903 -9.65131,-11.425903 -0.49813,0 -2.98879,0 -5.09029,1.2920299 3.59589,0.7004981 4.38979,3.6737235 4.38979,4.8723536 0,1.992528 -1.4944,3.1755915 -3.39352,3.1755915 -2.3817,0 -4.98132,-2.0859277 -4.98132,-5.2615193 0,-4.18742208 4.68555,-6.0709837 8.96637,-6.0709837 4.77896,0 8.17248,3.7826899 10.25841,7.8611456 1.60336,-5.8686176 6.58468,-7.8611456 10.27397,-7.8611456 10.14944,0 15.53549,13.029265 15.53549,15.208593 0,0.498132 -0.40473,0.902864 -0.99626,0.902864 -0.90287,0 -0.99627,-0.498132 -1.29203,-1.29203 -2.69303,-8.7484433 -8.46825,-12.826899 -12.95143,-12.826899 -3.48693,0 -5.38606,2.5840598 -5.38606,6.6625155 0,2.1793275 0.40474,3.7671235 1.99253,10.3362385 l 3.48693,13.511831 c 1.49439,5.977584 4.88792,10.351806 9.4645,10.351806 0.20237,0 2.9888,0 5.09029,-1.29203 z"
           id="use10818"
           style="stroke-width:0.996264" />
        <path
           d="m 259.64919,24.614011 c 0,7.145081 -0.7005,19.240349 -6.67808,32.036114 -4.77896,10.336239 -12.95143,17.57472 -14.1345,17.57472 -0.31133,0 -0.7005,-0.108966 -0.7005,-0.607098 0,-0.1868 0.0934,-0.295766 0.20237,-0.498132 4.77895,-4.965754 16.93649,-17.57472 16.93649,-48.458904 0,-30.9931504 -12.06414,-43.602117 -16.93649,-48.583437 -0.10897,-0.186799 -0.20237,-0.295765 -0.20237,-0.482565 0,-0.498132 0.38917,-0.498132 0.7005,-0.498132 1.08967,0 9.55791,7.347447 14.44583,18.2752177 4.98132,11.0056039 6.36675,21.7154423 6.36675,31.2422163 z"
           id="use10820"
           style="stroke-width:0.996264" />
        <use
           transform="matrix(0.996264,0,0,0.996264,296.40534,0)"
           xlink:href="#CMR17-58"
           id="use10822"
           x="0"
           y="0"
           width="100%"
           height="100%" />
        <use
           transform="matrix(0.996264,0,0,0.996264,380.17952,0)"
           xlink:href="#CMR17-77"
           id="use10824"
           x="0"
           y="0"
           width="100%"
           height="100%" />
        <use
           transform="matrix(0.996264,0,0,0.996264,464.86646,0)"
           xlink:href="#CMR17-76"
           id="use10826"
           x="0"
           y="0"
           width="100%"
           height="100%" />
        <use
           transform="matrix(0.996264,0,0,0.996264,522.24787,0)"
           xlink:href="#CMR17-80"
           id="use10828"
           x="0"
           y="0"
           width="100%"
           height="100%" />
      </g>
    </g>
  </g>
  <g
     id="axes_6"
     transform="translate(-165.42458,-57.701637)">
    <g
       id="text_14">
      <!-- $\left\{ \frac{\partial \Phi}{\partial \vec{x}} \right\}$ -->
      <g
         style="fill:#ffffff"
         transform="matrix(0.16,0,0,-0.16,337.18114,212.73484)"
         id="g10850">
        <use
           transform="matrix(0.996264,0,0,0.996264,0,110.58631)"
           xlink:href="#CMEX10-110"
           id="use10834"
           x="0"
           y="0"
           width="100%"
           height="100%" />
        <use
           transform="matrix(0.697382,0,0,0.697382,67.613332,39.226102)"
           xlink:href="#CMMI12-64"
           id="use10836"
           x="0"
           y="0"
           width="100%"
           height="100%" />
        <use
           transform="matrix(0.697382,0,0,0.697382,107.45404,39.226102)"
           xlink:href="#CMR17-8"
           id="use10838"
           x="0"
           y="0"
           width="100%"
           height="100%" />
        <use
           transform="matrix(0.697382,0,0,0.697382,71.489863,-34.355253)"
           xlink:href="#CMMI12-64"
           id="use10840"
           x="0"
           y="0"
           width="100%"
           height="100%" />
        <path
           d="m 147.50445,7.433184 c -0.83904,-0.7736581 -3.42153,-3.2144951 -3.42153,-4.184292 0,-0.697382 0.632,-1.3293844 1.32938,-1.3293844 0.632,0 0.90442,0.4249671 1.39476,1.1223492 1.67808,2.092146 3.55229,3.4106338 5.16499,4.3150511 0.69738,0.4249671 1.17683,0.6320024 1.17683,1.394764 0,0.6320024 -0.55572,0.9806934 -0.96979,1.3293841 -1.95049,1.329385 -2.44084,3.203599 -2.64788,4.042637 -0.21793,0.555726 -0.42496,1.394764 -1.39476,1.394764 -0.42497,0 -1.26401,-0.272415 -1.26401,-1.318488 0,-0.632003 0.42497,-2.310078 1.74346,-4.184292 h -23.42768 c -1.18773,0 -2.37545,0 -2.37545,-1.3293847 0,-1.2531083 1.264,-1.2531083 2.37545,-1.2531083 z"
           id="use10842"
           style="stroke-width:0.697382" />
        <path
           d="m 144.39084,-5.9587297 c -2.23381,-0.4249671 -3.07284,-2.092146 -3.07284,-3.4106338 0,-1.6780755 1.32938,-2.2338015 2.29918,-2.2338015 2.09214,0 3.56318,1.8088343 3.56318,3.693945 0,2.9202872 -3.35615,4.238775 -6.27643,4.238775 -4.26057,0 -6.62513,-4.1733954 -7.25714,-5.4918832 -1.6018,5.4918832 -5.92774,5.4918832 -7.18085,5.4918832 -7.11548,0 -10.8857,-9.109552 -10.8857,-10.645972 0,-0.272415 0.28331,-0.621106 0.77366,-0.621106 0.55573,0 0.69738,0.414071 0.83904,0.697382 2.36456,7.725685 7.0392,9.1858286 9.06596,9.1858286 3.13822,0 3.75933,-2.9311837 3.75933,-4.5983626 0,-1.525523 -0.41407,-3.127322 -1.25311,-6.472577 l -2.37546,-9.534519 c -1.04607,-4.173396 -3.06194,-7.9981 -6.75589,-7.9981 -0.34869,0 -2.09214,0 -3.56318,0.904417 2.51711,0.490347 3.07284,2.571596 3.07284,3.410634 0,1.394764 -1.04608,2.222905 -2.37546,2.222905 -1.66718,0 -3.48691,-1.460143 -3.48691,-3.683048 0,-2.931184 3.27988,-4.249672 6.27644,-4.249672 3.34525,0 5.72071,2.647872 7.18085,5.50278 1.12235,-4.108016 4.60926,-5.50278 7.19176,-5.50278 7.10457,0 10.8748,9.120449 10.8748,10.645972 0,0.348691 -0.28332,0.632003 -0.69739,0.632003 -0.632,0 -0.69738,-0.348691 -0.90441,-0.904418 -1.88511,-6.123885 -5.92775,-8.978793 -9.06597,-8.978793 -2.44084,0 -3.77022,1.808835 -3.77022,4.663742 0,1.525523 0.28331,2.636976 1.39476,7.235338 l 2.44084,9.458244 c 1.04607,4.1842918 3.42153,7.2462346 6.62513,7.2462346 0.14165,0 2.09215,0 3.56319,-0.9044173 z"
           id="use10844"
           style="stroke-width:0.697382" />
        <use
           transform="matrix(0.996264,0,0,0.996264,155.20626,110.58631)"
           xlink:href="#CMEX10-111"
           id="use10846"
           x="0"
           y="0"
           width="100%"
           height="100%" />
        <path
           d="m 67.613332,22.914133 h 86.397418 v 3.98495 H 67.613332 Z"
           id="path10848" />
      </g>
    </g>
  </g>
  <defs
     id="defs10864">
    <clipPath
       id="pb0d4d004e7">
      <rect
         height="86.975998"
         width="92.094543"
         x="40.32"
         y="34.560001"
         id="rect10855" />
    </clipPath>
    <clipPath
       id="p970ac159a2">
      <rect
         height="86.975998"
         width="92.094543"
         x="186.13637"
         y="34.560001"
         id="rect10858" />
    </clipPath>
    <clipPath
       id="pd33dfcb768">
      <rect
         height="86.975998"
         width="92.094543"
         x="186.13637"
         y="165.024"
         id="rect10861" />
    </clipPath>
  </defs>
</svg>
