<?xml version="1.0" encoding="UTF-8" standalone="no"?>
<svg
   width="360pt"
   height="288pt"
   viewBox="0 0 360 288"
   version="1.1"
   id="svg3978"
   sodipodi:docname="empirical_extcurve_example_flux2.svg"
   inkscape:version="1.1.2 (0a00cf5339, 2022-02-04)"
   xmlns:inkscape="http://www.inkscape.org/namespaces/inkscape"
   xmlns:sodipodi="http://sodipodi.sourceforge.net/DTD/sodipodi-0.dtd"
   xmlns:xlink="http://www.w3.org/1999/xlink"
   xmlns="http://www.w3.org/2000/svg"
   xmlns:svg="http://www.w3.org/2000/svg"
   xmlns:rdf="http://www.w3.org/1999/02/22-rdf-syntax-ns#"
   xmlns:cc="http://creativecommons.org/ns#"
   xmlns:dc="http://purl.org/dc/elements/1.1/">
  <sodipodi:namedview
     id="namedview3980"
     pagecolor="#ffffff"
     bordercolor="#999999"
     borderopacity="1"
     inkscape:pageshadow="0"
     inkscape:pageopacity="0"
     inkscape:pagecheckerboard="0"
     inkscape:document-units="pt"
     showgrid="false"
     inkscape:zoom="1.6354167"
     inkscape:cx="363.51592"
     inkscape:cy="191.69427"
     inkscape:window-width="1440"
     inkscape:window-height="836"
     inkscape:window-x="0"
     inkscape:window-y="0"
     inkscape:window-maximized="1"
     inkscape:current-layer="svg3978" />
  <metadata
     id="metadata3500">
    <rdf:RDF>
      <cc:Work>
        <dc:type
           rdf:resource="http://purl.org/dc/dcmitype/StillImage" />
        <dc:date>2024-12-03T10:23:06.928219</dc:date>
        <dc:format>image/svg+xml</dc:format>
        <dc:creator>
          <cc:Agent>
            <dc:title>Matplotlib v3.8.4, https://matplotlib.org/</dc:title>
          </cc:Agent>
        </dc:creator>
      </cc:Work>
    </rdf:RDF>
  </metadata>
  <defs
     id="defs3504">
    <style
       type="text/css"
       id="style3502">*{stroke-linejoin: round; stroke-linecap: butt}</style>
  </defs>
  <g
     id="figure_1">
    <g
       id="patch_1">
      <path
         d="M 0 288  L 360 288  L 360 0  L 0 0  z "
         id="path3506" />
    </g>
    <g
       id="axes_1">
      <g
         id="patch_2">
        <path
           d="M 42.781258 255.181443  L 356.99976 255.181443  L 356.99976 3.00024  L 42.781258 3.00024  z "
           id="path3509" />
      </g>
      <g
         id="PolyCollection_1">
        <path
           d="M 57.063917 219.180714  L 57.063917 243.718661  L 61.824803 225.742576  L 66.58569 228.574032  L 71.346576 226.798783  L 76.107463 218.080376  L 80.868349 210.365101  L 85.629235 201.319005  L 90.390122 193.181257  L 95.151008 191.455989  L 99.911894 186.133161  L 104.672781 186.939472  L 109.433667 182.704896  L 114.194554 189.659952  L 118.95544 179.951356  L 123.716326 172.957668  L 128.477213 172.537104  L 133.238099 163.857494  L 137.998986 160.4091  L 142.759872 159.784103  L 147.520758 153.529456  L 152.281645 150.202866  L 157.042531 148.31747  L 161.803418 150.763127  L 166.564304 151.709248  L 171.32519 146.102152  L 176.086077 147.138165  L 180.846963 145.969564  L 185.60785 144.437394  L 190.368736 143.151451  L 195.129622 140.711629  L 199.890509 143.005024  L 204.651395 145.689302  L 209.412282 144.840488  L 214.173168 146.424803  L 218.934054 146.90845  L 223.694941 145.277509  L 228.455827 144.863368  L 233.216714 143.732062  L 237.9776 141.540951  L 242.738486 141.931057  L 247.499373 145.611207  L 252.260259 147.036721  L 257.021146 149.04906  L 261.782032 148.475133  L 266.542918 149.146358  L 271.303805 149.785473  L 276.064691 150.981714  L 280.825578 150.149421  L 285.586464 146.653082  L 290.34735 142.762347  L 295.108237 142.635196  L 299.869123 145.127696  L 304.63001 149.212838  L 309.390896 152.53857  L 314.151782 154.579117  L 318.912669 155.209389  L 323.673555 155.086728  L 328.434442 154.105705  L 333.195328 155.384241  L 337.956214 156.942397  L 342.717101 155.974119  L 342.717101 145.94756  L 342.717101 145.94756  L 337.956214 147.198665  L 333.195328 146.591002  L 328.434442 145.285476  L 323.673555 146.468466  L 318.912669 147.089633  L 314.151782 146.576242  L 309.390896 144.42725  L 304.63001 141.130115  L 299.869123 136.989062  L 295.108237 134.423796  L 290.34735 134.593491  L 285.586464 138.793319  L 280.825578 142.611522  L 276.064691 143.592491  L 271.303805 142.397767  L 266.542918 141.774333  L 261.782032 141.07489  L 257.021146 141.694955  L 252.260259 139.533706  L 247.499373 137.996532  L 242.738486 134.057275  L 237.9776 133.613299  L 233.216714 135.885937  L 228.455827 136.983733  L 223.694941 137.343408  L 218.934054 139.097914  L 214.173168 138.710174  L 209.412282 137.076289  L 204.651395 137.829846  L 199.890509 134.899088  L 195.129622 132.4977  L 190.368736 134.981763  L 185.60785 136.261456  L 180.846963 137.609904  L 176.086077 138.943692  L 171.32519 137.710174  L 166.564304 143.479548  L 161.803418 141.879923  L 157.042531 139.495778  L 152.281645 140.952238  L 147.520758 144.507044  L 142.759872 149.929289  L 137.998986 151.006671  L 133.238099 153.819753  L 128.477213 162.59863  L 123.716326 163.294921  L 118.95544 170.265884  L 114.194554 179.236477  L 109.433667 171.362071  L 104.672781 175.382441  L 99.911894 174.34786  L 95.151008 179.25194  L 90.390122 179.630006  L 85.629235 185.486418  L 80.868349 192.41332  L 76.107463 202.083469  L 71.346576 213.512312  L 66.58569 210.734313  L 61.824803 209.227183  L 57.063917 219.180714  z "
           clip-path="url(#p2200a80c96)"
           style="fill: #8dd3c7; fill-opacity: 0.5"
           id="path3512" />
      </g>
      <g
         id="PolyCollection_2">
        <path
           d="M 57.063917 207.028244  L 57.063917 231.449688  L 61.824803 217.484879  L 66.58569 219.654172  L 71.346576 220.155548  L 76.107463 210.081922  L 80.868349 201.389211  L 85.629235 193.402712  L 90.390122 186.405631  L 95.151008 185.353965  L 99.911894 180.24051  L 104.672781 181.160956  L 109.433667 177.033484  L 114.194554 184.448214  L 118.95544 175.10862  L 123.716326 168.126294  L 128.477213 167.567867  L 133.238099 158.838623  L 137.998986 155.707886  L 142.759872 154.856696  L 147.520758 149.01825  L 152.281645 145.577552  L 157.042531 143.906624  L 161.803418 146.321525  L 166.564304 147.594398  L 171.32519 141.906163  L 176.086077 143.040929  L 180.846963 141.789734  L 185.60785 140.349425  L 190.368736 139.066607  L 195.129622 136.604665  L 199.890509 138.952056  L 204.651395 141.759574  L 209.412282 140.958389  L 214.173168 142.567489  L 218.934054 143.003182  L 223.694941 141.310459  L 228.455827 140.92355  L 233.216714 139.808999  L 237.9776 137.577125  L 242.738486 137.994166  L 247.499373 141.80387  L 252.260259 143.285213  L 257.021146 145.372008  L 261.782032 144.775012  L 266.542918 145.460346  L 271.303805 146.09162  L 276.064691 147.287103  L 280.825578 146.380471  L 285.586464 142.7232  L 290.34735 138.677919  L 295.108237 138.529496  L 299.869123 141.058379  L 304.63001 145.171476  L 309.390896 148.48291  L 314.151782 150.57768  L 318.912669 151.149511  L 323.673555 150.777597  L 328.434442 149.69559  L 333.195328 150.987621  L 337.956214 152.070531  L 342.717101 150.96084  L 342.717101 108.780719  L 342.717101 108.780719  L 337.956214 112.543723  L 333.195328 107.459591  L 328.434442 104.022558  L 323.673555 107.073022  L 318.912669 104.842956  L 314.151782 102.717127  L 309.390896 99.777645  L 304.63001 90.709962  L 299.869123 82.999061  L 295.108237 79.143605  L 290.34735 77.894529  L 285.586464 83.17255  L 280.825578 84.665926  L 276.064691 84.827233  L 271.303805 80.010591  L 266.542918 77.383604  L 261.782032 76.127245  L 257.021146 73.77962  L 252.260259 69.704934  L 247.499373 63.076092  L 242.738486 54.100772  L 237.9776 49.42688  L 233.216714 50.739036  L 228.455827 52.254712  L 223.694941 51.480173  L 218.934054 52.138451  L 214.173168 48.232428  L 209.412282 44.053945  L 204.651395 41.858827  L 199.890509 33.913836  L 195.129622 26.825896  L 190.368736 28.803606  L 185.60785 28.180238  L 180.846963 28.509487  L 176.086077 22.413171  L 171.32519 18.128145  L 166.564304 23.400683  L 161.803418 18.316481  L 157.042531 15.030495  L 152.281645 17.052827  L 147.520758 14.463022  L 142.759872 20.897989  L 137.998986 25.105224  L 133.238099 27.593974  L 128.477213 35.05822  L 123.716326 37.310379  L 118.95544 55.960734  L 114.194554 67.115586  L 109.433667 49.444361  L 104.672781 51.189387  L 99.911894 43.979599  L 95.151008 56.156018  L 90.390122 58.480545  L 85.629235 72.891325  L 80.868349 100.115065  L 76.107463 125.706451  L 71.346576 155.534602  L 66.58569 155.358671  L 61.824803 154.663214  L 57.063917 207.028244  z "
           clip-path="url(#p2200a80c96)"
           style="fill: #fa8174; fill-opacity: 0.2"
           id="path3515" />
      </g>
      <g
         id="matplotlib.axis_1">
        <g
           id="xtick_1">
          <g
             id="line2d_1">
            <defs
               id="defs3519">
              <path
                 id="m05b9a8eca5"
                 d="M 0 0  L 0 3.5  "
                 style="stroke: #ffffff; stroke-width: 0.8" />
            </defs>
            <g
               id="g3523">
              <use
                 xlink:href="#m05b9a8eca5"
                 x="60.872626"
                 y="255.181443"
                 style="fill: #ffffff; stroke: #ffffff; stroke-width: 0.8"
                 id="use3521" />
            </g>
          </g>
          <g
             id="text_1">
            <!-- $\mathdefault{400}$ -->
            <g
               style="fill: #ffffff"
               transform="translate(53.400623 269.099942) scale(0.1 -0.1)"
               id="g3536">
              <defs
                 id="defs3528">
                <path
                   id="CMR17-34"
                   d="M 2150 4122  C 2150 4256 2144 4256 2029 4256  L 128 1254  L 128 1088  L 1779 1088  L 1779 457  C 1779 224 1766 160 1318 160  L 1197 160  L 1197 0  C 1402 0 1747 0 1965 0  C 2182 0 2528 0 2733 0  L 2733 160  L 2611 160  C 2163 160 2150 224 2150 457  L 2150 1088  L 2803 1088  L 2803 1254  L 2150 1254  L 2150 4122  z M 1798 3703  L 1798 1254  L 256 1254  L 1798 3703  z "
                   transform="scale(0.015625)" />
                <path
                   id="CMR17-30"
                   d="M 2688 2025  C 2688 2416 2682 3080 2413 3591  C 2176 4039 1798 4198 1466 4198  C 1158 4198 768 4058 525 3597  C 269 3118 243 2524 243 2025  C 243 1661 250 1106 448 619  C 723 -39 1216 -128 1466 -128  C 1760 -128 2208 -7 2470 600  C 2662 1042 2688 1559 2688 2025  z M 1466 -26  C 1056 -26 813 325 723 812  C 653 1188 653 1738 653 2096  C 653 2588 653 2997 736 3387  C 858 3929 1216 4096 1466 4096  C 1728 4096 2067 3923 2189 3400  C 2272 3036 2278 2607 2278 2096  C 2278 1680 2278 1169 2202 792  C 2067 95 1690 -26 1466 -26  z "
                   transform="scale(0.015625)" />
              </defs>
              <use
                 xlink:href="#CMR17-34"
                 transform="scale(0.996264)"
                 id="use3530" />
              <use
                 xlink:href="#CMR17-30"
                 transform="translate(45.690477 0) scale(0.996264)"
                 id="use3532" />
              <use
                 xlink:href="#CMR17-30"
                 transform="translate(91.380954 0) scale(0.996264)"
                 id="use3534" />
            </g>
          </g>
        </g>
        <g
           id="xtick_2">
          <g
             id="line2d_2">
            <g
               id="g3542">
              <use
                 xlink:href="#m05b9a8eca5"
                 x="108.48149"
                 y="255.181443"
                 style="fill: #ffffff; stroke: #ffffff; stroke-width: 0.8"
                 id="use3540" />
            </g>
          </g>
          <g
             id="text_2">
            <!-- $\mathdefault{500}$ -->
            <g
               style="fill: #ffffff"
               transform="translate(101.009487 269.099942) scale(0.1 -0.1)"
               id="g3554">
              <defs
                 id="defs3546">
                <path
                   id="CMR17-35"
                   d="M 730 3692  C 794 3666 1056 3584 1325 3584  C 1920 3584 2246 3911 2432 4100  C 2432 4157 2432 4192 2394 4192  C 2387 4192 2374 4192 2323 4163  C 2099 4058 1837 3973 1517 3973  C 1325 3973 1037 3999 723 4139  C 653 4171 640 4171 634 4171  C 602 4171 595 4164 595 4037  L 595 2203  C 595 2089 595 2057 659 2057  C 691 2057 704 2070 736 2114  C 941 2401 1222 2522 1542 2522  C 1766 2522 2246 2382 2246 1289  C 2246 1085 2246 715 2054 421  C 1894 159 1645 25 1370 25  C 947 25 518 320 403 814  C 429 807 480 795 506 795  C 589 795 749 840 749 1038  C 749 1210 627 1280 506 1280  C 358 1280 262 1190 262 1011  C 262 454 704 -128 1382 -128  C 2042 -128 2669 440 2669 1264  C 2669 2030 2170 2624 1549 2624  C 1222 2624 947 2503 730 2274  L 730 3692  z "
                   transform="scale(0.015625)" />
              </defs>
              <use
                 xlink:href="#CMR17-35"
                 transform="scale(0.996264)"
                 id="use3548" />
              <use
                 xlink:href="#CMR17-30"
                 transform="translate(45.690477 0) scale(0.996264)"
                 id="use3550" />
              <use
                 xlink:href="#CMR17-30"
                 transform="translate(91.380954 0) scale(0.996264)"
                 id="use3552" />
            </g>
          </g>
        </g>
        <g
           id="xtick_3">
          <g
             id="line2d_3">
            <g
               id="g3560">
              <use
                 xlink:href="#m05b9a8eca5"
                 x="156.090354"
                 y="255.181443"
                 style="fill: #ffffff; stroke: #ffffff; stroke-width: 0.8"
                 id="use3558" />
            </g>
          </g>
          <g
             id="text_3">
            <!-- $\mathdefault{600}$ -->
            <g
               style="fill: #ffffff"
               transform="translate(148.618351 269.099942) scale(0.1 -0.1)"
               id="g3572">
              <defs
                 id="defs3564">
                <path
                   id="CMR17-36"
                   d="M 678 2176  C 678 3690 1395 4032 1811 4032  C 1946 4032 2272 4009 2400 3776  C 2298 3776 2106 3776 2106 3553  C 2106 3381 2246 3323 2336 3323  C 2394 3323 2566 3348 2566 3560  C 2566 3954 2246 4179 1805 4179  C 1043 4179 243 3390 243 1984  C 243 253 966 -128 1478 -128  C 2099 -128 2688 427 2688 1283  C 2688 2081 2170 2662 1517 2662  C 1126 2662 838 2407 678 1960  L 678 2176  z M 1478 25  C 691 25 691 1200 691 1436  C 691 1896 909 2560 1504 2560  C 1613 2560 1926 2560 2138 2120  C 2253 1870 2253 1609 2253 1289  C 2253 944 2253 690 2118 434  C 1978 171 1773 25 1478 25  z "
                   transform="scale(0.015625)" />
              </defs>
              <use
                 xlink:href="#CMR17-36"
                 transform="scale(0.996264)"
                 id="use3566" />
              <use
                 xlink:href="#CMR17-30"
                 transform="translate(45.690477 0) scale(0.996264)"
                 id="use3568" />
              <use
                 xlink:href="#CMR17-30"
                 transform="translate(91.380954 0) scale(0.996264)"
                 id="use3570" />
            </g>
          </g>
        </g>
        <g
           id="xtick_4">
          <g
             id="line2d_4">
            <g
               id="g3578">
              <use
                 xlink:href="#m05b9a8eca5"
                 x="203.699218"
                 y="255.181443"
                 style="fill: #ffffff; stroke: #ffffff; stroke-width: 0.8"
                 id="use3576" />
            </g>
          </g>
          <g
             id="text_4">
            <!-- $\mathdefault{700}$ -->
            <g
               style="fill: #ffffff"
               transform="translate(196.227215 269.099942) scale(0.1 -0.1)"
               id="g3590">
              <defs
                 id="defs3582">
                <path
                   id="CMR17-37"
                   d="M 2886 3941  L 2886 4081  L 1382 4081  C 634 4081 621 4165 595 4288  L 480 4288  L 294 3094  L 410 3094  C 429 3215 474 3540 550 3661  C 589 3712 1062 3712 1171 3712  L 2579 3712  L 1869 2661  C 1395 1954 1069 999 1069 165  C 1069 89 1069 -128 1299 -128  C 1530 -128 1530 89 1530 171  L 1530 465  C 1530 1508 1709 2196 2003 2636  L 2886 3941  z "
                   transform="scale(0.015625)" />
              </defs>
              <use
                 xlink:href="#CMR17-37"
                 transform="scale(0.996264)"
                 id="use3584" />
              <use
                 xlink:href="#CMR17-30"
                 transform="translate(45.690477 0) scale(0.996264)"
                 id="use3586" />
              <use
                 xlink:href="#CMR17-30"
                 transform="translate(91.380954 0) scale(0.996264)"
                 id="use3588" />
            </g>
          </g>
        </g>
        <g
           id="xtick_5">
          <g
             id="line2d_5">
            <g
               id="g3596">
              <use
                 xlink:href="#m05b9a8eca5"
                 x="251.308082"
                 y="255.181443"
                 style="fill: #ffffff; stroke: #ffffff; stroke-width: 0.8"
                 id="use3594" />
            </g>
          </g>
          <g
             id="text_5">
            <!-- $\mathdefault{800}$ -->
            <g
               style="fill: #ffffff"
               transform="translate(243.836079 269.099942) scale(0.1 -0.1)"
               id="g3608">
              <defs
                 id="defs3600">
                <path
                   id="CMR17-38"
                   d="M 1741 2264  C 2144 2467 2554 2773 2554 3263  C 2554 3841 1990 4179 1472 4179  C 890 4179 378 3759 378 3180  C 378 3021 416 2747 666 2505  C 730 2442 998 2251 1171 2130  C 883 1983 211 1634 211 934  C 211 279 838 -128 1459 -128  C 2144 -128 2720 362 2720 1010  C 2720 1590 2330 1857 2074 2029  L 1741 2264  z M 902 2822  C 851 2854 595 3051 595 3351  C 595 3739 998 4032 1459 4032  C 1965 4032 2336 3676 2336 3262  C 2336 2669 1670 2331 1638 2331  C 1632 2331 1626 2331 1574 2370  L 902 2822  z M 2080 1519  C 2176 1449 2483 1240 2483 851  C 2483 381 2010 25 1472 25  C 890 25 448 438 448 940  C 448 1443 838 1862 1280 2060  L 2080 1519  z "
                   transform="scale(0.015625)" />
              </defs>
              <use
                 xlink:href="#CMR17-38"
                 transform="scale(0.996264)"
                 id="use3602" />
              <use
                 xlink:href="#CMR17-30"
                 transform="translate(45.690477 0) scale(0.996264)"
                 id="use3604" />
              <use
                 xlink:href="#CMR17-30"
                 transform="translate(91.380954 0) scale(0.996264)"
                 id="use3606" />
            </g>
          </g>
        </g>
        <g
           id="xtick_6">
          <g
             id="line2d_6">
            <g
               id="g3614">
              <use
                 xlink:href="#m05b9a8eca5"
                 x="298.916946"
                 y="255.181443"
                 style="fill: #ffffff; stroke: #ffffff; stroke-width: 0.8"
                 id="use3612" />
            </g>
          </g>
          <g
             id="text_6">
            <!-- $\mathdefault{900}$ -->
            <g
               style="fill: #ffffff"
               transform="translate(291.444943 269.099942) scale(0.1 -0.1)"
               id="g3626">
              <defs
                 id="defs3618">
                <path
                   id="CMR17-39"
                   d="M 2253 1864  C 2253 464 1670 31 1190 31  C 1043 31 685 31 538 294  C 704 268 826 357 826 518  C 826 692 685 749 595 749  C 538 749 365 723 365 506  C 365 71 742 -128 1203 -128  C 1939 -128 2688 674 2688 2073  C 2688 3817 1971 4179 1485 4179  C 851 4179 243 3628 243 2778  C 243 1991 762 1408 1414 1408  C 1952 1408 2189 1903 2253 2112  L 2253 1864  z M 1427 1510  C 1254 1510 1011 1542 813 1922  C 678 2169 678 2461 678 2771  C 678 3146 678 3405 858 3684  C 947 3817 1114 4032 1485 4032  C 2240 4032 2240 2885 2240 2632  C 2240 2182 2035 1510 1427 1510  z "
                   transform="scale(0.015625)" />
              </defs>
              <use
                 xlink:href="#CMR17-39"
                 transform="scale(0.996264)"
                 id="use3620" />
              <use
                 xlink:href="#CMR17-30"
                 transform="translate(45.690477 0) scale(0.996264)"
                 id="use3622" />
              <use
                 xlink:href="#CMR17-30"
                 transform="translate(91.380954 0) scale(0.996264)"
                 id="use3624" />
            </g>
          </g>
        </g>
        <g
           id="xtick_7">
          <g
             id="line2d_7">
            <g
               id="g3632">
              <use
                 xlink:href="#m05b9a8eca5"
                 x="346.52581"
                 y="255.181443"
                 style="fill: #ffffff; stroke: #ffffff; stroke-width: 0.8"
                 id="use3630" />
            </g>
          </g>
          <g
             id="text_7">
            <!-- $\mathdefault{1000}$ -->
            <g
               style="fill: #ffffff"
               transform="translate(336.563139 269.099942) scale(0.1 -0.1)"
               id="g3646">
              <defs
                 id="defs3636">
                <path
                   id="CMR17-31"
                   d="M 1702 4058  C 1702 4192 1696 4192 1606 4192  C 1357 3916 979 3827 621 3827  C 602 3827 570 3827 563 3808  C 557 3795 557 3782 557 3648  C 755 3648 1088 3686 1344 3839  L 1344 461  C 1344 236 1331 160 781 160  L 589 160  L 589 0  C 896 0 1216 0 1523 0  C 1830 0 2150 0 2458 0  L 2458 160  L 2266 160  C 1715 160 1702 230 1702 458  L 1702 4058  z "
                   transform="scale(0.015625)" />
              </defs>
              <use
                 xlink:href="#CMR17-31"
                 transform="scale(0.996264)"
                 id="use3638" />
              <use
                 xlink:href="#CMR17-30"
                 transform="translate(45.690477 0) scale(0.996264)"
                 id="use3640" />
              <use
                 xlink:href="#CMR17-30"
                 transform="translate(91.380954 0) scale(0.996264)"
                 id="use3642" />
              <use
                 xlink:href="#CMR17-30"
                 transform="translate(137.071431 0) scale(0.996264)"
                 id="use3644" />
            </g>
          </g>
        </g>
        <g
           id="text_8">
          <!-- wavelength (nm) -->
          <g
             style="fill: #ffffff"
             transform="translate(164.813658 282.5091) scale(0.1 -0.1)"
             id="g3692">
            <defs
               id="defs3662">
              <path
                 id="CMSS17-77"
                 d="M 4013 2752  L 3526 2752  L 3187 1601  C 3117 1358 2918 685 2893 371  L 2886 371  C 2874 564 2765 1024 2586 1633  L 2259 2752  L 1818 2752  L 1498 1658  C 1338 1101 1216 627 1203 371  L 1197 371  C 1171 749 909 1633 870 1773  L 582 2752  L 83 2752  L 915 0  L 1402 0  C 1734 1096 1990 1943 2010 2370  C 2022 2160 2131 1707 2195 1484  L 2618 0  L 3181 0  L 4013 2752  z "
                 transform="scale(0.015625)" />
              <path
                 id="CMSS17-61"
                 d="M 2406 1791  C 2406 2392 1978 2808 1402 2808  C 1120 2808 813 2757 461 2553  L 499 2135  C 659 2248 934 2432 1395 2432  C 1722 2432 1920 2180 1920 1782  L 1920 1536  C 896 1536 256 1238 256 726  C 256 461 416 -64 947 -64  C 1043 -64 1562 -64 1933 217  L 1933 -19  L 2406 -19  L 2406 1791  z M 1920 816  C 1920 701 1920 548 1728 434  C 1562 325 1350 325 1261 325  C 941 325 723 511 723 744  C 723 1211 1722 1211 1920 1211  L 1920 816  z "
                 transform="scale(0.015625)" />
              <path
                 id="CMSS17-76"
                 d="M 2675 2752  L 2176 2752  L 1747 1556  C 1613 1165 1421 627 1389 352  L 1382 352  C 1370 468 1318 634 1286 749  C 1248 890 1197 1056 1158 1172  L 595 2752  L 83 2752  L 1094 0  L 1664 0  L 2675 2752  z "
                 transform="scale(0.015625)" />
              <path
                 id="CMSS17-65"
                 d="M 2502 1377  C 2502 1590 2490 2003 2285 2345  C 2061 2713 1696 2816 1421 2816  C 755 2816 192 2188 192 1375  C 192 582 774 -64 1510 -64  C 1798 -64 2150 19 2470 248  C 2470 274 2458 414 2451 420  C 2451 433 2432 630 2432 656  C 2125 407 1773 325 1517 325  C 1107 325 666 667 646 1377  L 2502 1377  z M 698 1728  C 781 2084 1062 2421 1421 2421  C 1517 2421 1965 2421 2080 1728  L 698 1728  z "
                 transform="scale(0.015625)" />
              <path
                 id="CMSS17-6c"
                 d="M 947 4416  L 474 4416  L 474 0  L 947 0  L 947 4416  z "
                 transform="scale(0.015625)" />
              <path
                 id="CMSS17-6e"
                 d="M 2618 1877  C 2618 2283 2522 2816 1798 2816  C 1389 2816 1120 2606 941 2389  L 941 2758  L 474 2758  L 474 0  L 960 0  L 960 1559  C 960 1964 1114 2428 1549 2428  C 2112 2428 2131 2048 2131 1829  L 2131 0  L 2618 0  L 2618 1877  z "
                 transform="scale(0.015625)" />
              <path
                 id="CMSS17-67"
                 d="M 2848 2808  C 2483 2808 2170 2738 1914 2617  C 1702 2777 1485 2808 1338 2808  C 781 2808 358 2349 358 1814  C 358 1468 550 1207 563 1195  C 448 1035 384 863 384 672  C 384 448 474 289 544 200  C 211 -3 166 -314 166 -435  C 166 -898 749 -1280 1498 -1280  C 2253 -1280 2835 -898 2835 -428  C 2835 448 1856 448 1587 448  L 1069 448  C 973 448 717 448 717 791  C 717 921 774 1004 781 1010  C 877 940 1075 832 1338 832  C 1869 832 2310 1278 2310 1827  C 2310 2132 2170 2355 2112 2432  L 2131 2432  C 2150 2432 2419 2432 2515 2432  C 2720 2432 2739 2429 2918 2419  L 2848 2808  z M 1338 1182  C 1120 1182 813 1315 813 1823  C 813 2375 1165 2464 1331 2464  C 1549 2464 1856 2331 1856 1823  C 1856 1271 1504 1182 1338 1182  z M 1581 -10  C 1734 -10 2381 -10 2381 -442  C 2381 -714 1984 -929 1504 -929  C 1018 -929 621 -720 621 -435  C 621 -403 621 -10 1062 -10  L 1581 -10  z "
                 transform="scale(0.015625)" />
              <path
                 id="CMSS17-74"
                 d="M 1069 2368  L 1901 2368  L 1901 2737  L 1069 2737  L 1069 3520  L 614 3520  L 614 2737  L 109 2737  L 109 2368  L 602 2368  L 602 749  C 602 384 685 -64 1107 -64  C 1427 -64 1722 25 2003 172  L 1901 548  C 1747 414 1562 337 1363 337  C 1082 337 1069 696 1069 856  L 1069 2368  z "
                 transform="scale(0.015625)" />
              <path
                 id="CMSS17-68"
                 d="M 2618 1891  C 2618 2292 2522 2820 1798 2820  C 1395 2820 1133 2623 947 2407  L 947 4448  L 474 4448  L 474 32  L 960 32  L 960 1573  C 960 1973 1114 2432 1549 2432  C 2112 2432 2131 2056 2131 1839  L 2131 32  L 2618 32  L 2618 1891  z "
                 transform="scale(0.015625)" />
              <path
                 id="CMSS17-28"
                 d="M 1613 4768  C 1267 4417 474 3601 474 1588  C 474 -433 1267 -1243 1613 -1600  L 2003 -1600  C 1216 -784 960 357 960 1581  C 960 2798 1203 3946 2003 4768  L 1613 4768  z "
                 transform="scale(0.015625)" />
              <path
                 id="CMSS17-6d"
                 d="M 4288 1877  C 4288 2308 4179 2816 3462 2816  C 2982 2816 2694 2516 2566 2331  C 2451 2670 2182 2816 1798 2816  C 1363 2816 1088 2568 941 2389  L 941 2758  L 474 2758  L 474 0  L 960 0  L 960 1559  C 960 1939 1101 2428 1555 2428  C 2138 2428 2138 2016 2138 1829  L 2138 0  L 2624 0  L 2624 1559  C 2624 1939 2765 2428 3219 2428  C 3802 2428 3802 2016 3802 1829  L 3802 0  L 4288 0  L 4288 1877  z "
                 transform="scale(0.015625)" />
              <path
                 id="CMSS17-29"
                 d="M 723 -1600  C 1069 -1249 1862 -433 1862 1581  C 1862 3601 1069 4411 723 4768  L 333 4768  C 1120 3952 1376 2811 1376 1588  C 1376 370 1133 -778 333 -1600  L 723 -1600  z "
                 transform="scale(0.015625)" />
            </defs>
            <use
               xlink:href="#CMSS17-77"
               transform="scale(0.996264)"
               id="use3664" />
            <use
               xlink:href="#CMSS17-61"
               transform="translate(61.217091 0) scale(0.996264)"
               id="use3666" />
            <use
               xlink:href="#CMSS17-76"
               transform="translate(106.139012 0) scale(0.996264)"
               id="use3668" />
            <use
               xlink:href="#CMSS17-65"
               transform="translate(149.139153 0) scale(0.996264)"
               id="use3670" />
            <use
               xlink:href="#CMSS17-6c"
               transform="translate(190.777976 0) scale(0.996264)"
               id="use3672" />
            <use
               xlink:href="#CMSS17-65"
               transform="translate(212.958699 0) scale(0.996264)"
               id="use3674" />
            <use
               xlink:href="#CMSS17-6e"
               transform="translate(254.597521 0) scale(0.996264)"
               id="use3676" />
            <use
               xlink:href="#CMSS17-67"
               transform="translate(302.802464 0) scale(0.996264)"
               id="use3678" />
            <use
               xlink:href="#CMSS17-74"
               transform="translate(349.646087 0) scale(0.996264)"
               id="use3680" />
            <use
               xlink:href="#CMSS17-68"
               transform="translate(383.477654 0) scale(0.996264)"
               id="use3682" />
            <use
               xlink:href="#CMSS17-28"
               transform="translate(462.91171 0) scale(0.996264)"
               id="use3684" />
            <use
               xlink:href="#CMSS17-6e"
               transform="translate(499.345624 0) scale(0.996264)"
               id="use3686" />
            <use
               xlink:href="#CMSS17-6d"
               transform="translate(547.550567 0) scale(0.996264)"
               id="use3688" />
            <use
               xlink:href="#CMSS17-29"
               transform="translate(621.779822 0) scale(0.996264)"
               id="use3690" />
          </g>
        </g>
      </g>
      <g
         id="matplotlib.axis_2">
        <g
           id="ytick_1">
          <g
             id="line2d_8">
            <defs
               id="defs3697">
              <path
                 id="mfa686c1fd8"
                 d="M 0 0  L -3.5 0  "
                 style="stroke: #ffffff; stroke-width: 0.8" />
            </defs>
            <g
               id="g3701">
              <use
                 xlink:href="#mfa686c1fd8"
                 x="42.781258"
                 y="242.382084"
                 style="fill: #ffffff; stroke: #ffffff; stroke-width: 0.8"
                 id="use3699" />
            </g>
          </g>
          <g
             id="text_9">
            <!-- $\mathdefault{0}$ -->
            <g
               style="fill: #ffffff"
               transform="translate(30.799922 245.841333) scale(0.1 -0.1)"
               id="g3706">
              <use
                 xlink:href="#CMR17-30"
                 transform="scale(0.996264)"
                 id="use3704" />
            </g>
          </g>
        </g>
        <g
           id="ytick_2">
          <g
             id="line2d_9">
            <g
               id="g3712">
              <use
                 xlink:href="#mfa686c1fd8"
                 x="42.781258"
                 y="205.384845"
                 style="fill: #ffffff; stroke: #ffffff; stroke-width: 0.8"
                 id="use3710" />
            </g>
          </g>
          <g
             id="text_10">
            <!-- $\mathdefault{1000}$ -->
            <g
               style="fill: #ffffff"
               transform="translate(15.855917 208.844094) scale(0.1 -0.1)"
               id="g3723">
              <use
                 xlink:href="#CMR17-31"
                 transform="scale(0.996264)"
                 id="use3715" />
              <use
                 xlink:href="#CMR17-30"
                 transform="translate(45.690477 0) scale(0.996264)"
                 id="use3717" />
              <use
                 xlink:href="#CMR17-30"
                 transform="translate(91.380954 0) scale(0.996264)"
                 id="use3719" />
              <use
                 xlink:href="#CMR17-30"
                 transform="translate(137.071431 0) scale(0.996264)"
                 id="use3721" />
            </g>
          </g>
        </g>
        <g
           id="ytick_3">
          <g
             id="line2d_10">
            <g
               id="g3729">
              <use
                 xlink:href="#mfa686c1fd8"
                 x="42.781258"
                 y="168.387605"
                 style="fill: #ffffff; stroke: #ffffff; stroke-width: 0.8"
                 id="use3727" />
            </g>
          </g>
          <g
             id="text_11">
            <!-- $\mathdefault{2000}$ -->
            <g
               style="fill: #ffffff"
               transform="translate(15.855917 171.846855) scale(0.1 -0.1)"
               id="g3743">
              <defs
                 id="defs3733">
                <path
                   id="CMR17-32"
                   d="M 2669 989  L 2554 989  C 2490 536 2438 459 2413 420  C 2381 369 1920 369 1830 369  L 602 369  C 832 619 1280 1072 1824 1597  C 2214 1967 2669 2402 2669 3035  C 2669 3790 2067 4224 1395 4224  C 691 4224 262 3604 262 3030  C 262 2780 448 2748 525 2748  C 589 2748 781 2787 781 3010  C 781 3207 614 3264 525 3264  C 486 3264 448 3258 422 3245  C 544 3790 915 4058 1306 4058  C 1862 4058 2227 3617 2227 3035  C 2227 2479 1901 2000 1536 1584  L 262 146  L 262 0  L 2515 0  L 2669 989  z "
                   transform="scale(0.015625)" />
              </defs>
              <use
                 xlink:href="#CMR17-32"
                 transform="scale(0.996264)"
                 id="use3735" />
              <use
                 xlink:href="#CMR17-30"
                 transform="translate(45.690477 0) scale(0.996264)"
                 id="use3737" />
              <use
                 xlink:href="#CMR17-30"
                 transform="translate(91.380954 0) scale(0.996264)"
                 id="use3739" />
              <use
                 xlink:href="#CMR17-30"
                 transform="translate(137.071431 0) scale(0.996264)"
                 id="use3741" />
            </g>
          </g>
        </g>
        <g
           id="ytick_4">
          <g
             id="line2d_11">
            <g
               id="g3749">
              <use
                 xlink:href="#mfa686c1fd8"
                 x="42.781258"
                 y="131.390366"
                 style="fill: #ffffff; stroke: #ffffff; stroke-width: 0.8"
                 id="use3747" />
            </g>
          </g>
          <g
             id="text_12">
            <!-- $\mathdefault{3000}$ -->
            <g
               style="fill: #ffffff"
               transform="translate(15.855917 134.849615) scale(0.1 -0.1)"
               id="g3763">
              <defs
                 id="defs3753">
                <path
                   id="CMR17-33"
                   d="M 1414 2157  C 1984 2157 2234 1662 2234 1090  C 2234 320 1824 25 1453 25  C 1114 25 563 194 390 693  C 422 680 454 680 486 680  C 640 680 755 782 755 948  C 755 1133 614 1216 486 1216  C 378 1216 211 1165 211 926  C 211 335 787 -128 1466 -128  C 2176 -128 2720 430 2720 1085  C 2720 1707 2208 2157 1600 2227  C 2086 2328 2554 2756 2554 3329  C 2554 3820 2048 4179 1472 4179  C 890 4179 378 3829 378 3329  C 378 3110 544 3072 627 3072  C 762 3072 877 3155 877 3321  C 877 3486 762 3569 627 3569  C 602 3569 570 3569 544 3557  C 730 3959 1235 4032 1459 4032  C 1683 4032 2106 3925 2106 3320  C 2106 3143 2080 2828 1862 2550  C 1670 2304 1453 2304 1242 2284  C 1210 2284 1062 2269 1037 2269  C 992 2263 966 2257 966 2208  C 966 2163 973 2157 1101 2157  L 1414 2157  z "
                   transform="scale(0.015625)" />
              </defs>
              <use
                 xlink:href="#CMR17-33"
                 transform="scale(0.996264)"
                 id="use3755" />
              <use
                 xlink:href="#CMR17-30"
                 transform="translate(45.690477 0) scale(0.996264)"
                 id="use3757" />
              <use
                 xlink:href="#CMR17-30"
                 transform="translate(91.380954 0) scale(0.996264)"
                 id="use3759" />
              <use
                 xlink:href="#CMR17-30"
                 transform="translate(137.071431 0) scale(0.996264)"
                 id="use3761" />
            </g>
          </g>
        </g>
        <g
           id="ytick_5">
          <g
             id="line2d_12">
            <g
               id="g3769">
              <use
                 xlink:href="#mfa686c1fd8"
                 x="42.781258"
                 y="94.393127"
                 style="fill: #ffffff; stroke: #ffffff; stroke-width: 0.8"
                 id="use3767" />
            </g>
          </g>
          <g
             id="text_13">
            <!-- $\mathdefault{4000}$ -->
            <g
               style="fill: #ffffff"
               transform="translate(15.855917 97.852376) scale(0.1 -0.1)"
               id="g3780">
              <use
                 xlink:href="#CMR17-34"
                 transform="scale(0.996264)"
                 id="use3772" />
              <use
                 xlink:href="#CMR17-30"
                 transform="translate(45.690477 0) scale(0.996264)"
                 id="use3774" />
              <use
                 xlink:href="#CMR17-30"
                 transform="translate(91.380954 0) scale(0.996264)"
                 id="use3776" />
              <use
                 xlink:href="#CMR17-30"
                 transform="translate(137.071431 0) scale(0.996264)"
                 id="use3778" />
            </g>
          </g>
        </g>
        <g
           id="ytick_6">
          <g
             id="line2d_13">
            <g
               id="g3786">
              <use
                 xlink:href="#mfa686c1fd8"
                 x="42.781258"
                 y="57.395887"
                 style="fill: #ffffff; stroke: #ffffff; stroke-width: 0.8"
                 id="use3784" />
            </g>
          </g>
          <g
             id="text_14">
            <!-- $\mathdefault{5000}$ -->
            <g
               style="fill: #ffffff"
               transform="translate(15.855917 60.855137) scale(0.1 -0.1)"
               id="g3797">
              <use
                 xlink:href="#CMR17-35"
                 transform="scale(0.996264)"
                 id="use3789" />
              <use
                 xlink:href="#CMR17-30"
                 transform="translate(45.690477 0) scale(0.996264)"
                 id="use3791" />
              <use
                 xlink:href="#CMR17-30"
                 transform="translate(91.380954 0) scale(0.996264)"
                 id="use3793" />
              <use
                 xlink:href="#CMR17-30"
                 transform="translate(137.071431 0) scale(0.996264)"
                 id="use3795" />
            </g>
          </g>
        </g>
        <g
           id="ytick_7">
          <g
             id="line2d_14">
            <g
               id="g3803">
              <use
                 xlink:href="#mfa686c1fd8"
                 x="42.781258"
                 y="20.398648"
                 style="fill: #ffffff; stroke: #ffffff; stroke-width: 0.8"
                 id="use3801" />
            </g>
          </g>
          <g
             id="text_15">
            <!-- $\mathdefault{6000}$ -->
            <g
               style="fill: #ffffff"
               transform="translate(15.855917 23.857897) scale(0.1 -0.1)"
               id="g3814">
              <use
                 xlink:href="#CMR17-36"
                 transform="scale(0.996264)"
                 id="use3806" />
              <use
                 xlink:href="#CMR17-30"
                 transform="translate(45.690477 0) scale(0.996264)"
                 id="use3808" />
              <use
                 xlink:href="#CMR17-30"
                 transform="translate(91.380954 0) scale(0.996264)"
                 id="use3810" />
              <use
                 xlink:href="#CMR17-30"
                 transform="translate(137.071431 0) scale(0.996264)"
                 id="use3812" />
            </g>
          </g>
        </g>
        <g
           id="text_16">
          <!-- flux -->
          <g
             style="fill: #ffffff"
             transform="translate(9.918738 136.63202) rotate(-90) scale(0.1 -0.1)"
             id="g3829">
            <defs
               id="defs3821">
              <path
                 id="CMSS17-d"
                 d="M 1075 2368  L 1773 2368  L 1773 2737  L 1062 2737  L 1062 3578  C 1062 3919 1216 4092 1421 4092  C 1594 4092 1754 4021 1773 4009  L 1773 4429  C 1722 4442 1574 4480 1421 4480  C 941 4480 602 3993 602 3372  L 602 2737  L 160 2737  L 160 2368  L 602 2368  L 602 0  L 1075 0  L 1075 2368  z M 2733 4429  L 2259 4429  L 2259 0  L 2733 0  L 2733 4429  z "
                 transform="scale(0.015625)" />
              <path
                 id="CMSS17-75"
                 d="M 2618 2739  L 2131 2739  L 2131 972  C 2131 498 1786 306 1421 306  C 998 306 960 447 960 709  L 960 2739  L 474 2739  L 474 678  C 474 179 646 -64 1088 -64  C 1306 -64 1798 -13 2144 306  L 2144 0  L 2618 0  L 2618 2739  z "
                 transform="scale(0.015625)" />
              <path
                 id="CMSS17-78"
                 d="M 1587 1414  L 2656 2739  L 2099 2739  L 1363 1777  L 602 2739  L 32 2739  L 1139 1414  L 0 0  L 563 0  L 1363 1121  L 2195 0  L 2758 0  L 1587 1414  z "
                 transform="scale(0.015625)" />
            </defs>
            <use
               xlink:href="#CMSS17-d"
               transform="scale(0.996264)"
               id="use3823" />
            <use
               xlink:href="#CMSS17-75"
               transform="translate(50.126737 0) scale(0.996264)"
               id="use3825" />
            <use
               xlink:href="#CMSS17-78"
               transform="translate(98.33168 0) scale(0.996264)"
               id="use3827" />
          </g>
        </g>
      </g>
      <g
         id="line2d_15">
        <path
           d="M 57.063917 231.449688  L 61.824803 217.484879  L 66.58569 219.654172  L 71.346576 220.155548  L 76.107463 210.081922  L 80.868349 201.389211  L 85.629235 193.402712  L 90.390122 186.405631  L 95.151008 185.353965  L 99.911894 180.24051  L 104.672781 181.160956  L 109.433667 177.033484  L 114.194554 184.448214  L 118.95544 175.10862  L 123.716326 168.126294  L 128.477213 167.567867  L 133.238099 158.838623  L 137.998986 155.707886  L 142.759872 154.856696  L 147.520758 149.01825  L 152.281645 145.577552  L 157.042531 143.906624  L 161.803418 146.321525  L 166.564304 147.594398  L 171.32519 141.906163  L 176.086077 143.040929  L 180.846963 141.789734  L 185.60785 140.349425  L 190.368736 139.066607  L 195.129622 136.604665  L 199.890509 138.952056  L 204.651395 141.759574  L 209.412282 140.958389  L 214.173168 142.567489  L 218.934054 143.003182  L 223.694941 141.310459  L 228.455827 140.92355  L 233.216714 139.808999  L 237.9776 137.577125  L 242.738486 137.994166  L 247.499373 141.80387  L 252.260259 143.285213  L 257.021146 145.372008  L 261.782032 144.775012  L 266.542918 145.460346  L 271.303805 146.09162  L 276.064691 147.287103  L 280.825578 146.380471  L 285.586464 142.7232  L 290.34735 138.677919  L 295.108237 138.529496  L 299.869123 141.058379  L 304.63001 145.171476  L 309.390896 148.48291  L 314.151782 150.57768  L 318.912669 151.149511  L 323.673555 150.777597  L 328.434442 149.69559  L 333.195328 150.987621  L 337.956214 152.070531  L 342.717101 150.96084  "
           clip-path="url(#p2200a80c96)"
           style="fill: none; stroke: #8dd3c7; stroke-width: 1.5; stroke-linecap: square"
           id="path3833" />
      </g>
      <g
         id="line2d_16">
        <path
           d="M 57.063917 207.028244  L 61.824803 154.663214  L 66.58569 155.358671  L 71.346576 155.534602  L 76.107463 125.706451  L 80.868349 100.115065  L 85.629235 72.891325  L 90.390122 58.480545  L 95.151008 56.156018  L 99.911894 43.979599  L 104.672781 51.189387  L 109.433667 49.444361  L 114.194554 67.115586  L 118.95544 55.960734  L 123.716326 37.310379  L 128.477213 35.05822  L 133.238099 27.593974  L 137.998986 25.105224  L 142.759872 20.897989  L 147.520758 14.463022  L 152.281645 17.052827  L 157.042531 15.030495  L 161.803418 18.316481  L 166.564304 23.400683  L 171.32519 18.128145  L 176.086077 22.413171  L 180.846963 28.509487  L 185.60785 28.180238  L 190.368736 28.803606  L 195.129622 26.825896  L 199.890509 33.913836  L 204.651395 41.858827  L 209.412282 44.053945  L 214.173168 48.232428  L 218.934054 52.138451  L 223.694941 51.480173  L 228.455827 52.254712  L 233.216714 50.739036  L 237.9776 49.42688  L 242.738486 54.100772  L 247.499373 63.076092  L 252.260259 69.704934  L 257.021146 73.77962  L 261.782032 76.127245  L 266.542918 77.383604  L 271.303805 80.010591  L 276.064691 84.827233  L 280.825578 84.665926  L 285.586464 83.17255  L 290.34735 77.894529  L 295.108237 79.143605  L 299.869123 82.999061  L 304.63001 90.709962  L 309.390896 99.777645  L 314.151782 102.717127  L 318.912669 104.842956  L 323.673555 107.073022  L 328.434442 104.022558  L 333.195328 107.459591  L 337.956214 112.543723  L 342.717101 108.780719  "
           clip-path="url(#p2200a80c96)"
           style="fill: none; stroke: #feffb3; stroke-width: 1.5; stroke-linecap: square"
           id="path3836" />
      </g>
      <g
         id="line2d_17" />
      <g
         id="line2d_18" />
      <g
         id="patch_3">
        <path
           d="M 42.781258 255.181443  L 42.781258 3.00024  "
           style="fill: none; stroke: #ffffff; stroke-width: 0.8; stroke-linejoin: miter; stroke-linecap: square"
           id="path3841" />
      </g>
      <g
         id="patch_4">
        <path
           d="M 356.99976 255.181443  L 356.99976 3.00024  "
           style="fill: none; stroke: #ffffff; stroke-width: 0.8; stroke-linejoin: miter; stroke-linecap: square"
           id="path3844" />
      </g>
      <g
         id="patch_5">
        <path
           d="M 42.781258 255.181443  L 356.99976 255.181443  "
           style="fill: none; stroke: #ffffff; stroke-width: 0.8; stroke-linejoin: miter; stroke-linecap: square"
           id="path3847" />
      </g>
      <g
         id="patch_6">
        <path
           d="M 42.781258 3.00024  L 356.99976 3.00024  "
           style="fill: none; stroke: #ffffff; stroke-width: 0.8; stroke-linejoin: miter; stroke-linecap: square"
           id="path3850" />
      </g>
      <g
         id="text_17">
        <!-- extinction -->
        <g
           style="fill: #fa8174"
           transform="translate(168.167239 90.418002) scale(0.16 -0.16)"
           id="g3878">
          <defs
             id="defs3856">
            <path
               id="CMSS17-69"
               d="M 979 4183  L 442 4183  L 442 3648  L 979 3648  L 979 4183  z M 947 2739  L 474 2739  L 474 0  L 947 0  L 947 2739  z "
               transform="scale(0.015625)" />
            <path
               id="CMSS17-63"
               d="M 2464 2541  C 2464 2585 2170 2714 2093 2739  C 1882 2816 1613 2816 1542 2816  C 710 2816 211 2093 211 1363  C 211 595 768 -64 1517 -64  C 1946 -64 2253 76 2502 242  L 2464 664  C 2189 453 1869 337 1523 337  C 1024 337 698 774 698 1369  C 698 1831 909 2414 1549 2414  C 1901 2414 2099 2343 2394 2145  L 2464 2541  z "
               transform="scale(0.015625)" />
            <path
               id="CMSS17-6f"
               d="M 2829 1356  C 2829 2176 2221 2816 1504 2816  C 768 2816 173 2157 173 1356  C 173 544 787 -64 1498 -64  C 2227 -64 2829 563 2829 1356  z M 1504 337  C 1050 337 659 709 659 1408  C 659 2151 1114 2427 1498 2427  C 1914 2427 2342 2126 2342 1408  C 2342 683 1926 337 1504 337  z "
               transform="scale(0.015625)" />
          </defs>
          <use
             xlink:href="#CMSS17-65"
             transform="scale(0.996264)"
             id="use3858" />
          <use
             xlink:href="#CMSS17-78"
             transform="translate(41.638822 0) scale(0.996264)"
             id="use3860" />
          <use
             xlink:href="#CMSS17-74"
             transform="translate(84.638964 0) scale(0.996264)"
             id="use3862" />
          <use
             xlink:href="#CMSS17-69"
             transform="translate(118.47053 0) scale(0.996264)"
             id="use3864" />
          <use
             xlink:href="#CMSS17-6e"
             transform="translate(140.651253 0) scale(0.996264)"
             id="use3866" />
          <use
             xlink:href="#CMSS17-63"
             transform="translate(188.856197 0) scale(0.996264)"
             id="use3868" />
          <use
             xlink:href="#CMSS17-74"
             transform="translate(230.495019 0) scale(0.996264)"
             id="use3870" />
          <use
             xlink:href="#CMSS17-69"
             transform="translate(264.326585 0) scale(0.996264)"
             id="use3872" />
          <use
             xlink:href="#CMSS17-6f"
             transform="translate(286.507308 0) scale(0.996264)"
             id="use3874" />
          <use
             xlink:href="#CMSS17-6e"
             transform="translate(333.350932 0) scale(0.996264)"
             id="use3876" />
        </g>
      </g>
      <g
         id="legend_1">
        <g
           id="patch_7">
          <path
             d="M 244.594397 38.874597  L 349.99976 38.874597  Q 351.99976 38.874597 351.99976 36.874597  L 351.99976 10.00024  Q 351.99976 8.00024 349.99976 8.00024  L 244.594397 8.00024  Q 242.594397 8.00024 242.594397 10.00024  L 242.594397 36.874597  Q 242.594397 38.874597 244.594397 38.874597  z "
             style="opacity: 0.8; stroke: #cccccc; stroke-linejoin: miter"
             id="path3881" />
        </g>
        <g
           id="patch_8">
          <path
             d="M 246.594397 19.00024  L 266.594397 19.00024  L 266.594397 12.00024  L 246.594397 12.00024  z "
             style="fill: #8dd3c7; fill-opacity: 0.5"
             id="path3884" />
        </g>
        <g
           id="text_18">
          <!-- observation $\pm 5\sigma$ -->
          <g
             style="fill: #ffffff"
             transform="translate(274.594397 19.00024) scale(0.1 -0.1)"
             id="g3922">
            <defs
               id="defs3892">
              <path
                 id="CMSS17-62"
                 d="M 954 4416  L 480 4416  L 480 -13  L 966 -13  L 966 274  C 1210 38 1504 -64 1766 -64  C 2381 -64 2880 549 2880 1352  C 2880 2086 2496 2756 1926 2756  C 1523 2756 1165 2591 954 2419  L 954 4416  z M 966 2046  C 1107 2222 1306 2368 1587 2368  C 1965 2368 2394 2097 2394 1352  C 2394 558 1882 325 1530 325  C 1402 325 1267 356 1139 464  C 966 615 966 709 966 797  L 966 2046  z "
                 transform="scale(0.015625)" />
              <path
                 id="CMSS17-73"
                 d="M 2061 2627  C 1683 2807 1389 2807 1197 2807  C 742 2807 198 2648 198 2003  C 198 1359 902 1218 1094 1179  C 1389 1122 1715 1058 1715 740  C 1715 337 1254 337 1171 337  C 915 337 563 407 243 638  L 166 210  C 531 0 883 -64 1178 -64  C 1965 -64 2163 416 2163 781  C 2163 1094 1984 1305 1862 1401  C 1651 1568 1574 1587 1050 1696  C 960 1709 646 1779 646 2066  C 646 2432 1050 2432 1139 2432  C 1555 2432 1811 2303 1984 2208  L 2061 2627  z "
                 transform="scale(0.015625)" />
              <path
                 id="CMSS17-72"
                 d="M 954 1363  C 954 1965 1395 2368 1958 2368  L 1958 2789  C 1549 2789 1165 2585 934 2253  L 934 2758  L 480 2758  L 480 0  L 954 0  L 954 1363  z "
                 transform="scale(0.015625)" />
              <path
                 id="CMSY10-6"
                 d="M 2618 1984  L 4397 1984  C 4506 1984 4621 1984 4621 2112  C 4621 2240 4506 2240 4397 2240  L 2618 2240  L 2618 4018  C 2618 4121 2618 4256 2490 4256  C 2362 4256 2362 4140 2362 4038  L 2362 2240  L 576 2240  C 467 2240 352 2240 352 2112  C 352 1984 467 1984 576 1984  L 2362 1984  L 2362 256  L 576 256  C 467 256 352 256 352 128  C 352 0 467 0 576 0  L 4397 0  C 4506 0 4621 0 4621 128  C 4621 256 4506 256 4397 256  L 2618 256  L 2618 1984  z "
                 transform="scale(0.015625)" />
              <path
                 id="CMMI12-1b"
                 d="M 3251 2408  C 3334 2408 3546 2408 3546 2612  C 3546 2752 3424 2752 3309 2752  L 1894 2752  C 934 2752 243 1686 243 932  C 243 390 595 -64 1171 -64  C 1926 -64 2752 747 2752 1705  C 2752 1954 2694 2196 2541 2408  L 3251 2408  z M 1178 64  C 851 64 614 313 614 754  C 614 1137 845 2408 1786 2408  C 2061 2408 2368 2274 2368 1781  C 2368 1558 2266 1021 2042 652  C 1811 275 1466 64 1178 64  z "
                 transform="scale(0.015625)" />
            </defs>
            <use
               xlink:href="#CMSS17-6f"
               transform="scale(0.996264)"
               id="use3894" />
            <use
               xlink:href="#CMSS17-62"
               transform="translate(46.843624 0) scale(0.996264)"
               id="use3896" />
            <use
               xlink:href="#CMSS17-73"
               transform="translate(95.048567 0) scale(0.996264)"
               id="use3898" />
            <use
               xlink:href="#CMSS17-65"
               transform="translate(130.962109 0) scale(0.996264)"
               id="use3900" />
            <use
               xlink:href="#CMSS17-72"
               transform="translate(172.600931 0) scale(0.996264)"
               id="use3902" />
            <use
               xlink:href="#CMSS17-76"
               transform="translate(204.510703 0) scale(0.996264)"
               id="use3904" />
            <use
               xlink:href="#CMSS17-61"
               transform="translate(247.510845 0) scale(0.996264)"
               id="use3906" />
            <use
               xlink:href="#CMSS17-74"
               transform="translate(292.432766 0) scale(0.996264)"
               id="use3908" />
            <use
               xlink:href="#CMSS17-69"
               transform="translate(326.264332 0) scale(0.996264)"
               id="use3910" />
            <use
               xlink:href="#CMSS17-6f"
               transform="translate(348.445055 0) scale(0.996264)"
               id="use3912" />
            <use
               xlink:href="#CMSS17-6e"
               transform="translate(395.288679 0) scale(0.996264)"
               id="use3914" />
            <use
               xlink:href="#CMSY10-6"
               transform="translate(474.722735 0) scale(0.996264)"
               id="use3916" />
            <use
               xlink:href="#CMR17-35"
               transform="translate(552.210202 0) scale(0.996264)"
               id="use3918" />
            <use
               xlink:href="#CMMI12-1b"
               transform="translate(597.900679 0) scale(0.996264)"
               id="use3920" />
          </g>
        </g>
        <g
           id="line2d_19">
          <path
             d="M 246.594397 29.437418  L 256.594397 29.437418  L 266.594397 29.437418  "
             style="fill: none; stroke: #feffb3; stroke-width: 1.5; stroke-linecap: square"
             id="path3925" />
        </g>
        <g
           id="text_19">
          <!-- zero-extinction fit -->
          <g
             style="fill: #ffffff"
             transform="translate(274.594397 32.937418) scale(0.1 -0.1)"
             id="g3967">
            <defs
               id="defs3931">
              <path
                 id="CMSS17-7a"
                 d="M 2400 2502  L 2400 2750  L 250 2750  L 250 2368  L 1069 2368  C 1146 2368 1222 2368 1299 2368  L 1747 2368  L 166 261  L 166 0  L 2419 0  L 2419 395  L 1549 395  C 1472 395 1395 395 1318 395  L 826 395  L 2400 2502  z "
                 transform="scale(0.015625)" />
              <path
                 id="CMSS17-2d"
                 d="M 1664 1216  L 1664 1585  L 64 1585  L 64 1216  L 1664 1216  z "
                 transform="scale(0.015625)" />
              <path
                 id="CMSS17-c"
                 d="M 2752 4416  L 2240 4416  L 2240 3906  L 2752 3906  L 2752 4416  z M 2733 2737  L 2259 2737  L 2259 0  L 2733 0  L 2733 2737  z M 1075 2368  L 1773 2368  L 1773 2737  L 1062 2737  L 1062 3578  C 1062 3919 1216 4092 1421 4092  C 1542 4092 1664 4056 1773 3992  L 1773 4410  C 1722 4428 1574 4480 1421 4480  C 941 4480 602 3993 602 3372  L 602 2737  L 160 2737  L 160 2368  L 602 2368  L 602 0  L 1075 0  L 1075 2368  z "
                 transform="scale(0.015625)" />
            </defs>
            <use
               xlink:href="#CMSS17-7a"
               transform="scale(0.996264)"
               id="use3933" />
            <use
               xlink:href="#CMSS17-65"
               transform="translate(40.677872 0) scale(0.996264)"
               id="use3935" />
            <use
               xlink:href="#CMSS17-72"
               transform="translate(82.316694 0) scale(0.996264)"
               id="use3937" />
            <use
               xlink:href="#CMSS17-6f"
               transform="translate(114.226466 0) scale(0.996264)"
               id="use3939" />
            <use
               xlink:href="#CMSS17-2d"
               transform="translate(161.07009 0) scale(0.996264)"
               id="use3941" />
            <use
               xlink:href="#CMSS17-65"
               transform="translate(192.299203 0) scale(0.996264)"
               id="use3943" />
            <use
               xlink:href="#CMSS17-78"
               transform="translate(233.938025 0) scale(0.996264)"
               id="use3945" />
            <use
               xlink:href="#CMSS17-74"
               transform="translate(276.938166 0) scale(0.996264)"
               id="use3947" />
            <use
               xlink:href="#CMSS17-69"
               transform="translate(310.769733 0) scale(0.996264)"
               id="use3949" />
            <use
               xlink:href="#CMSS17-6e"
               transform="translate(332.950456 0) scale(0.996264)"
               id="use3951" />
            <use
               xlink:href="#CMSS17-63"
               transform="translate(381.155399 0) scale(0.996264)"
               id="use3953" />
            <use
               xlink:href="#CMSS17-74"
               transform="translate(422.794221 0) scale(0.996264)"
               id="use3955" />
            <use
               xlink:href="#CMSS17-69"
               transform="translate(456.625788 0) scale(0.996264)"
               id="use3957" />
            <use
               xlink:href="#CMSS17-6f"
               transform="translate(478.806511 0) scale(0.996264)"
               id="use3959" />
            <use
               xlink:href="#CMSS17-6e"
               transform="translate(525.650135 0) scale(0.996264)"
               id="use3961" />
            <use
               xlink:href="#CMSS17-c"
               transform="translate(605.084191 0) scale(0.996264)"
               id="use3963" />
            <use
               xlink:href="#CMSS17-74"
               transform="translate(655.210928 0) scale(0.996264)"
               id="use3965" />
          </g>
        </g>
      </g>
    </g>
  </g>
  <defs
     id="defs3976">
    <clipPath
       id="p2200a80c96">
      <rect
         x="42.781258"
         y="3.00024"
         width="314.218502"
         height="252.181203"
         id="rect3973" />
    </clipPath>
  </defs>
</svg>
