<?xml version="1.0" encoding="UTF-8" standalone="no"?>
<svg
   width="360pt"
   height="288pt"
   viewBox="0 0 360 288"
   version="1.1"
   id="svg3130"
   sodipodi:docname="empirical_extcurve_example_flux (1).svg"
   inkscape:version="1.1.2 (0a00cf5339, 2022-02-04)"
   xmlns:inkscape="http://www.inkscape.org/namespaces/inkscape"
   xmlns:sodipodi="http://sodipodi.sourceforge.net/DTD/sodipodi-0.dtd"
   xmlns:xlink="http://www.w3.org/1999/xlink"
   xmlns="http://www.w3.org/2000/svg"
   xmlns:svg="http://www.w3.org/2000/svg"
   xmlns:rdf="http://www.w3.org/1999/02/22-rdf-syntax-ns#"
   xmlns:cc="http://creativecommons.org/ns#"
   xmlns:dc="http://purl.org/dc/elements/1.1/">
  <sodipodi:namedview
     id="namedview3132"
     pagecolor="#ffffff"
     bordercolor="#999999"
     borderopacity="1"
     inkscape:pageshadow="0"
     inkscape:pageopacity="0"
     inkscape:pagecheckerboard="0"
     inkscape:document-units="pt"
     showgrid="false"
     inkscape:zoom="1.6354167"
     inkscape:cx="292.58599"
     inkscape:cy="170.90446"
     inkscape:window-width="1440"
     inkscape:window-height="836"
     inkscape:window-x="0"
     inkscape:window-y="0"
     inkscape:window-maximized="1"
     inkscape:current-layer="svg3130" />
  <metadata
     id="metadata2489">
    <rdf:RDF>
      <cc:Work>
        <dc:type
           rdf:resource="http://purl.org/dc/dcmitype/StillImage" />
        <dc:date>2024-12-03T15:06:11.348395</dc:date>
        <dc:format>image/svg+xml</dc:format>
        <dc:creator>
          <cc:Agent>
            <dc:title>Matplotlib v3.8.4, https://matplotlib.org/</dc:title>
          </cc:Agent>
        </dc:creator>
      </cc:Work>
    </rdf:RDF>
  </metadata>
  <defs
     id="defs2493">
    <style
       type="text/css"
       id="style2491">*{stroke-linejoin: round; stroke-linecap: butt}</style>
  </defs>
  <g
     id="patch_1">
    <path
       d="M 0,288 H 360 V 0 H 0 Z"
       id="path2495" />
  </g>
  <g
     id="patch_2">
    <path
       d="M 42.781258,255.18144 H 356.99976 V 3.00024 H 42.781258 Z"
       id="path2498" />
  </g>
  <g
     id="PolyCollection_1">
    <path
       d="m 57.063917,219.18071 v 24.53795 l 4.760886,-17.97608 4.760887,2.83145 4.760886,-1.77525 4.760887,-8.7184 4.760886,-7.71528 4.760886,-9.0461 4.760887,-8.13774 4.760886,-1.72527 4.760886,-5.32283 4.760886,0.80631 4.76089,-4.23457 4.76088,6.95505 4.76089,-9.70859 4.76089,-6.99369 4.76088,-0.42057 4.76089,-8.67961 4.76089,-3.44839 4.76088,-0.625 4.76089,-6.25464 4.76088,-3.32659 4.76089,-1.8854 4.76089,2.44566 4.76088,0.94612 4.76089,-5.6071 4.76089,1.03601 4.76088,-1.1686 4.76089,-1.53217 4.76089,-1.28594 4.76088,-2.43982 4.76089,2.29339 4.76088,2.68428 4.76089,-0.84881 4.76089,1.58431 4.76088,0.48365 4.76089,-1.63094 4.76089,-0.41414 4.76088,-1.13131 4.76089,-2.19111 4.76089,0.39011 4.76088,3.68015 4.76089,1.42551 4.76089,2.01234 4.76088,-0.57393 4.76089,0.67123 4.76088,0.63911 4.76089,1.19624 4.76089,-0.83229 4.76088,-3.49634 4.76089,-3.89073 4.76089,-0.12715 4.76088,2.4925 4.76089,4.08514 4.76089,3.32573 4.76088,2.04055 4.76089,0.63027 4.76089,-0.12266 4.76088,-0.98103 4.76089,1.27854 4.76088,1.55816 4.76089,-0.96828 v -10.02656 0 l -4.76089,1.2511 -4.76088,-0.60766 -4.76089,-1.30552 -4.76088,1.18299 -4.76089,0.62116 -4.76089,-0.51339 -4.76088,-2.14899 -4.76089,-3.29714 -4.76089,-4.14105 -4.76088,-2.56526 -4.76089,0.16969 -4.76089,4.19983 -4.76088,3.8182 -4.76089,0.98097 -4.76089,-1.19472 -4.76088,-0.62344 -4.76089,-0.69944 -4.76088,0.62006 -4.76089,-2.16124 -4.76089,-1.53718 -4.76088,-3.93926 -4.76089,-0.44397 -4.76089,2.27264 -4.76088,1.09779 -4.76089,0.35968 -4.76089,1.7545 -4.76088,-0.38774 -4.76089,-1.63388 -4.76089,0.75356 -4.76088,-2.93076 -4.76089,-2.40139 -4.76088,2.48406 -4.76089,1.2797 -4.76089,1.34844 -4.76088,1.33379 -4.76089,-1.23352 -4.76089,5.76938 -4.76088,-1.59963 -4.76089,-2.38414 -4.76089,1.45646 -4.76088,3.5548 -4.76089,5.42225 -4.76088,1.07738 -4.76089,2.81308 -4.76089,8.77888 -4.76088,0.69629 -4.76089,6.97096 -4.76089,8.9706 -4.76088,-7.87441 -4.76089,4.02037 -4.760886,-1.03458 -4.760886,4.90408 -4.760886,0.37807 -4.760887,5.85641 -4.760886,6.9269 -4.760886,9.67015 -4.760887,11.42884 -4.760886,-2.778 -4.760887,-1.50713 z"
       clip-path="url(#p4f2db2c097)"
       style="fill:#8dd3c7;fill-opacity:0.5"
       id="path2501" />
  </g>
  <g
     id="matplotlib.axis_1">
    <g
       id="xtick_1">
      <g
         id="line2d_1">
        <defs
           id="defs2508">
          <path
             id="mc7f098a508"
             d="M 0,0 V 3.5"
             style="stroke:#ffffff;stroke-width:0.8" />
        </defs>
        <g
           id="g2512">
          <use
             xlink:href="#mc7f098a508"
             x="60.872627"
             y="255.18144"
             style="fill:#ffffff;stroke:#ffffff;stroke-width:0.8"
             id="use2510"
             width="100%"
             height="100%" />
        </g>
      </g>
      <g
         id="text_1">
        <!-- $\mathdefault{400}$ -->
        <g
           style="fill:#ffffff"
           transform="matrix(0.1,0,0,-0.1,53.400623,269.09994)"
           id="g2525">
          <defs
             id="defs2517">
            <path
               id="CMR17-34"
               d="m 2150,4122 c 0,134 -6,134 -121,134 L 128,1254 V 1088 H 1779 V 457 c 0,-233 -13,-297 -461,-297 H 1197 V 0 c 205,0 550,0 768,0 217,0 563,0 768,0 v 160 h -122 c -448,0 -461,64 -461,297 v 631 h 653 v 166 H 2150 Z M 1798,3703 V 1254 H 256 Z"
               transform="scale(0.015625)" />
            <path
               id="CMR17-30"
               d="m 2688,2025 c 0,391 -6,1055 -275,1566 -237,448 -615,607 -947,607 -308,0 -698,-140 -941,-601 C 269,3118 243,2524 243,2025 c 0,-364 7,-919 205,-1406 275,-658 768,-747 1018,-747 294,0 742,121 1004,728 192,442 218,959 218,1425 z M 1466,-26 c -410,0 -653,351 -743,838 -70,376 -70,926 -70,1284 0,492 0,901 83,1291 122,542 480,709 730,709 262,0 601,-173 723,-696 83,-364 89,-793 89,-1304 0,-416 0,-927 -76,-1304 C 2067,95 1690,-26 1466,-26 Z"
               transform="scale(0.015625)" />
          </defs>
          <use
             xlink:href="#CMR17-34"
             transform="scale(0.996264)"
             id="use2519"
             x="0"
             y="0"
             width="100%"
             height="100%" />
          <use
             xlink:href="#CMR17-30"
             transform="matrix(0.996264,0,0,0.996264,45.690477,0)"
             id="use2521"
             x="0"
             y="0"
             width="100%"
             height="100%" />
          <use
             xlink:href="#CMR17-30"
             transform="matrix(0.996264,0,0,0.996264,91.380954,0)"
             id="use2523"
             x="0"
             y="0"
             width="100%"
             height="100%" />
        </g>
      </g>
    </g>
    <g
       id="xtick_2">
      <g
         id="line2d_2">
        <g
           id="g2531">
          <use
             xlink:href="#mc7f098a508"
             x="108.48149"
             y="255.18144"
             style="fill:#ffffff;stroke:#ffffff;stroke-width:0.8"
             id="use2529"
             width="100%"
             height="100%" />
        </g>
      </g>
      <g
         id="text_2">
        <!-- $\mathdefault{500}$ -->
        <g
           style="fill:#ffffff"
           transform="matrix(0.1,0,0,-0.1,101.00949,269.09994)"
           id="g2543">
          <defs
             id="defs2535">
            <path
               id="CMR17-35"
               d="m 730,3692 c 64,-26 326,-108 595,-108 595,0 921,327 1107,516 0,57 0,92 -38,92 -7,0 -20,0 -71,-29 -224,-105 -486,-190 -806,-190 -192,0 -480,26 -794,166 -70,32 -83,32 -89,32 -32,0 -39,-7 -39,-134 V 2203 c 0,-114 0,-146 64,-146 32,0 45,13 77,57 205,287 486,408 806,408 224,0 704,-140 704,-1233 0,-204 0,-574 -192,-868 C 1894,159 1645,25 1370,25 947,25 518,320 403,814 c 26,-7 77,-19 103,-19 83,0 243,45 243,243 0,172 -122,242 -243,242 -148,0 -244,-90 -244,-269 0,-557 442,-1139 1120,-1139 660,0 1287,568 1287,1392 0,766 -499,1360 -1120,1360 -327,0 -602,-121 -819,-350 z"
               transform="scale(0.015625)" />
          </defs>
          <use
             xlink:href="#CMR17-35"
             transform="scale(0.996264)"
             id="use2537"
             x="0"
             y="0"
             width="100%"
             height="100%" />
          <use
             xlink:href="#CMR17-30"
             transform="matrix(0.996264,0,0,0.996264,45.690477,0)"
             id="use2539"
             x="0"
             y="0"
             width="100%"
             height="100%" />
          <use
             xlink:href="#CMR17-30"
             transform="matrix(0.996264,0,0,0.996264,91.380954,0)"
             id="use2541"
             x="0"
             y="0"
             width="100%"
             height="100%" />
        </g>
      </g>
    </g>
    <g
       id="xtick_3">
      <g
         id="line2d_3">
        <g
           id="g2549">
          <use
             xlink:href="#mc7f098a508"
             x="156.09035"
             y="255.18144"
             style="fill:#ffffff;stroke:#ffffff;stroke-width:0.8"
             id="use2547"
             width="100%"
             height="100%" />
        </g>
      </g>
      <g
         id="text_3">
        <!-- $\mathdefault{600}$ -->
        <g
           style="fill:#ffffff"
           transform="matrix(0.1,0,0,-0.1,148.61835,269.09994)"
           id="g2561">
          <defs
             id="defs2553">
            <path
               id="CMR17-36"
               d="m 678,2176 c 0,1514 717,1856 1133,1856 135,0 461,-23 589,-256 -102,0 -294,0 -294,-223 0,-172 140,-230 230,-230 58,0 230,25 230,237 0,394 -320,619 -761,619 -762,0 -1562,-789 -1562,-2195 0,-1731 723,-2112 1235,-2112 621,0 1210,555 1210,1411 0,798 -518,1379 -1171,1379 -391,0 -679,-255 -839,-702 z M 1478,25 c -787,0 -787,1175 -787,1411 0,460 218,1124 813,1124 109,0 422,0 634,-440 115,-250 115,-511 115,-831 0,-345 0,-599 -135,-855 C 1978,171 1773,25 1478,25 Z"
               transform="scale(0.015625)" />
          </defs>
          <use
             xlink:href="#CMR17-36"
             transform="scale(0.996264)"
             id="use2555"
             x="0"
             y="0"
             width="100%"
             height="100%" />
          <use
             xlink:href="#CMR17-30"
             transform="matrix(0.996264,0,0,0.996264,45.690477,0)"
             id="use2557"
             x="0"
             y="0"
             width="100%"
             height="100%" />
          <use
             xlink:href="#CMR17-30"
             transform="matrix(0.996264,0,0,0.996264,91.380954,0)"
             id="use2559"
             x="0"
             y="0"
             width="100%"
             height="100%" />
        </g>
      </g>
    </g>
    <g
       id="xtick_4">
      <g
         id="line2d_4">
        <g
           id="g2567">
          <use
             xlink:href="#mc7f098a508"
             x="203.69922"
             y="255.18144"
             style="fill:#ffffff;stroke:#ffffff;stroke-width:0.8"
             id="use2565"
             width="100%"
             height="100%" />
        </g>
      </g>
      <g
         id="text_4">
        <!-- $\mathdefault{700}$ -->
        <g
           style="fill:#ffffff"
           transform="matrix(0.1,0,0,-0.1,196.22721,269.09994)"
           id="g2579">
          <defs
             id="defs2571">
            <path
               id="CMR17-37"
               d="m 2886,3941 v 140 H 1382 c -748,0 -761,84 -787,207 H 480 L 294,3094 h 116 c 19,121 64,446 140,567 39,51 512,51 621,51 H 2579 L 1869,2661 C 1395,1954 1069,999 1069,165 c 0,-76 0,-293 230,-293 231,0 231,217 231,299 v 294 c 0,1043 179,1731 473,2171 z"
               transform="scale(0.015625)" />
          </defs>
          <use
             xlink:href="#CMR17-37"
             transform="scale(0.996264)"
             id="use2573"
             x="0"
             y="0"
             width="100%"
             height="100%" />
          <use
             xlink:href="#CMR17-30"
             transform="matrix(0.996264,0,0,0.996264,45.690477,0)"
             id="use2575"
             x="0"
             y="0"
             width="100%"
             height="100%" />
          <use
             xlink:href="#CMR17-30"
             transform="matrix(0.996264,0,0,0.996264,91.380954,0)"
             id="use2577"
             x="0"
             y="0"
             width="100%"
             height="100%" />
        </g>
      </g>
    </g>
    <g
       id="xtick_5">
      <g
         id="line2d_5">
        <g
           id="g2585">
          <use
             xlink:href="#mc7f098a508"
             x="251.30807"
             y="255.18144"
             style="fill:#ffffff;stroke:#ffffff;stroke-width:0.8"
             id="use2583"
             width="100%"
             height="100%" />
        </g>
      </g>
      <g
         id="text_5">
        <!-- $\mathdefault{800}$ -->
        <g
           style="fill:#ffffff"
           transform="matrix(0.1,0,0,-0.1,243.83608,269.09994)"
           id="g2597">
          <defs
             id="defs2589">
            <path
               id="CMR17-38"
               d="m 1741,2264 c 403,203 813,509 813,999 0,578 -564,916 -1082,916 -582,0 -1094,-420 -1094,-999 0,-159 38,-433 288,-675 64,-63 332,-254 505,-375 C 883,1983 211,1634 211,934 211,279 838,-128 1459,-128 c 685,0 1261,490 1261,1138 0,580 -390,847 -646,1019 z m -839,558 c -51,32 -307,229 -307,529 0,388 403,681 864,681 506,0 877,-356 877,-770 0,-593 -666,-931 -698,-931 -6,0 -12,0 -64,39 z M 2080,1519 c 96,-70 403,-279 403,-668 C 2483,381 2010,25 1472,25 890,25 448,438 448,940 c 0,503 390,922 832,1120 z"
               transform="scale(0.015625)" />
          </defs>
          <use
             xlink:href="#CMR17-38"
             transform="scale(0.996264)"
             id="use2591"
             x="0"
             y="0"
             width="100%"
             height="100%" />
          <use
             xlink:href="#CMR17-30"
             transform="matrix(0.996264,0,0,0.996264,45.690477,0)"
             id="use2593"
             x="0"
             y="0"
             width="100%"
             height="100%" />
          <use
             xlink:href="#CMR17-30"
             transform="matrix(0.996264,0,0,0.996264,91.380954,0)"
             id="use2595"
             x="0"
             y="0"
             width="100%"
             height="100%" />
        </g>
      </g>
    </g>
    <g
       id="xtick_6">
      <g
         id="line2d_6">
        <g
           id="g2603">
          <use
             xlink:href="#mc7f098a508"
             x="298.91693"
             y="255.18144"
             style="fill:#ffffff;stroke:#ffffff;stroke-width:0.8"
             id="use2601"
             width="100%"
             height="100%" />
        </g>
      </g>
      <g
         id="text_6">
        <!-- $\mathdefault{900}$ -->
        <g
           style="fill:#ffffff"
           transform="matrix(0.1,0,0,-0.1,291.44494,269.09994)"
           id="g2615">
          <defs
             id="defs2607">
            <path
               id="CMR17-39"
               d="M 2253,1864 C 2253,464 1670,31 1190,31 c -147,0 -505,0 -652,263 166,-26 288,63 288,224 0,174 -141,231 -231,231 -57,0 -230,-26 -230,-243 0,-435 377,-634 838,-634 736,0 1485,802 1485,2201 0,1744 -717,2106 -1203,2106 -634,0 -1242,-551 -1242,-1401 0,-787 519,-1370 1171,-1370 538,0 775,495 839,704 z m -826,-354 c -173,0 -416,32 -614,412 -135,247 -135,539 -135,849 0,375 0,634 180,913 89,133 256,348 627,348 755,0 755,-1147 755,-1400 0,-450 -205,-1122 -813,-1122 z"
               transform="scale(0.015625)" />
          </defs>
          <use
             xlink:href="#CMR17-39"
             transform="scale(0.996264)"
             id="use2609"
             x="0"
             y="0"
             width="100%"
             height="100%" />
          <use
             xlink:href="#CMR17-30"
             transform="matrix(0.996264,0,0,0.996264,45.690477,0)"
             id="use2611"
             x="0"
             y="0"
             width="100%"
             height="100%" />
          <use
             xlink:href="#CMR17-30"
             transform="matrix(0.996264,0,0,0.996264,91.380954,0)"
             id="use2613"
             x="0"
             y="0"
             width="100%"
             height="100%" />
        </g>
      </g>
    </g>
    <g
       id="xtick_7">
      <g
         id="line2d_7">
        <g
           id="g2621">
          <use
             xlink:href="#mc7f098a508"
             x="346.52582"
             y="255.18144"
             style="fill:#ffffff;stroke:#ffffff;stroke-width:0.8"
             id="use2619"
             width="100%"
             height="100%" />
        </g>
      </g>
      <g
         id="text_7">
        <!-- $\mathdefault{1000}$ -->
        <g
           style="fill:#ffffff"
           transform="matrix(0.1,0,0,-0.1,336.56314,269.09994)"
           id="g2635">
          <defs
             id="defs2625">
            <path
               id="CMR17-31"
               d="m 1702,4058 c 0,134 -6,134 -96,134 -249,-276 -627,-365 -985,-365 -19,0 -51,0 -58,-19 -6,-13 -6,-26 -6,-160 198,0 531,38 787,191 V 461 C 1344,236 1331,160 781,160 H 589 V 0 c 307,0 627,0 934,0 307,0 627,0 935,0 v 160 h -192 c -551,0 -564,70 -564,298 z"
               transform="scale(0.015625)" />
          </defs>
          <use
             xlink:href="#CMR17-31"
             transform="scale(0.996264)"
             id="use2627"
             x="0"
             y="0"
             width="100%"
             height="100%" />
          <use
             xlink:href="#CMR17-30"
             transform="matrix(0.996264,0,0,0.996264,45.690477,0)"
             id="use2629"
             x="0"
             y="0"
             width="100%"
             height="100%" />
          <use
             xlink:href="#CMR17-30"
             transform="matrix(0.996264,0,0,0.996264,91.380954,0)"
             id="use2631"
             x="0"
             y="0"
             width="100%"
             height="100%" />
          <use
             xlink:href="#CMR17-30"
             transform="matrix(0.996264,0,0,0.996264,137.07143,0)"
             id="use2633"
             x="0"
             y="0"
             width="100%"
             height="100%" />
        </g>
      </g>
    </g>
    <g
       id="text_8">
      <!-- wavelength (nm) -->
      <g
         style="fill:#ffffff"
         transform="matrix(0.1,0,0,-0.1,164.81366,282.5091)"
         id="g2681">
        <defs
           id="defs2651">
          <path
             id="CMSS17-77"
             d="M 4013,2752 H 3526 L 3187,1601 C 3117,1358 2918,685 2893,371 h -7 c -12,193 -121,653 -300,1262 L 2259,2752 H 1818 L 1498,1658 C 1338,1101 1216,627 1203,371 h -6 C 1171,749 909,1633 870,1773 L 582,2752 H 83 L 915,0 h 487 c 332,1096 588,1943 608,2370 12,-210 121,-663 185,-886 L 2618,0 h 563 z"
             transform="scale(0.015625)" />
          <path
             id="CMSS17-61"
             d="m 2406,1791 c 0,601 -428,1017 -1004,1017 -282,0 -589,-51 -941,-255 l 38,-418 c 160,113 435,297 896,297 327,0 525,-252 525,-650 V 1536 C 896,1536 256,1238 256,726 256,461 416,-64 947,-64 c 96,0 615,0 986,281 V -19 h 473 z M 1920,816 c 0,-115 0,-268 -192,-382 -166,-109 -378,-109 -467,-109 -320,0 -538,186 -538,419 0,467 999,467 1197,467 z"
             transform="scale(0.015625)" />
          <path
             id="CMSS17-76"
             d="M 2675,2752 H 2176 L 1747,1556 C 1613,1165 1421,627 1389,352 h -7 c -12,116 -64,282 -96,397 -38,141 -89,307 -128,423 L 595,2752 H 83 L 1094,0 h 570 z"
             transform="scale(0.015625)" />
          <path
             id="CMSS17-65"
             d="m 2502,1377 c 0,213 -12,626 -217,968 -224,368 -589,471 -864,471 C 755,2816 192,2188 192,1375 192,582 774,-64 1510,-64 c 288,0 640,83 960,312 0,26 -12,166 -19,172 0,13 -19,210 -19,236 C 2125,407 1773,325 1517,325 1107,325 666,667 646,1377 Z M 698,1728 c 83,356 364,693 723,693 96,0 544,0 659,-693 z"
             transform="scale(0.015625)" />
          <path
             id="CMSS17-6c"
             d="M 947,4416 H 474 V 0 h 473 z"
             transform="scale(0.015625)" />
          <path
             id="CMSS17-6e"
             d="m 2618,1877 c 0,406 -96,939 -820,939 -409,0 -678,-210 -857,-427 v 369 H 474 V 0 h 486 v 1559 c 0,405 154,869 589,869 563,0 582,-380 582,-599 V 0 h 487 z"
             transform="scale(0.015625)" />
          <path
             id="CMSS17-67"
             d="m 2848,2808 c -365,0 -678,-70 -934,-191 -212,160 -429,191 -576,191 -557,0 -980,-459 -980,-994 0,-346 192,-607 205,-619 C 448,1035 384,863 384,672 384,448 474,289 544,200 211,-3 166,-314 166,-435 c 0,-463 583,-845 1332,-845 755,0 1337,382 1337,852 0,876 -979,876 -1248,876 h -518 c -96,0 -352,0 -352,343 0,130 57,213 64,219 96,-70 294,-178 557,-178 531,0 972,446 972,995 0,305 -140,528 -198,605 h 19 c 19,0 288,0 384,0 205,0 224,-3 403,-13 z M 1338,1182 c -218,0 -525,133 -525,641 0,552 352,641 518,641 218,0 525,-133 525,-641 0,-552 -352,-641 -518,-641 z M 1581,-10 c 153,0 800,0 800,-432 0,-272 -397,-487 -877,-487 -486,0 -883,209 -883,494 0,32 0,425 441,425 z"
             transform="scale(0.015625)" />
          <path
             id="CMSS17-74"
             d="m 1069,2368 h 832 v 369 h -832 v 783 H 614 V 2737 H 109 V 2368 H 602 V 749 c 0,-365 83,-813 505,-813 320,0 615,89 896,236 L 1901,548 C 1747,414 1562,337 1363,337 c -281,0 -294,359 -294,519 z"
             transform="scale(0.015625)" />
          <path
             id="CMSS17-68"
             d="m 2618,1891 c 0,401 -96,929 -820,929 -403,0 -665,-197 -851,-413 V 4448 H 474 V 32 h 486 v 1541 c 0,400 154,859 589,859 563,0 582,-376 582,-593 V 32 h 487 z"
             transform="scale(0.015625)" />
          <path
             id="CMSS17-28"
             d="M 1613,4768 C 1267,4417 474,3601 474,1588 c 0,-2021 793,-2831 1139,-3188 h 390 C 1216,-784 960,357 960,1581 c 0,1217 243,2365 1043,3187 z"
             transform="scale(0.015625)" />
          <path
             id="CMSS17-6d"
             d="m 4288,1877 c 0,431 -109,939 -826,939 -480,0 -768,-300 -896,-485 -115,339 -384,485 -768,485 -435,0 -710,-248 -857,-427 v 369 H 474 V 0 h 486 v 1559 c 0,380 141,869 595,869 583,0 583,-412 583,-599 V 0 h 486 v 1559 c 0,380 141,869 595,869 583,0 583,-412 583,-599 V 0 h 486 z"
             transform="scale(0.015625)" />
          <path
             id="CMSS17-29"
             d="m 723,-1600 c 346,351 1139,1167 1139,3181 0,2020 -793,2830 -1139,3187 H 333 C 1120,3952 1376,2811 1376,1588 1376,370 1133,-778 333,-1600 Z"
             transform="scale(0.015625)" />
        </defs>
        <use
           xlink:href="#CMSS17-77"
           transform="scale(0.996264)"
           id="use2653"
           x="0"
           y="0"
           width="100%"
           height="100%" />
        <use
           xlink:href="#CMSS17-61"
           transform="matrix(0.996264,0,0,0.996264,61.217091,0)"
           id="use2655"
           x="0"
           y="0"
           width="100%"
           height="100%" />
        <use
           xlink:href="#CMSS17-76"
           transform="matrix(0.996264,0,0,0.996264,106.13901,0)"
           id="use2657"
           x="0"
           y="0"
           width="100%"
           height="100%" />
        <use
           xlink:href="#CMSS17-65"
           transform="matrix(0.996264,0,0,0.996264,149.13915,0)"
           id="use2659"
           x="0"
           y="0"
           width="100%"
           height="100%" />
        <use
           xlink:href="#CMSS17-6c"
           transform="matrix(0.996264,0,0,0.996264,190.77798,0)"
           id="use2661"
           x="0"
           y="0"
           width="100%"
           height="100%" />
        <use
           xlink:href="#CMSS17-65"
           transform="matrix(0.996264,0,0,0.996264,212.9587,0)"
           id="use2663"
           x="0"
           y="0"
           width="100%"
           height="100%" />
        <use
           xlink:href="#CMSS17-6e"
           transform="matrix(0.996264,0,0,0.996264,254.59752,0)"
           id="use2665"
           x="0"
           y="0"
           width="100%"
           height="100%" />
        <use
           xlink:href="#CMSS17-67"
           transform="matrix(0.996264,0,0,0.996264,302.80246,0)"
           id="use2667"
           x="0"
           y="0"
           width="100%"
           height="100%" />
        <use
           xlink:href="#CMSS17-74"
           transform="matrix(0.996264,0,0,0.996264,349.64609,0)"
           id="use2669"
           x="0"
           y="0"
           width="100%"
           height="100%" />
        <use
           xlink:href="#CMSS17-68"
           transform="matrix(0.996264,0,0,0.996264,383.47765,0)"
           id="use2671"
           x="0"
           y="0"
           width="100%"
           height="100%" />
        <use
           xlink:href="#CMSS17-28"
           transform="matrix(0.996264,0,0,0.996264,462.91171,0)"
           id="use2673"
           x="0"
           y="0"
           width="100%"
           height="100%" />
        <use
           xlink:href="#CMSS17-6e"
           transform="matrix(0.996264,0,0,0.996264,499.34562,0)"
           id="use2675"
           x="0"
           y="0"
           width="100%"
           height="100%" />
        <use
           xlink:href="#CMSS17-6d"
           transform="matrix(0.996264,0,0,0.996264,547.55057,0)"
           id="use2677"
           x="0"
           y="0"
           width="100%"
           height="100%" />
        <use
           xlink:href="#CMSS17-29"
           transform="matrix(0.996264,0,0,0.996264,621.77982,0)"
           id="use2679"
           x="0"
           y="0"
           width="100%"
           height="100%" />
      </g>
    </g>
  </g>
  <g
     id="matplotlib.axis_2">
    <g
       id="ytick_1">
      <g
         id="line2d_8">
        <defs
           id="defs2686">
          <path
             id="m7441fdd883"
             d="M 0,0 H -3.5"
             style="stroke:#ffffff;stroke-width:0.8" />
        </defs>
        <g
           id="g2690">
          <use
             xlink:href="#m7441fdd883"
             x="42.781258"
             y="242.38208"
             style="fill:#ffffff;stroke:#ffffff;stroke-width:0.8"
             id="use2688"
             width="100%"
             height="100%" />
        </g>
      </g>
      <g
         id="text_9">
        <!-- $\mathdefault{0}$ -->
        <g
           style="fill:#ffffff"
           transform="matrix(0.1,0,0,-0.1,30.799922,245.84133)"
           id="g2695">
          <use
             xlink:href="#CMR17-30"
             transform="scale(0.996264)"
             id="use2693"
             x="0"
             y="0"
             width="100%"
             height="100%" />
        </g>
      </g>
    </g>
    <g
       id="ytick_2">
      <g
         id="line2d_9">
        <g
           id="g2701">
          <use
             xlink:href="#m7441fdd883"
             x="42.781258"
             y="205.38484"
             style="fill:#ffffff;stroke:#ffffff;stroke-width:0.8"
             id="use2699"
             width="100%"
             height="100%" />
        </g>
      </g>
      <g
         id="text_10">
        <!-- $\mathdefault{1000}$ -->
        <g
           style="fill:#ffffff"
           transform="matrix(0.1,0,0,-0.1,15.855917,208.84409)"
           id="g2712">
          <use
             xlink:href="#CMR17-31"
             transform="scale(0.996264)"
             id="use2704"
             x="0"
             y="0"
             width="100%"
             height="100%" />
          <use
             xlink:href="#CMR17-30"
             transform="matrix(0.996264,0,0,0.996264,45.690477,0)"
             id="use2706"
             x="0"
             y="0"
             width="100%"
             height="100%" />
          <use
             xlink:href="#CMR17-30"
             transform="matrix(0.996264,0,0,0.996264,91.380954,0)"
             id="use2708"
             x="0"
             y="0"
             width="100%"
             height="100%" />
          <use
             xlink:href="#CMR17-30"
             transform="matrix(0.996264,0,0,0.996264,137.07143,0)"
             id="use2710"
             x="0"
             y="0"
             width="100%"
             height="100%" />
        </g>
      </g>
    </g>
    <g
       id="ytick_3">
      <g
         id="line2d_10">
        <g
           id="g2718">
          <use
             xlink:href="#m7441fdd883"
             x="42.781258"
             y="168.3876"
             style="fill:#ffffff;stroke:#ffffff;stroke-width:0.8"
             id="use2716"
             width="100%"
             height="100%" />
        </g>
      </g>
      <g
         id="text_11">
        <!-- $\mathdefault{2000}$ -->
        <g
           style="fill:#ffffff"
           transform="matrix(0.1,0,0,-0.1,15.855917,171.84685)"
           id="g2732">
          <defs
             id="defs2722">
            <path
               id="CMR17-32"
               d="M 2669,989 H 2554 C 2490,536 2438,459 2413,420 2381,369 1920,369 1830,369 H 602 c 230,250 678,703 1222,1228 390,370 845,805 845,1438 0,755 -602,1189 -1274,1189 -704,0 -1133,-620 -1133,-1194 0,-250 186,-282 263,-282 64,0 256,39 256,262 0,197 -167,254 -256,254 -39,0 -77,-6 -103,-19 122,545 493,813 884,813 556,0 921,-441 921,-1023 0,-556 -326,-1035 -691,-1451 L 262,146 V 0 h 2253 z"
               transform="scale(0.015625)" />
          </defs>
          <use
             xlink:href="#CMR17-32"
             transform="scale(0.996264)"
             id="use2724"
             x="0"
             y="0"
             width="100%"
             height="100%" />
          <use
             xlink:href="#CMR17-30"
             transform="matrix(0.996264,0,0,0.996264,45.690477,0)"
             id="use2726"
             x="0"
             y="0"
             width="100%"
             height="100%" />
          <use
             xlink:href="#CMR17-30"
             transform="matrix(0.996264,0,0,0.996264,91.380954,0)"
             id="use2728"
             x="0"
             y="0"
             width="100%"
             height="100%" />
          <use
             xlink:href="#CMR17-30"
             transform="matrix(0.996264,0,0,0.996264,137.07143,0)"
             id="use2730"
             x="0"
             y="0"
             width="100%"
             height="100%" />
        </g>
      </g>
    </g>
    <g
       id="ytick_4">
      <g
         id="line2d_11">
        <g
           id="g2738">
          <use
             xlink:href="#m7441fdd883"
             x="42.781258"
             y="131.39037"
             style="fill:#ffffff;stroke:#ffffff;stroke-width:0.8"
             id="use2736"
             width="100%"
             height="100%" />
        </g>
      </g>
      <g
         id="text_12">
        <!-- $\mathdefault{3000}$ -->
        <g
           style="fill:#ffffff"
           transform="matrix(0.1,0,0,-0.1,15.855917,134.84961)"
           id="g2752">
          <defs
             id="defs2742">
            <path
               id="CMR17-33"
               d="m 1414,2157 c 570,0 820,-495 820,-1067 C 2234,320 1824,25 1453,25 1114,25 563,194 390,693 c 32,-13 64,-13 96,-13 154,0 269,102 269,268 0,185 -141,268 -269,268 -108,0 -275,-51 -275,-290 0,-591 576,-1054 1255,-1054 710,0 1254,558 1254,1213 0,622 -512,1072 -1120,1142 486,101 954,529 954,1102 0,491 -506,850 -1082,850 -582,0 -1094,-350 -1094,-850 0,-219 166,-257 249,-257 135,0 250,83 250,249 0,165 -115,248 -250,248 -25,0 -57,0 -83,-12 186,402 691,475 915,475 224,0 647,-107 647,-712 0,-177 -26,-492 -244,-770 -192,-246 -409,-246 -620,-266 -32,0 -180,-15 -205,-15 -45,-6 -71,-12 -71,-61 0,-45 7,-51 135,-51 z"
               transform="scale(0.015625)" />
          </defs>
          <use
             xlink:href="#CMR17-33"
             transform="scale(0.996264)"
             id="use2744"
             x="0"
             y="0"
             width="100%"
             height="100%" />
          <use
             xlink:href="#CMR17-30"
             transform="matrix(0.996264,0,0,0.996264,45.690477,0)"
             id="use2746"
             x="0"
             y="0"
             width="100%"
             height="100%" />
          <use
             xlink:href="#CMR17-30"
             transform="matrix(0.996264,0,0,0.996264,91.380954,0)"
             id="use2748"
             x="0"
             y="0"
             width="100%"
             height="100%" />
          <use
             xlink:href="#CMR17-30"
             transform="matrix(0.996264,0,0,0.996264,137.07143,0)"
             id="use2750"
             x="0"
             y="0"
             width="100%"
             height="100%" />
        </g>
      </g>
    </g>
    <g
       id="ytick_5">
      <g
         id="line2d_12">
        <g
           id="g2758">
          <use
             xlink:href="#m7441fdd883"
             x="42.781258"
             y="94.393127"
             style="fill:#ffffff;stroke:#ffffff;stroke-width:0.8"
             id="use2756"
             width="100%"
             height="100%" />
        </g>
      </g>
      <g
         id="text_13">
        <!-- $\mathdefault{4000}$ -->
        <g
           style="fill:#ffffff"
           transform="matrix(0.1,0,0,-0.1,15.855917,97.852376)"
           id="g2769">
          <use
             xlink:href="#CMR17-34"
             transform="scale(0.996264)"
             id="use2761"
             x="0"
             y="0"
             width="100%"
             height="100%" />
          <use
             xlink:href="#CMR17-30"
             transform="matrix(0.996264,0,0,0.996264,45.690477,0)"
             id="use2763"
             x="0"
             y="0"
             width="100%"
             height="100%" />
          <use
             xlink:href="#CMR17-30"
             transform="matrix(0.996264,0,0,0.996264,91.380954,0)"
             id="use2765"
             x="0"
             y="0"
             width="100%"
             height="100%" />
          <use
             xlink:href="#CMR17-30"
             transform="matrix(0.996264,0,0,0.996264,137.07143,0)"
             id="use2767"
             x="0"
             y="0"
             width="100%"
             height="100%" />
        </g>
      </g>
    </g>
    <g
       id="ytick_6">
      <g
         id="line2d_13">
        <g
           id="g2775">
          <use
             xlink:href="#m7441fdd883"
             x="42.781258"
             y="57.395885"
             style="fill:#ffffff;stroke:#ffffff;stroke-width:0.8"
             id="use2773"
             width="100%"
             height="100%" />
        </g>
      </g>
      <g
         id="text_14">
        <!-- $\mathdefault{5000}$ -->
        <g
           style="fill:#ffffff"
           transform="matrix(0.1,0,0,-0.1,15.855917,60.855137)"
           id="g2786">
          <use
             xlink:href="#CMR17-35"
             transform="scale(0.996264)"
             id="use2778"
             x="0"
             y="0"
             width="100%"
             height="100%" />
          <use
             xlink:href="#CMR17-30"
             transform="matrix(0.996264,0,0,0.996264,45.690477,0)"
             id="use2780"
             x="0"
             y="0"
             width="100%"
             height="100%" />
          <use
             xlink:href="#CMR17-30"
             transform="matrix(0.996264,0,0,0.996264,91.380954,0)"
             id="use2782"
             x="0"
             y="0"
             width="100%"
             height="100%" />
          <use
             xlink:href="#CMR17-30"
             transform="matrix(0.996264,0,0,0.996264,137.07143,0)"
             id="use2784"
             x="0"
             y="0"
             width="100%"
             height="100%" />
        </g>
      </g>
    </g>
    <g
       id="ytick_7">
      <g
         id="line2d_14">
        <g
           id="g2792">
          <use
             xlink:href="#m7441fdd883"
             x="42.781258"
             y="20.398647"
             style="fill:#ffffff;stroke:#ffffff;stroke-width:0.8"
             id="use2790"
             width="100%"
             height="100%" />
        </g>
      </g>
      <g
         id="text_15">
        <!-- $\mathdefault{6000}$ -->
        <g
           style="fill:#ffffff"
           transform="matrix(0.1,0,0,-0.1,15.855917,23.857897)"
           id="g2803">
          <use
             xlink:href="#CMR17-36"
             transform="scale(0.996264)"
             id="use2795"
             x="0"
             y="0"
             width="100%"
             height="100%" />
          <use
             xlink:href="#CMR17-30"
             transform="matrix(0.996264,0,0,0.996264,45.690477,0)"
             id="use2797"
             x="0"
             y="0"
             width="100%"
             height="100%" />
          <use
             xlink:href="#CMR17-30"
             transform="matrix(0.996264,0,0,0.996264,91.380954,0)"
             id="use2799"
             x="0"
             y="0"
             width="100%"
             height="100%" />
          <use
             xlink:href="#CMR17-30"
             transform="matrix(0.996264,0,0,0.996264,137.07143,0)"
             id="use2801"
             x="0"
             y="0"
             width="100%"
             height="100%" />
        </g>
      </g>
    </g>
    <g
       id="text_16">
      <!-- flux -->
      <g
         style="fill:#ffffff"
         transform="matrix(0,-0.1,-0.1,0,9.918738,136.63202)"
         id="g2818">
        <defs
           id="defs2810">
          <path
             id="CMSS17-d"
             d="m 1075,2368 h 698 v 369 h -711 v 841 c 0,341 154,514 359,514 173,0 333,-71 352,-83 v 420 c -51,13 -199,51 -352,51 -480,0 -819,-487 -819,-1108 V 2737 H 160 V 2368 H 602 V 0 h 473 z M 2733,4429 H 2259 V 0 h 474 z"
             transform="scale(0.015625)" />
          <path
             id="CMSS17-75"
             d="M 2618,2739 H 2131 V 972 C 2131,498 1786,306 1421,306 998,306 960,447 960,709 V 2739 H 474 V 678 c 0,-499 172,-742 614,-742 218,0 710,51 1056,370 V 0 h 474 z"
             transform="scale(0.015625)" />
          <path
             id="CMSS17-78"
             d="M 1587,1414 2656,2739 H 2099 L 1363,1777 602,2739 H 32 L 1139,1414 0,0 H 563 L 1363,1121 2195,0 h 563 z"
             transform="scale(0.015625)" />
        </defs>
        <use
           xlink:href="#CMSS17-d"
           transform="scale(0.996264)"
           id="use2812"
           x="0"
           y="0"
           width="100%"
           height="100%" />
        <use
           xlink:href="#CMSS17-75"
           transform="matrix(0.996264,0,0,0.996264,50.126737,0)"
           id="use2814"
           x="0"
           y="0"
           width="100%"
           height="100%" />
        <use
           xlink:href="#CMSS17-78"
           transform="matrix(0.996264,0,0,0.996264,98.33168,0)"
           id="use2816"
           x="0"
           y="0"
           width="100%"
           height="100%" />
      </g>
    </g>
  </g>
  <g
     id="line2d_15">
    <path
       d="m 57.063917,231.44969 4.760886,-13.96481 4.760887,2.16929 4.760886,0.50138 4.760887,-10.07363 4.760886,-8.69271 4.760886,-7.9865 4.760887,-6.99708 4.760886,-1.05167 4.760886,-5.11345 4.760886,0.92045 4.76089,-4.12748 4.76088,7.41473 4.76089,-9.33959 4.76089,-6.98233 4.76088,-0.55842 4.76089,-8.72925 4.76089,-3.13073 4.76088,-0.85119 4.76089,-5.83845 4.76088,-3.4407 4.76089,-1.67093 4.76089,2.4149 4.76088,1.27288 4.76089,-5.68824 4.76089,1.13477 4.76088,-1.2512 4.76089,-1.44031 4.76089,-1.28281 4.76088,-2.46195 4.76089,2.3474 4.76088,2.80751 4.76089,-0.80118 4.76089,1.6091 4.76088,0.43569 4.76089,-1.69272 4.76089,-0.38691 4.76088,-1.11455 4.76089,-2.23188 4.76089,0.41705 4.76088,3.8097 4.76089,1.48134 4.76089,2.0868 4.76088,-0.597 4.76089,0.68534 4.76088,0.63127 4.76089,1.19548 4.76089,-0.90663 4.76088,-3.65727 4.76089,-4.04528 4.76089,-0.14842 4.76088,2.52888 4.76089,4.1131 4.76089,3.31143 4.76088,2.09477 4.76089,0.57183 4.76089,-0.37191 4.76088,-1.08201 4.76089,1.29203 4.76088,1.08291 4.76089,-1.10969"
       clip-path="url(#p4f2db2c097)"
       style="fill:none;stroke:#8dd3c7;stroke-width:1.5;stroke-linecap:square"
       id="path2822" />
  </g>
  <g
     id="line2d_16">
    <path
       d="m 57.063917,207.02824 4.760886,-52.36503 4.760887,0.69546 4.760886,0.17593 4.760887,-29.82815 4.760886,-25.59138 4.760886,-27.223745 4.760887,-14.41078 4.760886,-2.324527 4.760886,-12.176419 4.760886,7.209788 4.76089,-1.745026 4.76088,17.671225 4.76089,-11.154852 4.76089,-18.650355 4.76088,-2.252159 4.76089,-7.464246 4.76089,-2.48875 4.76088,-4.207235 4.76089,-6.434967 4.76088,2.589805 4.76089,-2.022332 4.76089,3.285986 4.76088,5.084202 4.76089,-5.272538 4.76089,4.285026 4.76088,6.096316 4.76089,-0.329249 4.76089,0.623368 4.76088,-1.97771 4.76089,7.08794 4.76088,7.944991 4.76089,2.195118 4.76089,4.178483 4.76088,3.906023 4.76089,-0.658278 4.76089,0.774539 4.76088,-1.515676 4.76089,-1.312156 4.76089,4.673892 4.76088,8.97532 4.76089,6.628842 4.76089,4.074686 4.76088,2.347625 4.76089,1.256359 4.76088,2.626987 4.76089,4.816642 4.76089,-0.161307 4.76088,-1.493376 4.76089,-5.278021 4.76089,1.249076 4.76088,3.855456 4.76089,7.710901 4.76089,9.067683 4.76088,2.939485 4.76089,2.12583 4.76089,2.23006 4.76088,-3.05046 4.76089,3.43703 4.76088,5.08413 4.76089,-3.763"
       clip-path="url(#p4f2db2c097)"
       style="fill:none;stroke:#feffb3;stroke-width:1.5;stroke-linecap:square"
       id="path2825" />
  </g>
  <g
     id="line2d_17" />
  <g
     id="line2d_18" />
  <g
     id="patch_3">
    <path
       d="M 42.781258,255.18144 V 3.00024"
       style="fill:none;stroke:#ffffff;stroke-width:0.8;stroke-linecap:square;stroke-linejoin:miter"
       id="path2830" />
  </g>
  <g
     id="patch_4">
    <path
       d="M 356.99976,255.18144 V 3.00024"
       style="fill:none;stroke:#ffffff;stroke-width:0.8;stroke-linecap:square;stroke-linejoin:miter"
       id="path2833" />
  </g>
  <g
     id="patch_5">
    <path
       d="M 42.781258,255.18144 H 356.99976"
       style="fill:none;stroke:#ffffff;stroke-width:0.8;stroke-linecap:square;stroke-linejoin:miter"
       id="path2836" />
  </g>
  <g
     id="patch_6">
    <path
       d="M 42.781258,3.00024 H 356.99976"
       style="fill:none;stroke:#ffffff;stroke-width:0.8;stroke-linecap:square;stroke-linejoin:miter"
       id="path2839" />
  </g>
  <g
     id="text_17">
    <!-- $T_{\mathrm{eff}} = 4680\,\mathrm{K}$ -->
    <g
       style="fill:#feffb3"
       transform="matrix(0.1,0,0,-0.1,292.95286,203.59016)"
       id="g2867">
      <defs
         id="defs2847">
        <path
           id="CMMI12-54"
           d="m 2669,3910 c 38,154 51,211 147,237 51,13 262,13 397,13 640,0 941,-26 941,-526 0,-97 -26,-339 -64,-577 l -7,-77 c 0,-26 26,-64 64,-64 64,0 64,32 83,134 l 186,1134 c 13,59 13,72 13,91 0,70 -39,70 -167,70 H 762 c -148,0 -154,-6 -192,-121 L 179,3070 c -6,-14 -25,-84 -25,-90 0,-32 25,-64 64,-64 51,0 64,25 89,108 269,777 403,1136 1255,1136 h 428 c 154,0 218,0 218,-71 0,-20 0,-32 -32,-148 L 1318,499 C 1254,249 1242,185 563,185 403,185 358,185 358,64 358,0 429,0 461,0 621,0 787,0 947,0 h 999 c 160,0 332,0 492,0 71,0 135,0 135,121 0,64 -45,64 -211,64 -576,0 -576,58 -576,154 0,7 0,52 25,155 z"
           transform="scale(0.015625)" />
        <path
           id="CMR17-65"
           d="m 2438,1472 c 26,26 26,39 26,104 0,662 -346,1240 -1075,1240 C 710,2816 173,2169 173,1383 173,551 781,-64 1459,-64 c 717,0 999,671 999,804 0,44 -39,44 -52,44 -44,0 -51,-13 -76,-88 C 2189,265 1837,51 1504,51 1229,51 954,203 781,480 582,803 582,1176 582,1472 Z m -1849,96 c 45,937 537,1146 793,1146 436,0 730,-417 736,-1146 z"
           transform="scale(0.015625)" />
        <path
           id="CMR17-b"
           d="m 2554,2560 h 729 v 165 h -742 v 769 c 0,528 269,858 544,858 83,0 179,-25 243,-70 -51,-13 -186,-57 -186,-215 0,-166 128,-217 218,-217 90,0 218,51 218,217 0,241 -231,387 -487,387 -249,0 -454,-121 -614,-273 -147,209 -391,273 -640,273 -499,0 -1203,-286 -1203,-985 V 2725 H 122 V 2560 H 634 V 427 C 634,184 608,153 198,153 V -13 C 352,0 634,0 794,0 960,0 1242,0 1395,-13 V 153 C 986,153 960,178 960,427 V 2560 H 2227 V 427 c 0,-243 -25,-274 -435,-274 V -13 c 154,13 448,13 614,13 186,0 512,0 685,-13 v 166 c -461,0 -537,0 -537,286 z M 947,2725 v 744 c 0,578 448,883 877,883 96,0 346,-20 499,-165 -115,0 -224,-51 -224,-210 0,-165 147,-210 160,-210 -32,-115 -32,-241 -32,-286 v -756 z"
           transform="scale(0.015625)" />
        <path
           id="CMR17-3d"
           d="m 4115,2017 c 96,0 192,0 192,108 0,115 -109,115 -217,115 H 512 c -109,0 -218,0 -218,-115 0,-108 96,-108 192,-108 z M 4090,896 c 108,0 217,0 217,115 0,108 -96,108 -192,108 H 486 c -96,0 -192,0 -192,-108 0,-115 109,-115 218,-115 z"
           transform="scale(0.015625)" />
        <path
           id="CMR17-4b"
           d="m 2362,2675 1107,1107 c 230,224 473,404 832,404 v 166 c -128,0 -288,0 -416,0 -173,0 -474,0 -640,6 v -166 c 166,-12 192,-127 192,-173 0,-44 -26,-114 -51,-152 L 1261,1738 v 2162 c 0,286 70,286 512,286 v 166 c -186,0 -525,0 -723,0 -199,0 -538,0 -724,0 v -166 c 442,0 512,0 512,-287 V 446 C 838,160 768,160 326,160 V 0 c 186,0 525,0 724,0 198,0 537,0 723,0 v 160 c -442,0 -512,0 -512,287 v 1132 l 819,811 1210,-1853 c 38,-64 83,-147 83,-211 0,-166 -179,-166 -263,-166 V 0 c 205,0 500,0 711,0 153,0 416,0 563,-6 v 166 c -307,0 -403,38 -595,333 z"
           transform="scale(0.015625)" />
      </defs>
      <use
         xlink:href="#CMMI12-54"
         transform="scale(0.996264)"
         id="use2849"
         x="0"
         y="0"
         width="100%"
         height="100%" />
      <use
         xlink:href="#CMR17-65"
         transform="matrix(0.697382,0,0,0.697382,57.175044,-14.943915)"
         id="use2851"
         x="0"
         y="0"
         width="100%"
         height="100%" />
      <use
         xlink:href="#CMR17-b"
         transform="matrix(0.697382,0,0,0.697382,85.514875,-14.943915)"
         id="use2853"
         x="0"
         y="0"
         width="100%"
         height="100%" />
      <use
         xlink:href="#CMR17-3d"
         transform="matrix(0.996264,0,0,0.996264,154.46195,0)"
         id="use2855"
         x="0"
         y="0"
         width="100%"
         height="100%" />
      <use
         xlink:href="#CMR17-34"
         transform="matrix(0.996264,0,0,0.996264,253.85075,0)"
         id="use2857"
         x="0"
         y="0"
         width="100%"
         height="100%" />
      <use
         xlink:href="#CMR17-36"
         transform="matrix(0.996264,0,0,0.996264,299.54122,0)"
         id="use2859"
         x="0"
         y="0"
         width="100%"
         height="100%" />
      <use
         xlink:href="#CMR17-38"
         transform="matrix(0.996264,0,0,0.996264,345.2317,0)"
         id="use2861"
         x="0"
         y="0"
         width="100%"
         height="100%" />
      <use
         xlink:href="#CMR17-30"
         transform="matrix(0.996264,0,0,0.996264,390.92218,0)"
         id="use2863"
         x="0"
         y="0"
         width="100%"
         height="100%" />
      <use
         xlink:href="#CMR17-4b"
         transform="matrix(0.996264,0,0,0.996264,453.21706,0)"
         id="use2865"
         x="0"
         y="0"
         width="100%"
         height="100%" />
    </g>
    <!-- $\left[\mathrm{Fe/H}\right] = 0.19\,\mathrm{dex}$ -->
    <g
       style="fill:#feffb3"
       transform="matrix(0.1,0,0,-0.1,274.75026,214.49371)"
       id="g2907">
      <defs
         id="defs2877">
        <path
           id="CMR17-5b"
           d="m 1504,-1600 v 223 H 902 v 5921 h 602 v 223 H 678 v -6367 z"
           transform="scale(0.015625)" />
        <path
           id="CMR17-46"
           d="M 3482,4325 H 326 v -165 c 442,0 512,0 512,-286 V 446 C 838,160 768,160 326,160 V 0 c 186,0 544,0 743,0 262,0 569,0 832,0 v 160 h -141 c -486,0 -499,63 -499,292 v 1623 h 576 c 595,0 653,-210 653,-743 h 115 v 1655 h -115 c 0,-537 -58,-747 -653,-747 h -576 v 1671 c 0,217 13,249 269,249 h 825 c 967,0 1075,-395 1165,-1244 h 115 z"
           transform="scale(0.015625)" />
        <path
           id="CMMI12-3d"
           d="m 2746,4562 c 0,7 38,104 38,116 0,77 -64,122 -115,122 -32,0 -90,0 -141,-141 L 384,-1363 c 0,-7 -38,-102 -38,-115 0,-77 64,-122 115,-122 38,0 96,7 141,141 z"
           transform="scale(0.015625)" />
        <path
           id="CMR17-48"
           d="m 3590,3905 c 0,287 71,287 512,287 v 160 c -185,0 -524,0 -723,0 -198,0 -537,0 -723,0 v -160 c 442,0 512,0 512,-288 V 2341 H 1261 v 1563 c 0,288 70,288 512,288 v 160 c -186,0 -525,0 -723,0 -199,0 -538,0 -724,0 v -160 c 442,0 512,0 512,-287 V 447 C 838,160 768,160 326,160 V 0 c 186,0 525,0 724,0 198,0 537,0 723,0 v 160 c -442,0 -512,0 -512,286 V 2176 H 3168 V 446 c 0,-286 -70,-286 -512,-286 V 0 c 186,0 525,0 723,0 199,0 538,0 723,0 v 160 c -441,0 -512,0 -512,287 z"
           transform="scale(0.015625)" />
        <path
           id="CMR17-5d"
           d="M 915,4767 H 90 V 4544 H 691 V -1377 H 90 v -223 h 825 z"
           transform="scale(0.015625)" />
        <path
           id="CMMI12-3a"
           d="M 1178,307 C 1178,492 1024,619 870,619 685,619 557,466 557,313 557,128 710,0 864,0 c 186,0 314,153 314,307 z"
           transform="scale(0.015625)" />
        <path
           id="CMR17-64"
           d="m 1869,4326 v -166 c 377,0 435,-38 435,-340 V 2345 c -26,32 -288,445 -806,445 C 845,2790 211,2208 211,1364 211,525 806,-64 1434,-64 c 544,0 825,401 857,444 V -63 h 775 v 191 c -378,0 -436,38 -436,345 V 4396 Z M 2291,755 C 2291,563 2176,390 2029,262 1811,70 1594,38 1472,38 c -186,0 -851,96 -851,1318 0,1256 742,1332 909,1332 294,0 531,-166 678,-397 83,-134 83,-153 83,-268 z"
           transform="scale(0.015625)" />
        <path
           id="CMR17-78"
           d="m 1664,1477 c 192,249 410,529 589,739 211,242 454,344 736,344 v 166 c -109,0 -333,0 -448,0 -173,0 -371,0 -519,6 v -166 c 90,-13 141,-77 141,-166 0,-115 -64,-185 -96,-229 l -473,-598 -564,733 c -57,70 -57,82 -57,114 0,77 64,140 173,140 v 172 c -154,-6 -429,-6 -589,-6 -173,0 -378,0 -519,6 v -172 c 346,0 423,-26 576,-217 l 736,-948 c 13,-13 45,-51 45,-70 C 1395,1299 838,619 768,530 480,185 179,160 6,160 V 0 c 109,0 333,0 448,0 128,0 410,0 525,-6 v 166 c -38,6 -141,19 -141,165 0,115 52,185 109,261 l 531,650 557,-724 c 51,-70 128,-166 128,-211 0,-90 -77,-141 -179,-141 V -6 c 154,6 429,6 589,6 173,0 377,0 518,-6 v 166 c -320,0 -416,12 -569,210 z"
           transform="scale(0.015625)" />
      </defs>
      <use
         xlink:href="#CMR17-5b"
         transform="matrix(0.996264,0,0,0.996264,0,0.003177)"
         id="use2879"
         x="0"
         y="0"
         width="100%"
         height="100%" />
      <use
         xlink:href="#CMR17-46"
         transform="matrix(0.996264,0,0,0.996264,24.871058,0)"
         id="use2881"
         x="0"
         y="0"
         width="100%"
         height="100%" />
      <use
         xlink:href="#CMR17-65"
         transform="matrix(0.996264,0,0,0.996264,77.04765,0)"
         id="use2883"
         x="0"
         y="0"
         width="100%"
         height="100%" />
      <use
         xlink:href="#CMMI12-3d"
         transform="matrix(0.996264,0,0,0.996264,117.53331,0)"
         id="use2885"
         x="0"
         y="0"
         width="100%"
         height="100%" />
      <use
         xlink:href="#CMR17-48"
         transform="matrix(0.996264,0,0,0.996264,166.30823,0)"
         id="use2887"
         x="0"
         y="0"
         width="100%"
         height="100%" />
      <use
         xlink:href="#CMR17-5d"
         transform="matrix(0.996264,0,0,0.996264,235.38066,0.003177)"
         id="use2889"
         x="0"
         y="0"
         width="100%"
         height="100%" />
      <use
         xlink:href="#CMR17-3d"
         transform="matrix(0.996264,0,0,0.996264,287.92573,0)"
         id="use2891"
         x="0"
         y="0"
         width="100%"
         height="100%" />
      <use
         xlink:href="#CMR17-30"
         transform="matrix(0.996264,0,0,0.996264,387.31452,0)"
         id="use2893"
         x="0"
         y="0"
         width="100%"
         height="100%" />
      <use
         xlink:href="#CMMI12-3a"
         transform="matrix(0.996264,0,0,0.996264,433.005,0)"
         id="use2895"
         x="0"
         y="0"
         width="100%"
         height="100%" />
      <use
         xlink:href="#CMR17-31"
         transform="matrix(0.996264,0,0,0.996264,460.10218,0)"
         id="use2897"
         x="0"
         y="0"
         width="100%"
         height="100%" />
      <use
         xlink:href="#CMR17-39"
         transform="matrix(0.996264,0,0,0.996264,505.79265,0)"
         id="use2899"
         x="0"
         y="0"
         width="100%"
         height="100%" />
      <use
         xlink:href="#CMR17-64"
         transform="matrix(0.996264,0,0,0.996264,568.08754,0)"
         id="use2901"
         x="0"
         y="0"
         width="100%"
         height="100%" />
      <use
         xlink:href="#CMR17-65"
         transform="matrix(0.996264,0,0,0.996264,618.98291,0)"
         id="use2903"
         x="0"
         y="0"
         width="100%"
         height="100%" />
      <use
         xlink:href="#CMR17-78"
         transform="matrix(0.996264,0,0,0.996264,659.46857,0)"
         id="use2905"
         x="0"
         y="0"
         width="100%"
         height="100%" />
    </g>
    <!-- $\log g = 2.67\,\mathrm{dex}$ -->
    <g
       style="fill:#feffb3"
       transform="matrix(0.1,0,0,-0.1,283.2013,225.28657)"
       id="g2939">
      <defs
         id="defs2913">
        <path
           id="CMR17-6c"
           d="m 979,4396 -761,-70 v -166 c 377,0 435,-38 435,-343 V 426 C 653,184 627,153 218,153 V -13 C 371,0 653,0 813,0 c 166,0 448,0 601,-13 v 166 c -409,0 -435,25 -435,273 z"
           transform="scale(0.015625)" />
        <path
           id="CMR17-6f"
           d="m 2758,1356 c 0,820 -595,1460 -1292,1460 C 768,2816 173,2176 173,1356 173,551 768,-64 1466,-64 c 697,0 1292,615 1292,1420 z M 1466,51 c -301,0 -557,179 -704,429 -160,287 -180,646 -180,928 0,269 13,602 180,890 128,211 377,416 704,416 288,0 531,-160 684,-384 199,-301 199,-723 199,-922 0,-250 -13,-633 -186,-941 C 1984,173 1709,51 1466,51 Z"
           transform="scale(0.015625)" />
        <path
           id="CMR17-67"
           d="m 710,1164 c 122,-96 333,-204 589,-204 506,0 941,397 941,928 0,166 -51,422 -243,621 179,183 441,243 589,243 25,0 64,0 96,-18 -26,-6 -84,-31 -84,-129 0,-78 58,-134 141,-134 96,0 147,62 147,143 0,117 -96,240 -300,240 -256,0 -480,-116 -660,-274 -192,173 -422,236 -627,236 -505,0 -941,-397 -941,-928 0,-366 212,-596 276,-660 C 442,1004 442,743 442,711 442,545 506,302 723,168 390,85 128,-169 128,-486 c 0,-457 608,-794 1338,-794 704,0 1337,324 1337,801 0,863 -947,863 -1440,863 -147,0 -409,0 -441,7 -199,32 -333,211 -333,435 0,57 0,198 121,338 z m 589,-96 c -563,0 -563,692 -563,821 0,127 0,819 563,819 563,0 563,-692 563,-819 0,-129 0,-821 -563,-821 z m 167,-2239 c -640,0 -1082,336 -1082,685 0,197 109,381 250,482 160,108 224,108 659,108 525,0 1254,0 1254,-590 0,-349 -441,-685 -1081,-685 z"
           transform="scale(0.015625)" />
        <path
           id="CMMI12-67"
           d="M 2163,811 C 2138,709 2125,683 2042,588 1779,249 1510,128 1312,128 c -211,0 -410,166 -410,606 0,339 192,1054 333,1342 186,357 474,613 743,613 422,0 505,-524 505,-562 l -19,-90 z m 397,1584 c -83,185 -262,421 -582,421 C 1280,2816 486,1941 486,990 486,326 890,0 1299,0 c 339,0 640,268 755,396 l -140,-567 c -90,-345 -128,-503 -359,-723 -262,-258 -505,-258 -646,-258 -192,0 -352,13 -512,63 205,56 256,231 256,300 0,100 -77,201 -218,201 -153,0 -320,-126 -320,-334 0,-258 263,-358 807,-358 825,0 1254,527 1337,870 l 711,2845 c 19,76 19,89 19,101 0,89 -71,159 -167,159 -153,0 -243,-128 -262,-300 z"
           transform="scale(0.015625)" />
      </defs>
      <use
         xlink:href="#CMR17-6c"
         transform="scale(0.996264)"
         id="use2915"
         x="0"
         y="0"
         width="100%"
         height="100%" />
      <use
         xlink:href="#CMR17-6f"
         transform="matrix(0.996264,0,0,0.996264,24.871058,0)"
         id="use2917"
         x="0"
         y="0"
         width="100%"
         height="100%" />
      <use
         xlink:href="#CMR17-67"
         transform="matrix(0.996264,0,0,0.996264,70.561536,0)"
         id="use2919"
         x="0"
         y="0"
         width="100%"
         height="100%" />
      <use
         xlink:href="#CMMI12-67"
         transform="matrix(0.996264,0,0,0.996264,134.15758,0)"
         id="use2921"
         x="0"
         y="0"
         width="100%"
         height="100%" />
      <use
         xlink:href="#CMR17-3d"
         transform="matrix(0.996264,0,0,0.996264,212.11708,0)"
         id="use2923"
         x="0"
         y="0"
         width="100%"
         height="100%" />
      <use
         xlink:href="#CMR17-32"
         transform="matrix(0.996264,0,0,0.996264,311.50588,0)"
         id="use2925"
         x="0"
         y="0"
         width="100%"
         height="100%" />
      <use
         xlink:href="#CMMI12-3a"
         transform="matrix(0.996264,0,0,0.996264,357.19636,0)"
         id="use2927"
         x="0"
         y="0"
         width="100%"
         height="100%" />
      <use
         xlink:href="#CMR17-36"
         transform="matrix(0.996264,0,0,0.996264,384.29353,0)"
         id="use2929"
         x="0"
         y="0"
         width="100%"
         height="100%" />
      <use
         xlink:href="#CMR17-37"
         transform="matrix(0.996264,0,0,0.996264,429.98401,0)"
         id="use2931"
         x="0"
         y="0"
         width="100%"
         height="100%" />
      <use
         xlink:href="#CMR17-64"
         transform="matrix(0.996264,0,0,0.996264,492.27889,0)"
         id="use2933"
         x="0"
         y="0"
         width="100%"
         height="100%" />
      <use
         xlink:href="#CMR17-65"
         transform="matrix(0.996264,0,0,0.996264,543.17426,0)"
         id="use2935"
         x="0"
         y="0"
         width="100%"
         height="100%" />
      <use
         xlink:href="#CMR17-78"
         transform="matrix(0.996264,0,0,0.996264,583.65992,0)"
         id="use2937"
         x="0"
         y="0"
         width="100%"
         height="100%" />
    </g>
    <!-- $A(V) = 1.07\,\mathrm{mag}$ -->
    <g
       style="fill:#feffb3"
       transform="matrix(0.1,0,0,-0.1,276.54907,236.19012)"
       id="g2973">
      <defs
         id="defs2947">
        <path
           id="CMMI12-41"
           d="M 1088,691 C 864,314 646,186 339,186 269,180 218,180 218,58 218,24 250,0 294,0 c 116,0 404,0 519,0 185,0 390,0 569,0 39,0 116,0 116,122 0,58 -52,64 -90,64 -147,0 -269,50 -269,202 0,88 39,158 122,297 l 486,794 h 1632 c 7,-56 7,-106 13,-163 19,-164 96,-821 96,-940 0,-190 -326,-190 -429,-190 -70,0 -141,0 -141,-116 0,-70 58,-70 96,-70 109,0 237,0 346,0 h 365 c 390,0 672,0 678,0 45,0 115,0 115,122 0,64 -57,64 -153,64 -352,0 -359,58 -378,248 l -390,3970 c -13,127 -39,140 -109,140 -64,0 -102,-13 -160,-109 z m 768,973 1286,2155 218,-2155 z"
           transform="scale(0.015625)" />
        <path
           id="CMR17-28"
           d="m 1958,-1561 c 0,6 0,19 -19,38 -294,299 -1081,1116 -1081,3104 0,1988 774,2798 1088,3116 0,7 12,20 12,39 0,19 -19,32 -44,32 -71,0 -615,-472 -928,-1174 C 666,2887 576,2199 576,1588 c 0,-460 45,-1237 429,-2059 307,-664 832,-1129 909,-1129 32,0 44,13 44,39 z"
           transform="scale(0.015625)" />
        <path
           id="CMMI12-56"
           d="m 3962,3640 c 217,344 416,496 742,522 64,6 115,6 115,120 0,26 -13,64 -70,64 -115,0 -391,0 -506,0 -185,0 -377,0 -557,0 -51,0 -115,0 -115,-120 0,-58 58,-64 83,-64 237,-19 263,-133 263,-210 0,-95 -90,-242 -96,-248 L 1811,540 1363,3969 c 0,191 333,191 403,191 96,0 154,0 154,122 0,64 -70,64 -90,64 -108,0 -236,0 -345,0 h -359 c -467,0 -659,0 -665,0 -39,0 -115,0 -115,-116 0,-70 44,-70 147,-70 326,0 345,-58 365,-216 L 1370,24 c 19,-133 19,-152 108,-152 77,0 109,19 173,120 z"
           transform="scale(0.015625)" />
        <path
           id="CMR17-29"
           d="m 1683,1581 c 0,459 -45,1236 -429,2058 -307,664 -832,1129 -908,1129 -20,0 -45,-7 -45,-39 0,-12 6,-19 13,-32 307,-319 1088,-1129 1088,-3113 0,-1991 -775,-2801 -1088,-3121 -7,-12 -13,-19 -13,-31 0,-32 25,-32 45,-32 70,0 614,472 928,1174 320,707 409,1395 409,2007 z"
           transform="scale(0.015625)" />
        <path
           id="CMR17-6d"
           d="m 4326,1933 c 0,319 -57,857 -819,857 -435,0 -736,-294 -851,-639 h -6 c -77,525 -455,639 -813,639 -506,0 -768,-390 -864,-646 h -7 v 646 l -755,-70 v -166 c 378,0 435,-39 435,-346 V 428 C 646,184 621,153 211,153 V -13 C 365,0 646,0 813,0 c 166,0 454,0 608,-13 v 166 c -410,0 -435,25 -435,275 v 1230 c 0,589 358,1030 806,1030 474,0 525,-422 525,-730 V 428 c 0,-244 -26,-275 -435,-275 V -13 c 153,13 435,13 601,13 167,0 455,0 608,-13 v 166 c -409,0 -435,25 -435,275 v 1230 c 0,589 358,1030 806,1030 474,0 525,-422 525,-730 V 428 c 0,-244 -25,-275 -435,-275 V -13 c 154,13 435,13 602,13 166,0 454,0 608,-13 v 166 c -410,0 -436,25 -436,275 z"
           transform="scale(0.015625)" />
        <path
           id="CMR17-61"
           d="m 2304,1653 c 0,419 0,641 -269,890 -237,209 -512,273 -729,273 -506,0 -871,-409 -871,-845 0,-243 192,-243 231,-243 83,0 230,50 230,226 0,158 -122,227 -230,227 -26,0 -58,-7 -77,-13 134,424 480,546 704,546 320,0 672,-285 672,-829 V 1600 C 1587,1600 1133,1549 774,1357 371,1133 256,813 256,570 256,77 832,-64 1171,-64 c 352,0 679,203 819,575 13,-278 192,-529 474,-529 134,0 474,88 474,585 V 920 H 2822 V 562 c 0,-384 -172,-434 -256,-434 -262,0 -262,330 -262,610 z M 1965,870 C 1965,317 1568,38 1216,38 896,38 646,275 646,570 c 0,191 84,530 455,735 307,173 659,199 864,199 z"
           transform="scale(0.015625)" />
      </defs>
      <use
         xlink:href="#CMMI12-41"
         transform="scale(0.996264)"
         id="use2949"
         x="0"
         y="0"
         width="100%"
         height="100%" />
      <use
         xlink:href="#CMR17-28"
         transform="matrix(0.996264,0,0,0.996264,73.127885,0)"
         id="use2951"
         x="0"
         y="0"
         width="100%"
         height="100%" />
      <use
         xlink:href="#CMMI12-56"
         transform="matrix(0.996264,0,0,0.996264,108.40865,0)"
         id="use2953"
         x="0"
         y="0"
         width="100%"
         height="100%" />
      <use
         xlink:href="#CMR17-29"
         transform="matrix(0.996264,0,0,0.996264,186.95597,0)"
         id="use2955"
         x="0"
         y="0"
         width="100%"
         height="100%" />
      <use
         xlink:href="#CMR17-3d"
         transform="matrix(0.996264,0,0,0.996264,249.91075,0)"
         id="use2957"
         x="0"
         y="0"
         width="100%"
         height="100%" />
      <use
         xlink:href="#CMR17-31"
         transform="matrix(0.996264,0,0,0.996264,349.29955,0)"
         id="use2959"
         x="0"
         y="0"
         width="100%"
         height="100%" />
      <use
         xlink:href="#CMMI12-3a"
         transform="matrix(0.996264,0,0,0.996264,394.99002,0)"
         id="use2961"
         x="0"
         y="0"
         width="100%"
         height="100%" />
      <use
         xlink:href="#CMR17-30"
         transform="matrix(0.996264,0,0,0.996264,422.0872,0)"
         id="use2963"
         x="0"
         y="0"
         width="100%"
         height="100%" />
      <use
         xlink:href="#CMR17-37"
         transform="matrix(0.996264,0,0,0.996264,467.77768,0)"
         id="use2965"
         x="0"
         y="0"
         width="100%"
         height="100%" />
      <use
         xlink:href="#CMR17-6d"
         transform="matrix(0.996264,0,0,0.996264,530.07256,0)"
         id="use2967"
         x="0"
         y="0"
         width="100%"
         height="100%" />
      <use
         xlink:href="#CMR17-61"
         transform="matrix(0.996264,0,0,0.996264,606.99215,0)"
         id="use2969"
         x="0"
         y="0"
         width="100%"
         height="100%" />
      <use
         xlink:href="#CMR17-67"
         transform="matrix(0.996264,0,0,0.996264,652.68263,0)"
         id="use2971"
         x="0"
         y="0"
         width="100%"
         height="100%" />
    </g>
    <!-- $R(V) = 3.38$ -->
    <g
       style="fill:#feffb3"
       transform="matrix(0.1,0,0,-0.1,296.30487,247.64716)"
       id="g2996">
      <defs
         id="defs2976">
        <path
           id="CMMI12-52"
           d="m 2355,3924 c 58,236 83,236 333,236 h 461 c 550,0 960,-165 960,-661 0,-324 -167,-1259 -1453,-1259 h -723 z m 890,-1755 c 793,172 1414,682 1414,1229 0,496 -505,954 -1395,954 H 1530 c -128,0 -186,0 -186,-126 0,-66 45,-66 166,-66 384,0 384,-48 384,-115 0,-12 0,-51 -25,-146 L 1005,479 C 947,256 934,192 493,192 346,192 301,192 301,71 301,7 371,7 390,7 506,7 640,7 762,7 h 755 c 115,0 249,0 365,0 51,0 121,0 121,121 0,64 -57,64 -153,64 -391,0 -391,51 -391,114 0,7 0,51 13,101 l 429,1705 h 768 c 608,0 723,-381 723,-590 0,-95 -64,-343 -109,-508 -70,-291 -89,-362 -89,-482 0,-450 371,-660 800,-660 518,0 742,629 742,719 0,44 -32,63 -70,63 -52,0 -64,-38 -77,-89 C 4435,114 4173,0 4013,0 c -160,0 -263,70 -263,356 0,153 77,732 84,764 32,235 32,260 32,312 0,464 -378,661 -621,737 z"
           transform="scale(0.015625)" />
      </defs>
      <use
         xlink:href="#CMMI12-52"
         transform="scale(0.996264)"
         id="use2978"
         x="0"
         y="0"
         width="100%"
         height="100%" />
      <use
         xlink:href="#CMR17-28"
         transform="matrix(0.996264,0,0,0.996264,75.070962,0)"
         id="use2980"
         x="0"
         y="0"
         width="100%"
         height="100%" />
      <use
         xlink:href="#CMMI12-56"
         transform="matrix(0.996264,0,0,0.996264,110.35173,0)"
         id="use2982"
         x="0"
         y="0"
         width="100%"
         height="100%" />
      <use
         xlink:href="#CMR17-29"
         transform="matrix(0.996264,0,0,0.996264,188.89905,0)"
         id="use2984"
         x="0"
         y="0"
         width="100%"
         height="100%" />
      <use
         xlink:href="#CMR17-3d"
         transform="matrix(0.996264,0,0,0.996264,251.85383,0)"
         id="use2986"
         x="0"
         y="0"
         width="100%"
         height="100%" />
      <use
         xlink:href="#CMR17-33"
         transform="matrix(0.996264,0,0,0.996264,351.24262,0)"
         id="use2988"
         x="0"
         y="0"
         width="100%"
         height="100%" />
      <use
         xlink:href="#CMMI12-3a"
         transform="matrix(0.996264,0,0,0.996264,396.9331,0)"
         id="use2990"
         x="0"
         y="0"
         width="100%"
         height="100%" />
      <use
         xlink:href="#CMR17-33"
         transform="matrix(0.996264,0,0,0.996264,424.03028,0)"
         id="use2992"
         x="0"
         y="0"
         width="100%"
         height="100%" />
      <use
         xlink:href="#CMR17-38"
         transform="matrix(0.996264,0,0,0.996264,469.72075,0)"
         id="use2994"
         x="0"
         y="0"
         width="100%"
         height="100%" />
    </g>
  </g>
  <g
     id="legend_1">
    <g
       id="patch_7">
      <path
         d="m 222.33063,39.900058 h 127.66913 q 2,0 2,-2 V 10.00024 q 0,-2 -2,-2 H 222.33063 q -2,0 -2,2 v 27.899818 q 0,2 2,2 z"
         style="opacity:0.8;stroke:#cccccc;stroke-linejoin:miter"
         id="path3027" />
    </g>
    <g
       id="patch_8">
      <path
         d="m 224.33063,19.00024 h 20 v -7 h -20 z"
         style="fill:#8dd3c7;fill-opacity:0.5"
         id="path3030" />
    </g>
    <g
       id="text_19">
      <!-- observation $\pm 5\sigma$ -->
      <g
         style="fill:#ffffff"
         transform="matrix(0.1,0,0,-0.1,252.33063,19.00024)"
         id="g3068">
        <defs
           id="defs3038">
          <path
             id="CMSS17-62"
             d="M 954,4416 H 480 V -13 h 486 v 287 c 244,-236 538,-338 800,-338 615,0 1114,613 1114,1416 0,734 -384,1404 -954,1404 -403,0 -761,-165 -972,-337 z m 12,-2370 c 141,176 340,322 621,322 378,0 807,-271 807,-1016 0,-794 -512,-1027 -864,-1027 -128,0 -263,31 -391,139 C 966,615 966,709 966,797 Z"
             transform="scale(0.015625)" />
          <path
             id="CMSS17-73"
             d="m 2061,2627 c -378,180 -672,180 -864,180 -455,0 -999,-159 -999,-804 0,-644 704,-785 896,-824 295,-57 621,-121 621,-439 0,-403 -461,-403 -544,-403 -256,0 -608,70 -928,301 L 166,210 C 531,0 883,-64 1178,-64 c 787,0 985,480 985,845 0,313 -179,524 -301,620 -211,167 -288,186 -812,295 -90,13 -404,83 -404,370 0,366 404,366 493,366 416,0 672,-129 845,-224 z"
             transform="scale(0.015625)" />
          <path
             id="CMSS17-72"
             d="m 954,1363 c 0,602 441,1005 1004,1005 v 421 c -409,0 -793,-204 -1024,-536 v 505 H 480 V 0 h 474 z"
             transform="scale(0.015625)" />
          <path
             id="CMSY10-6"
             d="m 2618,1984 h 1779 c 109,0 224,0 224,128 0,128 -115,128 -224,128 H 2618 v 1778 c 0,103 0,238 -128,238 -128,0 -128,-116 -128,-218 V 2240 H 576 c -109,0 -224,0 -224,-128 0,-128 115,-128 224,-128 H 2362 V 256 H 576 C 467,256 352,256 352,128 352,0 467,0 576,0 h 3821 c 109,0 224,0 224,128 0,128 -115,128 -224,128 H 2618 Z"
             transform="scale(0.015625)" />
          <path
             id="CMMI12-1b"
             d="m 3251,2408 c 83,0 295,0 295,204 0,140 -122,140 -237,140 H 1894 C 934,2752 243,1686 243,932 c 0,-542 352,-996 928,-996 755,0 1581,811 1581,1769 0,249 -58,491 -211,703 z M 1178,64 c -327,0 -564,249 -564,690 0,383 231,1654 1172,1654 275,0 582,-134 582,-627 0,-223 -102,-760 -326,-1129 C 1811,275 1466,64 1178,64 Z"
             transform="scale(0.015625)" />
        </defs>
        <path
           id="use3040"
           d="m 44.037982,21.108343 c 0,12.764633 -9.464508,22.727273 -20.625778,22.727273 -11.457036,0 -20.7191779,-10.258406 -20.7191779,-22.727273 0,-12.640099 9.5579079,-22.104607 20.6257779,-22.104607 11.34807,0 20.719178,9.7602739 20.719178,22.104607 z M 23.412204,5.2459526 c -7.067248,0 -13.153798,5.7907844 -13.153798,16.6718554 0,11.566002 7.082814,15.862391 13.060398,15.862391 6.475716,0 13.138232,-4.685554 13.138232,-15.862391 0,-11.285803 -6.475716,-16.6718554 -13.044832,-16.6718554 z"
           style="stroke-width:0.0155666" />
        <use
           xlink:href="#CMSS17-62"
           transform="matrix(0.996264,0,0,0.996264,46.843624,0)"
           id="use3042"
           x="0"
           y="0"
           width="100%"
           height="100%" />
        <use
           xlink:href="#CMSS17-73"
           transform="matrix(0.996264,0,0,0.996264,95.048567,0)"
           id="use3044"
           x="0"
           y="0"
           width="100%"
           height="100%" />
        <use
           xlink:href="#CMSS17-65"
           transform="matrix(0.996264,0,0,0.996264,130.96211,0)"
           id="use3046"
           x="0"
           y="0"
           width="100%"
           height="100%" />
        <use
           xlink:href="#CMSS17-72"
           transform="matrix(0.996264,0,0,0.996264,172.60093,0)"
           id="use3048"
           x="0"
           y="0"
           width="100%"
           height="100%" />
        <use
           xlink:href="#CMSS17-76"
           transform="matrix(0.996264,0,0,0.996264,204.5107,0)"
           id="use3050"
           x="0"
           y="0"
           width="100%"
           height="100%" />
        <use
           xlink:href="#CMSS17-61"
           transform="matrix(0.996264,0,0,0.996264,247.51084,0)"
           id="use3052"
           x="0"
           y="0"
           width="100%"
           height="100%" />
        <use
           xlink:href="#CMSS17-74"
           transform="matrix(0.996264,0,0,0.996264,292.43277,0)"
           id="use3054"
           x="0"
           y="0"
           width="100%"
           height="100%" />
        <path
           id="use3056"
           d="m 341.50406,65.115192 h -8.35928 v -8.328144 h 8.35928 z m -0.49814,-22.478206 h -7.36301 V 0 h 7.36301 z"
           style="stroke-width:0.0155666" />
        <path
           id="use3058"
           d="m 392.48304,21.108343 c 0,12.764633 -9.46451,22.727273 -20.62578,22.727273 -11.45703,0 -20.71917,-10.258406 -20.71917,-22.727273 0,-12.640099 9.5579,-22.104607 20.62577,-22.104607 11.34807,0 20.71918,9.7602739 20.71918,22.104607 z M 371.85726,5.2459526 c -7.06724,0 -13.15379,5.7907844 -13.15379,16.6718554 0,11.566002 7.08281,15.862391 13.06039,15.862391 6.47572,0 13.13824,-4.685554 13.13824,-15.862391 0,-11.285803 -6.47572,-16.6718554 -13.04484,-16.6718554 z"
           style="stroke-width:0.0155666" />
        <use
           xlink:href="#CMSS17-6e"
           transform="matrix(0.996264,0,0,0.996264,395.28868,0)"
           id="use3060"
           x="0"
           y="0"
           width="100%"
           height="100%" />
        <use
           xlink:href="#CMSY10-6"
           transform="matrix(0.996264,0,0,0.996264,474.72273,0)"
           id="use3062"
           x="0"
           y="0"
           width="100%"
           height="100%" />
        <use
           xlink:href="#CMR17-35"
           transform="matrix(0.996264,0,0,0.996264,552.2102,0)"
           id="use3064"
           x="0"
           y="0"
           width="100%"
           height="100%" />
        <use
           xlink:href="#CMMI12-1b"
           transform="matrix(0.996264,0,0,0.996264,597.90068,0)"
           id="use3066"
           x="0"
           y="0"
           width="100%"
           height="100%" />
      </g>
    </g>
    <g
       id="line2d_19">
      <path
         d="m 224.33063,29.909398 h 10 10"
         style="fill:none;stroke:#feffb3;stroke-width:1.5;stroke-linecap:square"
         id="path3071" />
    </g>
    <g
       id="text_20">
      <!-- fit (without extinction) -->
      <g
         style="fill:#ffffff"
         transform="matrix(0.1,0,0,-0.1,252.33063,33.409398)"
         id="g3119">
        <defs
           id="defs3075">
          <path
             id="CMSS17-c"
             d="m 2752,4416 h -512 v -510 h 512 z M 2733,2737 H 2259 V 0 h 474 z M 1075,2368 h 698 v 369 h -711 v 841 c 0,341 154,514 359,514 121,0 243,-36 352,-100 v 418 c -51,18 -199,70 -352,70 -480,0 -819,-487 -819,-1108 V 2737 H 160 V 2368 H 602 V 0 h 473 z"
             transform="scale(0.015625)" />
        </defs>
        <use
           xlink:href="#CMSS17-c"
           transform="scale(0.996264)"
           id="use3077"
           x="0"
           y="0"
           width="100%"
           height="100%" />
        <use
           xlink:href="#CMSS17-74"
           transform="matrix(0.996264,0,0,0.996264,50.126737,0)"
           id="use3079"
           x="0"
           y="0"
           width="100%"
           height="100%" />
        <use
           xlink:href="#CMSS17-28"
           transform="matrix(0.996264,0,0,0.996264,115.18742,0)"
           id="use3081"
           x="0"
           y="0"
           width="100%"
           height="100%" />
        <use
           xlink:href="#CMSS17-77"
           transform="matrix(0.996264,0,0,0.996264,151.62133,0)"
           id="use3083"
           x="0"
           y="0"
           width="100%"
           height="100%" />
        <path
           id="use3085"
           d="m 230.68061,65.115192 h -8.35928 v -8.328144 h 8.35928 z m -0.49814,-22.478206 h -7.36301 V 0 h 7.36301 z"
           style="stroke-width:0.0155666" />
        <use
           xlink:href="#CMSS17-74"
           transform="matrix(0.996264,0,0,0.996264,237.6216,0)"
           id="use3087"
           x="0"
           y="0"
           width="100%"
           height="100%" />
        <use
           xlink:href="#CMSS17-68"
           transform="matrix(0.996264,0,0,0.996264,271.45317,0)"
           id="use3089"
           x="0"
           y="0"
           width="100%"
           height="100%" />
        <path
           id="use3091"
           d="m 363.69609,21.108343 c 0,12.764633 -9.46451,22.727273 -20.62578,22.727273 -11.45703,0 -20.71917,-10.258406 -20.71917,-22.727273 0,-12.640099 9.5579,-22.104607 20.62577,-22.104607 11.34807,0 20.71918,9.7602739 20.71918,22.104607 z M 343.07031,5.2459526 c -7.06724,0 -13.15379,5.7907844 -13.15379,16.6718554 0,11.566002 7.08281,15.862391 13.06039,15.862391 6.47572,0 13.13824,-4.685554 13.13824,-15.862391 0,-11.285803 -6.47572,-16.6718554 -13.04484,-16.6718554 z"
           style="stroke-width:0.0155666" />
        <use
           xlink:href="#CMSS17-75"
           transform="matrix(0.996264,0,0,0.996264,366.50173,0)"
           id="use3093"
           x="0"
           y="0"
           width="100%"
           height="100%" />
        <use
           xlink:href="#CMSS17-74"
           transform="matrix(0.996264,0,0,0.996264,414.70668,0)"
           id="use3095"
           x="0"
           y="0"
           width="100%"
           height="100%" />
        <use
           xlink:href="#CMSS17-65"
           transform="matrix(0.996264,0,0,0.996264,479.76735,0)"
           id="use3097"
           x="0"
           y="0"
           width="100%"
           height="100%" />
        <use
           xlink:href="#CMSS17-78"
           transform="matrix(0.996264,0,0,0.996264,521.40618,0)"
           id="use3099"
           x="0"
           y="0"
           width="100%"
           height="100%" />
        <use
           xlink:href="#CMSS17-74"
           transform="matrix(0.996264,0,0,0.996264,564.40632,0)"
           id="use3101"
           x="0"
           y="0"
           width="100%"
           height="100%" />
        <path
           id="use3103"
           d="m 613.47761,65.115192 h -8.35928 v -8.328144 h 8.35928 z m -0.49814,-22.478206 h -7.36301 V 0 h 7.36301 z"
           style="stroke-width:0.0155666" />
        <use
           xlink:href="#CMSS17-6e"
           transform="matrix(0.996264,0,0,0.996264,620.41861,0)"
           id="use3105"
           x="0"
           y="0"
           width="100%"
           height="100%" />
        <path
           id="use3107"
           d="m 706.97971,39.554794 c 0,0.684932 -4.57658,2.693026 -5.77521,3.082192 -3.28456,1.19863 -7.47198,1.19863 -8.57721,1.19863 -12.95144,0 -20.71918,-11.25467 -20.71918,-22.618306 0,-11.9551681 8.67061,-22.213574 20.33001,-22.213574 6.67808,0 11.45704,2.1793275 15.33313,4.7633873 l -0.59154,6.5691157 c -4.28082,-3.2845579 -9.26214,-5.0902864 -14.64819,-5.0902864 -7.76775,0 -12.84247,6.8026154 -12.84247,16.0647574 0,7.19178 3.28456,16.267123 13.2472,16.267123 5.47945,0 8.56165,-1.105231 13.1538,-4.187422 z"
           style="stroke-width:0.0155666" />
        <use
           xlink:href="#CMSS17-74"
           transform="matrix(0.996264,0,0,0.996264,710.26237,0)"
           id="use3109"
           x="0"
           y="0"
           width="100%"
           height="100%" />
        <path
           id="use3111"
           d="m 759.33367,65.115192 h -8.35928 v -8.328144 h 8.35928 z m -0.49814,-22.478206 h -7.36301 V 0 h 7.36301 z"
           style="stroke-width:0.0155666" />
        <path
           id="use3113"
           d="m 810.31264,21.108343 c 0,12.764633 -9.46451,22.727273 -20.62578,22.727273 -11.45703,0 -20.71917,-10.258406 -20.71917,-22.727273 0,-12.640099 9.5579,-22.104607 20.62577,-22.104607 11.34807,0 20.71918,9.7602739 20.71918,22.104607 z M 789.68686,5.2459526 c -7.06724,0 -13.15379,5.7907844 -13.15379,16.6718554 0,11.566002 7.08281,15.862391 13.06039,15.862391 6.47572,0 13.13824,-4.685554 13.13824,-15.862391 0,-11.285803 -6.47572,-16.6718554 -13.04484,-16.6718554 z"
           style="stroke-width:0.0155666" />
        <use
           xlink:href="#CMSS17-6e"
           transform="matrix(0.996264,0,0,0.996264,813.11829,0)"
           id="use3115"
           x="0"
           y="0"
           width="100%"
           height="100%" />
        <use
           xlink:href="#CMSS17-29"
           transform="matrix(0.996264,0,0,0.996264,861.32323,0)"
           id="use3117"
           x="0"
           y="0"
           width="100%"
           height="100%" />
      </g>
    </g>
  </g>
  <defs
     id="defs3128">
    <clipPath
       id="p4f2db2c097">
      <rect
         x="42.781258"
         y="3.00024"
         width="314.218502"
         height="252.181203"
         id="rect3125" />
    </clipPath>
  </defs>
</svg>
