<?xml version="1.0" encoding="utf-8" standalone="no"?>
<!DOCTYPE svg PUBLIC "-//W3C//DTD SVG 1.1//EN"
  "http://www.w3.org/Graphics/SVG/1.1/DTD/svg11.dtd">
<svg xmlns:xlink="http://www.w3.org/1999/xlink" width="432pt" height="288pt" viewBox="0 0 432 288" xmlns="http://www.w3.org/2000/svg" version="1.1">
 <metadata>
  <rdf:RDF xmlns:dc="http://purl.org/dc/elements/1.1/" xmlns:cc="http://creativecommons.org/ns#" xmlns:rdf="http://www.w3.org/1999/02/22-rdf-syntax-ns#">
   <cc:Work>
    <dc:type rdf:resource="http://purl.org/dc/dcmitype/StillImage"/>
    <dc:date>2025-10-27T15:46:16.556361</dc:date>
    <dc:format>image/svg+xml</dc:format>
    <dc:creator>
     <cc:Agent>
      <dc:title>Matplotlib v3.7.1, https://matplotlib.org/</dc:title>
     </cc:Agent>
    </dc:creator>
   </cc:Work>
  </rdf:RDF>
 </metadata>
 <defs>
  <style type="text/css">*{stroke-linejoin: round; stroke-linecap: butt}</style>
 </defs>
 <g id="figure_1">
  <g id="patch_1">
   <path d="M 0 288 
L 432 288 
L 432 0 
L 0 0 
z
"/>
  </g>
  <g id="axes_1">
   <g id="patch_2">
    <path d="M 47.20024 254.64351 
L 428.99976 254.64351 
L 428.99976 5.159662 
L 47.20024 5.159662 
z
"/>
   </g>
   <g id="patch_3">
    <path d="M 149.126471 254.64351 
L 149.126471 5.159662 
L 189.4948 5.159662 
L 189.4948 254.64351 
z
" clip-path="url(#p1180221d7e)" style="fill: #81b1d2; opacity: 0.1"/>
   </g>
   <g id="matplotlib.axis_1">
    <g id="xtick_1">
     <g id="line2d_1">
      <path d="M 69.862449 254.64351 
L 69.862449 5.159662 
" clip-path="url(#p1180221d7e)" style="fill: none; stroke: #ffffff; stroke-opacity: 0.1; stroke-width: 0.8; stroke-linecap: square"/>
     </g>
     <g id="line2d_2">
      <defs>
       <path id="m0207227ed2" d="M 0 0 
L 0 3.5 
" style="stroke: #ffffff; stroke-width: 0.8"/>
      </defs>
      <g>
       <use xlink:href="#m0207227ed2" x="69.862449" y="254.64351" style="fill: #ffffff; stroke: #ffffff; stroke-width: 0.8"/>
      </g>
     </g>
     <g id="text_1">
      <!-- $\mathdefault{10^{-1}}$ -->
      <g style="fill: #ffffff" transform="translate(58.112449 269.241947) scale(0.1 -0.1)">
       <defs>
        <path id="DejaVuSans-31" d="M 794 531 
L 1825 531 
L 1825 4091 
L 703 3866 
L 703 4441 
L 1819 4666 
L 2450 4666 
L 2450 531 
L 3481 531 
L 3481 0 
L 794 0 
L 794 531 
z
" transform="scale(0.015625)"/>
        <path id="DejaVuSans-30" d="M 2034 4250 
Q 1547 4250 1301 3770 
Q 1056 3291 1056 2328 
Q 1056 1369 1301 889 
Q 1547 409 2034 409 
Q 2525 409 2770 889 
Q 3016 1369 3016 2328 
Q 3016 3291 2770 3770 
Q 2525 4250 2034 4250 
z
M 2034 4750 
Q 2819 4750 3233 4129 
Q 3647 3509 3647 2328 
Q 3647 1150 3233 529 
Q 2819 -91 2034 -91 
Q 1250 -91 836 529 
Q 422 1150 422 2328 
Q 422 3509 836 4129 
Q 1250 4750 2034 4750 
z
" transform="scale(0.015625)"/>
        <path id="DejaVuSans-2212" d="M 678 2272 
L 4684 2272 
L 4684 1741 
L 678 1741 
L 678 2272 
z
" transform="scale(0.015625)"/>
       </defs>
       <use xlink:href="#DejaVuSans-31" transform="translate(0 0.684375)"/>
       <use xlink:href="#DejaVuSans-30" transform="translate(63.623047 0.684375)"/>
       <use xlink:href="#DejaVuSans-2212" transform="translate(128.203125 38.965625) scale(0.7)"/>
       <use xlink:href="#DejaVuSans-31" transform="translate(186.855469 38.965625) scale(0.7)"/>
      </g>
     </g>
    </g>
    <g id="xtick_2">
     <g id="line2d_3">
      <path d="M 206.575564 254.64351 
L 206.575564 5.159662 
" clip-path="url(#p1180221d7e)" style="fill: none; stroke: #ffffff; stroke-opacity: 0.1; stroke-width: 0.8; stroke-linecap: square"/>
     </g>
     <g id="line2d_4">
      <g>
       <use xlink:href="#m0207227ed2" x="206.575564" y="254.64351" style="fill: #ffffff; stroke: #ffffff; stroke-width: 0.8"/>
      </g>
     </g>
     <g id="text_2">
      <!-- $\mathdefault{10^{0}}$ -->
      <g style="fill: #ffffff" transform="translate(197.775564 269.241947) scale(0.1 -0.1)">
       <use xlink:href="#DejaVuSans-31" transform="translate(0 0.765625)"/>
       <use xlink:href="#DejaVuSans-30" transform="translate(63.623047 0.765625)"/>
       <use xlink:href="#DejaVuSans-30" transform="translate(128.203125 39.046875) scale(0.7)"/>
      </g>
     </g>
    </g>
    <g id="xtick_3">
     <g id="line2d_5">
      <path d="M 343.288679 254.64351 
L 343.288679 5.159662 
" clip-path="url(#p1180221d7e)" style="fill: none; stroke: #ffffff; stroke-opacity: 0.1; stroke-width: 0.8; stroke-linecap: square"/>
     </g>
     <g id="line2d_6">
      <g>
       <use xlink:href="#m0207227ed2" x="343.288679" y="254.64351" style="fill: #ffffff; stroke: #ffffff; stroke-width: 0.8"/>
      </g>
     </g>
     <g id="text_3">
      <!-- $\mathdefault{10^{1}}$ -->
      <g style="fill: #ffffff" transform="translate(334.488679 269.241947) scale(0.1 -0.1)">
       <use xlink:href="#DejaVuSans-31" transform="translate(0 0.684375)"/>
       <use xlink:href="#DejaVuSans-30" transform="translate(63.623047 0.684375)"/>
       <use xlink:href="#DejaVuSans-31" transform="translate(128.203125 38.965625) scale(0.7)"/>
      </g>
     </g>
    </g>
    <g id="xtick_4">
     <g id="line2d_7">
      <path d="M 48.68532 254.64351 
L 48.68532 5.159662 
" clip-path="url(#p1180221d7e)" style="fill: none; stroke: #ffffff; stroke-opacity: 0.05; stroke-width: 0.8; stroke-linecap: square"/>
     </g>
     <g id="line2d_8">
      <defs>
       <path id="m0806e09dc6" d="M 0 0 
L 0 2 
" style="stroke: #ffffff; stroke-width: 0.6"/>
      </defs>
      <g>
       <use xlink:href="#m0806e09dc6" x="48.68532" y="254.64351" style="fill: #ffffff; stroke: #ffffff; stroke-width: 0.6"/>
      </g>
     </g>
    </g>
    <g id="xtick_5">
     <g id="line2d_9">
      <path d="M 56.61358 254.64351 
L 56.61358 5.159662 
" clip-path="url(#p1180221d7e)" style="fill: none; stroke: #ffffff; stroke-opacity: 0.05; stroke-width: 0.8; stroke-linecap: square"/>
     </g>
     <g id="line2d_10">
      <g>
       <use xlink:href="#m0806e09dc6" x="56.61358" y="254.64351" style="fill: #ffffff; stroke: #ffffff; stroke-width: 0.6"/>
      </g>
     </g>
    </g>
    <g id="xtick_6">
     <g id="line2d_11">
      <path d="M 63.6068 254.64351 
L 63.6068 5.159662 
" clip-path="url(#p1180221d7e)" style="fill: none; stroke: #ffffff; stroke-opacity: 0.05; stroke-width: 0.8; stroke-linecap: square"/>
     </g>
     <g id="line2d_12">
      <g>
       <use xlink:href="#m0806e09dc6" x="63.6068" y="254.64351" style="fill: #ffffff; stroke: #ffffff; stroke-width: 0.6"/>
      </g>
     </g>
    </g>
    <g id="xtick_7">
     <g id="line2d_13">
      <path d="M 111.017198 254.64351 
L 111.017198 5.159662 
" clip-path="url(#p1180221d7e)" style="fill: none; stroke: #ffffff; stroke-opacity: 0.05; stroke-width: 0.8; stroke-linecap: square"/>
     </g>
     <g id="line2d_14">
      <g>
       <use xlink:href="#m0806e09dc6" x="111.017198" y="254.64351" style="fill: #ffffff; stroke: #ffffff; stroke-width: 0.6"/>
      </g>
     </g>
    </g>
    <g id="xtick_8">
     <g id="line2d_15">
      <path d="M 135.091182 254.64351 
L 135.091182 5.159662 
" clip-path="url(#p1180221d7e)" style="fill: none; stroke: #ffffff; stroke-opacity: 0.05; stroke-width: 0.8; stroke-linecap: square"/>
     </g>
     <g id="line2d_16">
      <g>
       <use xlink:href="#m0806e09dc6" x="135.091182" y="254.64351" style="fill: #ffffff; stroke: #ffffff; stroke-width: 0.6"/>
      </g>
     </g>
    </g>
    <g id="xtick_9">
     <g id="line2d_17">
      <path d="M 152.171946 254.64351 
L 152.171946 5.159662 
" clip-path="url(#p1180221d7e)" style="fill: none; stroke: #ffffff; stroke-opacity: 0.05; stroke-width: 0.8; stroke-linecap: square"/>
     </g>
     <g id="line2d_18">
      <g>
       <use xlink:href="#m0806e09dc6" x="152.171946" y="254.64351" style="fill: #ffffff; stroke: #ffffff; stroke-width: 0.6"/>
      </g>
     </g>
    </g>
    <g id="xtick_10">
     <g id="line2d_19">
      <path d="M 165.420816 254.64351 
L 165.420816 5.159662 
" clip-path="url(#p1180221d7e)" style="fill: none; stroke: #ffffff; stroke-opacity: 0.05; stroke-width: 0.8; stroke-linecap: square"/>
     </g>
     <g id="line2d_20">
      <g>
       <use xlink:href="#m0806e09dc6" x="165.420816" y="254.64351" style="fill: #ffffff; stroke: #ffffff; stroke-width: 0.6"/>
      </g>
     </g>
    </g>
    <g id="xtick_11">
     <g id="line2d_21">
      <path d="M 176.245931 254.64351 
L 176.245931 5.159662 
" clip-path="url(#p1180221d7e)" style="fill: none; stroke: #ffffff; stroke-opacity: 0.05; stroke-width: 0.8; stroke-linecap: square"/>
     </g>
     <g id="line2d_22">
      <g>
       <use xlink:href="#m0806e09dc6" x="176.245931" y="254.64351" style="fill: #ffffff; stroke: #ffffff; stroke-width: 0.6"/>
      </g>
     </g>
    </g>
    <g id="xtick_12">
     <g id="line2d_23">
      <path d="M 185.398435 254.64351 
L 185.398435 5.159662 
" clip-path="url(#p1180221d7e)" style="fill: none; stroke: #ffffff; stroke-opacity: 0.05; stroke-width: 0.8; stroke-linecap: square"/>
     </g>
     <g id="line2d_24">
      <g>
       <use xlink:href="#m0806e09dc6" x="185.398435" y="254.64351" style="fill: #ffffff; stroke: #ffffff; stroke-width: 0.6"/>
      </g>
     </g>
    </g>
    <g id="xtick_13">
     <g id="line2d_25">
      <path d="M 193.326694 254.64351 
L 193.326694 5.159662 
" clip-path="url(#p1180221d7e)" style="fill: none; stroke: #ffffff; stroke-opacity: 0.05; stroke-width: 0.8; stroke-linecap: square"/>
     </g>
     <g id="line2d_26">
      <g>
       <use xlink:href="#m0806e09dc6" x="193.326694" y="254.64351" style="fill: #ffffff; stroke: #ffffff; stroke-width: 0.6"/>
      </g>
     </g>
    </g>
    <g id="xtick_14">
     <g id="line2d_27">
      <path d="M 200.319915 254.64351 
L 200.319915 5.159662 
" clip-path="url(#p1180221d7e)" style="fill: none; stroke: #ffffff; stroke-opacity: 0.05; stroke-width: 0.8; stroke-linecap: square"/>
     </g>
     <g id="line2d_28">
      <g>
       <use xlink:href="#m0806e09dc6" x="200.319915" y="254.64351" style="fill: #ffffff; stroke: #ffffff; stroke-width: 0.6"/>
      </g>
     </g>
    </g>
    <g id="xtick_15">
     <g id="line2d_29">
      <path d="M 247.730312 254.64351 
L 247.730312 5.159662 
" clip-path="url(#p1180221d7e)" style="fill: none; stroke: #ffffff; stroke-opacity: 0.05; stroke-width: 0.8; stroke-linecap: square"/>
     </g>
     <g id="line2d_30">
      <g>
       <use xlink:href="#m0806e09dc6" x="247.730312" y="254.64351" style="fill: #ffffff; stroke: #ffffff; stroke-width: 0.6"/>
      </g>
     </g>
    </g>
    <g id="xtick_16">
     <g id="line2d_31">
      <path d="M 271.804297 254.64351 
L 271.804297 5.159662 
" clip-path="url(#p1180221d7e)" style="fill: none; stroke: #ffffff; stroke-opacity: 0.05; stroke-width: 0.8; stroke-linecap: square"/>
     </g>
     <g id="line2d_32">
      <g>
       <use xlink:href="#m0806e09dc6" x="271.804297" y="254.64351" style="fill: #ffffff; stroke: #ffffff; stroke-width: 0.6"/>
      </g>
     </g>
    </g>
    <g id="xtick_17">
     <g id="line2d_33">
      <path d="M 288.885061 254.64351 
L 288.885061 5.159662 
" clip-path="url(#p1180221d7e)" style="fill: none; stroke: #ffffff; stroke-opacity: 0.05; stroke-width: 0.8; stroke-linecap: square"/>
     </g>
     <g id="line2d_34">
      <g>
       <use xlink:href="#m0806e09dc6" x="288.885061" y="254.64351" style="fill: #ffffff; stroke: #ffffff; stroke-width: 0.6"/>
      </g>
     </g>
    </g>
    <g id="xtick_18">
     <g id="line2d_35">
      <path d="M 302.133931 254.64351 
L 302.133931 5.159662 
" clip-path="url(#p1180221d7e)" style="fill: none; stroke: #ffffff; stroke-opacity: 0.05; stroke-width: 0.8; stroke-linecap: square"/>
     </g>
     <g id="line2d_36">
      <g>
       <use xlink:href="#m0806e09dc6" x="302.133931" y="254.64351" style="fill: #ffffff; stroke: #ffffff; stroke-width: 0.6"/>
      </g>
     </g>
    </g>
    <g id="xtick_19">
     <g id="line2d_37">
      <path d="M 312.959045 254.64351 
L 312.959045 5.159662 
" clip-path="url(#p1180221d7e)" style="fill: none; stroke: #ffffff; stroke-opacity: 0.05; stroke-width: 0.8; stroke-linecap: square"/>
     </g>
     <g id="line2d_38">
      <g>
       <use xlink:href="#m0806e09dc6" x="312.959045" y="254.64351" style="fill: #ffffff; stroke: #ffffff; stroke-width: 0.6"/>
      </g>
     </g>
    </g>
    <g id="xtick_20">
     <g id="line2d_39">
      <path d="M 322.11155 254.64351 
L 322.11155 5.159662 
" clip-path="url(#p1180221d7e)" style="fill: none; stroke: #ffffff; stroke-opacity: 0.05; stroke-width: 0.8; stroke-linecap: square"/>
     </g>
     <g id="line2d_40">
      <g>
       <use xlink:href="#m0806e09dc6" x="322.11155" y="254.64351" style="fill: #ffffff; stroke: #ffffff; stroke-width: 0.6"/>
      </g>
     </g>
    </g>
    <g id="xtick_21">
     <g id="line2d_41">
      <path d="M 330.039809 254.64351 
L 330.039809 5.159662 
" clip-path="url(#p1180221d7e)" style="fill: none; stroke: #ffffff; stroke-opacity: 0.05; stroke-width: 0.8; stroke-linecap: square"/>
     </g>
     <g id="line2d_42">
      <g>
       <use xlink:href="#m0806e09dc6" x="330.039809" y="254.64351" style="fill: #ffffff; stroke: #ffffff; stroke-width: 0.6"/>
      </g>
     </g>
    </g>
    <g id="xtick_22">
     <g id="line2d_43">
      <path d="M 337.03303 254.64351 
L 337.03303 5.159662 
" clip-path="url(#p1180221d7e)" style="fill: none; stroke: #ffffff; stroke-opacity: 0.05; stroke-width: 0.8; stroke-linecap: square"/>
     </g>
     <g id="line2d_44">
      <g>
       <use xlink:href="#m0806e09dc6" x="337.03303" y="254.64351" style="fill: #ffffff; stroke: #ffffff; stroke-width: 0.6"/>
      </g>
     </g>
    </g>
    <g id="xtick_23">
     <g id="line2d_45">
      <path d="M 384.443427 254.64351 
L 384.443427 5.159662 
" clip-path="url(#p1180221d7e)" style="fill: none; stroke: #ffffff; stroke-opacity: 0.05; stroke-width: 0.8; stroke-linecap: square"/>
     </g>
     <g id="line2d_46">
      <g>
       <use xlink:href="#m0806e09dc6" x="384.443427" y="254.64351" style="fill: #ffffff; stroke: #ffffff; stroke-width: 0.6"/>
      </g>
     </g>
    </g>
    <g id="xtick_24">
     <g id="line2d_47">
      <path d="M 408.517412 254.64351 
L 408.517412 5.159662 
" clip-path="url(#p1180221d7e)" style="fill: none; stroke: #ffffff; stroke-opacity: 0.05; stroke-width: 0.8; stroke-linecap: square"/>
     </g>
     <g id="line2d_48">
      <g>
       <use xlink:href="#m0806e09dc6" x="408.517412" y="254.64351" style="fill: #ffffff; stroke: #ffffff; stroke-width: 0.6"/>
      </g>
     </g>
    </g>
    <g id="xtick_25">
     <g id="line2d_49">
      <path d="M 425.598176 254.64351 
L 425.598176 5.159662 
" clip-path="url(#p1180221d7e)" style="fill: none; stroke: #ffffff; stroke-opacity: 0.05; stroke-width: 0.8; stroke-linecap: square"/>
     </g>
     <g id="line2d_50">
      <g>
       <use xlink:href="#m0806e09dc6" x="425.598176" y="254.64351" style="fill: #ffffff; stroke: #ffffff; stroke-width: 0.6"/>
      </g>
     </g>
    </g>
    <g id="text_4">
     <!-- Wavelength (μm) -->
     <g style="fill: #ffffff" transform="translate(194.895313 282.920073) scale(0.1 -0.1)">
      <defs>
       <path id="DejaVuSans-57" d="M 213 4666 
L 850 4666 
L 1831 722 
L 2809 4666 
L 3519 4666 
L 4500 722 
L 5478 4666 
L 6119 4666 
L 4947 0 
L 4153 0 
L 3169 4050 
L 2175 0 
L 1381 0 
L 213 4666 
z
" transform="scale(0.015625)"/>
       <path id="DejaVuSans-61" d="M 2194 1759 
Q 1497 1759 1228 1600 
Q 959 1441 959 1056 
Q 959 750 1161 570 
Q 1363 391 1709 391 
Q 2188 391 2477 730 
Q 2766 1069 2766 1631 
L 2766 1759 
L 2194 1759 
z
M 3341 1997 
L 3341 0 
L 2766 0 
L 2766 531 
Q 2569 213 2275 61 
Q 1981 -91 1556 -91 
Q 1019 -91 701 211 
Q 384 513 384 1019 
Q 384 1609 779 1909 
Q 1175 2209 1959 2209 
L 2766 2209 
L 2766 2266 
Q 2766 2663 2505 2880 
Q 2244 3097 1772 3097 
Q 1472 3097 1187 3025 
Q 903 2953 641 2809 
L 641 3341 
Q 956 3463 1253 3523 
Q 1550 3584 1831 3584 
Q 2591 3584 2966 3190 
Q 3341 2797 3341 1997 
z
" transform="scale(0.015625)"/>
       <path id="DejaVuSans-76" d="M 191 3500 
L 800 3500 
L 1894 563 
L 2988 3500 
L 3597 3500 
L 2284 0 
L 1503 0 
L 191 3500 
z
" transform="scale(0.015625)"/>
       <path id="DejaVuSans-65" d="M 3597 1894 
L 3597 1613 
L 953 1613 
Q 991 1019 1311 708 
Q 1631 397 2203 397 
Q 2534 397 2845 478 
Q 3156 559 3463 722 
L 3463 178 
Q 3153 47 2828 -22 
Q 2503 -91 2169 -91 
Q 1331 -91 842 396 
Q 353 884 353 1716 
Q 353 2575 817 3079 
Q 1281 3584 2069 3584 
Q 2775 3584 3186 3129 
Q 3597 2675 3597 1894 
z
M 3022 2063 
Q 3016 2534 2758 2815 
Q 2500 3097 2075 3097 
Q 1594 3097 1305 2825 
Q 1016 2553 972 2059 
L 3022 2063 
z
" transform="scale(0.015625)"/>
       <path id="DejaVuSans-6c" d="M 603 4863 
L 1178 4863 
L 1178 0 
L 603 0 
L 603 4863 
z
" transform="scale(0.015625)"/>
       <path id="DejaVuSans-6e" d="M 3513 2113 
L 3513 0 
L 2938 0 
L 2938 2094 
Q 2938 2591 2744 2837 
Q 2550 3084 2163 3084 
Q 1697 3084 1428 2787 
Q 1159 2491 1159 1978 
L 1159 0 
L 581 0 
L 581 3500 
L 1159 3500 
L 1159 2956 
Q 1366 3272 1645 3428 
Q 1925 3584 2291 3584 
Q 2894 3584 3203 3211 
Q 3513 2838 3513 2113 
z
" transform="scale(0.015625)"/>
       <path id="DejaVuSans-67" d="M 2906 1791 
Q 2906 2416 2648 2759 
Q 2391 3103 1925 3103 
Q 1463 3103 1205 2759 
Q 947 2416 947 1791 
Q 947 1169 1205 825 
Q 1463 481 1925 481 
Q 2391 481 2648 825 
Q 2906 1169 2906 1791 
z
M 3481 434 
Q 3481 -459 3084 -895 
Q 2688 -1331 1869 -1331 
Q 1566 -1331 1297 -1286 
Q 1028 -1241 775 -1147 
L 775 -588 
Q 1028 -725 1275 -790 
Q 1522 -856 1778 -856 
Q 2344 -856 2625 -561 
Q 2906 -266 2906 331 
L 2906 616 
Q 2728 306 2450 153 
Q 2172 0 1784 0 
Q 1141 0 747 490 
Q 353 981 353 1791 
Q 353 2603 747 3093 
Q 1141 3584 1784 3584 
Q 2172 3584 2450 3431 
Q 2728 3278 2906 2969 
L 2906 3500 
L 3481 3500 
L 3481 434 
z
" transform="scale(0.015625)"/>
       <path id="DejaVuSans-74" d="M 1172 4494 
L 1172 3500 
L 2356 3500 
L 2356 3053 
L 1172 3053 
L 1172 1153 
Q 1172 725 1289 603 
Q 1406 481 1766 481 
L 2356 481 
L 2356 0 
L 1766 0 
Q 1100 0 847 248 
Q 594 497 594 1153 
L 594 3053 
L 172 3053 
L 172 3500 
L 594 3500 
L 594 4494 
L 1172 4494 
z
" transform="scale(0.015625)"/>
       <path id="DejaVuSans-68" d="M 3513 2113 
L 3513 0 
L 2938 0 
L 2938 2094 
Q 2938 2591 2744 2837 
Q 2550 3084 2163 3084 
Q 1697 3084 1428 2787 
Q 1159 2491 1159 1978 
L 1159 0 
L 581 0 
L 581 4863 
L 1159 4863 
L 1159 2956 
Q 1366 3272 1645 3428 
Q 1925 3584 2291 3584 
Q 2894 3584 3203 3211 
Q 3513 2838 3513 2113 
z
" transform="scale(0.015625)"/>
       <path id="DejaVuSans-20" transform="scale(0.015625)"/>
       <path id="DejaVuSans-28" d="M 1984 4856 
Q 1566 4138 1362 3434 
Q 1159 2731 1159 2009 
Q 1159 1288 1364 580 
Q 1569 -128 1984 -844 
L 1484 -844 
Q 1016 -109 783 600 
Q 550 1309 550 2009 
Q 550 2706 781 3412 
Q 1013 4119 1484 4856 
L 1984 4856 
z
" transform="scale(0.015625)"/>
       <path id="DejaVuSans-3bc" d="M 544 -1331 
L 544 3500 
L 1119 3500 
L 1119 1325 
Q 1119 872 1334 640 
Q 1550 409 1972 409 
Q 2434 409 2667 671 
Q 2900 934 2900 1459 
L 2900 3500 
L 3475 3500 
L 3475 806 
Q 3475 619 3529 530 
Q 3584 441 3700 441 
Q 3728 441 3778 458 
Q 3828 475 3916 513 
L 3916 50 
Q 3788 -22 3673 -56 
Q 3559 -91 3450 -91 
Q 3234 -91 3106 31 
Q 2978 153 2931 403 
Q 2775 156 2548 32 
Q 2322 -91 2016 -91 
Q 1697 -91 1473 31 
Q 1250 153 1119 397 
L 1119 -1331 
L 544 -1331 
z
" transform="scale(0.015625)"/>
       <path id="DejaVuSans-6d" d="M 3328 2828 
Q 3544 3216 3844 3400 
Q 4144 3584 4550 3584 
Q 5097 3584 5394 3201 
Q 5691 2819 5691 2113 
L 5691 0 
L 5113 0 
L 5113 2094 
Q 5113 2597 4934 2840 
Q 4756 3084 4391 3084 
Q 3944 3084 3684 2787 
Q 3425 2491 3425 1978 
L 3425 0 
L 2847 0 
L 2847 2094 
Q 2847 2600 2669 2842 
Q 2491 3084 2119 3084 
Q 1678 3084 1418 2786 
Q 1159 2488 1159 1978 
L 1159 0 
L 581 0 
L 581 3500 
L 1159 3500 
L 1159 2956 
Q 1356 3278 1631 3431 
Q 1906 3584 2284 3584 
Q 2666 3584 2933 3390 
Q 3200 3197 3328 2828 
z
" transform="scale(0.015625)"/>
       <path id="DejaVuSans-29" d="M 513 4856 
L 1013 4856 
Q 1481 4119 1714 3412 
Q 1947 2706 1947 2009 
Q 1947 1309 1714 600 
Q 1481 -109 1013 -844 
L 513 -844 
Q 928 -128 1133 580 
Q 1338 1288 1338 2009 
Q 1338 2731 1133 3434 
Q 928 4138 513 4856 
z
" transform="scale(0.015625)"/>
      </defs>
      <use xlink:href="#DejaVuSans-57"/>
      <use xlink:href="#DejaVuSans-61" x="92.501953"/>
      <use xlink:href="#DejaVuSans-76" x="153.78125"/>
      <use xlink:href="#DejaVuSans-65" x="212.960938"/>
      <use xlink:href="#DejaVuSans-6c" x="274.484375"/>
      <use xlink:href="#DejaVuSans-65" x="302.267578"/>
      <use xlink:href="#DejaVuSans-6e" x="363.791016"/>
      <use xlink:href="#DejaVuSans-67" x="427.169922"/>
      <use xlink:href="#DejaVuSans-74" x="490.646484"/>
      <use xlink:href="#DejaVuSans-68" x="529.855469"/>
      <use xlink:href="#DejaVuSans-20" x="593.234375"/>
      <use xlink:href="#DejaVuSans-28" x="625.021484"/>
      <use xlink:href="#DejaVuSans-3bc" x="664.035156"/>
      <use xlink:href="#DejaVuSans-6d" x="727.658203"/>
      <use xlink:href="#DejaVuSans-29" x="825.070312"/>
     </g>
    </g>
   </g>
   <g id="matplotlib.axis_2">
    <g id="ytick_1">
     <g id="line2d_51">
      <path d="M 47.20024 192.42285 
L 428.99976 192.42285 
" clip-path="url(#p1180221d7e)" style="fill: none; stroke: #ffffff; stroke-opacity: 0.1; stroke-width: 0.8; stroke-linecap: square"/>
     </g>
     <g id="line2d_52">
      <defs>
       <path id="mddb4ab33e5" d="M 0 0 
L -3.5 0 
" style="stroke: #ffffff; stroke-width: 0.8"/>
      </defs>
      <g>
       <use xlink:href="#mddb4ab33e5" x="47.20024" y="192.42285" style="fill: #ffffff; stroke: #ffffff; stroke-width: 0.8"/>
      </g>
     </g>
     <g id="text_5">
      <!-- $\mathdefault{10^{-1}}$ -->
      <g style="fill: #ffffff" transform="translate(16.70024 196.222068) scale(0.1 -0.1)">
       <use xlink:href="#DejaVuSans-31" transform="translate(0 0.684375)"/>
       <use xlink:href="#DejaVuSans-30" transform="translate(63.623047 0.684375)"/>
       <use xlink:href="#DejaVuSans-2212" transform="translate(128.203125 38.965625) scale(0.7)"/>
       <use xlink:href="#DejaVuSans-31" transform="translate(186.855469 38.965625) scale(0.7)"/>
      </g>
     </g>
    </g>
    <g id="ytick_2">
     <g id="line2d_53">
      <path d="M 47.20024 99.611843 
L 428.99976 99.611843 
" clip-path="url(#p1180221d7e)" style="fill: none; stroke: #ffffff; stroke-opacity: 0.1; stroke-width: 0.8; stroke-linecap: square"/>
     </g>
     <g id="line2d_54">
      <g>
       <use xlink:href="#mddb4ab33e5" x="47.20024" y="99.611843" style="fill: #ffffff; stroke: #ffffff; stroke-width: 0.8"/>
      </g>
     </g>
     <g id="text_6">
      <!-- $\mathdefault{10^{0}}$ -->
      <g style="fill: #ffffff" transform="translate(22.60024 103.411062) scale(0.1 -0.1)">
       <use xlink:href="#DejaVuSans-31" transform="translate(0 0.765625)"/>
       <use xlink:href="#DejaVuSans-30" transform="translate(63.623047 0.765625)"/>
       <use xlink:href="#DejaVuSans-30" transform="translate(128.203125 39.046875) scale(0.7)"/>
      </g>
     </g>
    </g>
    <g id="ytick_3">
     <g id="line2d_55">
      <path d="M 47.20024 6.800836 
L 428.99976 6.800836 
" clip-path="url(#p1180221d7e)" style="fill: none; stroke: #ffffff; stroke-opacity: 0.1; stroke-width: 0.8; stroke-linecap: square"/>
     </g>
     <g id="line2d_56">
      <g>
       <use xlink:href="#mddb4ab33e5" x="47.20024" y="6.800836" style="fill: #ffffff; stroke: #ffffff; stroke-width: 0.8"/>
      </g>
     </g>
     <g id="text_7">
      <!-- $\mathdefault{10^{1}}$ -->
      <g style="fill: #ffffff" transform="translate(22.60024 10.600055) scale(0.1 -0.1)">
       <use xlink:href="#DejaVuSans-31" transform="translate(0 0.684375)"/>
       <use xlink:href="#DejaVuSans-30" transform="translate(63.623047 0.684375)"/>
       <use xlink:href="#DejaVuSans-31" transform="translate(128.203125 38.965625) scale(0.7)"/>
      </g>
     </g>
    </g>
    <g id="ytick_4">
     <g id="line2d_57">
      <path d="M 47.20024 240.951752 
L 428.99976 240.951752 
" clip-path="url(#p1180221d7e)" style="fill: none; stroke: #ffffff; stroke-opacity: 0.05; stroke-width: 0.8; stroke-linecap: square"/>
     </g>
     <g id="line2d_58">
      <defs>
       <path id="mbafdf99995" d="M 0 0 
L -2 0 
" style="stroke: #ffffff; stroke-width: 0.6"/>
      </defs>
      <g>
       <use xlink:href="#mbafdf99995" x="47.20024" y="240.951752" style="fill: #ffffff; stroke: #ffffff; stroke-width: 0.6"/>
      </g>
     </g>
    </g>
    <g id="ytick_5">
     <g id="line2d_59">
      <path d="M 47.20024 229.356062 
L 428.99976 229.356062 
" clip-path="url(#p1180221d7e)" style="fill: none; stroke: #ffffff; stroke-opacity: 0.05; stroke-width: 0.8; stroke-linecap: square"/>
     </g>
     <g id="line2d_60">
      <g>
       <use xlink:href="#mbafdf99995" x="47.20024" y="229.356062" style="fill: #ffffff; stroke: #ffffff; stroke-width: 0.6"/>
      </g>
     </g>
    </g>
    <g id="ytick_6">
     <g id="line2d_61">
      <path d="M 47.20024 220.361746 
L 428.99976 220.361746 
" clip-path="url(#p1180221d7e)" style="fill: none; stroke: #ffffff; stroke-opacity: 0.05; stroke-width: 0.8; stroke-linecap: square"/>
     </g>
     <g id="line2d_62">
      <g>
       <use xlink:href="#mbafdf99995" x="47.20024" y="220.361746" style="fill: #ffffff; stroke: #ffffff; stroke-width: 0.6"/>
      </g>
     </g>
    </g>
    <g id="ytick_7">
     <g id="line2d_63">
      <path d="M 47.20024 213.012855 
L 428.99976 213.012855 
" clip-path="url(#p1180221d7e)" style="fill: none; stroke: #ffffff; stroke-opacity: 0.05; stroke-width: 0.8; stroke-linecap: square"/>
     </g>
     <g id="line2d_64">
      <g>
       <use xlink:href="#mbafdf99995" x="47.20024" y="213.012855" style="fill: #ffffff; stroke: #ffffff; stroke-width: 0.6"/>
      </g>
     </g>
    </g>
    <g id="ytick_8">
     <g id="line2d_65">
      <path d="M 47.20024 206.799456 
L 428.99976 206.799456 
" clip-path="url(#p1180221d7e)" style="fill: none; stroke: #ffffff; stroke-opacity: 0.05; stroke-width: 0.8; stroke-linecap: square"/>
     </g>
     <g id="line2d_66">
      <g>
       <use xlink:href="#mbafdf99995" x="47.20024" y="206.799456" style="fill: #ffffff; stroke: #ffffff; stroke-width: 0.6"/>
      </g>
     </g>
    </g>
    <g id="ytick_9">
     <g id="line2d_67">
      <path d="M 47.20024 201.417165 
L 428.99976 201.417165 
" clip-path="url(#p1180221d7e)" style="fill: none; stroke: #ffffff; stroke-opacity: 0.05; stroke-width: 0.8; stroke-linecap: square"/>
     </g>
     <g id="line2d_68">
      <g>
       <use xlink:href="#mbafdf99995" x="47.20024" y="201.417165" style="fill: #ffffff; stroke: #ffffff; stroke-width: 0.6"/>
      </g>
     </g>
    </g>
    <g id="ytick_10">
     <g id="line2d_69">
      <path d="M 47.20024 196.669648 
L 428.99976 196.669648 
" clip-path="url(#p1180221d7e)" style="fill: none; stroke: #ffffff; stroke-opacity: 0.05; stroke-width: 0.8; stroke-linecap: square"/>
     </g>
     <g id="line2d_70">
      <g>
       <use xlink:href="#mbafdf99995" x="47.20024" y="196.669648" style="fill: #ffffff; stroke: #ffffff; stroke-width: 0.6"/>
      </g>
     </g>
    </g>
    <g id="ytick_11">
     <g id="line2d_71">
      <path d="M 47.20024 164.483953 
L 428.99976 164.483953 
" clip-path="url(#p1180221d7e)" style="fill: none; stroke: #ffffff; stroke-opacity: 0.05; stroke-width: 0.8; stroke-linecap: square"/>
     </g>
     <g id="line2d_72">
      <g>
       <use xlink:href="#mbafdf99995" x="47.20024" y="164.483953" style="fill: #ffffff; stroke: #ffffff; stroke-width: 0.6"/>
      </g>
     </g>
    </g>
    <g id="ytick_12">
     <g id="line2d_73">
      <path d="M 47.20024 148.140746 
L 428.99976 148.140746 
" clip-path="url(#p1180221d7e)" style="fill: none; stroke: #ffffff; stroke-opacity: 0.05; stroke-width: 0.8; stroke-linecap: square"/>
     </g>
     <g id="line2d_74">
      <g>
       <use xlink:href="#mbafdf99995" x="47.20024" y="148.140746" style="fill: #ffffff; stroke: #ffffff; stroke-width: 0.6"/>
      </g>
     </g>
    </g>
    <g id="ytick_13">
     <g id="line2d_75">
      <path d="M 47.20024 136.545056 
L 428.99976 136.545056 
" clip-path="url(#p1180221d7e)" style="fill: none; stroke: #ffffff; stroke-opacity: 0.05; stroke-width: 0.8; stroke-linecap: square"/>
     </g>
     <g id="line2d_76">
      <g>
       <use xlink:href="#mbafdf99995" x="47.20024" y="136.545056" style="fill: #ffffff; stroke: #ffffff; stroke-width: 0.6"/>
      </g>
     </g>
    </g>
    <g id="ytick_14">
     <g id="line2d_77">
      <path d="M 47.20024 127.55074 
L 428.99976 127.55074 
" clip-path="url(#p1180221d7e)" style="fill: none; stroke: #ffffff; stroke-opacity: 0.05; stroke-width: 0.8; stroke-linecap: square"/>
     </g>
     <g id="line2d_78">
      <g>
       <use xlink:href="#mbafdf99995" x="47.20024" y="127.55074" style="fill: #ffffff; stroke: #ffffff; stroke-width: 0.6"/>
      </g>
     </g>
    </g>
    <g id="ytick_15">
     <g id="line2d_79">
      <path d="M 47.20024 120.201849 
L 428.99976 120.201849 
" clip-path="url(#p1180221d7e)" style="fill: none; stroke: #ffffff; stroke-opacity: 0.05; stroke-width: 0.8; stroke-linecap: square"/>
     </g>
     <g id="line2d_80">
      <g>
       <use xlink:href="#mbafdf99995" x="47.20024" y="120.201849" style="fill: #ffffff; stroke: #ffffff; stroke-width: 0.6"/>
      </g>
     </g>
    </g>
    <g id="ytick_16">
     <g id="line2d_81">
      <path d="M 47.20024 113.98845 
L 428.99976 113.98845 
" clip-path="url(#p1180221d7e)" style="fill: none; stroke: #ffffff; stroke-opacity: 0.05; stroke-width: 0.8; stroke-linecap: square"/>
     </g>
     <g id="line2d_82">
      <g>
       <use xlink:href="#mbafdf99995" x="47.20024" y="113.98845" style="fill: #ffffff; stroke: #ffffff; stroke-width: 0.6"/>
      </g>
     </g>
    </g>
    <g id="ytick_17">
     <g id="line2d_83">
      <path d="M 47.20024 108.606159 
L 428.99976 108.606159 
" clip-path="url(#p1180221d7e)" style="fill: none; stroke: #ffffff; stroke-opacity: 0.05; stroke-width: 0.8; stroke-linecap: square"/>
     </g>
     <g id="line2d_84">
      <g>
       <use xlink:href="#mbafdf99995" x="47.20024" y="108.606159" style="fill: #ffffff; stroke: #ffffff; stroke-width: 0.6"/>
      </g>
     </g>
    </g>
    <g id="ytick_18">
     <g id="line2d_85">
      <path d="M 47.20024 103.858642 
L 428.99976 103.858642 
" clip-path="url(#p1180221d7e)" style="fill: none; stroke: #ffffff; stroke-opacity: 0.05; stroke-width: 0.8; stroke-linecap: square"/>
     </g>
     <g id="line2d_86">
      <g>
       <use xlink:href="#mbafdf99995" x="47.20024" y="103.858642" style="fill: #ffffff; stroke: #ffffff; stroke-width: 0.6"/>
      </g>
     </g>
    </g>
    <g id="ytick_19">
     <g id="line2d_87">
      <path d="M 47.20024 71.672946 
L 428.99976 71.672946 
" clip-path="url(#p1180221d7e)" style="fill: none; stroke: #ffffff; stroke-opacity: 0.05; stroke-width: 0.8; stroke-linecap: square"/>
     </g>
     <g id="line2d_88">
      <g>
       <use xlink:href="#mbafdf99995" x="47.20024" y="71.672946" style="fill: #ffffff; stroke: #ffffff; stroke-width: 0.6"/>
      </g>
     </g>
    </g>
    <g id="ytick_20">
     <g id="line2d_89">
      <path d="M 47.20024 55.329739 
L 428.99976 55.329739 
" clip-path="url(#p1180221d7e)" style="fill: none; stroke: #ffffff; stroke-opacity: 0.05; stroke-width: 0.8; stroke-linecap: square"/>
     </g>
     <g id="line2d_90">
      <g>
       <use xlink:href="#mbafdf99995" x="47.20024" y="55.329739" style="fill: #ffffff; stroke: #ffffff; stroke-width: 0.6"/>
      </g>
     </g>
    </g>
    <g id="ytick_21">
     <g id="line2d_91">
      <path d="M 47.20024 43.734049 
L 428.99976 43.734049 
" clip-path="url(#p1180221d7e)" style="fill: none; stroke: #ffffff; stroke-opacity: 0.05; stroke-width: 0.8; stroke-linecap: square"/>
     </g>
     <g id="line2d_92">
      <g>
       <use xlink:href="#mbafdf99995" x="47.20024" y="43.734049" style="fill: #ffffff; stroke: #ffffff; stroke-width: 0.6"/>
      </g>
     </g>
    </g>
    <g id="ytick_22">
     <g id="line2d_93">
      <path d="M 47.20024 34.739733 
L 428.99976 34.739733 
" clip-path="url(#p1180221d7e)" style="fill: none; stroke: #ffffff; stroke-opacity: 0.05; stroke-width: 0.8; stroke-linecap: square"/>
     </g>
     <g id="line2d_94">
      <g>
       <use xlink:href="#mbafdf99995" x="47.20024" y="34.739733" style="fill: #ffffff; stroke: #ffffff; stroke-width: 0.6"/>
      </g>
     </g>
    </g>
    <g id="ytick_23">
     <g id="line2d_95">
      <path d="M 47.20024 27.390842 
L 428.99976 27.390842 
" clip-path="url(#p1180221d7e)" style="fill: none; stroke: #ffffff; stroke-opacity: 0.05; stroke-width: 0.8; stroke-linecap: square"/>
     </g>
     <g id="line2d_96">
      <g>
       <use xlink:href="#mbafdf99995" x="47.20024" y="27.390842" style="fill: #ffffff; stroke: #ffffff; stroke-width: 0.6"/>
      </g>
     </g>
    </g>
    <g id="ytick_24">
     <g id="line2d_97">
      <path d="M 47.20024 21.177443 
L 428.99976 21.177443 
" clip-path="url(#p1180221d7e)" style="fill: none; stroke: #ffffff; stroke-opacity: 0.05; stroke-width: 0.8; stroke-linecap: square"/>
     </g>
     <g id="line2d_98">
      <g>
       <use xlink:href="#mbafdf99995" x="47.20024" y="21.177443" style="fill: #ffffff; stroke: #ffffff; stroke-width: 0.6"/>
      </g>
     </g>
    </g>
    <g id="ytick_25">
     <g id="line2d_99">
      <path d="M 47.20024 15.795152 
L 428.99976 15.795152 
" clip-path="url(#p1180221d7e)" style="fill: none; stroke: #ffffff; stroke-opacity: 0.05; stroke-width: 0.8; stroke-linecap: square"/>
     </g>
     <g id="line2d_100">
      <g>
       <use xlink:href="#mbafdf99995" x="47.20024" y="15.795152" style="fill: #ffffff; stroke: #ffffff; stroke-width: 0.6"/>
      </g>
     </g>
    </g>
    <g id="ytick_26">
     <g id="line2d_101">
      <path d="M 47.20024 11.047635 
L 428.99976 11.047635 
" clip-path="url(#p1180221d7e)" style="fill: none; stroke: #ffffff; stroke-opacity: 0.05; stroke-width: 0.8; stroke-linecap: square"/>
     </g>
     <g id="line2d_102">
      <g>
       <use xlink:href="#mbafdf99995" x="47.20024" y="11.047635" style="fill: #ffffff; stroke: #ffffff; stroke-width: 0.6"/>
      </g>
     </g>
    </g>
    <g id="text_8">
     <!-- Extinction cross-section $C_{\rm ext}$ (arbitrary units) -->
     <g style="fill: #ffffff" transform="translate(10.60024 241.351586) rotate(-90) scale(0.1 -0.1)">
      <defs>
       <path id="DejaVuSans-45" d="M 628 4666 
L 3578 4666 
L 3578 4134 
L 1259 4134 
L 1259 2753 
L 3481 2753 
L 3481 2222 
L 1259 2222 
L 1259 531 
L 3634 531 
L 3634 0 
L 628 0 
L 628 4666 
z
" transform="scale(0.015625)"/>
       <path id="DejaVuSans-78" d="M 3513 3500 
L 2247 1797 
L 3578 0 
L 2900 0 
L 1881 1375 
L 863 0 
L 184 0 
L 1544 1831 
L 300 3500 
L 978 3500 
L 1906 2253 
L 2834 3500 
L 3513 3500 
z
" transform="scale(0.015625)"/>
       <path id="DejaVuSans-69" d="M 603 3500 
L 1178 3500 
L 1178 0 
L 603 0 
L 603 3500 
z
M 603 4863 
L 1178 4863 
L 1178 4134 
L 603 4134 
L 603 4863 
z
" transform="scale(0.015625)"/>
       <path id="DejaVuSans-63" d="M 3122 3366 
L 3122 2828 
Q 2878 2963 2633 3030 
Q 2388 3097 2138 3097 
Q 1578 3097 1268 2742 
Q 959 2388 959 1747 
Q 959 1106 1268 751 
Q 1578 397 2138 397 
Q 2388 397 2633 464 
Q 2878 531 3122 666 
L 3122 134 
Q 2881 22 2623 -34 
Q 2366 -91 2075 -91 
Q 1284 -91 818 406 
Q 353 903 353 1747 
Q 353 2603 823 3093 
Q 1294 3584 2113 3584 
Q 2378 3584 2631 3529 
Q 2884 3475 3122 3366 
z
" transform="scale(0.015625)"/>
       <path id="DejaVuSans-6f" d="M 1959 3097 
Q 1497 3097 1228 2736 
Q 959 2375 959 1747 
Q 959 1119 1226 758 
Q 1494 397 1959 397 
Q 2419 397 2687 759 
Q 2956 1122 2956 1747 
Q 2956 2369 2687 2733 
Q 2419 3097 1959 3097 
z
M 1959 3584 
Q 2709 3584 3137 3096 
Q 3566 2609 3566 1747 
Q 3566 888 3137 398 
Q 2709 -91 1959 -91 
Q 1206 -91 779 398 
Q 353 888 353 1747 
Q 353 2609 779 3096 
Q 1206 3584 1959 3584 
z
" transform="scale(0.015625)"/>
       <path id="DejaVuSans-72" d="M 2631 2963 
Q 2534 3019 2420 3045 
Q 2306 3072 2169 3072 
Q 1681 3072 1420 2755 
Q 1159 2438 1159 1844 
L 1159 0 
L 581 0 
L 581 3500 
L 1159 3500 
L 1159 2956 
Q 1341 3275 1631 3429 
Q 1922 3584 2338 3584 
Q 2397 3584 2469 3576 
Q 2541 3569 2628 3553 
L 2631 2963 
z
" transform="scale(0.015625)"/>
       <path id="DejaVuSans-73" d="M 2834 3397 
L 2834 2853 
Q 2591 2978 2328 3040 
Q 2066 3103 1784 3103 
Q 1356 3103 1142 2972 
Q 928 2841 928 2578 
Q 928 2378 1081 2264 
Q 1234 2150 1697 2047 
L 1894 2003 
Q 2506 1872 2764 1633 
Q 3022 1394 3022 966 
Q 3022 478 2636 193 
Q 2250 -91 1575 -91 
Q 1294 -91 989 -36 
Q 684 19 347 128 
L 347 722 
Q 666 556 975 473 
Q 1284 391 1588 391 
Q 1994 391 2212 530 
Q 2431 669 2431 922 
Q 2431 1156 2273 1281 
Q 2116 1406 1581 1522 
L 1381 1569 
Q 847 1681 609 1914 
Q 372 2147 372 2553 
Q 372 3047 722 3315 
Q 1072 3584 1716 3584 
Q 2034 3584 2315 3537 
Q 2597 3491 2834 3397 
z
" transform="scale(0.015625)"/>
       <path id="DejaVuSans-2d" d="M 313 2009 
L 1997 2009 
L 1997 1497 
L 313 1497 
L 313 2009 
z
" transform="scale(0.015625)"/>
       <path id="DejaVuSans-Oblique-43" d="M 4447 4306 
L 4319 3641 
Q 4019 3944 3683 4091 
Q 3347 4238 2956 4238 
Q 2422 4238 2017 3981 
Q 1613 3725 1319 3200 
Q 1131 2863 1032 2486 
Q 934 2109 934 1728 
Q 934 1091 1264 756 
Q 1594 422 2222 422 
Q 2656 422 3056 561 
Q 3456 700 3834 978 
L 3688 231 
Q 3316 72 2936 -9 
Q 2556 -91 2175 -91 
Q 1278 -91 773 396 
Q 269 884 269 1753 
Q 269 2309 461 2846 
Q 653 3384 1013 3828 
Q 1394 4300 1883 4525 
Q 2372 4750 3022 4750 
Q 3422 4750 3780 4639 
Q 4138 4528 4447 4306 
z
" transform="scale(0.015625)"/>
       <path id="DejaVuSans-62" d="M 3116 1747 
Q 3116 2381 2855 2742 
Q 2594 3103 2138 3103 
Q 1681 3103 1420 2742 
Q 1159 2381 1159 1747 
Q 1159 1113 1420 752 
Q 1681 391 2138 391 
Q 2594 391 2855 752 
Q 3116 1113 3116 1747 
z
M 1159 2969 
Q 1341 3281 1617 3432 
Q 1894 3584 2278 3584 
Q 2916 3584 3314 3078 
Q 3713 2572 3713 1747 
Q 3713 922 3314 415 
Q 2916 -91 2278 -91 
Q 1894 -91 1617 61 
Q 1341 213 1159 525 
L 1159 0 
L 581 0 
L 581 4863 
L 1159 4863 
L 1159 2969 
z
" transform="scale(0.015625)"/>
       <path id="DejaVuSans-79" d="M 2059 -325 
Q 1816 -950 1584 -1140 
Q 1353 -1331 966 -1331 
L 506 -1331 
L 506 -850 
L 844 -850 
Q 1081 -850 1212 -737 
Q 1344 -625 1503 -206 
L 1606 56 
L 191 3500 
L 800 3500 
L 1894 763 
L 2988 3500 
L 3597 3500 
L 2059 -325 
z
" transform="scale(0.015625)"/>
       <path id="DejaVuSans-75" d="M 544 1381 
L 544 3500 
L 1119 3500 
L 1119 1403 
Q 1119 906 1312 657 
Q 1506 409 1894 409 
Q 2359 409 2629 706 
Q 2900 1003 2900 1516 
L 2900 3500 
L 3475 3500 
L 3475 0 
L 2900 0 
L 2900 538 
Q 2691 219 2414 64 
Q 2138 -91 1772 -91 
Q 1169 -91 856 284 
Q 544 659 544 1381 
z
M 1991 3584 
L 1991 3584 
z
" transform="scale(0.015625)"/>
      </defs>
      <use xlink:href="#DejaVuSans-45" transform="translate(0 0.015625)"/>
      <use xlink:href="#DejaVuSans-78" transform="translate(63.183594 0.015625)"/>
      <use xlink:href="#DejaVuSans-74" transform="translate(122.363281 0.015625)"/>
      <use xlink:href="#DejaVuSans-69" transform="translate(161.572266 0.015625)"/>
      <use xlink:href="#DejaVuSans-6e" transform="translate(189.355469 0.015625)"/>
      <use xlink:href="#DejaVuSans-63" transform="translate(252.734375 0.015625)"/>
      <use xlink:href="#DejaVuSans-74" transform="translate(307.714844 0.015625)"/>
      <use xlink:href="#DejaVuSans-69" transform="translate(346.923828 0.015625)"/>
      <use xlink:href="#DejaVuSans-6f" transform="translate(374.707031 0.015625)"/>
      <use xlink:href="#DejaVuSans-6e" transform="translate(435.888672 0.015625)"/>
      <use xlink:href="#DejaVuSans-20" transform="translate(499.267578 0.015625)"/>
      <use xlink:href="#DejaVuSans-63" transform="translate(531.054688 0.015625)"/>
      <use xlink:href="#DejaVuSans-72" transform="translate(586.035156 0.015625)"/>
      <use xlink:href="#DejaVuSans-6f" transform="translate(627.148438 0.015625)"/>
      <use xlink:href="#DejaVuSans-73" transform="translate(688.330078 0.015625)"/>
      <use xlink:href="#DejaVuSans-73" transform="translate(740.429688 0.015625)"/>
      <use xlink:href="#DejaVuSans-2d" transform="translate(792.529297 0.015625)"/>
      <use xlink:href="#DejaVuSans-73" transform="translate(828.613281 0.015625)"/>
      <use xlink:href="#DejaVuSans-65" transform="translate(880.712891 0.015625)"/>
      <use xlink:href="#DejaVuSans-63" transform="translate(942.236328 0.015625)"/>
      <use xlink:href="#DejaVuSans-74" transform="translate(997.216797 0.015625)"/>
      <use xlink:href="#DejaVuSans-69" transform="translate(1036.425781 0.015625)"/>
      <use xlink:href="#DejaVuSans-6f" transform="translate(1064.208984 0.015625)"/>
      <use xlink:href="#DejaVuSans-6e" transform="translate(1125.390625 0.015625)"/>
      <use xlink:href="#DejaVuSans-20" transform="translate(1188.769531 0.015625)"/>
      <use xlink:href="#DejaVuSans-Oblique-43" transform="translate(1220.556641 0.015625)"/>
      <use xlink:href="#DejaVuSans-65" transform="translate(1290.380859 -16.390625) scale(0.7)"/>
      <use xlink:href="#DejaVuSans-78" transform="translate(1333.447266 -16.390625) scale(0.7)"/>
      <use xlink:href="#DejaVuSans-74" transform="translate(1374.873047 -16.390625) scale(0.7)"/>
      <use xlink:href="#DejaVuSans-20" transform="translate(1405.053711 0.015625)"/>
      <use xlink:href="#DejaVuSans-28" transform="translate(1436.84082 0.015625)"/>
      <use xlink:href="#DejaVuSans-61" transform="translate(1475.854492 0.015625)"/>
      <use xlink:href="#DejaVuSans-72" transform="translate(1537.133789 0.015625)"/>
      <use xlink:href="#DejaVuSans-62" transform="translate(1578.24707 0.015625)"/>
      <use xlink:href="#DejaVuSans-69" transform="translate(1641.723633 0.015625)"/>
      <use xlink:href="#DejaVuSans-74" transform="translate(1669.506836 0.015625)"/>
      <use xlink:href="#DejaVuSans-72" transform="translate(1708.71582 0.015625)"/>
      <use xlink:href="#DejaVuSans-61" transform="translate(1749.829102 0.015625)"/>
      <use xlink:href="#DejaVuSans-72" transform="translate(1811.108398 0.015625)"/>
      <use xlink:href="#DejaVuSans-79" transform="translate(1852.22168 0.015625)"/>
      <use xlink:href="#DejaVuSans-20" transform="translate(1911.401367 0.015625)"/>
      <use xlink:href="#DejaVuSans-75" transform="translate(1943.188477 0.015625)"/>
      <use xlink:href="#DejaVuSans-6e" transform="translate(2006.567383 0.015625)"/>
      <use xlink:href="#DejaVuSans-69" transform="translate(2069.946289 0.015625)"/>
      <use xlink:href="#DejaVuSans-74" transform="translate(2097.729492 0.015625)"/>
      <use xlink:href="#DejaVuSans-73" transform="translate(2136.938477 0.015625)"/>
      <use xlink:href="#DejaVuSans-29" transform="translate(2189.038086 0.015625)"/>
     </g>
    </g>
   </g>
   <g id="line2d_103">
    <path d="M 64.554764 16.499837 
L 70.130514 17.449035 
L 74.312327 18.344617 
L 78.49414 19.598716 
L 81.282015 20.658094 
L 84.069891 21.974341 
L 89.645641 24.859409 
L 91.039579 25.834762 
L 92.433516 26.953051 
L 95.221392 29.629004 
L 98.009267 32.754855 
L 102.19108 37.495643 
L 109.160768 45.057247 
L 111.948643 47.523084 
L 116.130456 50.771203 
L 123.100145 55.942609 
L 141.221334 69.735962 
L 146.797084 74.318314 
L 150.978897 77.988067 
L 155.16071 81.94203 
L 159.342523 86.170516 
L 163.524336 90.688439 
L 169.100087 97.187838 
L 173.2819 102.410088 
L 178.85765 109.759675 
L 183.039463 115.544392 
L 191.403089 127.585502 
L 208.130341 152.110983 
L 212.312154 157.493936 
L 215.100029 160.901486 
L 222.069717 168.734627 
L 224.857592 171.657497 
L 227.645468 174.708871 
L 231.827281 178.971046 
L 236.009094 182.840177 
L 238.796969 185.17772 
L 241.584844 187.236393 
L 244.372719 188.994411 
L 247.160595 190.433066 
L 249.94847 191.552164 
L 254.130283 192.83029 
L 258.312096 193.825257 
L 261.099971 194.319895 
L 263.887846 194.680843 
L 266.675722 194.837962 
L 269.463597 194.849516 
L 273.64541 194.675964 
L 277.827223 194.896751 
L 279.22116 192.491572 
L 280.615098 193.320905 
L 282.009036 195.443708 
L 283.402973 197.038915 
L 286.190849 198.037043 
L 290.372662 199.226864 
L 293.160537 199.798578 
L 295.948412 200.191886 
L 300.130225 200.520719 
L 305.705976 200.917682 
L 312.675664 201.707603 
L 319.645352 202.746737 
L 321.03929 202.464895 
L 322.433227 203.25988 
L 326.61504 204.076759 
L 328.008978 204.445292 
L 329.402916 204.430114 
L 330.796853 202.845679 
L 332.190791 199.17055 
L 333.584728 194.987574 
L 334.978666 192.161799 
L 336.372604 185.520696 
L 337.766541 179.784531 
L 339.160479 174.703577 
L 340.554417 171.808555 
L 341.948354 171.079374 
L 343.342292 172.22104 
L 344.73623 174.966493 
L 348.918042 184.523197 
L 353.099855 196.702762 
L 355.887731 205.089383 
L 357.281668 207.483116 
L 358.675606 208.238065 
L 361.463481 209.378419 
L 362.857419 209.709813 
L 364.251357 209.692778 
L 365.645294 209.226212 
L 367.039232 208.209633 
L 368.433169 206.698935 
L 374.00892 199.550995 
L 375.402858 198.466306 
L 376.796795 197.88829 
L 378.190733 197.811103 
L 379.584671 198.217071 
L 380.978608 199.12818 
L 382.372546 200.568294 
L 386.554359 205.67649 
L 389.342234 208.753257 
L 390.736172 210.557437 
L 393.524047 214.847605 
L 399.099798 223.805838 
L 408.857361 238.972577 
L 411.645236 243.303335 
L 411.645236 243.303335 
" clip-path="url(#p1180221d7e)" style="fill: none; stroke: #8dd3c7; stroke-width: 1.5; stroke-linecap: square"/>
   </g>
   <g id="patch_4">
    <path d="M 47.20024 254.64351 
L 47.20024 5.159662 
" style="fill: none; stroke: #ffffff; stroke-width: 0.8; stroke-linejoin: miter; stroke-linecap: square"/>
   </g>
   <g id="patch_5">
    <path d="M 428.99976 254.64351 
L 428.99976 5.159662 
" style="fill: none; stroke: #ffffff; stroke-width: 0.8; stroke-linejoin: miter; stroke-linecap: square"/>
   </g>
   <g id="patch_6">
    <path d="M 47.20024 254.64351 
L 428.99976 254.64351 
" style="fill: none; stroke: #ffffff; stroke-width: 0.8; stroke-linejoin: miter; stroke-linecap: square"/>
   </g>
   <g id="patch_7">
    <path d="M 47.20024 5.159662 
L 428.99976 5.159662 
" style="fill: none; stroke: #ffffff; stroke-width: 0.8; stroke-linejoin: miter; stroke-linecap: square"/>
   </g>
   <g id="text_9">
    <!-- visible -->
    <g style="fill: #81b1d2; opacity: 0.5" transform="translate(153.328604 250.597222) scale(0.1 -0.1)">
     <use xlink:href="#DejaVuSans-76"/>
     <use xlink:href="#DejaVuSans-69" x="59.179688"/>
     <use xlink:href="#DejaVuSans-73" x="86.962891"/>
     <use xlink:href="#DejaVuSans-69" x="139.0625"/>
     <use xlink:href="#DejaVuSans-62" x="166.845703"/>
     <use xlink:href="#DejaVuSans-6c" x="230.322266"/>
     <use xlink:href="#DejaVuSans-65" x="258.105469"/>
    </g>
   </g>
   <g id="text_10">
    <!-- 20% porosity -->
    <g style="fill: #ffffff" transform="translate(344.206659 25.232292) scale(0.1 -0.1)">
     <defs>
      <path id="DejaVuSans-32" d="M 1228 531 
L 3431 531 
L 3431 0 
L 469 0 
L 469 531 
Q 828 903 1448 1529 
Q 2069 2156 2228 2338 
Q 2531 2678 2651 2914 
Q 2772 3150 2772 3378 
Q 2772 3750 2511 3984 
Q 2250 4219 1831 4219 
Q 1534 4219 1204 4116 
Q 875 4013 500 3803 
L 500 4441 
Q 881 4594 1212 4672 
Q 1544 4750 1819 4750 
Q 2544 4750 2975 4387 
Q 3406 4025 3406 3419 
Q 3406 3131 3298 2873 
Q 3191 2616 2906 2266 
Q 2828 2175 2409 1742 
Q 1991 1309 1228 531 
z
" transform="scale(0.015625)"/>
      <path id="DejaVuSans-25" d="M 4653 2053 
Q 4381 2053 4226 1822 
Q 4072 1591 4072 1178 
Q 4072 772 4226 539 
Q 4381 306 4653 306 
Q 4919 306 5073 539 
Q 5228 772 5228 1178 
Q 5228 1588 5073 1820 
Q 4919 2053 4653 2053 
z
M 4653 2450 
Q 5147 2450 5437 2106 
Q 5728 1763 5728 1178 
Q 5728 594 5436 251 
Q 5144 -91 4653 -91 
Q 4153 -91 3862 251 
Q 3572 594 3572 1178 
Q 3572 1766 3864 2108 
Q 4156 2450 4653 2450 
z
M 1428 4353 
Q 1159 4353 1004 4120 
Q 850 3888 850 3481 
Q 850 3069 1003 2837 
Q 1156 2606 1428 2606 
Q 1700 2606 1854 2837 
Q 2009 3069 2009 3481 
Q 2009 3884 1853 4118 
Q 1697 4353 1428 4353 
z
M 4250 4750 
L 4750 4750 
L 1831 -91 
L 1331 -91 
L 4250 4750 
z
M 1428 4750 
Q 1922 4750 2215 4408 
Q 2509 4066 2509 3481 
Q 2509 2891 2217 2550 
Q 1925 2209 1428 2209 
Q 931 2209 642 2551 
Q 353 2894 353 3481 
Q 353 4063 643 4406 
Q 934 4750 1428 4750 
z
" transform="scale(0.015625)"/>
      <path id="DejaVuSans-70" d="M 1159 525 
L 1159 -1331 
L 581 -1331 
L 581 3500 
L 1159 3500 
L 1159 2969 
Q 1341 3281 1617 3432 
Q 1894 3584 2278 3584 
Q 2916 3584 3314 3078 
Q 3713 2572 3713 1747 
Q 3713 922 3314 415 
Q 2916 -91 2278 -91 
Q 1894 -91 1617 61 
Q 1341 213 1159 525 
z
M 3116 1747 
Q 3116 2381 2855 2742 
Q 2594 3103 2138 3103 
Q 1681 3103 1420 2742 
Q 1159 2381 1159 1747 
Q 1159 1113 1420 752 
Q 1681 391 2138 391 
Q 2594 391 2855 752 
Q 3116 1113 3116 1747 
z
" transform="scale(0.015625)"/>
     </defs>
     <use xlink:href="#DejaVuSans-32"/>
     <use xlink:href="#DejaVuSans-30" x="63.623047"/>
     <use xlink:href="#DejaVuSans-25" x="127.246094"/>
     <use xlink:href="#DejaVuSans-20" x="222.265625"/>
     <use xlink:href="#DejaVuSans-70" x="254.052734"/>
     <use xlink:href="#DejaVuSans-6f" x="317.529297"/>
     <use xlink:href="#DejaVuSans-72" x="378.710938"/>
     <use xlink:href="#DejaVuSans-6f" x="417.574219"/>
     <use xlink:href="#DejaVuSans-73" x="478.755859"/>
     <use xlink:href="#DejaVuSans-69" x="530.855469"/>
     <use xlink:href="#DejaVuSans-74" x="558.638672"/>
     <use xlink:href="#DejaVuSans-79" x="597.847656"/>
    </g>
    <!-- No Fe inclusions -->
    <g style="fill: #ffffff" transform="translate(329.216034 36.430105) scale(0.1 -0.1)">
     <defs>
      <path id="DejaVuSans-4e" d="M 628 4666 
L 1478 4666 
L 3547 763 
L 3547 4666 
L 4159 4666 
L 4159 0 
L 3309 0 
L 1241 3903 
L 1241 0 
L 628 0 
L 628 4666 
z
" transform="scale(0.015625)"/>
      <path id="DejaVuSans-46" d="M 628 4666 
L 3309 4666 
L 3309 4134 
L 1259 4134 
L 1259 2759 
L 3109 2759 
L 3109 2228 
L 1259 2228 
L 1259 0 
L 628 0 
L 628 4666 
z
" transform="scale(0.015625)"/>
     </defs>
     <use xlink:href="#DejaVuSans-4e"/>
     <use xlink:href="#DejaVuSans-6f" x="74.804688"/>
     <use xlink:href="#DejaVuSans-20" x="135.986328"/>
     <use xlink:href="#DejaVuSans-46" x="167.773438"/>
     <use xlink:href="#DejaVuSans-65" x="219.792969"/>
     <use xlink:href="#DejaVuSans-20" x="281.316406"/>
     <use xlink:href="#DejaVuSans-69" x="313.103516"/>
     <use xlink:href="#DejaVuSans-6e" x="340.886719"/>
     <use xlink:href="#DejaVuSans-63" x="404.265625"/>
     <use xlink:href="#DejaVuSans-6c" x="459.246094"/>
     <use xlink:href="#DejaVuSans-75" x="487.029297"/>
     <use xlink:href="#DejaVuSans-73" x="550.408203"/>
     <use xlink:href="#DejaVuSans-69" x="602.507812"/>
     <use xlink:href="#DejaVuSans-6f" x="630.291016"/>
     <use xlink:href="#DejaVuSans-6e" x="691.472656"/>
     <use xlink:href="#DejaVuSans-73" x="754.851562"/>
    </g>
    <!-- Axis ratio $b/a = 0.5$ -->
    <g style="fill: #ffffff" transform="translate(315.709784 47.627917) scale(0.1 -0.1)">
     <defs>
      <path id="DejaVuSans-41" d="M 2188 4044 
L 1331 1722 
L 3047 1722 
L 2188 4044 
z
M 1831 4666 
L 2547 4666 
L 4325 0 
L 3669 0 
L 3244 1197 
L 1141 1197 
L 716 0 
L 50 0 
L 1831 4666 
z
" transform="scale(0.015625)"/>
      <path id="DejaVuSans-Oblique-62" d="M 3169 2138 
Q 3169 2591 2961 2847 
Q 2753 3103 2388 3103 
Q 2122 3103 1889 2973 
Q 1656 2844 1484 2597 
Q 1303 2338 1198 1995 
Q 1094 1653 1094 1313 
Q 1094 881 1298 636 
Q 1503 391 1863 391 
Q 2134 391 2365 517 
Q 2597 644 2772 891 
Q 2950 1147 3059 1487 
Q 3169 1828 3169 2138 
z
M 1381 2969 
Q 1594 3256 1914 3420 
Q 2234 3584 2584 3584 
Q 3122 3584 3439 3221 
Q 3756 2859 3756 2241 
Q 3756 1734 3570 1259 
Q 3384 784 3041 416 
Q 2816 172 2522 40 
Q 2228 -91 1906 -91 
Q 1566 -91 1316 65 
Q 1066 222 909 531 
L 806 0 
L 231 0 
L 1178 4863 
L 1753 4863 
L 1381 2969 
z
" transform="scale(0.015625)"/>
      <path id="DejaVuSans-2f" d="M 1625 4666 
L 2156 4666 
L 531 -594 
L 0 -594 
L 1625 4666 
z
" transform="scale(0.015625)"/>
      <path id="DejaVuSans-Oblique-61" d="M 3438 1997 
L 3047 0 
L 2472 0 
L 2578 531 
Q 2325 219 2001 64 
Q 1678 -91 1281 -91 
Q 834 -91 548 182 
Q 263 456 263 884 
Q 263 1497 752 1853 
Q 1241 2209 2100 2209 
L 2900 2209 
L 2931 2363 
Q 2938 2388 2941 2417 
Q 2944 2447 2944 2509 
Q 2944 2788 2717 2942 
Q 2491 3097 2081 3097 
Q 1800 3097 1504 3025 
Q 1209 2953 897 2809 
L 997 3341 
Q 1322 3463 1633 3523 
Q 1944 3584 2234 3584 
Q 2853 3584 3176 3315 
Q 3500 3047 3500 2534 
Q 3500 2431 3484 2292 
Q 3469 2153 3438 1997 
z
M 2816 1759 
L 2241 1759 
Q 1534 1759 1195 1570 
Q 856 1381 856 984 
Q 856 709 1029 553 
Q 1203 397 1509 397 
Q 1978 397 2328 733 
Q 2678 1069 2791 1631 
L 2816 1759 
z
" transform="scale(0.015625)"/>
      <path id="DejaVuSans-3d" d="M 678 2906 
L 4684 2906 
L 4684 2381 
L 678 2381 
L 678 2906 
z
M 678 1631 
L 4684 1631 
L 4684 1100 
L 678 1100 
L 678 1631 
z
" transform="scale(0.015625)"/>
      <path id="DejaVuSans-2e" d="M 684 794 
L 1344 794 
L 1344 0 
L 684 0 
L 684 794 
z
" transform="scale(0.015625)"/>
      <path id="DejaVuSans-35" d="M 691 4666 
L 3169 4666 
L 3169 4134 
L 1269 4134 
L 1269 2991 
Q 1406 3038 1543 3061 
Q 1681 3084 1819 3084 
Q 2600 3084 3056 2656 
Q 3513 2228 3513 1497 
Q 3513 744 3044 326 
Q 2575 -91 1722 -91 
Q 1428 -91 1123 -41 
Q 819 9 494 109 
L 494 744 
Q 775 591 1075 516 
Q 1375 441 1709 441 
Q 2250 441 2565 725 
Q 2881 1009 2881 1497 
Q 2881 1984 2565 2268 
Q 2250 2553 1709 2553 
Q 1456 2553 1204 2497 
Q 953 2441 691 2322 
L 691 4666 
z
" transform="scale(0.015625)"/>
     </defs>
     <use xlink:href="#DejaVuSans-41" transform="translate(0 0.015625)"/>
     <use xlink:href="#DejaVuSans-78" transform="translate(68.408203 0.015625)"/>
     <use xlink:href="#DejaVuSans-69" transform="translate(127.587891 0.015625)"/>
     <use xlink:href="#DejaVuSans-73" transform="translate(155.371094 0.015625)"/>
     <use xlink:href="#DejaVuSans-20" transform="translate(207.470703 0.015625)"/>
     <use xlink:href="#DejaVuSans-72" transform="translate(239.257812 0.015625)"/>
     <use xlink:href="#DejaVuSans-61" transform="translate(280.371094 0.015625)"/>
     <use xlink:href="#DejaVuSans-74" transform="translate(341.650391 0.015625)"/>
     <use xlink:href="#DejaVuSans-69" transform="translate(380.859375 0.015625)"/>
     <use xlink:href="#DejaVuSans-6f" transform="translate(408.642578 0.015625)"/>
     <use xlink:href="#DejaVuSans-20" transform="translate(469.824219 0.015625)"/>
     <use xlink:href="#DejaVuSans-Oblique-62" transform="translate(501.611328 0.015625)"/>
     <use xlink:href="#DejaVuSans-2f" transform="translate(565.087891 0.015625)"/>
     <use xlink:href="#DejaVuSans-Oblique-61" transform="translate(598.779297 0.015625)"/>
     <use xlink:href="#DejaVuSans-3d" transform="translate(679.541016 0.015625)"/>
     <use xlink:href="#DejaVuSans-30" transform="translate(782.8125 0.015625)"/>
     <use xlink:href="#DejaVuSans-2e" transform="translate(846.435547 0.015625)"/>
     <use xlink:href="#DejaVuSans-35" transform="translate(878.222656 0.015625)"/>
    </g>
    <!-- MRN size distribution: $dn/da \propto a^{-3.5}$ -->
    <g style="fill: #ffffff" transform="translate(234.109784 59.33198) scale(0.1 -0.1)">
     <defs>
      <path id="DejaVuSans-4d" d="M 628 4666 
L 1569 4666 
L 2759 1491 
L 3956 4666 
L 4897 4666 
L 4897 0 
L 4281 0 
L 4281 4097 
L 3078 897 
L 2444 897 
L 1241 4097 
L 1241 0 
L 628 0 
L 628 4666 
z
" transform="scale(0.015625)"/>
      <path id="DejaVuSans-52" d="M 2841 2188 
Q 3044 2119 3236 1894 
Q 3428 1669 3622 1275 
L 4263 0 
L 3584 0 
L 2988 1197 
Q 2756 1666 2539 1819 
Q 2322 1972 1947 1972 
L 1259 1972 
L 1259 0 
L 628 0 
L 628 4666 
L 2053 4666 
Q 2853 4666 3247 4331 
Q 3641 3997 3641 3322 
Q 3641 2881 3436 2590 
Q 3231 2300 2841 2188 
z
M 1259 4147 
L 1259 2491 
L 2053 2491 
Q 2509 2491 2742 2702 
Q 2975 2913 2975 3322 
Q 2975 3731 2742 3939 
Q 2509 4147 2053 4147 
L 1259 4147 
z
" transform="scale(0.015625)"/>
      <path id="DejaVuSans-7a" d="M 353 3500 
L 3084 3500 
L 3084 2975 
L 922 459 
L 3084 459 
L 3084 0 
L 275 0 
L 275 525 
L 2438 3041 
L 353 3041 
L 353 3500 
z
" transform="scale(0.015625)"/>
      <path id="DejaVuSans-64" d="M 2906 2969 
L 2906 4863 
L 3481 4863 
L 3481 0 
L 2906 0 
L 2906 525 
Q 2725 213 2448 61 
Q 2172 -91 1784 -91 
Q 1150 -91 751 415 
Q 353 922 353 1747 
Q 353 2572 751 3078 
Q 1150 3584 1784 3584 
Q 2172 3584 2448 3432 
Q 2725 3281 2906 2969 
z
M 947 1747 
Q 947 1113 1208 752 
Q 1469 391 1925 391 
Q 2381 391 2643 752 
Q 2906 1113 2906 1747 
Q 2906 2381 2643 2742 
Q 2381 3103 1925 3103 
Q 1469 3103 1208 2742 
Q 947 2381 947 1747 
z
" transform="scale(0.015625)"/>
      <path id="DejaVuSans-3a" d="M 750 794 
L 1409 794 
L 1409 0 
L 750 0 
L 750 794 
z
M 750 3309 
L 1409 3309 
L 1409 2516 
L 750 2516 
L 750 3309 
z
" transform="scale(0.015625)"/>
      <path id="DejaVuSans-Oblique-64" d="M 2675 525 
Q 2444 222 2128 65 
Q 1813 -91 1428 -91 
Q 903 -91 598 267 
Q 294 625 294 1247 
Q 294 1766 478 2236 
Q 663 2706 1013 3078 
Q 1244 3325 1534 3454 
Q 1825 3584 2144 3584 
Q 2481 3584 2739 3421 
Q 2997 3259 3138 2956 
L 3513 4863 
L 4091 4863 
L 3144 0 
L 2566 0 
L 2675 525 
z
M 891 1350 
Q 891 897 1095 644 
Q 1300 391 1663 391 
Q 1931 391 2161 520 
Q 2391 650 2566 903 
Q 2750 1166 2856 1509 
Q 2963 1853 2963 2188 
Q 2963 2622 2758 2865 
Q 2553 3109 2194 3109 
Q 1922 3109 1687 2981 
Q 1453 2853 1288 2613 
Q 1106 2353 998 2009 
Q 891 1666 891 1350 
z
" transform="scale(0.015625)"/>
      <path id="DejaVuSans-Oblique-6e" d="M 3566 2113 
L 3156 0 
L 2578 0 
L 2988 2091 
Q 3016 2238 3031 2350 
Q 3047 2463 3047 2528 
Q 3047 2791 2881 2937 
Q 2716 3084 2419 3084 
Q 1956 3084 1622 2776 
Q 1288 2469 1184 1941 
L 800 0 
L 225 0 
L 903 3500 
L 1478 3500 
L 1363 2950 
Q 1603 3253 1940 3418 
Q 2278 3584 2650 3584 
Q 3113 3584 3367 3334 
Q 3622 3084 3622 2631 
Q 3622 2519 3608 2391 
Q 3594 2263 3566 2113 
z
" transform="scale(0.015625)"/>
      <path id="DejaVuSans-221d" d="M 1647 1134 
Q 2163 1134 2472 1884 
Q 2075 2703 1647 2703 
Q 1334 2703 1175 2478 
Q 1006 2238 1006 1919 
Q 1006 1569 1175 1353 
Q 1350 1134 1647 1134 
z
M 3884 1128 
L 3884 716 
L 3644 716 
Q 3416 716 3247 809 
Q 3078 894 2916 1091 
Q 2819 1203 2666 1466 
Q 2456 1091 2272 925 
Q 2044 725 1681 725 
Q 1259 725 981 1041 
Q 688 1372 688 1919 
Q 688 2444 981 2800 
Q 1241 3116 1688 3116 
Q 1916 3116 2084 3022 
Q 2281 2919 2416 2741 
Q 2541 2581 2666 2366 
Q 2875 2741 3059 2906 
Q 3288 3106 3650 3106 
L 3884 3106 
L 3884 2697 
L 3684 2697 
Q 3222 2697 2859 1947 
Q 3256 1128 3684 1128 
L 3884 1128 
z
" transform="scale(0.015625)"/>
      <path id="DejaVuSans-33" d="M 2597 2516 
Q 3050 2419 3304 2112 
Q 3559 1806 3559 1356 
Q 3559 666 3084 287 
Q 2609 -91 1734 -91 
Q 1441 -91 1130 -33 
Q 819 25 488 141 
L 488 750 
Q 750 597 1062 519 
Q 1375 441 1716 441 
Q 2309 441 2620 675 
Q 2931 909 2931 1356 
Q 2931 1769 2642 2001 
Q 2353 2234 1838 2234 
L 1294 2234 
L 1294 2753 
L 1863 2753 
Q 2328 2753 2575 2939 
Q 2822 3125 2822 3475 
Q 2822 3834 2567 4026 
Q 2313 4219 1838 4219 
Q 1578 4219 1281 4162 
Q 984 4106 628 3988 
L 628 4550 
Q 988 4650 1302 4700 
Q 1616 4750 1894 4750 
Q 2613 4750 3031 4423 
Q 3450 4097 3450 3541 
Q 3450 3153 3228 2886 
Q 3006 2619 2597 2516 
z
" transform="scale(0.015625)"/>
     </defs>
     <use xlink:href="#DejaVuSans-4d" transform="translate(0 0.765625)"/>
     <use xlink:href="#DejaVuSans-52" transform="translate(86.279297 0.765625)"/>
     <use xlink:href="#DejaVuSans-4e" transform="translate(155.761719 0.765625)"/>
     <use xlink:href="#DejaVuSans-20" transform="translate(230.566406 0.765625)"/>
     <use xlink:href="#DejaVuSans-73" transform="translate(262.353516 0.765625)"/>
     <use xlink:href="#DejaVuSans-69" transform="translate(314.453125 0.765625)"/>
     <use xlink:href="#DejaVuSans-7a" transform="translate(342.236328 0.765625)"/>
     <use xlink:href="#DejaVuSans-65" transform="translate(394.726562 0.765625)"/>
     <use xlink:href="#DejaVuSans-20" transform="translate(456.25 0.765625)"/>
     <use xlink:href="#DejaVuSans-64" transform="translate(488.037109 0.765625)"/>
     <use xlink:href="#DejaVuSans-69" transform="translate(551.513672 0.765625)"/>
     <use xlink:href="#DejaVuSans-73" transform="translate(579.296875 0.765625)"/>
     <use xlink:href="#DejaVuSans-74" transform="translate(631.396484 0.765625)"/>
     <use xlink:href="#DejaVuSans-72" transform="translate(670.605469 0.765625)"/>
     <use xlink:href="#DejaVuSans-69" transform="translate(711.71875 0.765625)"/>
     <use xlink:href="#DejaVuSans-62" transform="translate(739.501953 0.765625)"/>
     <use xlink:href="#DejaVuSans-75" transform="translate(802.978516 0.765625)"/>
     <use xlink:href="#DejaVuSans-74" transform="translate(866.357422 0.765625)"/>
     <use xlink:href="#DejaVuSans-69" transform="translate(905.566406 0.765625)"/>
     <use xlink:href="#DejaVuSans-6f" transform="translate(933.349609 0.765625)"/>
     <use xlink:href="#DejaVuSans-6e" transform="translate(994.53125 0.765625)"/>
     <use xlink:href="#DejaVuSans-3a" transform="translate(1057.910156 0.765625)"/>
     <use xlink:href="#DejaVuSans-20" transform="translate(1091.601562 0.765625)"/>
     <use xlink:href="#DejaVuSans-Oblique-64" transform="translate(1123.388672 0.765625)"/>
     <use xlink:href="#DejaVuSans-Oblique-6e" transform="translate(1186.865234 0.765625)"/>
     <use xlink:href="#DejaVuSans-2f" transform="translate(1250.244141 0.765625)"/>
     <use xlink:href="#DejaVuSans-Oblique-64" transform="translate(1283.935547 0.765625)"/>
     <use xlink:href="#DejaVuSans-Oblique-61" transform="translate(1347.412109 0.765625)"/>
     <use xlink:href="#DejaVuSans-221d" transform="translate(1428.173828 0.765625)"/>
     <use xlink:href="#DejaVuSans-Oblique-61" transform="translate(1519.091797 0.765625)"/>
     <use xlink:href="#DejaVuSans-2212" transform="translate(1585.02099 39.046875) scale(0.7)"/>
     <use xlink:href="#DejaVuSans-33" transform="translate(1643.673333 39.046875) scale(0.7)"/>
     <use xlink:href="#DejaVuSans-2e" transform="translate(1688.209466 39.046875) scale(0.7)"/>
     <use xlink:href="#DejaVuSans-35" transform="translate(1710.460443 39.046875) scale(0.7)"/>
    </g>
   </g>
  </g>
 </g>
 <defs>
  <clipPath id="p1180221d7e">
   <rect x="47.20024" y="5.159662" width="381.79952" height="249.483848"/>
  </clipPath>
 </defs>
</svg>
