<?xml version="1.0" encoding="utf-8" standalone="no"?>
<!DOCTYPE svg PUBLIC "-//W3C//DTD SVG 1.1//EN"
  "http://www.w3.org/Graphics/SVG/1.1/DTD/svg11.dtd">
<svg xmlns:xlink="http://www.w3.org/1999/xlink" width="432pt" height="288pt" viewBox="0 0 432 288" xmlns="http://www.w3.org/2000/svg" version="1.1">
 <metadata>
  <rdf:RDF xmlns:dc="http://purl.org/dc/elements/1.1/" xmlns:cc="http://creativecommons.org/ns#" xmlns:rdf="http://www.w3.org/1999/02/22-rdf-syntax-ns#">
   <cc:Work>
    <dc:type rdf:resource="http://purl.org/dc/dcmitype/StillImage"/>
    <dc:date>2025-10-27T15:31:39.349690</dc:date>
    <dc:format>image/svg+xml</dc:format>
    <dc:creator>
     <cc:Agent>
      <dc:title>Matplotlib v3.7.1, https://matplotlib.org/</dc:title>
     </cc:Agent>
    </dc:creator>
   </cc:Work>
  </rdf:RDF>
 </metadata>
 <defs>
  <style type="text/css">*{stroke-linejoin: round; stroke-linecap: butt}</style>
 </defs>
 <g id="figure_1">
  <g id="patch_1">
   <path d="M 0 288 
L 432 288 
L 432 0 
L 0 0 
z
"/>
  </g>
  <g id="axes_1">
   <g id="patch_2">
    <path d="M 49.50024 254.64351 
L 428.99976 254.64351 
L 428.99976 3.00024 
L 49.50024 3.00024 
z
"/>
   </g>
   <g id="patch_3">
    <path d="M 150.812456 254.64351 
L 150.812456 3.00024 
L 190.937603 3.00024 
L 190.937603 254.64351 
z
" clip-path="url(#p962d9c7568)" style="fill: #81b1d2; opacity: 0.1"/>
   </g>
   <g id="matplotlib.axis_1">
    <g id="xtick_1">
     <g id="line2d_1">
      <path d="M 72.02593 254.64351 
L 72.02593 3.00024 
" clip-path="url(#p962d9c7568)" style="fill: none; stroke: #ffffff; stroke-opacity: 0.1; stroke-width: 0.8; stroke-linecap: square"/>
     </g>
     <g id="line2d_2">
      <defs>
       <path id="m735cc191d6" d="M 0 0 
L 0 3.5 
" style="stroke: #ffffff; stroke-width: 0.8"/>
      </defs>
      <g>
       <use xlink:href="#m735cc191d6" x="72.02593" y="254.64351" style="fill: #ffffff; stroke: #ffffff; stroke-width: 0.8"/>
      </g>
     </g>
     <g id="text_1">
      <!-- $\mathdefault{10^{-1}}$ -->
      <g style="fill: #ffffff" transform="translate(60.27593 269.241947) scale(0.1 -0.1)">
       <defs>
        <path id="DejaVuSans-31" d="M 794 531 
L 1825 531 
L 1825 4091 
L 703 3866 
L 703 4441 
L 1819 4666 
L 2450 4666 
L 2450 531 
L 3481 531 
L 3481 0 
L 794 0 
L 794 531 
z
" transform="scale(0.015625)"/>
        <path id="DejaVuSans-30" d="M 2034 4250 
Q 1547 4250 1301 3770 
Q 1056 3291 1056 2328 
Q 1056 1369 1301 889 
Q 1547 409 2034 409 
Q 2525 409 2770 889 
Q 3016 1369 3016 2328 
Q 3016 3291 2770 3770 
Q 2525 4250 2034 4250 
z
M 2034 4750 
Q 2819 4750 3233 4129 
Q 3647 3509 3647 2328 
Q 3647 1150 3233 529 
Q 2819 -91 2034 -91 
Q 1250 -91 836 529 
Q 422 1150 422 2328 
Q 422 3509 836 4129 
Q 1250 4750 2034 4750 
z
" transform="scale(0.015625)"/>
        <path id="DejaVuSans-2212" d="M 678 2272 
L 4684 2272 
L 4684 1741 
L 678 1741 
L 678 2272 
z
" transform="scale(0.015625)"/>
       </defs>
       <use xlink:href="#DejaVuSans-31" transform="translate(0 0.684375)"/>
       <use xlink:href="#DejaVuSans-30" transform="translate(63.623047 0.684375)"/>
       <use xlink:href="#DejaVuSans-2212" transform="translate(128.203125 38.965625) scale(0.7)"/>
       <use xlink:href="#DejaVuSans-31" transform="translate(186.855469 38.965625) scale(0.7)"/>
      </g>
     </g>
    </g>
    <g id="xtick_2">
     <g id="line2d_3">
      <path d="M 207.915471 254.64351 
L 207.915471 3.00024 
" clip-path="url(#p962d9c7568)" style="fill: none; stroke: #ffffff; stroke-opacity: 0.1; stroke-width: 0.8; stroke-linecap: square"/>
     </g>
     <g id="line2d_4">
      <g>
       <use xlink:href="#m735cc191d6" x="207.915471" y="254.64351" style="fill: #ffffff; stroke: #ffffff; stroke-width: 0.8"/>
      </g>
     </g>
     <g id="text_2">
      <!-- $\mathdefault{10^{0}}$ -->
      <g style="fill: #ffffff" transform="translate(199.115471 269.241947) scale(0.1 -0.1)">
       <use xlink:href="#DejaVuSans-31" transform="translate(0 0.765625)"/>
       <use xlink:href="#DejaVuSans-30" transform="translate(63.623047 0.765625)"/>
       <use xlink:href="#DejaVuSans-30" transform="translate(128.203125 39.046875) scale(0.7)"/>
      </g>
     </g>
    </g>
    <g id="xtick_3">
     <g id="line2d_5">
      <path d="M 343.805011 254.64351 
L 343.805011 3.00024 
" clip-path="url(#p962d9c7568)" style="fill: none; stroke: #ffffff; stroke-opacity: 0.1; stroke-width: 0.8; stroke-linecap: square"/>
     </g>
     <g id="line2d_6">
      <g>
       <use xlink:href="#m735cc191d6" x="343.805011" y="254.64351" style="fill: #ffffff; stroke: #ffffff; stroke-width: 0.8"/>
      </g>
     </g>
     <g id="text_3">
      <!-- $\mathdefault{10^{1}}$ -->
      <g style="fill: #ffffff" transform="translate(335.005011 269.241947) scale(0.1 -0.1)">
       <use xlink:href="#DejaVuSans-31" transform="translate(0 0.684375)"/>
       <use xlink:href="#DejaVuSans-30" transform="translate(63.623047 0.684375)"/>
       <use xlink:href="#DejaVuSans-31" transform="translate(128.203125 38.965625) scale(0.7)"/>
      </g>
     </g>
    </g>
    <g id="xtick_4">
     <g id="line2d_7">
      <path d="M 50.976374 254.64351 
L 50.976374 3.00024 
" clip-path="url(#p962d9c7568)" style="fill: none; stroke: #ffffff; stroke-opacity: 0.05; stroke-width: 0.8; stroke-linecap: square"/>
     </g>
     <g id="line2d_8">
      <defs>
       <path id="mbf7f50120e" d="M 0 0 
L 0 2 
" style="stroke: #ffffff; stroke-width: 0.6"/>
      </defs>
      <g>
       <use xlink:href="#mbf7f50120e" x="50.976374" y="254.64351" style="fill: #ffffff; stroke: #ffffff; stroke-width: 0.6"/>
      </g>
     </g>
    </g>
    <g id="xtick_5">
     <g id="line2d_9">
      <path d="M 58.856873 254.64351 
L 58.856873 3.00024 
" clip-path="url(#p962d9c7568)" style="fill: none; stroke: #ffffff; stroke-opacity: 0.05; stroke-width: 0.8; stroke-linecap: square"/>
     </g>
     <g id="line2d_10">
      <g>
       <use xlink:href="#mbf7f50120e" x="58.856873" y="254.64351" style="fill: #ffffff; stroke: #ffffff; stroke-width: 0.6"/>
      </g>
     </g>
    </g>
    <g id="xtick_6">
     <g id="line2d_11">
      <path d="M 65.807965 254.64351 
L 65.807965 3.00024 
" clip-path="url(#p962d9c7568)" style="fill: none; stroke: #ffffff; stroke-opacity: 0.05; stroke-width: 0.8; stroke-linecap: square"/>
     </g>
     <g id="line2d_12">
      <g>
       <use xlink:href="#mbf7f50120e" x="65.807965" y="254.64351" style="fill: #ffffff; stroke: #ffffff; stroke-width: 0.6"/>
      </g>
     </g>
    </g>
    <g id="xtick_7">
     <g id="line2d_13">
      <path d="M 112.932758 254.64351 
L 112.932758 3.00024 
" clip-path="url(#p962d9c7568)" style="fill: none; stroke: #ffffff; stroke-opacity: 0.05; stroke-width: 0.8; stroke-linecap: square"/>
     </g>
     <g id="line2d_14">
      <g>
       <use xlink:href="#mbf7f50120e" x="112.932758" y="254.64351" style="fill: #ffffff; stroke: #ffffff; stroke-width: 0.6"/>
      </g>
     </g>
    </g>
    <g id="xtick_8">
     <g id="line2d_15">
      <path d="M 136.861718 254.64351 
L 136.861718 3.00024 
" clip-path="url(#p962d9c7568)" style="fill: none; stroke: #ffffff; stroke-opacity: 0.05; stroke-width: 0.8; stroke-linecap: square"/>
     </g>
     <g id="line2d_16">
      <g>
       <use xlink:href="#mbf7f50120e" x="136.861718" y="254.64351" style="fill: #ffffff; stroke: #ffffff; stroke-width: 0.6"/>
      </g>
     </g>
    </g>
    <g id="xtick_9">
     <g id="line2d_17">
      <path d="M 153.839586 254.64351 
L 153.839586 3.00024 
" clip-path="url(#p962d9c7568)" style="fill: none; stroke: #ffffff; stroke-opacity: 0.05; stroke-width: 0.8; stroke-linecap: square"/>
     </g>
     <g id="line2d_18">
      <g>
       <use xlink:href="#mbf7f50120e" x="153.839586" y="254.64351" style="fill: #ffffff; stroke: #ffffff; stroke-width: 0.6"/>
      </g>
     </g>
    </g>
    <g id="xtick_10">
     <g id="line2d_19">
      <path d="M 167.008643 254.64351 
L 167.008643 3.00024 
" clip-path="url(#p962d9c7568)" style="fill: none; stroke: #ffffff; stroke-opacity: 0.05; stroke-width: 0.8; stroke-linecap: square"/>
     </g>
     <g id="line2d_20">
      <g>
       <use xlink:href="#mbf7f50120e" x="167.008643" y="254.64351" style="fill: #ffffff; stroke: #ffffff; stroke-width: 0.6"/>
      </g>
     </g>
    </g>
    <g id="xtick_11">
     <g id="line2d_21">
      <path d="M 177.768546 254.64351 
L 177.768546 3.00024 
" clip-path="url(#p962d9c7568)" style="fill: none; stroke: #ffffff; stroke-opacity: 0.05; stroke-width: 0.8; stroke-linecap: square"/>
     </g>
     <g id="line2d_22">
      <g>
       <use xlink:href="#mbf7f50120e" x="177.768546" y="254.64351" style="fill: #ffffff; stroke: #ffffff; stroke-width: 0.6"/>
      </g>
     </g>
    </g>
    <g id="xtick_12">
     <g id="line2d_23">
      <path d="M 186.865914 254.64351 
L 186.865914 3.00024 
" clip-path="url(#p962d9c7568)" style="fill: none; stroke: #ffffff; stroke-opacity: 0.05; stroke-width: 0.8; stroke-linecap: square"/>
     </g>
     <g id="line2d_24">
      <g>
       <use xlink:href="#mbf7f50120e" x="186.865914" y="254.64351" style="fill: #ffffff; stroke: #ffffff; stroke-width: 0.6"/>
      </g>
     </g>
    </g>
    <g id="xtick_13">
     <g id="line2d_25">
      <path d="M 194.746413 254.64351 
L 194.746413 3.00024 
" clip-path="url(#p962d9c7568)" style="fill: none; stroke: #ffffff; stroke-opacity: 0.05; stroke-width: 0.8; stroke-linecap: square"/>
     </g>
     <g id="line2d_26">
      <g>
       <use xlink:href="#mbf7f50120e" x="194.746413" y="254.64351" style="fill: #ffffff; stroke: #ffffff; stroke-width: 0.6"/>
      </g>
     </g>
    </g>
    <g id="xtick_14">
     <g id="line2d_27">
      <path d="M 201.697506 254.64351 
L 201.697506 3.00024 
" clip-path="url(#p962d9c7568)" style="fill: none; stroke: #ffffff; stroke-opacity: 0.05; stroke-width: 0.8; stroke-linecap: square"/>
     </g>
     <g id="line2d_28">
      <g>
       <use xlink:href="#mbf7f50120e" x="201.697506" y="254.64351" style="fill: #ffffff; stroke: #ffffff; stroke-width: 0.6"/>
      </g>
     </g>
    </g>
    <g id="xtick_15">
     <g id="line2d_29">
      <path d="M 248.822298 254.64351 
L 248.822298 3.00024 
" clip-path="url(#p962d9c7568)" style="fill: none; stroke: #ffffff; stroke-opacity: 0.05; stroke-width: 0.8; stroke-linecap: square"/>
     </g>
     <g id="line2d_30">
      <g>
       <use xlink:href="#mbf7f50120e" x="248.822298" y="254.64351" style="fill: #ffffff; stroke: #ffffff; stroke-width: 0.6"/>
      </g>
     </g>
    </g>
    <g id="xtick_16">
     <g id="line2d_31">
      <path d="M 272.751259 254.64351 
L 272.751259 3.00024 
" clip-path="url(#p962d9c7568)" style="fill: none; stroke: #ffffff; stroke-opacity: 0.05; stroke-width: 0.8; stroke-linecap: square"/>
     </g>
     <g id="line2d_32">
      <g>
       <use xlink:href="#mbf7f50120e" x="272.751259" y="254.64351" style="fill: #ffffff; stroke: #ffffff; stroke-width: 0.6"/>
      </g>
     </g>
    </g>
    <g id="xtick_17">
     <g id="line2d_33">
      <path d="M 289.729126 254.64351 
L 289.729126 3.00024 
" clip-path="url(#p962d9c7568)" style="fill: none; stroke: #ffffff; stroke-opacity: 0.05; stroke-width: 0.8; stroke-linecap: square"/>
     </g>
     <g id="line2d_34">
      <g>
       <use xlink:href="#mbf7f50120e" x="289.729126" y="254.64351" style="fill: #ffffff; stroke: #ffffff; stroke-width: 0.6"/>
      </g>
     </g>
    </g>
    <g id="xtick_18">
     <g id="line2d_35">
      <path d="M 302.898184 254.64351 
L 302.898184 3.00024 
" clip-path="url(#p962d9c7568)" style="fill: none; stroke: #ffffff; stroke-opacity: 0.05; stroke-width: 0.8; stroke-linecap: square"/>
     </g>
     <g id="line2d_36">
      <g>
       <use xlink:href="#mbf7f50120e" x="302.898184" y="254.64351" style="fill: #ffffff; stroke: #ffffff; stroke-width: 0.6"/>
      </g>
     </g>
    </g>
    <g id="xtick_19">
     <g id="line2d_37">
      <path d="M 313.658087 254.64351 
L 313.658087 3.00024 
" clip-path="url(#p962d9c7568)" style="fill: none; stroke: #ffffff; stroke-opacity: 0.05; stroke-width: 0.8; stroke-linecap: square"/>
     </g>
     <g id="line2d_38">
      <g>
       <use xlink:href="#mbf7f50120e" x="313.658087" y="254.64351" style="fill: #ffffff; stroke: #ffffff; stroke-width: 0.6"/>
      </g>
     </g>
    </g>
    <g id="xtick_20">
     <g id="line2d_39">
      <path d="M 322.755455 254.64351 
L 322.755455 3.00024 
" clip-path="url(#p962d9c7568)" style="fill: none; stroke: #ffffff; stroke-opacity: 0.05; stroke-width: 0.8; stroke-linecap: square"/>
     </g>
     <g id="line2d_40">
      <g>
       <use xlink:href="#mbf7f50120e" x="322.755455" y="254.64351" style="fill: #ffffff; stroke: #ffffff; stroke-width: 0.6"/>
      </g>
     </g>
    </g>
    <g id="xtick_21">
     <g id="line2d_41">
      <path d="M 330.635954 254.64351 
L 330.635954 3.00024 
" clip-path="url(#p962d9c7568)" style="fill: none; stroke: #ffffff; stroke-opacity: 0.05; stroke-width: 0.8; stroke-linecap: square"/>
     </g>
     <g id="line2d_42">
      <g>
       <use xlink:href="#mbf7f50120e" x="330.635954" y="254.64351" style="fill: #ffffff; stroke: #ffffff; stroke-width: 0.6"/>
      </g>
     </g>
    </g>
    <g id="xtick_22">
     <g id="line2d_43">
      <path d="M 337.587047 254.64351 
L 337.587047 3.00024 
" clip-path="url(#p962d9c7568)" style="fill: none; stroke: #ffffff; stroke-opacity: 0.05; stroke-width: 0.8; stroke-linecap: square"/>
     </g>
     <g id="line2d_44">
      <g>
       <use xlink:href="#mbf7f50120e" x="337.587047" y="254.64351" style="fill: #ffffff; stroke: #ffffff; stroke-width: 0.6"/>
      </g>
     </g>
    </g>
    <g id="xtick_23">
     <g id="line2d_45">
      <path d="M 384.711839 254.64351 
L 384.711839 3.00024 
" clip-path="url(#p962d9c7568)" style="fill: none; stroke: #ffffff; stroke-opacity: 0.05; stroke-width: 0.8; stroke-linecap: square"/>
     </g>
     <g id="line2d_46">
      <g>
       <use xlink:href="#mbf7f50120e" x="384.711839" y="254.64351" style="fill: #ffffff; stroke: #ffffff; stroke-width: 0.6"/>
      </g>
     </g>
    </g>
    <g id="xtick_24">
     <g id="line2d_47">
      <path d="M 408.6408 254.64351 
L 408.6408 3.00024 
" clip-path="url(#p962d9c7568)" style="fill: none; stroke: #ffffff; stroke-opacity: 0.05; stroke-width: 0.8; stroke-linecap: square"/>
     </g>
     <g id="line2d_48">
      <g>
       <use xlink:href="#mbf7f50120e" x="408.6408" y="254.64351" style="fill: #ffffff; stroke: #ffffff; stroke-width: 0.6"/>
      </g>
     </g>
    </g>
    <g id="xtick_25">
     <g id="line2d_49">
      <path d="M 425.618667 254.64351 
L 425.618667 3.00024 
" clip-path="url(#p962d9c7568)" style="fill: none; stroke: #ffffff; stroke-opacity: 0.05; stroke-width: 0.8; stroke-linecap: square"/>
     </g>
     <g id="line2d_50">
      <g>
       <use xlink:href="#mbf7f50120e" x="425.618667" y="254.64351" style="fill: #ffffff; stroke: #ffffff; stroke-width: 0.6"/>
      </g>
     </g>
    </g>
    <g id="text_4">
     <!-- Wavelength (μm) -->
     <g style="fill: #ffffff" transform="translate(196.045312 282.920073) scale(0.1 -0.1)">
      <defs>
       <path id="DejaVuSans-57" d="M 213 4666 
L 850 4666 
L 1831 722 
L 2809 4666 
L 3519 4666 
L 4500 722 
L 5478 4666 
L 6119 4666 
L 4947 0 
L 4153 0 
L 3169 4050 
L 2175 0 
L 1381 0 
L 213 4666 
z
" transform="scale(0.015625)"/>
       <path id="DejaVuSans-61" d="M 2194 1759 
Q 1497 1759 1228 1600 
Q 959 1441 959 1056 
Q 959 750 1161 570 
Q 1363 391 1709 391 
Q 2188 391 2477 730 
Q 2766 1069 2766 1631 
L 2766 1759 
L 2194 1759 
z
M 3341 1997 
L 3341 0 
L 2766 0 
L 2766 531 
Q 2569 213 2275 61 
Q 1981 -91 1556 -91 
Q 1019 -91 701 211 
Q 384 513 384 1019 
Q 384 1609 779 1909 
Q 1175 2209 1959 2209 
L 2766 2209 
L 2766 2266 
Q 2766 2663 2505 2880 
Q 2244 3097 1772 3097 
Q 1472 3097 1187 3025 
Q 903 2953 641 2809 
L 641 3341 
Q 956 3463 1253 3523 
Q 1550 3584 1831 3584 
Q 2591 3584 2966 3190 
Q 3341 2797 3341 1997 
z
" transform="scale(0.015625)"/>
       <path id="DejaVuSans-76" d="M 191 3500 
L 800 3500 
L 1894 563 
L 2988 3500 
L 3597 3500 
L 2284 0 
L 1503 0 
L 191 3500 
z
" transform="scale(0.015625)"/>
       <path id="DejaVuSans-65" d="M 3597 1894 
L 3597 1613 
L 953 1613 
Q 991 1019 1311 708 
Q 1631 397 2203 397 
Q 2534 397 2845 478 
Q 3156 559 3463 722 
L 3463 178 
Q 3153 47 2828 -22 
Q 2503 -91 2169 -91 
Q 1331 -91 842 396 
Q 353 884 353 1716 
Q 353 2575 817 3079 
Q 1281 3584 2069 3584 
Q 2775 3584 3186 3129 
Q 3597 2675 3597 1894 
z
M 3022 2063 
Q 3016 2534 2758 2815 
Q 2500 3097 2075 3097 
Q 1594 3097 1305 2825 
Q 1016 2553 972 2059 
L 3022 2063 
z
" transform="scale(0.015625)"/>
       <path id="DejaVuSans-6c" d="M 603 4863 
L 1178 4863 
L 1178 0 
L 603 0 
L 603 4863 
z
" transform="scale(0.015625)"/>
       <path id="DejaVuSans-6e" d="M 3513 2113 
L 3513 0 
L 2938 0 
L 2938 2094 
Q 2938 2591 2744 2837 
Q 2550 3084 2163 3084 
Q 1697 3084 1428 2787 
Q 1159 2491 1159 1978 
L 1159 0 
L 581 0 
L 581 3500 
L 1159 3500 
L 1159 2956 
Q 1366 3272 1645 3428 
Q 1925 3584 2291 3584 
Q 2894 3584 3203 3211 
Q 3513 2838 3513 2113 
z
" transform="scale(0.015625)"/>
       <path id="DejaVuSans-67" d="M 2906 1791 
Q 2906 2416 2648 2759 
Q 2391 3103 1925 3103 
Q 1463 3103 1205 2759 
Q 947 2416 947 1791 
Q 947 1169 1205 825 
Q 1463 481 1925 481 
Q 2391 481 2648 825 
Q 2906 1169 2906 1791 
z
M 3481 434 
Q 3481 -459 3084 -895 
Q 2688 -1331 1869 -1331 
Q 1566 -1331 1297 -1286 
Q 1028 -1241 775 -1147 
L 775 -588 
Q 1028 -725 1275 -790 
Q 1522 -856 1778 -856 
Q 2344 -856 2625 -561 
Q 2906 -266 2906 331 
L 2906 616 
Q 2728 306 2450 153 
Q 2172 0 1784 0 
Q 1141 0 747 490 
Q 353 981 353 1791 
Q 353 2603 747 3093 
Q 1141 3584 1784 3584 
Q 2172 3584 2450 3431 
Q 2728 3278 2906 2969 
L 2906 3500 
L 3481 3500 
L 3481 434 
z
" transform="scale(0.015625)"/>
       <path id="DejaVuSans-74" d="M 1172 4494 
L 1172 3500 
L 2356 3500 
L 2356 3053 
L 1172 3053 
L 1172 1153 
Q 1172 725 1289 603 
Q 1406 481 1766 481 
L 2356 481 
L 2356 0 
L 1766 0 
Q 1100 0 847 248 
Q 594 497 594 1153 
L 594 3053 
L 172 3053 
L 172 3500 
L 594 3500 
L 594 4494 
L 1172 4494 
z
" transform="scale(0.015625)"/>
       <path id="DejaVuSans-68" d="M 3513 2113 
L 3513 0 
L 2938 0 
L 2938 2094 
Q 2938 2591 2744 2837 
Q 2550 3084 2163 3084 
Q 1697 3084 1428 2787 
Q 1159 2491 1159 1978 
L 1159 0 
L 581 0 
L 581 4863 
L 1159 4863 
L 1159 2956 
Q 1366 3272 1645 3428 
Q 1925 3584 2291 3584 
Q 2894 3584 3203 3211 
Q 3513 2838 3513 2113 
z
" transform="scale(0.015625)"/>
       <path id="DejaVuSans-20" transform="scale(0.015625)"/>
       <path id="DejaVuSans-28" d="M 1984 4856 
Q 1566 4138 1362 3434 
Q 1159 2731 1159 2009 
Q 1159 1288 1364 580 
Q 1569 -128 1984 -844 
L 1484 -844 
Q 1016 -109 783 600 
Q 550 1309 550 2009 
Q 550 2706 781 3412 
Q 1013 4119 1484 4856 
L 1984 4856 
z
" transform="scale(0.015625)"/>
       <path id="DejaVuSans-3bc" d="M 544 -1331 
L 544 3500 
L 1119 3500 
L 1119 1325 
Q 1119 872 1334 640 
Q 1550 409 1972 409 
Q 2434 409 2667 671 
Q 2900 934 2900 1459 
L 2900 3500 
L 3475 3500 
L 3475 806 
Q 3475 619 3529 530 
Q 3584 441 3700 441 
Q 3728 441 3778 458 
Q 3828 475 3916 513 
L 3916 50 
Q 3788 -22 3673 -56 
Q 3559 -91 3450 -91 
Q 3234 -91 3106 31 
Q 2978 153 2931 403 
Q 2775 156 2548 32 
Q 2322 -91 2016 -91 
Q 1697 -91 1473 31 
Q 1250 153 1119 397 
L 1119 -1331 
L 544 -1331 
z
" transform="scale(0.015625)"/>
       <path id="DejaVuSans-6d" d="M 3328 2828 
Q 3544 3216 3844 3400 
Q 4144 3584 4550 3584 
Q 5097 3584 5394 3201 
Q 5691 2819 5691 2113 
L 5691 0 
L 5113 0 
L 5113 2094 
Q 5113 2597 4934 2840 
Q 4756 3084 4391 3084 
Q 3944 3084 3684 2787 
Q 3425 2491 3425 1978 
L 3425 0 
L 2847 0 
L 2847 2094 
Q 2847 2600 2669 2842 
Q 2491 3084 2119 3084 
Q 1678 3084 1418 2786 
Q 1159 2488 1159 1978 
L 1159 0 
L 581 0 
L 581 3500 
L 1159 3500 
L 1159 2956 
Q 1356 3278 1631 3431 
Q 1906 3584 2284 3584 
Q 2666 3584 2933 3390 
Q 3200 3197 3328 2828 
z
" transform="scale(0.015625)"/>
       <path id="DejaVuSans-29" d="M 513 4856 
L 1013 4856 
Q 1481 4119 1714 3412 
Q 1947 2706 1947 2009 
Q 1947 1309 1714 600 
Q 1481 -109 1013 -844 
L 513 -844 
Q 928 -128 1133 580 
Q 1338 1288 1338 2009 
Q 1338 2731 1133 3434 
Q 928 4138 513 4856 
z
" transform="scale(0.015625)"/>
      </defs>
      <use xlink:href="#DejaVuSans-57"/>
      <use xlink:href="#DejaVuSans-61" x="92.501953"/>
      <use xlink:href="#DejaVuSans-76" x="153.78125"/>
      <use xlink:href="#DejaVuSans-65" x="212.960938"/>
      <use xlink:href="#DejaVuSans-6c" x="274.484375"/>
      <use xlink:href="#DejaVuSans-65" x="302.267578"/>
      <use xlink:href="#DejaVuSans-6e" x="363.791016"/>
      <use xlink:href="#DejaVuSans-67" x="427.169922"/>
      <use xlink:href="#DejaVuSans-74" x="490.646484"/>
      <use xlink:href="#DejaVuSans-68" x="529.855469"/>
      <use xlink:href="#DejaVuSans-20" x="593.234375"/>
      <use xlink:href="#DejaVuSans-28" x="625.021484"/>
      <use xlink:href="#DejaVuSans-3bc" x="664.035156"/>
      <use xlink:href="#DejaVuSans-6d" x="727.658203"/>
      <use xlink:href="#DejaVuSans-29" x="825.070312"/>
     </g>
    </g>
   </g>
   <g id="matplotlib.axis_2">
    <g id="ytick_1">
     <g id="line2d_51">
      <path d="M 49.50024 238.262273 
L 428.99976 238.262273 
" clip-path="url(#p962d9c7568)" style="fill: none; stroke: #ffffff; stroke-opacity: 0.1; stroke-width: 0.8; stroke-linecap: square"/>
     </g>
     <g id="line2d_52">
      <defs>
       <path id="ma78331b5c0" d="M 0 0 
L -3.5 0 
" style="stroke: #ffffff; stroke-width: 0.8"/>
      </defs>
      <g>
       <use xlink:href="#ma78331b5c0" x="49.50024" y="238.262273" style="fill: #ffffff; stroke: #ffffff; stroke-width: 0.8"/>
      </g>
     </g>
     <g id="text_5">
      <!-- $\mathdefault{10^{-2}}$ -->
      <g style="fill: #ffffff" transform="translate(19.00024 242.061491) scale(0.1 -0.1)">
       <defs>
        <path id="DejaVuSans-32" d="M 1228 531 
L 3431 531 
L 3431 0 
L 469 0 
L 469 531 
Q 828 903 1448 1529 
Q 2069 2156 2228 2338 
Q 2531 2678 2651 2914 
Q 2772 3150 2772 3378 
Q 2772 3750 2511 3984 
Q 2250 4219 1831 4219 
Q 1534 4219 1204 4116 
Q 875 4013 500 3803 
L 500 4441 
Q 881 4594 1212 4672 
Q 1544 4750 1819 4750 
Q 2544 4750 2975 4387 
Q 3406 4025 3406 3419 
Q 3406 3131 3298 2873 
Q 3191 2616 2906 2266 
Q 2828 2175 2409 1742 
Q 1991 1309 1228 531 
z
" transform="scale(0.015625)"/>
       </defs>
       <use xlink:href="#DejaVuSans-31" transform="translate(0 0.765625)"/>
       <use xlink:href="#DejaVuSans-30" transform="translate(63.623047 0.765625)"/>
       <use xlink:href="#DejaVuSans-2212" transform="translate(128.203125 39.046875) scale(0.7)"/>
       <use xlink:href="#DejaVuSans-32" transform="translate(186.855469 39.046875) scale(0.7)"/>
      </g>
     </g>
    </g>
    <g id="ytick_2">
     <g id="line2d_53">
      <path d="M 49.50024 152.203117 
L 428.99976 152.203117 
" clip-path="url(#p962d9c7568)" style="fill: none; stroke: #ffffff; stroke-opacity: 0.1; stroke-width: 0.8; stroke-linecap: square"/>
     </g>
     <g id="line2d_54">
      <g>
       <use xlink:href="#ma78331b5c0" x="49.50024" y="152.203117" style="fill: #ffffff; stroke: #ffffff; stroke-width: 0.8"/>
      </g>
     </g>
     <g id="text_6">
      <!-- $\mathdefault{10^{-1}}$ -->
      <g style="fill: #ffffff" transform="translate(19.00024 156.002336) scale(0.1 -0.1)">
       <use xlink:href="#DejaVuSans-31" transform="translate(0 0.684375)"/>
       <use xlink:href="#DejaVuSans-30" transform="translate(63.623047 0.684375)"/>
       <use xlink:href="#DejaVuSans-2212" transform="translate(128.203125 38.965625) scale(0.7)"/>
       <use xlink:href="#DejaVuSans-31" transform="translate(186.855469 38.965625) scale(0.7)"/>
      </g>
     </g>
    </g>
    <g id="ytick_3">
     <g id="line2d_55">
      <path d="M 49.50024 66.143962 
L 428.99976 66.143962 
" clip-path="url(#p962d9c7568)" style="fill: none; stroke: #ffffff; stroke-opacity: 0.1; stroke-width: 0.8; stroke-linecap: square"/>
     </g>
     <g id="line2d_56">
      <g>
       <use xlink:href="#ma78331b5c0" x="49.50024" y="66.143962" style="fill: #ffffff; stroke: #ffffff; stroke-width: 0.8"/>
      </g>
     </g>
     <g id="text_7">
      <!-- $\mathdefault{10^{0}}$ -->
      <g style="fill: #ffffff" transform="translate(24.90024 69.943181) scale(0.1 -0.1)">
       <use xlink:href="#DejaVuSans-31" transform="translate(0 0.765625)"/>
       <use xlink:href="#DejaVuSans-30" transform="translate(63.623047 0.765625)"/>
       <use xlink:href="#DejaVuSans-30" transform="translate(128.203125 39.046875) scale(0.7)"/>
      </g>
     </g>
    </g>
    <g id="ytick_4">
     <g id="line2d_57">
      <path d="M 49.50024 251.593005 
L 428.99976 251.593005 
" clip-path="url(#p962d9c7568)" style="fill: none; stroke: #ffffff; stroke-opacity: 0.05; stroke-width: 0.8; stroke-linecap: square"/>
     </g>
     <g id="line2d_58">
      <defs>
       <path id="m7654d55e31" d="M 0 0 
L -2 0 
" style="stroke: #ffffff; stroke-width: 0.6"/>
      </defs>
      <g>
       <use xlink:href="#m7654d55e31" x="49.50024" y="251.593005" style="fill: #ffffff; stroke: #ffffff; stroke-width: 0.6"/>
      </g>
     </g>
    </g>
    <g id="ytick_5">
     <g id="line2d_59">
      <path d="M 49.50024 246.602267 
L 428.99976 246.602267 
" clip-path="url(#p962d9c7568)" style="fill: none; stroke: #ffffff; stroke-opacity: 0.05; stroke-width: 0.8; stroke-linecap: square"/>
     </g>
     <g id="line2d_60">
      <g>
       <use xlink:href="#m7654d55e31" x="49.50024" y="246.602267" style="fill: #ffffff; stroke: #ffffff; stroke-width: 0.6"/>
      </g>
     </g>
    </g>
    <g id="ytick_6">
     <g id="line2d_61">
      <path d="M 49.50024 242.200124 
L 428.99976 242.200124 
" clip-path="url(#p962d9c7568)" style="fill: none; stroke: #ffffff; stroke-opacity: 0.05; stroke-width: 0.8; stroke-linecap: square"/>
     </g>
     <g id="line2d_62">
      <g>
       <use xlink:href="#m7654d55e31" x="49.50024" y="242.200124" style="fill: #ffffff; stroke: #ffffff; stroke-width: 0.6"/>
      </g>
     </g>
    </g>
    <g id="ytick_7">
     <g id="line2d_63">
      <path d="M 49.50024 212.355886 
L 428.99976 212.355886 
" clip-path="url(#p962d9c7568)" style="fill: none; stroke: #ffffff; stroke-opacity: 0.05; stroke-width: 0.8; stroke-linecap: square"/>
     </g>
     <g id="line2d_64">
      <g>
       <use xlink:href="#m7654d55e31" x="49.50024" y="212.355886" style="fill: #ffffff; stroke: #ffffff; stroke-width: 0.6"/>
      </g>
     </g>
    </g>
    <g id="ytick_8">
     <g id="line2d_65">
      <path d="M 49.50024 197.201621 
L 428.99976 197.201621 
" clip-path="url(#p962d9c7568)" style="fill: none; stroke: #ffffff; stroke-opacity: 0.05; stroke-width: 0.8; stroke-linecap: square"/>
     </g>
     <g id="line2d_66">
      <g>
       <use xlink:href="#m7654d55e31" x="49.50024" y="197.201621" style="fill: #ffffff; stroke: #ffffff; stroke-width: 0.6"/>
      </g>
     </g>
    </g>
    <g id="ytick_9">
     <g id="line2d_67">
      <path d="M 49.50024 186.449498 
L 428.99976 186.449498 
" clip-path="url(#p962d9c7568)" style="fill: none; stroke: #ffffff; stroke-opacity: 0.05; stroke-width: 0.8; stroke-linecap: square"/>
     </g>
     <g id="line2d_68">
      <g>
       <use xlink:href="#m7654d55e31" x="49.50024" y="186.449498" style="fill: #ffffff; stroke: #ffffff; stroke-width: 0.6"/>
      </g>
     </g>
    </g>
    <g id="ytick_10">
     <g id="line2d_69">
      <path d="M 49.50024 178.109505 
L 428.99976 178.109505 
" clip-path="url(#p962d9c7568)" style="fill: none; stroke: #ffffff; stroke-opacity: 0.05; stroke-width: 0.8; stroke-linecap: square"/>
     </g>
     <g id="line2d_70">
      <g>
       <use xlink:href="#m7654d55e31" x="49.50024" y="178.109505" style="fill: #ffffff; stroke: #ffffff; stroke-width: 0.6"/>
      </g>
     </g>
    </g>
    <g id="ytick_11">
     <g id="line2d_71">
      <path d="M 49.50024 171.295233 
L 428.99976 171.295233 
" clip-path="url(#p962d9c7568)" style="fill: none; stroke: #ffffff; stroke-opacity: 0.05; stroke-width: 0.8; stroke-linecap: square"/>
     </g>
     <g id="line2d_72">
      <g>
       <use xlink:href="#m7654d55e31" x="49.50024" y="171.295233" style="fill: #ffffff; stroke: #ffffff; stroke-width: 0.6"/>
      </g>
     </g>
    </g>
    <g id="ytick_12">
     <g id="line2d_73">
      <path d="M 49.50024 165.533849 
L 428.99976 165.533849 
" clip-path="url(#p962d9c7568)" style="fill: none; stroke: #ffffff; stroke-opacity: 0.05; stroke-width: 0.8; stroke-linecap: square"/>
     </g>
     <g id="line2d_74">
      <g>
       <use xlink:href="#m7654d55e31" x="49.50024" y="165.533849" style="fill: #ffffff; stroke: #ffffff; stroke-width: 0.6"/>
      </g>
     </g>
    </g>
    <g id="ytick_13">
     <g id="line2d_75">
      <path d="M 49.50024 160.543111 
L 428.99976 160.543111 
" clip-path="url(#p962d9c7568)" style="fill: none; stroke: #ffffff; stroke-opacity: 0.05; stroke-width: 0.8; stroke-linecap: square"/>
     </g>
     <g id="line2d_76">
      <g>
       <use xlink:href="#m7654d55e31" x="49.50024" y="160.543111" style="fill: #ffffff; stroke: #ffffff; stroke-width: 0.6"/>
      </g>
     </g>
    </g>
    <g id="ytick_14">
     <g id="line2d_77">
      <path d="M 49.50024 156.140968 
L 428.99976 156.140968 
" clip-path="url(#p962d9c7568)" style="fill: none; stroke: #ffffff; stroke-opacity: 0.05; stroke-width: 0.8; stroke-linecap: square"/>
     </g>
     <g id="line2d_78">
      <g>
       <use xlink:href="#m7654d55e31" x="49.50024" y="156.140968" style="fill: #ffffff; stroke: #ffffff; stroke-width: 0.6"/>
      </g>
     </g>
    </g>
    <g id="ytick_15">
     <g id="line2d_79">
      <path d="M 49.50024 126.29673 
L 428.99976 126.29673 
" clip-path="url(#p962d9c7568)" style="fill: none; stroke: #ffffff; stroke-opacity: 0.05; stroke-width: 0.8; stroke-linecap: square"/>
     </g>
     <g id="line2d_80">
      <g>
       <use xlink:href="#m7654d55e31" x="49.50024" y="126.29673" style="fill: #ffffff; stroke: #ffffff; stroke-width: 0.6"/>
      </g>
     </g>
    </g>
    <g id="ytick_16">
     <g id="line2d_81">
      <path d="M 49.50024 111.142465 
L 428.99976 111.142465 
" clip-path="url(#p962d9c7568)" style="fill: none; stroke: #ffffff; stroke-opacity: 0.05; stroke-width: 0.8; stroke-linecap: square"/>
     </g>
     <g id="line2d_82">
      <g>
       <use xlink:href="#m7654d55e31" x="49.50024" y="111.142465" style="fill: #ffffff; stroke: #ffffff; stroke-width: 0.6"/>
      </g>
     </g>
    </g>
    <g id="ytick_17">
     <g id="line2d_83">
      <path d="M 49.50024 100.390343 
L 428.99976 100.390343 
" clip-path="url(#p962d9c7568)" style="fill: none; stroke: #ffffff; stroke-opacity: 0.05; stroke-width: 0.8; stroke-linecap: square"/>
     </g>
     <g id="line2d_84">
      <g>
       <use xlink:href="#m7654d55e31" x="49.50024" y="100.390343" style="fill: #ffffff; stroke: #ffffff; stroke-width: 0.6"/>
      </g>
     </g>
    </g>
    <g id="ytick_18">
     <g id="line2d_85">
      <path d="M 49.50024 92.050349 
L 428.99976 92.050349 
" clip-path="url(#p962d9c7568)" style="fill: none; stroke: #ffffff; stroke-opacity: 0.05; stroke-width: 0.8; stroke-linecap: square"/>
     </g>
     <g id="line2d_86">
      <g>
       <use xlink:href="#m7654d55e31" x="49.50024" y="92.050349" style="fill: #ffffff; stroke: #ffffff; stroke-width: 0.6"/>
      </g>
     </g>
    </g>
    <g id="ytick_19">
     <g id="line2d_87">
      <path d="M 49.50024 85.236078 
L 428.99976 85.236078 
" clip-path="url(#p962d9c7568)" style="fill: none; stroke: #ffffff; stroke-opacity: 0.05; stroke-width: 0.8; stroke-linecap: square"/>
     </g>
     <g id="line2d_88">
      <g>
       <use xlink:href="#m7654d55e31" x="49.50024" y="85.236078" style="fill: #ffffff; stroke: #ffffff; stroke-width: 0.6"/>
      </g>
     </g>
    </g>
    <g id="ytick_20">
     <g id="line2d_89">
      <path d="M 49.50024 79.474694 
L 428.99976 79.474694 
" clip-path="url(#p962d9c7568)" style="fill: none; stroke: #ffffff; stroke-opacity: 0.05; stroke-width: 0.8; stroke-linecap: square"/>
     </g>
     <g id="line2d_90">
      <g>
       <use xlink:href="#m7654d55e31" x="49.50024" y="79.474694" style="fill: #ffffff; stroke: #ffffff; stroke-width: 0.6"/>
      </g>
     </g>
    </g>
    <g id="ytick_21">
     <g id="line2d_91">
      <path d="M 49.50024 74.483956 
L 428.99976 74.483956 
" clip-path="url(#p962d9c7568)" style="fill: none; stroke: #ffffff; stroke-opacity: 0.05; stroke-width: 0.8; stroke-linecap: square"/>
     </g>
     <g id="line2d_92">
      <g>
       <use xlink:href="#m7654d55e31" x="49.50024" y="74.483956" style="fill: #ffffff; stroke: #ffffff; stroke-width: 0.6"/>
      </g>
     </g>
    </g>
    <g id="ytick_22">
     <g id="line2d_93">
      <path d="M 49.50024 70.081813 
L 428.99976 70.081813 
" clip-path="url(#p962d9c7568)" style="fill: none; stroke: #ffffff; stroke-opacity: 0.05; stroke-width: 0.8; stroke-linecap: square"/>
     </g>
     <g id="line2d_94">
      <g>
       <use xlink:href="#m7654d55e31" x="49.50024" y="70.081813" style="fill: #ffffff; stroke: #ffffff; stroke-width: 0.6"/>
      </g>
     </g>
    </g>
    <g id="ytick_23">
     <g id="line2d_95">
      <path d="M 49.50024 40.237575 
L 428.99976 40.237575 
" clip-path="url(#p962d9c7568)" style="fill: none; stroke: #ffffff; stroke-opacity: 0.05; stroke-width: 0.8; stroke-linecap: square"/>
     </g>
     <g id="line2d_96">
      <g>
       <use xlink:href="#m7654d55e31" x="49.50024" y="40.237575" style="fill: #ffffff; stroke: #ffffff; stroke-width: 0.6"/>
      </g>
     </g>
    </g>
    <g id="ytick_24">
     <g id="line2d_97">
      <path d="M 49.50024 25.08331 
L 428.99976 25.08331 
" clip-path="url(#p962d9c7568)" style="fill: none; stroke: #ffffff; stroke-opacity: 0.05; stroke-width: 0.8; stroke-linecap: square"/>
     </g>
     <g id="line2d_98">
      <g>
       <use xlink:href="#m7654d55e31" x="49.50024" y="25.08331" style="fill: #ffffff; stroke: #ffffff; stroke-width: 0.6"/>
      </g>
     </g>
    </g>
    <g id="ytick_25">
     <g id="line2d_99">
      <path d="M 49.50024 14.331188 
L 428.99976 14.331188 
" clip-path="url(#p962d9c7568)" style="fill: none; stroke: #ffffff; stroke-opacity: 0.05; stroke-width: 0.8; stroke-linecap: square"/>
     </g>
     <g id="line2d_100">
      <g>
       <use xlink:href="#m7654d55e31" x="49.50024" y="14.331188" style="fill: #ffffff; stroke: #ffffff; stroke-width: 0.6"/>
      </g>
     </g>
    </g>
    <g id="ytick_26">
     <g id="line2d_101">
      <path d="M 49.50024 5.991194 
L 428.99976 5.991194 
" clip-path="url(#p962d9c7568)" style="fill: none; stroke: #ffffff; stroke-opacity: 0.05; stroke-width: 0.8; stroke-linecap: square"/>
     </g>
     <g id="line2d_102">
      <g>
       <use xlink:href="#m7654d55e31" x="49.50024" y="5.991194" style="fill: #ffffff; stroke: #ffffff; stroke-width: 0.6"/>
      </g>
     </g>
    </g>
    <g id="text_8">
     <!-- Normalized cross-section $C_{\rm ext} / \left(\pi a_{\rm eff}^2\right)$ -->
     <g style="fill: #ffffff" transform="translate(12.10024 219.621875) rotate(-90) scale(0.1 -0.1)">
      <defs>
       <path id="DejaVuSans-4e" d="M 628 4666 
L 1478 4666 
L 3547 763 
L 3547 4666 
L 4159 4666 
L 4159 0 
L 3309 0 
L 1241 3903 
L 1241 0 
L 628 0 
L 628 4666 
z
" transform="scale(0.015625)"/>
       <path id="DejaVuSans-6f" d="M 1959 3097 
Q 1497 3097 1228 2736 
Q 959 2375 959 1747 
Q 959 1119 1226 758 
Q 1494 397 1959 397 
Q 2419 397 2687 759 
Q 2956 1122 2956 1747 
Q 2956 2369 2687 2733 
Q 2419 3097 1959 3097 
z
M 1959 3584 
Q 2709 3584 3137 3096 
Q 3566 2609 3566 1747 
Q 3566 888 3137 398 
Q 2709 -91 1959 -91 
Q 1206 -91 779 398 
Q 353 888 353 1747 
Q 353 2609 779 3096 
Q 1206 3584 1959 3584 
z
" transform="scale(0.015625)"/>
       <path id="DejaVuSans-72" d="M 2631 2963 
Q 2534 3019 2420 3045 
Q 2306 3072 2169 3072 
Q 1681 3072 1420 2755 
Q 1159 2438 1159 1844 
L 1159 0 
L 581 0 
L 581 3500 
L 1159 3500 
L 1159 2956 
Q 1341 3275 1631 3429 
Q 1922 3584 2338 3584 
Q 2397 3584 2469 3576 
Q 2541 3569 2628 3553 
L 2631 2963 
z
" transform="scale(0.015625)"/>
       <path id="DejaVuSans-69" d="M 603 3500 
L 1178 3500 
L 1178 0 
L 603 0 
L 603 3500 
z
M 603 4863 
L 1178 4863 
L 1178 4134 
L 603 4134 
L 603 4863 
z
" transform="scale(0.015625)"/>
       <path id="DejaVuSans-7a" d="M 353 3500 
L 3084 3500 
L 3084 2975 
L 922 459 
L 3084 459 
L 3084 0 
L 275 0 
L 275 525 
L 2438 3041 
L 353 3041 
L 353 3500 
z
" transform="scale(0.015625)"/>
       <path id="DejaVuSans-64" d="M 2906 2969 
L 2906 4863 
L 3481 4863 
L 3481 0 
L 2906 0 
L 2906 525 
Q 2725 213 2448 61 
Q 2172 -91 1784 -91 
Q 1150 -91 751 415 
Q 353 922 353 1747 
Q 353 2572 751 3078 
Q 1150 3584 1784 3584 
Q 2172 3584 2448 3432 
Q 2725 3281 2906 2969 
z
M 947 1747 
Q 947 1113 1208 752 
Q 1469 391 1925 391 
Q 2381 391 2643 752 
Q 2906 1113 2906 1747 
Q 2906 2381 2643 2742 
Q 2381 3103 1925 3103 
Q 1469 3103 1208 2742 
Q 947 2381 947 1747 
z
" transform="scale(0.015625)"/>
       <path id="DejaVuSans-63" d="M 3122 3366 
L 3122 2828 
Q 2878 2963 2633 3030 
Q 2388 3097 2138 3097 
Q 1578 3097 1268 2742 
Q 959 2388 959 1747 
Q 959 1106 1268 751 
Q 1578 397 2138 397 
Q 2388 397 2633 464 
Q 2878 531 3122 666 
L 3122 134 
Q 2881 22 2623 -34 
Q 2366 -91 2075 -91 
Q 1284 -91 818 406 
Q 353 903 353 1747 
Q 353 2603 823 3093 
Q 1294 3584 2113 3584 
Q 2378 3584 2631 3529 
Q 2884 3475 3122 3366 
z
" transform="scale(0.015625)"/>
       <path id="DejaVuSans-73" d="M 2834 3397 
L 2834 2853 
Q 2591 2978 2328 3040 
Q 2066 3103 1784 3103 
Q 1356 3103 1142 2972 
Q 928 2841 928 2578 
Q 928 2378 1081 2264 
Q 1234 2150 1697 2047 
L 1894 2003 
Q 2506 1872 2764 1633 
Q 3022 1394 3022 966 
Q 3022 478 2636 193 
Q 2250 -91 1575 -91 
Q 1294 -91 989 -36 
Q 684 19 347 128 
L 347 722 
Q 666 556 975 473 
Q 1284 391 1588 391 
Q 1994 391 2212 530 
Q 2431 669 2431 922 
Q 2431 1156 2273 1281 
Q 2116 1406 1581 1522 
L 1381 1569 
Q 847 1681 609 1914 
Q 372 2147 372 2553 
Q 372 3047 722 3315 
Q 1072 3584 1716 3584 
Q 2034 3584 2315 3537 
Q 2597 3491 2834 3397 
z
" transform="scale(0.015625)"/>
       <path id="DejaVuSans-2d" d="M 313 2009 
L 1997 2009 
L 1997 1497 
L 313 1497 
L 313 2009 
z
" transform="scale(0.015625)"/>
       <path id="DejaVuSans-Oblique-43" d="M 4447 4306 
L 4319 3641 
Q 4019 3944 3683 4091 
Q 3347 4238 2956 4238 
Q 2422 4238 2017 3981 
Q 1613 3725 1319 3200 
Q 1131 2863 1032 2486 
Q 934 2109 934 1728 
Q 934 1091 1264 756 
Q 1594 422 2222 422 
Q 2656 422 3056 561 
Q 3456 700 3834 978 
L 3688 231 
Q 3316 72 2936 -9 
Q 2556 -91 2175 -91 
Q 1278 -91 773 396 
Q 269 884 269 1753 
Q 269 2309 461 2846 
Q 653 3384 1013 3828 
Q 1394 4300 1883 4525 
Q 2372 4750 3022 4750 
Q 3422 4750 3780 4639 
Q 4138 4528 4447 4306 
z
" transform="scale(0.015625)"/>
       <path id="DejaVuSans-78" d="M 3513 3500 
L 2247 1797 
L 3578 0 
L 2900 0 
L 1881 1375 
L 863 0 
L 184 0 
L 1544 1831 
L 300 3500 
L 978 3500 
L 1906 2253 
L 2834 3500 
L 3513 3500 
z
" transform="scale(0.015625)"/>
       <path id="DejaVuSans-2f" d="M 1625 4666 
L 2156 4666 
L 531 -594 
L 0 -594 
L 1625 4666 
z
" transform="scale(0.015625)"/>
       <path id="STIXSizeOneSym-Regular-28" d="M 2445 -858 
L 2445 -1050 
Q 1728 -371 1309 630 
Q 890 1632 890 2886 
Q 890 4122 1309 5136 
Q 1728 6150 2445 6822 
L 2445 6630 
Q 1408 5363 1408 2886 
Q 1408 410 2445 -858 
z
" transform="scale(0.015625)"/>
       <path id="DejaVuSans-Oblique-3c0" d="M 584 3500 
L 3938 3500 
L 3825 2925 
L 3384 2925 
L 2966 775 
Q 2922 550 2981 450 
Q 3038 353 3209 353 
Q 3256 353 3325 363 
Q 3397 369 3419 372 
L 3338 -44 
Q 3222 -84 3103 -103 
Q 2981 -122 2866 -122 
Q 2491 -122 2388 81 
Q 2284 288 2391 838 
L 2797 2925 
L 1506 2925 
L 938 0 
L 350 0 
L 919 2925 
L 472 2925 
L 584 3500 
z
" transform="scale(0.015625)"/>
       <path id="DejaVuSans-Oblique-61" d="M 3438 1997 
L 3047 0 
L 2472 0 
L 2578 531 
Q 2325 219 2001 64 
Q 1678 -91 1281 -91 
Q 834 -91 548 182 
Q 263 456 263 884 
Q 263 1497 752 1853 
Q 1241 2209 2100 2209 
L 2900 2209 
L 2931 2363 
Q 2938 2388 2941 2417 
Q 2944 2447 2944 2509 
Q 2944 2788 2717 2942 
Q 2491 3097 2081 3097 
Q 1800 3097 1504 3025 
Q 1209 2953 897 2809 
L 997 3341 
Q 1322 3463 1633 3523 
Q 1944 3584 2234 3584 
Q 2853 3584 3176 3315 
Q 3500 3047 3500 2534 
Q 3500 2431 3484 2292 
Q 3469 2153 3438 1997 
z
M 2816 1759 
L 2241 1759 
Q 1534 1759 1195 1570 
Q 856 1381 856 984 
Q 856 709 1029 553 
Q 1203 397 1509 397 
Q 1978 397 2328 733 
Q 2678 1069 2791 1631 
L 2816 1759 
z
" transform="scale(0.015625)"/>
       <path id="DejaVuSans-66" d="M 2375 4863 
L 2375 4384 
L 1825 4384 
Q 1516 4384 1395 4259 
Q 1275 4134 1275 3809 
L 1275 3500 
L 2222 3500 
L 2222 3053 
L 1275 3053 
L 1275 0 
L 697 0 
L 697 3053 
L 147 3053 
L 147 3500 
L 697 3500 
L 697 3744 
Q 697 4328 969 4595 
Q 1241 4863 1831 4863 
L 2375 4863 
z
" transform="scale(0.015625)"/>
       <path id="STIXSizeOneSym-Regular-29" d="M 550 6630 
L 550 6822 
Q 1267 6144 1686 5142 
Q 2106 4141 2106 2886 
Q 2106 1651 1686 636 
Q 1267 -378 550 -1050 
L 550 -858 
Q 1587 410 1587 2886 
Q 1587 5363 550 6630 
z
" transform="scale(0.015625)"/>
      </defs>
      <use xlink:href="#DejaVuSans-4e" transform="translate(0 0.701562)"/>
      <use xlink:href="#DejaVuSans-6f" transform="translate(74.804688 0.701562)"/>
      <use xlink:href="#DejaVuSans-72" transform="translate(135.986328 0.701562)"/>
      <use xlink:href="#DejaVuSans-6d" transform="translate(177.099609 0.701562)"/>
      <use xlink:href="#DejaVuSans-61" transform="translate(274.511719 0.701562)"/>
      <use xlink:href="#DejaVuSans-6c" transform="translate(335.791016 0.701562)"/>
      <use xlink:href="#DejaVuSans-69" transform="translate(363.574219 0.701562)"/>
      <use xlink:href="#DejaVuSans-7a" transform="translate(391.357422 0.701562)"/>
      <use xlink:href="#DejaVuSans-65" transform="translate(443.847656 0.701562)"/>
      <use xlink:href="#DejaVuSans-64" transform="translate(505.371094 0.701562)"/>
      <use xlink:href="#DejaVuSans-20" transform="translate(568.847656 0.701562)"/>
      <use xlink:href="#DejaVuSans-63" transform="translate(600.634766 0.701562)"/>
      <use xlink:href="#DejaVuSans-72" transform="translate(655.615234 0.701562)"/>
      <use xlink:href="#DejaVuSans-6f" transform="translate(696.728516 0.701562)"/>
      <use xlink:href="#DejaVuSans-73" transform="translate(757.910156 0.701562)"/>
      <use xlink:href="#DejaVuSans-73" transform="translate(810.009766 0.701562)"/>
      <use xlink:href="#DejaVuSans-2d" transform="translate(862.109375 0.701562)"/>
      <use xlink:href="#DejaVuSans-73" transform="translate(898.193359 0.701562)"/>
      <use xlink:href="#DejaVuSans-65" transform="translate(950.292969 0.701562)"/>
      <use xlink:href="#DejaVuSans-63" transform="translate(1011.816406 0.701562)"/>
      <use xlink:href="#DejaVuSans-74" transform="translate(1066.796875 0.701562)"/>
      <use xlink:href="#DejaVuSans-69" transform="translate(1106.005859 0.701562)"/>
      <use xlink:href="#DejaVuSans-6f" transform="translate(1133.789062 0.701562)"/>
      <use xlink:href="#DejaVuSans-6e" transform="translate(1194.970703 0.701562)"/>
      <use xlink:href="#DejaVuSans-20" transform="translate(1258.349609 0.701562)"/>
      <use xlink:href="#DejaVuSans-Oblique-43" transform="translate(1290.136719 0.701562)"/>
      <use xlink:href="#DejaVuSans-65" transform="translate(1359.960938 -15.704688) scale(0.7)"/>
      <use xlink:href="#DejaVuSans-78" transform="translate(1403.027344 -15.704688) scale(0.7)"/>
      <use xlink:href="#DejaVuSans-74" transform="translate(1444.453125 -15.704688) scale(0.7)"/>
      <use xlink:href="#DejaVuSans-2f" transform="translate(1474.633789 0.701562)"/>
      <use xlink:href="#STIXSizeOneSym-Regular-28" transform="translate(1508.325195 -11.8875) scale(0.964533)"/>
      <use xlink:href="#DejaVuSans-Oblique-3c0" transform="translate(1553.487198 0.701562)"/>
      <use xlink:href="#DejaVuSans-Oblique-61" transform="translate(1613.692276 0.701562)"/>
      <use xlink:href="#DejaVuSans-32" transform="translate(1679.621469 39.046875) scale(0.7)"/>
      <use xlink:href="#DejaVuSans-65" transform="translate(1674.971573 -26.642188) scale(0.7)"/>
      <use xlink:href="#DejaVuSans-66" transform="translate(1718.037979 -26.642188) scale(0.7)"/>
      <use xlink:href="#DejaVuSans-66" transform="translate(1742.681534 -26.642188) scale(0.7)"/>
      <use xlink:href="#STIXSizeOneSym-Regular-29" transform="translate(1770.059464 -11.8875) scale(0.964533)"/>
     </g>
    </g>
   </g>
   <g id="line2d_103">
    <path d="M 66.750218 30.20247 
L 76.449001 28.138477 
L 80.605622 27.084496 
L 84.762244 25.764473 
L 87.533324 24.796399 
L 90.304405 23.565591 
L 93.075486 21.875205 
L 95.846567 19.918357 
L 97.232107 19.144957 
L 98.617648 18.777788 
L 100.003188 18.957551 
L 101.388729 19.675954 
L 102.774269 21.046819 
L 104.159809 22.957287 
L 105.54535 25.41459 
L 106.93089 28.248398 
L 108.316431 31.515152 
L 115.244133 49.694362 
L 118.015214 55.901812 
L 122.171835 64.197359 
L 127.713996 74.445298 
L 149.882643 113.945543 
L 155.424805 123.22266 
L 159.581426 129.873431 
L 165.123588 138.259103 
L 169.280209 144.174148 
L 173.43683 149.765119 
L 177.593451 155.037419 
L 181.750073 160.015203 
L 185.906694 164.71785 
L 190.063315 169.144494 
L 195.605477 174.6669 
L 201.147639 179.820532 
L 206.6898 184.601277 
L 208.075341 185.737283 
L 210.846421 187.331463 
L 213.617502 188.712153 
L 216.388583 189.927372 
L 230.243987 195.367142 
L 235.786149 197.59501 
L 239.94277 199.054761 
L 242.713851 199.835334 
L 245.484932 200.431466 
L 248.256013 200.806025 
L 251.027094 200.997395 
L 259.340336 201.138231 
L 263.496957 201.067712 
L 266.268038 200.910374 
L 270.424659 200.467868 
L 274.581281 199.905729 
L 278.737902 199.786739 
L 280.123442 197.445057 
L 281.508983 198.171037 
L 282.894523 200.099729 
L 284.280064 201.511757 
L 288.436685 202.637424 
L 291.207766 203.221207 
L 295.364387 203.812487 
L 299.521008 204.065947 
L 306.44871 204.352029 
L 313.376412 204.962807 
L 320.304114 205.839749 
L 321.689655 205.561955 
L 323.075195 206.284997 
L 327.231816 206.996136 
L 328.617357 207.319644 
L 330.002897 207.286638 
L 331.388438 205.801454 
L 332.773978 202.375257 
L 334.159519 198.481753 
L 335.545059 195.848439 
L 336.930599 189.678788 
L 338.31614 184.357534 
L 339.70168 179.64875 
L 341.087221 176.976914 
L 342.472761 176.313033 
L 343.858301 177.388415 
L 345.243842 179.94616 
L 349.400463 188.821523 
L 353.557084 200.105863 
L 356.328165 207.872147 
L 357.713706 210.079045 
L 359.099246 210.767724 
L 361.870327 211.815755 
L 363.255867 212.109607 
L 364.641408 212.093952 
L 366.026948 211.650855 
L 367.412488 210.699349 
L 368.798029 209.298394 
L 374.340191 202.656603 
L 375.725731 201.652297 
L 377.111271 201.117117 
L 378.496812 201.046679 
L 379.882352 201.42209 
L 381.267893 202.265936 
L 382.653433 203.60454 
L 386.810054 208.338185 
L 389.581135 211.1909 
L 390.966676 212.866389 
L 393.737756 216.844799 
L 399.279918 225.140374 
L 407.593161 237.216665 
L 411.749782 243.20518 
L 411.749782 243.20518 
" clip-path="url(#p962d9c7568)" style="fill: none; stroke: #8dd3c7; stroke-width: 1.5; stroke-linecap: square"/>
   </g>
   <g id="line2d_104">
    <path d="M 66.750218 31.218732 
L 83.376703 28.782677 
L 91.689946 27.374483 
L 94.461027 26.719652 
L 95.846567 26.249791 
L 97.232107 25.631547 
L 98.617648 24.860384 
L 100.003188 24.218659 
L 101.388729 23.955297 
L 102.774269 23.517053 
L 104.159809 22.343941 
L 106.93089 18.773876 
L 108.316431 17.430703 
L 109.701971 16.684264 
L 111.087512 16.124097 
L 113.858592 14.771841 
L 115.244133 14.465258 
L 116.629673 14.43857 
L 118.015214 14.688492 
L 119.400754 15.118732 
L 120.786294 15.738159 
L 122.171835 16.583706 
L 123.557375 17.610236 
L 126.328456 20.048486 
L 130.485077 23.94783 
L 133.256158 26.897898 
L 136.027239 30.336856 
L 140.18386 36.040209 
L 147.111562 45.895714 
L 154.039264 56.126205 
L 170.665749 80.800583 
L 174.822371 87.394483 
L 181.750073 98.846994 
L 194.219936 119.769493 
L 199.762098 128.638615 
L 205.30426 137.064522 
L 208.075341 141.091226 
L 210.846421 144.520813 
L 213.617502 147.598773 
L 216.388583 150.429896 
L 220.545204 154.140194 
L 223.316285 156.468759 
L 231.629528 162.921887 
L 235.786149 165.749508 
L 239.94277 168.209656 
L 242.713851 169.579581 
L 245.484932 170.700017 
L 248.256013 171.553369 
L 251.027094 172.158687 
L 256.569255 172.960044 
L 260.725876 173.372529 
L 264.882498 173.571104 
L 269.039119 173.465618 
L 275.966821 173.052554 
L 277.352361 173.187134 
L 278.737902 173.051289 
L 280.123442 170.760908 
L 281.508983 171.512259 
L 282.894523 173.463715 
L 284.280064 174.913828 
L 288.436685 176.145865 
L 291.207766 176.791691 
L 295.364387 177.461085 
L 299.521008 177.78718 
L 306.44871 178.160445 
L 313.376412 178.839413 
L 320.304114 179.763122 
L 321.689655 179.495561 
L 323.075195 180.228042 
L 327.231816 180.966048 
L 328.617357 181.303131 
L 330.002897 181.280522 
L 331.388438 179.803612 
L 332.773978 176.387929 
L 334.159519 172.504682 
L 335.545059 169.878521 
L 336.930599 163.714692 
L 338.31614 158.391007 
L 339.70168 153.686307 
L 341.087221 151.002422 
L 342.472761 150.337489 
L 343.858301 151.397587 
L 345.243842 153.954047 
L 349.400463 162.818269 
L 353.557084 174.109453 
L 356.328165 181.881037 
L 357.713706 184.094431 
L 359.099246 184.791971 
L 361.870327 185.84253 
L 363.255867 186.147195 
L 364.641408 186.130598 
L 366.026948 185.697192 
L 367.412488 184.749151 
L 368.798029 183.345431 
L 374.340191 176.71559 
L 375.725731 175.709872 
L 377.111271 175.17392 
L 378.496812 175.09907 
L 379.882352 175.477067 
L 381.267893 176.323864 
L 382.653433 177.6583 
L 386.810054 182.395977 
L 389.581135 185.248421 
L 390.966676 186.919936 
L 393.737756 190.89797 
L 399.279918 199.203965 
L 410.364241 215.27263 
L 411.749782 217.275652 
L 411.749782 217.275652 
" clip-path="url(#p962d9c7568)" style="fill: none; stroke: #feffb3; stroke-width: 1.5; stroke-linecap: square"/>
   </g>
   <g id="line2d_105">
    <path d="M 66.750218 33.142609 
L 95.846567 30.573184 
L 97.232107 30.366132 
L 98.617648 30.032289 
L 101.388729 28.981282 
L 102.774269 28.929621 
L 104.159809 30.005082 
L 105.54535 31.733743 
L 108.316431 34.284034 
L 109.701971 34.846155 
L 111.087512 32.553772 
L 112.473052 29.090011 
L 113.858592 26.951046 
L 115.244133 26.054252 
L 116.629673 25.330002 
L 119.400754 22.964764 
L 120.786294 22.542852 
L 122.171835 22.852802 
L 123.557375 23.321413 
L 124.942916 23.504254 
L 126.328456 23.200897 
L 129.099537 21.892364 
L 130.485077 21.467097 
L 134.641699 20.622633 
L 137.412779 19.592533 
L 142.954941 17.018285 
L 144.340481 16.709273 
L 147.111562 16.505695 
L 151.268184 16.417159 
L 154.039264 16.702323 
L 156.810345 17.353961 
L 159.581426 18.336138 
L 162.352507 19.769475 
L 165.123588 21.624645 
L 169.280209 24.735816 
L 172.05129 27.049356 
L 174.822371 29.817667 
L 177.593451 32.997756 
L 183.135613 39.959321 
L 188.677775 47.338614 
L 194.219936 55.118803 
L 206.6898 73.154213 
L 212.231962 81.502088 
L 219.159664 91.795793 
L 226.087366 101.959281 
L 228.858447 106.226279 
L 233.015068 112.290724 
L 237.171689 117.964543 
L 239.94277 121.526164 
L 242.713851 124.808712 
L 245.484932 127.7861 
L 248.256013 130.434517 
L 251.027094 132.708083 
L 253.798174 134.66535 
L 256.569255 136.413945 
L 259.340336 137.951616 
L 262.111417 139.267739 
L 264.882498 140.370896 
L 267.653579 141.204084 
L 270.424659 141.824177 
L 275.966821 142.754198 
L 277.352361 143.140995 
L 278.737902 143.282506 
L 280.123442 141.280562 
L 281.508983 142.137655 
L 282.894523 144.187645 
L 284.280064 145.800769 
L 287.051144 147.014868 
L 289.822225 148.052202 
L 292.593306 148.890442 
L 295.364387 149.549263 
L 299.521008 150.199578 
L 307.834251 151.178246 
L 317.533034 152.670008 
L 320.304114 153.145382 
L 321.689655 152.917972 
L 323.075195 153.690242 
L 327.231816 154.539815 
L 328.617357 154.921438 
L 330.002897 154.944872 
L 331.388438 153.515688 
L 332.773978 150.149391 
L 334.159519 146.298194 
L 335.545059 143.716877 
L 336.930599 137.589275 
L 338.31614 132.272619 
L 339.70168 127.548824 
L 341.087221 124.844258 
L 342.472761 124.130043 
L 343.858301 125.159595 
L 345.243842 127.676108 
L 349.400463 136.508001 
L 353.557084 147.816087 
L 356.328165 155.625332 
L 357.713706 157.865214 
L 359.099246 158.59022 
L 361.870327 159.68387 
L 363.255867 160.007688 
L 364.641408 160.000422 
L 366.026948 159.578647 
L 367.412488 158.653599 
L 368.798029 157.266949 
L 374.340191 150.660098 
L 375.725731 149.660426 
L 377.111271 149.12062 
L 378.496812 149.049988 
L 379.882352 149.4209 
L 381.267893 150.269793 
L 382.653433 151.599353 
L 386.810054 156.341803 
L 389.581135 159.19454 
L 390.966676 160.862558 
L 393.737756 164.847675 
L 399.279918 173.154244 
L 407.593161 185.263516 
L 411.749782 191.271046 
L 411.749782 191.271046 
" clip-path="url(#p962d9c7568)" style="fill: none; stroke: #bfbbd9; stroke-width: 1.5; stroke-linecap: square"/>
   </g>
   <g id="line2d_106">
    <path d="M 66.750218 35.464942 
L 93.075486 33.76759 
L 100.003188 33.180151 
L 102.774269 32.854057 
L 104.159809 32.585222 
L 105.54535 32.089197 
L 106.93089 31.856062 
L 108.316431 32.374795 
L 109.701971 33.305887 
L 111.087512 33.510306 
L 113.858592 31.98133 
L 116.629673 31.43415 
L 118.015214 31.382838 
L 119.400754 30.942688 
L 120.786294 29.968207 
L 124.942916 28.237652 
L 126.328456 28.565008 
L 127.713996 29.645964 
L 129.099537 30.49817 
L 130.485077 31.515676 
L 133.256158 34.923223 
L 134.641699 35.468149 
L 136.027239 35.461228 
L 137.412779 35.648852 
L 138.79832 35.684295 
L 140.18386 34.680462 
L 142.954941 31.228881 
L 144.340481 30.112681 
L 145.726022 29.275008 
L 147.111562 28.038317 
L 148.497103 26.505073 
L 149.882643 25.218535 
L 151.268184 24.48289 
L 152.653724 24.23125 
L 154.039264 24.192716 
L 155.424805 23.990653 
L 158.195886 22.952116 
L 159.581426 22.69351 
L 160.966966 22.781739 
L 163.738047 23.254014 
L 165.123588 23.180813 
L 166.509128 22.763417 
L 169.280209 21.665121 
L 172.05129 21.012962 
L 174.822371 20.425928 
L 177.593451 19.568923 
L 180.364532 18.401158 
L 183.135613 17.259191 
L 184.521154 16.905694 
L 187.292234 16.62133 
L 191.448856 16.477196 
L 194.219936 16.639227 
L 196.991017 17.142748 
L 199.762098 17.975847 
L 201.147639 18.537327 
L 203.918719 20.033743 
L 206.6898 21.94635 
L 210.846421 25.248709 
L 213.617502 27.723344 
L 216.388583 30.619504 
L 219.159664 33.808634 
L 226.087366 42.112708 
L 230.243987 47.705067 
L 241.328311 62.279218 
L 248.256013 71.049564 
L 255.183715 79.376049 
L 260.725876 85.777722 
L 264.882498 90.310849 
L 267.653579 93.073296 
L 270.424659 95.601069 
L 273.19574 97.835823 
L 278.737902 102.220449 
L 280.123442 101.316054 
L 281.508983 102.416744 
L 284.280064 106.747094 
L 287.051144 109.2227 
L 289.822225 111.423449 
L 292.593306 113.355242 
L 295.364387 115.031966 
L 298.135468 116.432988 
L 300.906549 117.612051 
L 307.834251 120.145063 
L 316.147493 122.903775 
L 320.304114 124.218735 
L 321.689655 124.176843 
L 323.075195 125.105991 
L 330.002897 127.27342 
L 331.388438 126.080617 
L 332.773978 122.953669 
L 334.159519 119.258928 
L 335.545059 116.831416 
L 336.930599 110.854382 
L 338.31614 105.603629 
L 339.70168 100.858273 
L 341.087221 98.03899 
L 342.472761 97.17302 
L 343.858301 98.026278 
L 345.243842 100.388503 
L 349.400463 109.015488 
L 350.786004 112.677437 
L 352.171544 116.712291 
L 353.557084 120.324151 
L 356.328165 128.271389 
L 357.713706 130.641351 
L 359.099246 131.474883 
L 361.870327 132.735509 
L 363.255867 133.130456 
L 364.641408 133.207908 
L 366.026948 132.855099 
L 367.412488 131.995076 
L 368.798029 130.658922 
L 374.340191 124.185174 
L 375.725731 123.182371 
L 377.111271 122.650094 
L 378.496812 122.571665 
L 379.882352 122.937465 
L 381.267893 123.777571 
L 382.653433 125.097475 
L 386.810054 129.835503 
L 389.581135 132.700559 
L 390.966676 134.377702 
L 393.737756 138.369106 
L 399.279918 146.731031 
L 408.978701 160.909936 
L 411.749782 164.959294 
L 411.749782 164.959294 
" clip-path="url(#p962d9c7568)" style="fill: none; stroke: #fa8174; stroke-width: 1.5; stroke-linecap: square"/>
   </g>
   <g id="patch_4">
    <path d="M 49.50024 254.64351 
L 49.50024 3.00024 
" style="fill: none; stroke: #ffffff; stroke-width: 0.8; stroke-linejoin: miter; stroke-linecap: square"/>
   </g>
   <g id="patch_5">
    <path d="M 428.99976 254.64351 
L 428.99976 3.00024 
" style="fill: none; stroke: #ffffff; stroke-width: 0.8; stroke-linejoin: miter; stroke-linecap: square"/>
   </g>
   <g id="patch_6">
    <path d="M 49.50024 254.64351 
L 428.99976 254.64351 
" style="fill: none; stroke: #ffffff; stroke-width: 0.8; stroke-linejoin: miter; stroke-linecap: square"/>
   </g>
   <g id="patch_7">
    <path d="M 49.50024 3.00024 
L 428.99976 3.00024 
" style="fill: none; stroke: #ffffff; stroke-width: 0.8; stroke-linejoin: miter; stroke-linecap: square"/>
   </g>
   <g id="patch_8">
    <path d="M 280.828151 215.240842 
Q 280.828151 209.894646 280.828151 204.54845 
" style="fill: none; opacity: 0.5; stroke: #ffffff; stroke-linecap: round"/>
   </g>
   <g id="text_9">
    <!-- C-H stretch -->
    <g style="fill: #ffffff; opacity: 0.5" transform="translate(258.342526 225.315508) scale(0.08 -0.08)">
     <defs>
      <path id="DejaVuSans-43" d="M 4122 4306 
L 4122 3641 
Q 3803 3938 3442 4084 
Q 3081 4231 2675 4231 
Q 1875 4231 1450 3742 
Q 1025 3253 1025 2328 
Q 1025 1406 1450 917 
Q 1875 428 2675 428 
Q 3081 428 3442 575 
Q 3803 722 4122 1019 
L 4122 359 
Q 3791 134 3420 21 
Q 3050 -91 2638 -91 
Q 1578 -91 968 557 
Q 359 1206 359 2328 
Q 359 3453 968 4101 
Q 1578 4750 2638 4750 
Q 3056 4750 3426 4639 
Q 3797 4528 4122 4306 
z
" transform="scale(0.015625)"/>
      <path id="DejaVuSans-48" d="M 628 4666 
L 1259 4666 
L 1259 2753 
L 3553 2753 
L 3553 4666 
L 4184 4666 
L 4184 0 
L 3553 0 
L 3553 2222 
L 1259 2222 
L 1259 0 
L 628 0 
L 628 4666 
z
" transform="scale(0.015625)"/>
     </defs>
     <use xlink:href="#DejaVuSans-43"/>
     <use xlink:href="#DejaVuSans-2d" x="69.824219"/>
     <use xlink:href="#DejaVuSans-48" x="105.908203"/>
     <use xlink:href="#DejaVuSans-20" x="181.103516"/>
     <use xlink:href="#DejaVuSans-73" x="212.890625"/>
     <use xlink:href="#DejaVuSans-74" x="264.990234"/>
     <use xlink:href="#DejaVuSans-72" x="304.199219"/>
     <use xlink:href="#DejaVuSans-65" x="343.0625"/>
     <use xlink:href="#DejaVuSans-74" x="404.585938"/>
     <use xlink:href="#DejaVuSans-63" x="443.794922"/>
     <use xlink:href="#DejaVuSans-68" x="498.775391"/>
    </g>
   </g>
   <g id="patch_9">
    <path d="M 342.007428 82.350766 
Q 342.007428 86.964487 342.007428 91.578209 
" style="fill: none; opacity: 0.5; stroke: #ffffff; stroke-linecap: round"/>
   </g>
   <g id="text_10">
    <!-- Si-O stretch -->
    <g style="fill: #ffffff; opacity: 0.5" transform="translate(318.413678 76.691456) scale(0.08 -0.08)">
     <defs>
      <path id="DejaVuSans-53" d="M 3425 4513 
L 3425 3897 
Q 3066 4069 2747 4153 
Q 2428 4238 2131 4238 
Q 1616 4238 1336 4038 
Q 1056 3838 1056 3469 
Q 1056 3159 1242 3001 
Q 1428 2844 1947 2747 
L 2328 2669 
Q 3034 2534 3370 2195 
Q 3706 1856 3706 1288 
Q 3706 609 3251 259 
Q 2797 -91 1919 -91 
Q 1588 -91 1214 -16 
Q 841 59 441 206 
L 441 856 
Q 825 641 1194 531 
Q 1563 422 1919 422 
Q 2459 422 2753 634 
Q 3047 847 3047 1241 
Q 3047 1584 2836 1778 
Q 2625 1972 2144 2069 
L 1759 2144 
Q 1053 2284 737 2584 
Q 422 2884 422 3419 
Q 422 4038 858 4394 
Q 1294 4750 2059 4750 
Q 2388 4750 2728 4690 
Q 3069 4631 3425 4513 
z
" transform="scale(0.015625)"/>
      <path id="DejaVuSans-4f" d="M 2522 4238 
Q 1834 4238 1429 3725 
Q 1025 3213 1025 2328 
Q 1025 1447 1429 934 
Q 1834 422 2522 422 
Q 3209 422 3611 934 
Q 4013 1447 4013 2328 
Q 4013 3213 3611 3725 
Q 3209 4238 2522 4238 
z
M 2522 4750 
Q 3503 4750 4090 4092 
Q 4678 3434 4678 2328 
Q 4678 1225 4090 567 
Q 3503 -91 2522 -91 
Q 1538 -91 948 565 
Q 359 1222 359 2328 
Q 359 3434 948 4092 
Q 1538 4750 2522 4750 
z
" transform="scale(0.015625)"/>
     </defs>
     <use xlink:href="#DejaVuSans-53"/>
     <use xlink:href="#DejaVuSans-69" x="63.476562"/>
     <use xlink:href="#DejaVuSans-2d" x="91.259766"/>
     <use xlink:href="#DejaVuSans-4f" x="130.09375"/>
     <use xlink:href="#DejaVuSans-20" x="208.804688"/>
     <use xlink:href="#DejaVuSans-73" x="240.591797"/>
     <use xlink:href="#DejaVuSans-74" x="292.691406"/>
     <use xlink:href="#DejaVuSans-72" x="331.900391"/>
     <use xlink:href="#DejaVuSans-65" x="370.763672"/>
     <use xlink:href="#DejaVuSans-74" x="432.287109"/>
     <use xlink:href="#DejaVuSans-63" x="471.496094"/>
     <use xlink:href="#DejaVuSans-68" x="526.476562"/>
    </g>
   </g>
   <g id="patch_10">
    <path d="M 378.493875 108.257153 
Q 378.493875 112.870874 378.493875 117.484596 
" style="fill: none; opacity: 0.5; stroke: #ffffff; stroke-linecap: round"/>
   </g>
   <g id="text_11">
    <!-- O-Si-O bend -->
    <g style="fill: #ffffff; opacity: 0.5" transform="translate(354.09325 102.597843) scale(0.08 -0.08)">
     <defs>
      <path id="DejaVuSans-62" d="M 3116 1747 
Q 3116 2381 2855 2742 
Q 2594 3103 2138 3103 
Q 1681 3103 1420 2742 
Q 1159 2381 1159 1747 
Q 1159 1113 1420 752 
Q 1681 391 2138 391 
Q 2594 391 2855 752 
Q 3116 1113 3116 1747 
z
M 1159 2969 
Q 1341 3281 1617 3432 
Q 1894 3584 2278 3584 
Q 2916 3584 3314 3078 
Q 3713 2572 3713 1747 
Q 3713 922 3314 415 
Q 2916 -91 2278 -91 
Q 1894 -91 1617 61 
Q 1341 213 1159 525 
L 1159 0 
L 581 0 
L 581 4863 
L 1159 4863 
L 1159 2969 
z
" transform="scale(0.015625)"/>
     </defs>
     <use xlink:href="#DejaVuSans-4f"/>
     <use xlink:href="#DejaVuSans-2d" x="81.460938"/>
     <use xlink:href="#DejaVuSans-53" x="117.544922"/>
     <use xlink:href="#DejaVuSans-69" x="181.021484"/>
     <use xlink:href="#DejaVuSans-2d" x="208.804688"/>
     <use xlink:href="#DejaVuSans-4f" x="247.638672"/>
     <use xlink:href="#DejaVuSans-20" x="326.349609"/>
     <use xlink:href="#DejaVuSans-62" x="358.136719"/>
     <use xlink:href="#DejaVuSans-65" x="421.613281"/>
     <use xlink:href="#DejaVuSans-6e" x="483.136719"/>
     <use xlink:href="#DejaVuSans-64" x="546.515625"/>
    </g>
   </g>
   <g id="text_12">
    <!-- visible -->
    <g style="fill: #81b1d2; opacity: 0.5" transform="translate(154.892999 250.740289) scale(0.1 -0.1)">
     <use xlink:href="#DejaVuSans-76"/>
     <use xlink:href="#DejaVuSans-69" x="59.179688"/>
     <use xlink:href="#DejaVuSans-73" x="86.962891"/>
     <use xlink:href="#DejaVuSans-69" x="139.0625"/>
     <use xlink:href="#DejaVuSans-62" x="166.845703"/>
     <use xlink:href="#DejaVuSans-6c" x="230.322266"/>
     <use xlink:href="#DejaVuSans-65" x="258.105469"/>
    </g>
   </g>
   <g id="text_13">
    <!-- $a = 0.05\,\mu{\rm m}$ -->
    <g style="fill: #8dd3c7" transform="translate(129.643494 69.036852) rotate(-299.452211) scale(0.08 -0.08)">
     <defs>
      <path id="DejaVuSans-3d" d="M 678 2906 
L 4684 2906 
L 4684 2381 
L 678 2381 
L 678 2906 
z
M 678 1631 
L 4684 1631 
L 4684 1100 
L 678 1100 
L 678 1631 
z
" transform="scale(0.015625)"/>
      <path id="DejaVuSans-2e" d="M 684 794 
L 1344 794 
L 1344 0 
L 684 0 
L 684 794 
z
" transform="scale(0.015625)"/>
      <path id="DejaVuSans-35" d="M 691 4666 
L 3169 4666 
L 3169 4134 
L 1269 4134 
L 1269 2991 
Q 1406 3038 1543 3061 
Q 1681 3084 1819 3084 
Q 2600 3084 3056 2656 
Q 3513 2228 3513 1497 
Q 3513 744 3044 326 
Q 2575 -91 1722 -91 
Q 1428 -91 1123 -41 
Q 819 9 494 109 
L 494 744 
Q 775 591 1075 516 
Q 1375 441 1709 441 
Q 2250 441 2565 725 
Q 2881 1009 2881 1497 
Q 2881 1984 2565 2268 
Q 2250 2553 1709 2553 
Q 1456 2553 1204 2497 
Q 953 2441 691 2322 
L 691 4666 
z
" transform="scale(0.015625)"/>
      <path id="DejaVuSans-Oblique-3bc" d="M -84 -1331 
L 856 3500 
L 1434 3500 
L 1009 1322 
Q 997 1256 987 1175 
Q 978 1094 978 1013 
Q 978 722 1161 565 
Q 1344 409 1684 409 
Q 2147 409 2431 671 
Q 2716 934 2816 1459 
L 3213 3500 
L 3788 3500 
L 3266 809 
Q 3253 750 3248 706 
Q 3244 663 3244 628 
Q 3244 531 3283 486 
Q 3322 441 3406 441 
Q 3438 441 3492 456 
Q 3547 472 3647 513 
L 3559 50 
Q 3422 -19 3297 -55 
Q 3172 -91 3053 -91 
Q 2847 -91 2730 40 
Q 2613 172 2613 403 
Q 2438 153 2195 31 
Q 1953 -91 1625 -91 
Q 1334 -91 1117 43 
Q 900 178 831 397 
L 494 -1331 
L -84 -1331 
z
" transform="scale(0.015625)"/>
     </defs>
     <use xlink:href="#DejaVuSans-Oblique-61" transform="translate(0 0.78125)"/>
     <use xlink:href="#DejaVuSans-3d" transform="translate(80.761719 0.78125)"/>
     <use xlink:href="#DejaVuSans-30" transform="translate(184.033203 0.78125)"/>
     <use xlink:href="#DejaVuSans-2e" transform="translate(247.65625 0.78125)"/>
     <use xlink:href="#DejaVuSans-30" transform="translate(279.443359 0.78125)"/>
     <use xlink:href="#DejaVuSans-35" transform="translate(343.066406 0.78125)"/>
     <use xlink:href="#DejaVuSans-Oblique-3bc" transform="translate(422.925129 0.78125)"/>
     <use xlink:href="#DejaVuSans-6d" transform="translate(486.548176 0.78125)"/>
    </g>
   </g>
   <g id="text_14">
    <!-- $a = 0.1\,\mu{\rm m}$ -->
    <g style="fill: #feffb3" transform="translate(170.443217 71.749179) rotate(-301.561543) scale(0.08 -0.08)">
     <use xlink:href="#DejaVuSans-Oblique-61" transform="translate(0 0.78125)"/>
     <use xlink:href="#DejaVuSans-3d" transform="translate(80.761719 0.78125)"/>
     <use xlink:href="#DejaVuSans-30" transform="translate(184.033203 0.78125)"/>
     <use xlink:href="#DejaVuSans-2e" transform="translate(247.65625 0.78125)"/>
     <use xlink:href="#DejaVuSans-31" transform="translate(279.443359 0.78125)"/>
     <use xlink:href="#DejaVuSans-Oblique-3bc" transform="translate(359.302083 0.78125)"/>
     <use xlink:href="#DejaVuSans-6d" transform="translate(422.925129 0.78125)"/>
    </g>
   </g>
   <g id="text_15">
    <!-- $a = 0.2\,\mu{\rm m}$ -->
    <g style="fill: #bfbbd9" transform="translate(211.191058 72.600915) rotate(-304.936919) scale(0.08 -0.08)">
     <use xlink:href="#DejaVuSans-Oblique-61" transform="translate(0 0.78125)"/>
     <use xlink:href="#DejaVuSans-3d" transform="translate(80.761719 0.78125)"/>
     <use xlink:href="#DejaVuSans-30" transform="translate(184.033203 0.78125)"/>
     <use xlink:href="#DejaVuSans-2e" transform="translate(247.65625 0.78125)"/>
     <use xlink:href="#DejaVuSans-32" transform="translate(273.943359 0.78125)"/>
     <use xlink:href="#DejaVuSans-Oblique-3bc" transform="translate(353.802083 0.78125)"/>
     <use xlink:href="#DejaVuSans-6d" transform="translate(417.425129 0.78125)"/>
    </g>
   </g>
   <g id="text_16">
    <!-- $a = 0.4\,\mu{\rm m}$ -->
    <g style="fill: #fa8174" transform="translate(249.357495 66.669784) rotate(-312.141488) scale(0.08 -0.08)">
     <defs>
      <path id="DejaVuSans-34" d="M 2419 4116 
L 825 1625 
L 2419 1625 
L 2419 4116 
z
M 2253 4666 
L 3047 4666 
L 3047 1625 
L 3713 1625 
L 3713 1100 
L 3047 1100 
L 3047 0 
L 2419 0 
L 2419 1100 
L 313 1100 
L 313 1709 
L 2253 4666 
z
" transform="scale(0.015625)"/>
     </defs>
     <use xlink:href="#DejaVuSans-Oblique-61" transform="translate(0 0.78125)"/>
     <use xlink:href="#DejaVuSans-3d" transform="translate(80.761719 0.78125)"/>
     <use xlink:href="#DejaVuSans-30" transform="translate(184.033203 0.78125)"/>
     <use xlink:href="#DejaVuSans-2e" transform="translate(247.65625 0.78125)"/>
     <use xlink:href="#DejaVuSans-34" transform="translate(279.443359 0.78125)"/>
     <use xlink:href="#DejaVuSans-Oblique-3bc" transform="translate(359.302083 0.78125)"/>
     <use xlink:href="#DejaVuSans-6d" transform="translate(422.925129 0.78125)"/>
    </g>
   </g>
   <g id="text_17">
    <!-- 20% porosity -->
    <g style="fill: #ffffff" transform="translate(344.321659 23.180841) scale(0.1 -0.1)">
     <defs>
      <path id="DejaVuSans-25" d="M 4653 2053 
Q 4381 2053 4226 1822 
Q 4072 1591 4072 1178 
Q 4072 772 4226 539 
Q 4381 306 4653 306 
Q 4919 306 5073 539 
Q 5228 772 5228 1178 
Q 5228 1588 5073 1820 
Q 4919 2053 4653 2053 
z
M 4653 2450 
Q 5147 2450 5437 2106 
Q 5728 1763 5728 1178 
Q 5728 594 5436 251 
Q 5144 -91 4653 -91 
Q 4153 -91 3862 251 
Q 3572 594 3572 1178 
Q 3572 1766 3864 2108 
Q 4156 2450 4653 2450 
z
M 1428 4353 
Q 1159 4353 1004 4120 
Q 850 3888 850 3481 
Q 850 3069 1003 2837 
Q 1156 2606 1428 2606 
Q 1700 2606 1854 2837 
Q 2009 3069 2009 3481 
Q 2009 3884 1853 4118 
Q 1697 4353 1428 4353 
z
M 4250 4750 
L 4750 4750 
L 1831 -91 
L 1331 -91 
L 4250 4750 
z
M 1428 4750 
Q 1922 4750 2215 4408 
Q 2509 4066 2509 3481 
Q 2509 2891 2217 2550 
Q 1925 2209 1428 2209 
Q 931 2209 642 2551 
Q 353 2894 353 3481 
Q 353 4063 643 4406 
Q 934 4750 1428 4750 
z
" transform="scale(0.015625)"/>
      <path id="DejaVuSans-70" d="M 1159 525 
L 1159 -1331 
L 581 -1331 
L 581 3500 
L 1159 3500 
L 1159 2969 
Q 1341 3281 1617 3432 
Q 1894 3584 2278 3584 
Q 2916 3584 3314 3078 
Q 3713 2572 3713 1747 
Q 3713 922 3314 415 
Q 2916 -91 2278 -91 
Q 1894 -91 1617 61 
Q 1341 213 1159 525 
z
M 3116 1747 
Q 3116 2381 2855 2742 
Q 2594 3103 2138 3103 
Q 1681 3103 1420 2742 
Q 1159 2381 1159 1747 
Q 1159 1113 1420 752 
Q 1681 391 2138 391 
Q 2594 391 2855 752 
Q 3116 1113 3116 1747 
z
" transform="scale(0.015625)"/>
      <path id="DejaVuSans-79" d="M 2059 -325 
Q 1816 -950 1584 -1140 
Q 1353 -1331 966 -1331 
L 506 -1331 
L 506 -850 
L 844 -850 
Q 1081 -850 1212 -737 
Q 1344 -625 1503 -206 
L 1606 56 
L 191 3500 
L 800 3500 
L 1894 763 
L 2988 3500 
L 3597 3500 
L 2059 -325 
z
" transform="scale(0.015625)"/>
     </defs>
     <use xlink:href="#DejaVuSans-32"/>
     <use xlink:href="#DejaVuSans-30" x="63.623047"/>
     <use xlink:href="#DejaVuSans-25" x="127.246094"/>
     <use xlink:href="#DejaVuSans-20" x="222.265625"/>
     <use xlink:href="#DejaVuSans-70" x="254.052734"/>
     <use xlink:href="#DejaVuSans-6f" x="317.529297"/>
     <use xlink:href="#DejaVuSans-72" x="378.710938"/>
     <use xlink:href="#DejaVuSans-6f" x="417.574219"/>
     <use xlink:href="#DejaVuSans-73" x="478.755859"/>
     <use xlink:href="#DejaVuSans-69" x="530.855469"/>
     <use xlink:href="#DejaVuSans-74" x="558.638672"/>
     <use xlink:href="#DejaVuSans-79" x="597.847656"/>
    </g>
    <!-- No Fe inclusions -->
    <g style="fill: #ffffff" transform="translate(329.331034 34.378653) scale(0.1 -0.1)">
     <defs>
      <path id="DejaVuSans-46" d="M 628 4666 
L 3309 4666 
L 3309 4134 
L 1259 4134 
L 1259 2759 
L 3109 2759 
L 3109 2228 
L 1259 2228 
L 1259 0 
L 628 0 
L 628 4666 
z
" transform="scale(0.015625)"/>
      <path id="DejaVuSans-75" d="M 544 1381 
L 544 3500 
L 1119 3500 
L 1119 1403 
Q 1119 906 1312 657 
Q 1506 409 1894 409 
Q 2359 409 2629 706 
Q 2900 1003 2900 1516 
L 2900 3500 
L 3475 3500 
L 3475 0 
L 2900 0 
L 2900 538 
Q 2691 219 2414 64 
Q 2138 -91 1772 -91 
Q 1169 -91 856 284 
Q 544 659 544 1381 
z
M 1991 3584 
L 1991 3584 
z
" transform="scale(0.015625)"/>
     </defs>
     <use xlink:href="#DejaVuSans-4e"/>
     <use xlink:href="#DejaVuSans-6f" x="74.804688"/>
     <use xlink:href="#DejaVuSans-20" x="135.986328"/>
     <use xlink:href="#DejaVuSans-46" x="167.773438"/>
     <use xlink:href="#DejaVuSans-65" x="219.792969"/>
     <use xlink:href="#DejaVuSans-20" x="281.316406"/>
     <use xlink:href="#DejaVuSans-69" x="313.103516"/>
     <use xlink:href="#DejaVuSans-6e" x="340.886719"/>
     <use xlink:href="#DejaVuSans-63" x="404.265625"/>
     <use xlink:href="#DejaVuSans-6c" x="459.246094"/>
     <use xlink:href="#DejaVuSans-75" x="487.029297"/>
     <use xlink:href="#DejaVuSans-73" x="550.408203"/>
     <use xlink:href="#DejaVuSans-69" x="602.507812"/>
     <use xlink:href="#DejaVuSans-6f" x="630.291016"/>
     <use xlink:href="#DejaVuSans-6e" x="691.472656"/>
     <use xlink:href="#DejaVuSans-73" x="754.851562"/>
    </g>
    <!-- Axis ratio $b/a = 0.5$ -->
    <g style="fill: #ffffff" transform="translate(315.824784 45.576466) scale(0.1 -0.1)">
     <defs>
      <path id="DejaVuSans-41" d="M 2188 4044 
L 1331 1722 
L 3047 1722 
L 2188 4044 
z
M 1831 4666 
L 2547 4666 
L 4325 0 
L 3669 0 
L 3244 1197 
L 1141 1197 
L 716 0 
L 50 0 
L 1831 4666 
z
" transform="scale(0.015625)"/>
      <path id="DejaVuSans-Oblique-62" d="M 3169 2138 
Q 3169 2591 2961 2847 
Q 2753 3103 2388 3103 
Q 2122 3103 1889 2973 
Q 1656 2844 1484 2597 
Q 1303 2338 1198 1995 
Q 1094 1653 1094 1313 
Q 1094 881 1298 636 
Q 1503 391 1863 391 
Q 2134 391 2365 517 
Q 2597 644 2772 891 
Q 2950 1147 3059 1487 
Q 3169 1828 3169 2138 
z
M 1381 2969 
Q 1594 3256 1914 3420 
Q 2234 3584 2584 3584 
Q 3122 3584 3439 3221 
Q 3756 2859 3756 2241 
Q 3756 1734 3570 1259 
Q 3384 784 3041 416 
Q 2816 172 2522 40 
Q 2228 -91 1906 -91 
Q 1566 -91 1316 65 
Q 1066 222 909 531 
L 806 0 
L 231 0 
L 1178 4863 
L 1753 4863 
L 1381 2969 
z
" transform="scale(0.015625)"/>
     </defs>
     <use xlink:href="#DejaVuSans-41" transform="translate(0 0.015625)"/>
     <use xlink:href="#DejaVuSans-78" transform="translate(68.408203 0.015625)"/>
     <use xlink:href="#DejaVuSans-69" transform="translate(127.587891 0.015625)"/>
     <use xlink:href="#DejaVuSans-73" transform="translate(155.371094 0.015625)"/>
     <use xlink:href="#DejaVuSans-20" transform="translate(207.470703 0.015625)"/>
     <use xlink:href="#DejaVuSans-72" transform="translate(239.257812 0.015625)"/>
     <use xlink:href="#DejaVuSans-61" transform="translate(280.371094 0.015625)"/>
     <use xlink:href="#DejaVuSans-74" transform="translate(341.650391 0.015625)"/>
     <use xlink:href="#DejaVuSans-69" transform="translate(380.859375 0.015625)"/>
     <use xlink:href="#DejaVuSans-6f" transform="translate(408.642578 0.015625)"/>
     <use xlink:href="#DejaVuSans-20" transform="translate(469.824219 0.015625)"/>
     <use xlink:href="#DejaVuSans-Oblique-62" transform="translate(501.611328 0.015625)"/>
     <use xlink:href="#DejaVuSans-2f" transform="translate(565.087891 0.015625)"/>
     <use xlink:href="#DejaVuSans-Oblique-61" transform="translate(598.779297 0.015625)"/>
     <use xlink:href="#DejaVuSans-3d" transform="translate(679.541016 0.015625)"/>
     <use xlink:href="#DejaVuSans-30" transform="translate(782.8125 0.015625)"/>
     <use xlink:href="#DejaVuSans-2e" transform="translate(846.435547 0.015625)"/>
     <use xlink:href="#DejaVuSans-35" transform="translate(878.222656 0.015625)"/>
    </g>
   </g>
  </g>
 </g>
 <defs>
  <clipPath id="p962d9c7568">
   <rect x="49.50024" y="3.00024" width="379.49952" height="251.64327"/>
  </clipPath>
 </defs>
</svg>
