<?xml version="1.0" encoding="utf-8" standalone="no"?>
<!DOCTYPE svg PUBLIC "-//W3C//DTD SVG 1.1//EN"
  "http://www.w3.org/Graphics/SVG/1.1/DTD/svg11.dtd">
<svg xmlns:xlink="http://www.w3.org/1999/xlink" width="432pt" height="360pt" viewBox="0 0 432 360" xmlns="http://www.w3.org/2000/svg" version="1.1">
 <metadata>
  <rdf:RDF xmlns:dc="http://purl.org/dc/elements/1.1/" xmlns:cc="http://creativecommons.org/ns#" xmlns:rdf="http://www.w3.org/1999/02/22-rdf-syntax-ns#">
   <cc:Work>
    <dc:type rdf:resource="http://purl.org/dc/dcmitype/StillImage"/>
    <dc:date>2024-07-30T11:28:58.780617</dc:date>
    <dc:format>image/svg+xml</dc:format>
    <dc:creator>
     <cc:Agent>
      <dc:title>Matplotlib v3.8.4, https://matplotlib.org/</dc:title>
     </cc:Agent>
    </dc:creator>
   </cc:Work>
  </rdf:RDF>
 </metadata>
 <defs>
  <style type="text/css">*{stroke-linejoin: round; stroke-linecap: butt}</style>
 </defs>
 <g id="figure_1">
  <g id="patch_1">
   <path d="M 0 360 
L 432 360 
L 432 0 
L 0 0 
z
"/>
  </g>
  <g id="axes_1">
   <g id="patch_2">
    <path d="M 50.640637 323.03817 
L 421.2 323.03817 
L 421.2 10.8 
L 50.640637 10.8 
z
"/>
   </g>
   <g id="line2d_1">
    <path d="M 50.640637 34.656334 
L 61.57251 39.633228 
L 67.820987 42.843183 
L 84.991874 51.885979 
L 94.363352 55.824101 
L 99.050972 57.604325 
L 102.172641 58.597011 
L 105.297006 59.39515 
L 108.421953 59.933964 
L 111.537957 60.214016 
L 114.665882 60.195587 
L 117.788557 59.901501 
L 120.911456 59.381556 
L 124.032648 58.632997 
L 127.157007 57.595881 
L 130.282382 56.211233 
L 133.400442 54.427831 
L 136.528346 52.32055 
L 141.213594 49.008537 
L 142.773922 48.10447 
L 144.332213 47.426048 
L 145.894027 47.055879 
L 147.458989 47.041226 
L 149.021151 47.404358 
L 150.580373 48.08387 
L 152.141967 49.012966 
L 155.265641 51.291616 
L 159.948706 54.792197 
L 163.073127 56.803031 
L 166.193492 58.488417 
L 169.317664 59.879203 
L 172.443446 61.035033 
L 175.564292 62.004567 
L 180.250298 63.205144 
L 186.497198 64.491228 
L 189.620861 65.176947 
L 206.794414 69.508448 
L 217.728455 72.470719 
L 230.21938 76.141279 
L 241.150918 79.578272 
L 252.081002 83.311649 
L 264.573886 87.835711 
L 275.504916 92.0848 
L 284.873871 95.919092 
L 295.804889 100.656384 
L 305.173423 104.938735 
L 316.104925 110.225169 
L 327.036022 115.806112 
L 336.409446 120.554601 
L 337.970758 121.123962 
L 341.094584 121.962618 
L 342.656583 122.941478 
L 345.779535 125.51247 
L 348.892179 127.598153 
L 353.584743 130.298173 
L 359.824227 133.578499 
L 364.508722 136.002443 
L 392.62013 152.557039 
L 403.553733 158.590777 
L 411.362435 162.656557 
L 417.60436 165.667437 
L 423.849435 168.376922 
L 430.099724 170.83893 
L 433 171.90974 
L 433 171.90974 
" clip-path="url(#p321d2b80a4)" style="fill: none; stroke: #ffffff; stroke-opacity: 0.5; stroke-width: 1.5; stroke-linecap: square"/>
   </g>
   <g id="line2d_2">
    <path d="M 50.640637 34.656334 
L 61.57251 39.633228 
L 67.820987 42.843183 
L 84.991874 51.885979 
L 94.363352 55.824101 
L 99.050972 57.604325 
L 102.172641 58.597011 
L 105.297006 59.39515 
L 108.421953 59.933964 
L 111.537957 60.214016 
L 114.665882 60.195587 
L 117.788557 59.901501 
L 120.911456 59.381556 
L 124.032648 58.632997 
L 127.157007 57.595881 
L 130.282382 56.211233 
L 133.400442 54.427831 
L 136.528346 52.32055 
L 141.213594 49.008537 
L 142.773922 48.10447 
L 144.332213 47.426048 
L 145.894027 47.055879 
L 147.458989 47.041226 
L 149.021151 47.404358 
L 150.580373 48.08387 
L 152.141967 49.012966 
L 155.265641 51.291616 
L 159.948706 54.792197 
L 163.073127 56.803031 
L 166.193492 58.488417 
L 169.317664 59.879203 
L 172.443446 61.035033 
L 175.564292 62.004567 
L 180.250298 63.205144 
L 186.497198 64.491228 
L 189.620861 65.176947 
L 206.794414 69.508448 
L 217.728455 72.470719 
L 230.21938 76.141279 
L 241.150918 79.578272 
L 252.081002 83.311649 
L 264.573886 87.835711 
L 275.504916 92.0848 
L 284.873871 95.919092 
L 295.804889 100.656384 
L 305.173423 104.938735 
L 316.104925 110.225169 
L 327.036022 115.806112 
L 336.409446 120.554601 
L 337.970758 121.123962 
L 341.094584 121.962618 
L 342.656583 122.941478 
L 345.779535 125.51247 
L 348.892179 127.598153 
L 353.584743 130.298173 
L 359.824227 133.578499 
L 364.508722 136.002443 
L 392.62013 152.557039 
L 403.553733 158.590777 
L 411.362435 162.656557 
L 417.60436 165.667437 
L 423.849435 168.376922 
L 430.099724 170.83893 
L 433 171.90974 
L 433 171.90974 
" clip-path="url(#p321d2b80a4)" style="fill: none; stroke: #ffffff; stroke-width: 1.5; stroke-linecap: square"/>
   </g>
   <g id="matplotlib.axis_1">
    <g id="xtick_1">
     <g id="line2d_3">
      <defs>
       <path id="m5220ca7d08" d="M 0 0 
L 0 -3.5 
" style="stroke: #ffffff; stroke-width: 0.8"/>
      </defs>
      <g>
       <use xlink:href="#m5220ca7d08" x="50.640637" y="323.03817" style="fill: #ffffff; stroke: #ffffff; stroke-width: 0.8"/>
      </g>
     </g>
     <g id="line2d_4">
      <defs>
       <path id="m3e68e77961" d="M 0 0 
L 0 3.5 
" style="stroke: #ffffff; stroke-width: 0.8"/>
      </defs>
      <g>
       <use xlink:href="#m3e68e77961" x="50.640637" y="10.8" style="fill: #ffffff; stroke: #ffffff; stroke-width: 0.8"/>
      </g>
     </g>
     <g id="text_1">
      <!-- $\mathdefault{0.10}$ -->
      <g style="fill: #ffffff" transform="translate(42.885827 332.216827) scale(0.08 -0.08)">
       <defs>
        <path id="NimbusSanL-Regu-30" d="M 1760 4544 
C 1338 4544 954 4360 717 4046 
C 422 3651 275 3044 275 2208 
C 275 683 787 -128 1760 -128 
C 2720 -128 3245 683 3245 2170 
C 3245 3050 3104 3638 2803 4046 
C 2566 4366 2189 4544 1760 4544 
z
M 1760 4044 
C 2368 4044 2669 3432 2669 2221 
C 2669 939 2374 340 1747 340 
C 1152 340 851 965 851 2202 
C 851 3438 1152 4044 1760 4044 
z
" transform="scale(0.015625)"/>
        <path id="NimbusSanL-Regu-2e" d="M 1222 667 
L 557 667 
L 557 0 
L 1222 0 
L 1222 667 
z
" transform="scale(0.015625)"/>
        <path id="NimbusSanL-Regu-31" d="M 1658 3238 
L 1658 0 
L 2221 0 
L 2221 4545 
L 1850 4545 
C 1651 3847 1523 3751 653 3642 
L 653 3238 
L 1658 3238 
z
" transform="scale(0.015625)"/>
       </defs>
       <use xlink:href="#NimbusSanL-Regu-30" transform="scale(0.996264)"/>
       <use xlink:href="#NimbusSanL-Regu-2e" transform="translate(55.391677 0) scale(0.996264)"/>
       <use xlink:href="#NimbusSanL-Regu-31" transform="translate(83.086847 0) scale(0.996264)"/>
       <use xlink:href="#NimbusSanL-Regu-30" transform="translate(138.478524 0) scale(0.996264)"/>
      </g>
     </g>
    </g>
    <g id="xtick_2">
     <g id="line2d_5">
      <g>
       <use xlink:href="#m5220ca7d08" x="335.460637" y="323.03817" style="fill: #ffffff; stroke: #ffffff; stroke-width: 0.8"/>
      </g>
     </g>
     <g id="line2d_6">
      <g>
       <use xlink:href="#m3e68e77961" x="335.460637" y="10.8" style="fill: #ffffff; stroke: #ffffff; stroke-width: 0.8"/>
      </g>
     </g>
     <g id="text_2">
      <!-- $\mathdefault{1.00}$ -->
      <g style="fill: #ffffff" transform="translate(327.705827 332.216827) scale(0.08 -0.08)">
       <use xlink:href="#NimbusSanL-Regu-31" transform="scale(0.996264)"/>
       <use xlink:href="#NimbusSanL-Regu-2e" transform="translate(55.391677 0) scale(0.996264)"/>
       <use xlink:href="#NimbusSanL-Regu-30" transform="translate(83.086847 0) scale(0.996264)"/>
       <use xlink:href="#NimbusSanL-Regu-30" transform="translate(138.478524 0) scale(0.996264)"/>
      </g>
     </g>
    </g>
    <g id="xtick_3">
     <g id="line2d_7">
      <defs>
       <path id="m938e0b6878" d="M 0 0 
L 0 -2 
" style="stroke: #ffffff; stroke-width: 0.6"/>
      </defs>
      <g>
       <use xlink:href="#m938e0b6878" x="136.38" y="323.03817" style="fill: #ffffff; stroke: #ffffff; stroke-width: 0.6"/>
      </g>
     </g>
     <g id="line2d_8">
      <defs>
       <path id="m652972acc7" d="M 0 0 
L 0 2 
" style="stroke: #ffffff; stroke-width: 0.6"/>
      </defs>
      <g>
       <use xlink:href="#m652972acc7" x="136.38" y="10.8" style="fill: #ffffff; stroke: #ffffff; stroke-width: 0.6"/>
      </g>
     </g>
    </g>
    <g id="xtick_4">
     <g id="line2d_9">
      <g>
       <use xlink:href="#m938e0b6878" x="186.534312" y="323.03817" style="fill: #ffffff; stroke: #ffffff; stroke-width: 0.6"/>
      </g>
     </g>
     <g id="line2d_10">
      <g>
       <use xlink:href="#m652972acc7" x="186.534312" y="10.8" style="fill: #ffffff; stroke: #ffffff; stroke-width: 0.6"/>
      </g>
     </g>
    </g>
    <g id="xtick_5">
     <g id="line2d_11">
      <g>
       <use xlink:href="#m938e0b6878" x="222.119363" y="323.03817" style="fill: #ffffff; stroke: #ffffff; stroke-width: 0.6"/>
      </g>
     </g>
     <g id="line2d_12">
      <g>
       <use xlink:href="#m652972acc7" x="222.119363" y="10.8" style="fill: #ffffff; stroke: #ffffff; stroke-width: 0.6"/>
      </g>
     </g>
    </g>
    <g id="xtick_6">
     <g id="line2d_13">
      <g>
       <use xlink:href="#m938e0b6878" x="249.721273" y="323.03817" style="fill: #ffffff; stroke: #ffffff; stroke-width: 0.6"/>
      </g>
     </g>
     <g id="line2d_14">
      <g>
       <use xlink:href="#m652972acc7" x="249.721273" y="10.8" style="fill: #ffffff; stroke: #ffffff; stroke-width: 0.6"/>
      </g>
     </g>
    </g>
    <g id="xtick_7">
     <g id="line2d_15">
      <g>
       <use xlink:href="#m938e0b6878" x="272.273676" y="323.03817" style="fill: #ffffff; stroke: #ffffff; stroke-width: 0.6"/>
      </g>
     </g>
     <g id="line2d_16">
      <g>
       <use xlink:href="#m652972acc7" x="272.273676" y="10.8" style="fill: #ffffff; stroke: #ffffff; stroke-width: 0.6"/>
      </g>
     </g>
    </g>
    <g id="xtick_8">
     <g id="line2d_17">
      <g>
       <use xlink:href="#m938e0b6878" x="291.34146" y="323.03817" style="fill: #ffffff; stroke: #ffffff; stroke-width: 0.6"/>
      </g>
     </g>
     <g id="line2d_18">
      <g>
       <use xlink:href="#m652972acc7" x="291.34146" y="10.8" style="fill: #ffffff; stroke: #ffffff; stroke-width: 0.6"/>
      </g>
     </g>
    </g>
    <g id="xtick_9">
     <g id="line2d_19">
      <g>
       <use xlink:href="#m938e0b6878" x="307.858727" y="323.03817" style="fill: #ffffff; stroke: #ffffff; stroke-width: 0.6"/>
      </g>
     </g>
     <g id="line2d_20">
      <g>
       <use xlink:href="#m652972acc7" x="307.858727" y="10.8" style="fill: #ffffff; stroke: #ffffff; stroke-width: 0.6"/>
      </g>
     </g>
    </g>
    <g id="xtick_10">
     <g id="line2d_21">
      <g>
       <use xlink:href="#m938e0b6878" x="322.427988" y="323.03817" style="fill: #ffffff; stroke: #ffffff; stroke-width: 0.6"/>
      </g>
     </g>
     <g id="line2d_22">
      <g>
       <use xlink:href="#m652972acc7" x="322.427988" y="10.8" style="fill: #ffffff; stroke: #ffffff; stroke-width: 0.6"/>
      </g>
     </g>
    </g>
    <g id="xtick_11">
     <g id="line2d_23">
      <g>
       <use xlink:href="#m938e0b6878" x="421.2" y="323.03817" style="fill: #ffffff; stroke: #ffffff; stroke-width: 0.6"/>
      </g>
     </g>
     <g id="line2d_24">
      <g>
       <use xlink:href="#m652972acc7" x="421.2" y="10.8" style="fill: #ffffff; stroke: #ffffff; stroke-width: 0.6"/>
      </g>
     </g>
    </g>
    <g id="text_3">
     <!-- $\lambda\ (\mu{\rm m})$ -->
     <g style="fill: #ffffff" transform="translate(218.362549 346.653625) scale(0.12 -0.12)">
      <defs>
       <path id="CMMI12-15" d="M 1978 3965 
C 1818 4416 1312 4416 1229 4416 
C 1190 4416 1120 4416 1120 4352 
C 1120 4302 1158 4295 1190 4289 
C 1286 4276 1363 4263 1466 4080 
C 1530 3959 2189 2059 2189 2046 
C 2189 2040 2182 2033 2131 1982 
L 467 311 
C 390 234 339 183 339 102 
C 339 12 416 -64 518 -64 
C 544 -64 614 -51 653 -13 
C 755 82 1670 1194 2253 1881 
C 2419 1383 2624 797 2822 261 
C 2854 166 2886 76 2976 -6 
C 3040 -64 3053 -64 3232 -64 
L 3354 -64 
C 3379 -64 3424 -64 3424 -13 
C 3424 13 3418 19 3392 45 
C 3334 115 3290 229 3264 306 
L 1978 3965 
z
" transform="scale(0.015625)"/>
       <path id="NimbusSanL-Regu-28" d="M 1510 4672 
C 870 3830 467 2660 467 1651 
C 467 636 870 -534 1510 -1376 
L 1862 -1376 
C 1299 -457 986 623 986 1651 
C 986 2673 1299 3759 1862 4672 
L 1510 4672 
z
" transform="scale(0.015625)"/>
       <path id="CMMI12-16" d="M 922 140 
C 1082 -6 1318 -64 1536 -64 
C 1946 -64 2227 208 2374 405 
C 2438 69 2707 -64 2931 -64 
C 3123 -64 3277 50 3392 277 
C 3494 493 3584 879 3584 903 
C 3584 935 3558 960 3520 960 
C 3462 960 3456 928 3430 834 
C 3334 461 3213 64 2950 64 
C 2765 64 2752 229 2752 358 
C 2752 504 2810 735 2854 926 
L 3034 1615 
C 3059 1737 3130 2023 3162 2139 
C 3200 2292 3270 2567 3270 2592 
C 3270 2688 3194 2752 3098 2752 
C 3040 2752 2906 2726 2854 2535 
L 2406 760 
C 2374 632 2374 619 2291 517 
C 2214 409 1965 64 1562 64 
C 1203 64 1088 326 1088 625 
C 1088 811 1146 1034 1171 1143 
L 1459 2293 
C 1491 2414 1542 2618 1542 2657 
C 1542 2759 1459 2816 1376 2816 
C 1318 2816 1178 2797 1126 2592 
L 198 -1107 
C 192 -1139 179 -1177 179 -1216 
C 179 -1312 256 -1376 352 -1376 
C 538 -1376 576 -1228 621 -1050 
L 922 140 
z
" transform="scale(0.015625)"/>
       <path id="NimbusSanL-Regu-6d" d="M 448 3359 
L 448 0 
L 986 0 
L 986 2109 
C 986 2597 1338 2988 1773 2988 
C 2170 2988 2394 2744 2394 2314 
L 2394 0 
L 2931 0 
L 2931 2109 
C 2931 2597 3283 2988 3718 2988 
C 4109 2988 4339 2738 4339 2314 
L 4339 0 
L 4877 0 
L 4877 2520 
C 4877 3122 4531 3456 3904 3456 
C 3456 3456 3187 3321 2874 2943 
C 2675 3302 2406 3456 1971 3456 
C 1523 3456 1229 3289 941 2885 
L 941 3359 
L 448 3359 
z
" transform="scale(0.015625)"/>
       <path id="NimbusSanL-Regu-29" d="M 595 -1376 
C 1235 -534 1638 636 1638 1644 
C 1638 2660 1235 3830 595 4672 
L 243 4672 
C 806 3753 1120 2673 1120 1644 
C 1120 623 806 -464 243 -1376 
L 595 -1376 
z
" transform="scale(0.015625)"/>
      </defs>
      <use xlink:href="#CMMI12-15" transform="scale(0.996264)"/>
      <use xlink:href="#NimbusSanL-Regu-28" transform="translate(84.599241 0) scale(0.996264)"/>
      <use xlink:href="#CMMI12-16" transform="translate(117.774471 0) scale(0.996264)"/>
      <use xlink:href="#NimbusSanL-Regu-6d" transform="translate(176.465893 0) scale(0.996264)"/>
      <use xlink:href="#NimbusSanL-Regu-29" transform="translate(259.454323 0) scale(0.996264)"/>
     </g>
    </g>
   </g>
   <g id="matplotlib.axis_2">
    <g id="ytick_1">
     <g id="line2d_25">
      <defs>
       <path id="mcfcf7daad7" d="M 0 0 
L 3.5 0 
" style="stroke: #ffffff; stroke-width: 0.8"/>
      </defs>
      <g>
       <use xlink:href="#mcfcf7daad7" x="50.640637" y="298.160115" style="fill: #ffffff; stroke: #ffffff; stroke-width: 0.8"/>
      </g>
     </g>
     <g id="line2d_26">
      <defs>
       <path id="m677ae9e1d7" d="M 0 0 
L -3.5 0 
" style="stroke: #ffffff; stroke-width: 0.8"/>
      </defs>
      <g>
       <use xlink:href="#m677ae9e1d7" x="421.2" y="298.160115" style="fill: #ffffff; stroke: #ffffff; stroke-width: 0.8"/>
      </g>
     </g>
     <g id="text_4">
      <!-- $\mathdefault{10^{-24}}$ -->
      <g style="fill: #ffffff" transform="translate(25.874848 300.999443) scale(0.08 -0.08)">
       <defs>
        <path id="CMSY10-0" d="M 4218 1472 
C 4326 1472 4442 1472 4442 1600 
C 4442 1728 4326 1728 4218 1728 
L 755 1728 
C 646 1728 531 1728 531 1600 
C 531 1472 646 1472 755 1472 
L 4218 1472 
z
" transform="scale(0.015625)"/>
        <path id="NimbusSanL-Regu-32" d="M 3238 558 
L 851 558 
C 909 930 1114 1167 1670 1494 
L 2310 1840 
C 2944 2186 3270 2653 3270 3211 
C 3270 3589 3117 3942 2848 4185 
C 2579 4429 2246 4544 1818 4544 
C 1242 4544 813 4339 563 3955 
C 403 3711 333 3429 320 2967 
L 883 2967 
C 902 3275 941 3461 1018 3608 
C 1165 3884 1459 4051 1798 4051 
C 2310 4051 2694 3685 2694 3198 
C 2694 2839 2483 2531 2080 2301 
L 1491 1968 
C 544 1430 269 1000 218 0 
L 3238 0 
L 3238 558 
z
" transform="scale(0.015625)"/>
        <path id="NimbusSanL-Regu-34" d="M 2093 1088 
L 2093 0 
L 2656 0 
L 2656 1088 
L 3328 1088 
L 3328 1594 
L 2656 1594 
L 2656 4545 
L 2240 4545 
L 179 1684 
L 179 1088 
L 2093 1088 
z
M 2093 1594 
L 672 1594 
L 2093 3583 
L 2093 1594 
z
" transform="scale(0.015625)"/>
       </defs>
       <use xlink:href="#NimbusSanL-Regu-31" transform="scale(0.996264)"/>
       <use xlink:href="#NimbusSanL-Regu-30" transform="translate(55.391677 0) scale(0.996264)"/>
       <use xlink:href="#CMSY10-0" transform="translate(110.783354 36.153639) scale(0.697382)"/>
       <use xlink:href="#NimbusSanL-Regu-32" transform="translate(165.024347 36.153639) scale(0.697382)"/>
       <use xlink:href="#NimbusSanL-Regu-34" transform="translate(203.798348 36.153639) scale(0.697382)"/>
      </g>
     </g>
    </g>
    <g id="ytick_2">
     <g id="line2d_27">
      <g>
       <use xlink:href="#mcfcf7daad7" x="50.640637" y="215.517005" style="fill: #ffffff; stroke: #ffffff; stroke-width: 0.8"/>
      </g>
     </g>
     <g id="line2d_28">
      <g>
       <use xlink:href="#m677ae9e1d7" x="421.2" y="215.517005" style="fill: #ffffff; stroke: #ffffff; stroke-width: 0.8"/>
      </g>
     </g>
     <g id="text_5">
      <!-- $\mathdefault{10^{-23}}$ -->
      <g style="fill: #ffffff" transform="translate(25.874848 218.356333) scale(0.08 -0.08)">
       <defs>
        <path id="NimbusSanL-Regu-33" d="M 1414 2112 
L 1485 2112 
L 1722 2112 
C 2342 2112 2662 1830 2662 1284 
C 2662 712 2310 372 1722 372 
C 1107 372 806 681 768 1345 
L 205 1345 
C 230 978 294 740 403 534 
C 634 97 1082 -128 1702 -128 
C 2637 -128 3238 431 3238 1293 
C 3238 1872 3014 2194 2470 2381 
C 2893 2546 3104 2862 3104 3311 
C 3104 4082 2586 4544 1722 4544 
C 806 4544 320 4050 301 3095 
L 864 3095 
C 870 3366 896 3517 966 3655 
C 1094 3900 1376 4051 1728 4051 
C 2227 4051 2528 3760 2528 3287 
C 2528 2971 2413 2781 2163 2681 
C 2010 2618 1811 2592 1414 2592 
L 1414 2112 
z
" transform="scale(0.015625)"/>
       </defs>
       <use xlink:href="#NimbusSanL-Regu-31" transform="scale(0.996264)"/>
       <use xlink:href="#NimbusSanL-Regu-30" transform="translate(55.391677 0) scale(0.996264)"/>
       <use xlink:href="#CMSY10-0" transform="translate(110.783354 36.153639) scale(0.697382)"/>
       <use xlink:href="#NimbusSanL-Regu-32" transform="translate(165.024347 36.153639) scale(0.697382)"/>
       <use xlink:href="#NimbusSanL-Regu-33" transform="translate(203.798348 36.153639) scale(0.697382)"/>
      </g>
     </g>
    </g>
    <g id="ytick_3">
     <g id="line2d_29">
      <g>
       <use xlink:href="#mcfcf7daad7" x="50.640637" y="132.873895" style="fill: #ffffff; stroke: #ffffff; stroke-width: 0.8"/>
      </g>
     </g>
     <g id="line2d_30">
      <g>
       <use xlink:href="#m677ae9e1d7" x="421.2" y="132.873895" style="fill: #ffffff; stroke: #ffffff; stroke-width: 0.8"/>
      </g>
     </g>
     <g id="text_6">
      <!-- $\mathdefault{10^{-22}}$ -->
      <g style="fill: #ffffff" transform="translate(25.874848 135.713223) scale(0.08 -0.08)">
       <use xlink:href="#NimbusSanL-Regu-31" transform="scale(0.996264)"/>
       <use xlink:href="#NimbusSanL-Regu-30" transform="translate(55.391677 0) scale(0.996264)"/>
       <use xlink:href="#CMSY10-0" transform="translate(110.783354 36.153639) scale(0.697382)"/>
       <use xlink:href="#NimbusSanL-Regu-32" transform="translate(165.024347 36.153639) scale(0.697382)"/>
       <use xlink:href="#NimbusSanL-Regu-32" transform="translate(203.798348 36.153639) scale(0.697382)"/>
      </g>
     </g>
    </g>
    <g id="ytick_4">
     <g id="line2d_31">
      <g>
       <use xlink:href="#mcfcf7daad7" x="50.640637" y="50.230784" style="fill: #ffffff; stroke: #ffffff; stroke-width: 0.8"/>
      </g>
     </g>
     <g id="line2d_32">
      <g>
       <use xlink:href="#m677ae9e1d7" x="421.2" y="50.230784" style="fill: #ffffff; stroke: #ffffff; stroke-width: 0.8"/>
      </g>
     </g>
     <g id="text_7">
      <!-- $\mathdefault{10^{-21}}$ -->
      <g style="fill: #ffffff" transform="translate(25.874848 53.070113) scale(0.08 -0.08)">
       <use xlink:href="#NimbusSanL-Regu-31" transform="scale(0.996264)"/>
       <use xlink:href="#NimbusSanL-Regu-30" transform="translate(55.391677 0) scale(0.996264)"/>
       <use xlink:href="#CMSY10-0" transform="translate(110.783354 36.153639) scale(0.697382)"/>
       <use xlink:href="#NimbusSanL-Regu-32" transform="translate(165.024347 36.153639) scale(0.697382)"/>
       <use xlink:href="#NimbusSanL-Regu-31" transform="translate(203.798348 36.153639) scale(0.697382)"/>
      </g>
     </g>
    </g>
    <g id="ytick_5">
     <g id="line2d_33">
      <defs>
       <path id="mead050176e" d="M 0 0 
L 2 0 
" style="stroke: #ffffff; stroke-width: 0.6"/>
      </defs>
      <g>
       <use xlink:href="#mead050176e" x="50.640637" y="323.03817" style="fill: #ffffff; stroke: #ffffff; stroke-width: 0.6"/>
      </g>
     </g>
     <g id="line2d_34">
      <defs>
       <path id="mfa495e49b6" d="M 0 0 
L -2 0 
" style="stroke: #ffffff; stroke-width: 0.6"/>
      </defs>
      <g>
       <use xlink:href="#mfa495e49b6" x="421.2" y="323.03817" style="fill: #ffffff; stroke: #ffffff; stroke-width: 0.6"/>
      </g>
     </g>
    </g>
    <g id="ytick_6">
     <g id="line2d_35">
      <g>
       <use xlink:href="#mead050176e" x="50.640637" y="316.494386" style="fill: #ffffff; stroke: #ffffff; stroke-width: 0.6"/>
      </g>
     </g>
     <g id="line2d_36">
      <g>
       <use xlink:href="#mfa495e49b6" x="421.2" y="316.494386" style="fill: #ffffff; stroke: #ffffff; stroke-width: 0.6"/>
      </g>
     </g>
    </g>
    <g id="ytick_7">
     <g id="line2d_37">
      <g>
       <use xlink:href="#mead050176e" x="50.640637" y="310.961695" style="fill: #ffffff; stroke: #ffffff; stroke-width: 0.6"/>
      </g>
     </g>
     <g id="line2d_38">
      <g>
       <use xlink:href="#mfa495e49b6" x="421.2" y="310.961695" style="fill: #ffffff; stroke: #ffffff; stroke-width: 0.6"/>
      </g>
     </g>
    </g>
    <g id="ytick_8">
     <g id="line2d_39">
      <g>
       <use xlink:href="#mead050176e" x="50.640637" y="306.16906" style="fill: #ffffff; stroke: #ffffff; stroke-width: 0.6"/>
      </g>
     </g>
     <g id="line2d_40">
      <g>
       <use xlink:href="#mfa495e49b6" x="421.2" y="306.16906" style="fill: #ffffff; stroke: #ffffff; stroke-width: 0.6"/>
      </g>
     </g>
    </g>
    <g id="ytick_9">
     <g id="line2d_41">
      <g>
       <use xlink:href="#mead050176e" x="50.640637" y="301.941657" style="fill: #ffffff; stroke: #ffffff; stroke-width: 0.6"/>
      </g>
     </g>
     <g id="line2d_42">
      <g>
       <use xlink:href="#mfa495e49b6" x="421.2" y="301.941657" style="fill: #ffffff; stroke: #ffffff; stroke-width: 0.6"/>
      </g>
     </g>
    </g>
    <g id="ytick_10">
     <g id="line2d_43">
      <g>
       <use xlink:href="#mead050176e" x="50.640637" y="273.28206" style="fill: #ffffff; stroke: #ffffff; stroke-width: 0.6"/>
      </g>
     </g>
     <g id="line2d_44">
      <g>
       <use xlink:href="#mfa495e49b6" x="421.2" y="273.28206" style="fill: #ffffff; stroke: #ffffff; stroke-width: 0.6"/>
      </g>
     </g>
    </g>
    <g id="ytick_11">
     <g id="line2d_45">
      <g>
       <use xlink:href="#mead050176e" x="50.640637" y="258.729331" style="fill: #ffffff; stroke: #ffffff; stroke-width: 0.6"/>
      </g>
     </g>
     <g id="line2d_46">
      <g>
       <use xlink:href="#mfa495e49b6" x="421.2" y="258.729331" style="fill: #ffffff; stroke: #ffffff; stroke-width: 0.6"/>
      </g>
     </g>
    </g>
    <g id="ytick_12">
     <g id="line2d_47">
      <g>
       <use xlink:href="#mead050176e" x="50.640637" y="248.404005" style="fill: #ffffff; stroke: #ffffff; stroke-width: 0.6"/>
      </g>
     </g>
     <g id="line2d_48">
      <g>
       <use xlink:href="#mfa495e49b6" x="421.2" y="248.404005" style="fill: #ffffff; stroke: #ffffff; stroke-width: 0.6"/>
      </g>
     </g>
    </g>
    <g id="ytick_13">
     <g id="line2d_49">
      <g>
       <use xlink:href="#mead050176e" x="50.640637" y="240.39506" style="fill: #ffffff; stroke: #ffffff; stroke-width: 0.6"/>
      </g>
     </g>
     <g id="line2d_50">
      <g>
       <use xlink:href="#mfa495e49b6" x="421.2" y="240.39506" style="fill: #ffffff; stroke: #ffffff; stroke-width: 0.6"/>
      </g>
     </g>
    </g>
    <g id="ytick_14">
     <g id="line2d_51">
      <g>
       <use xlink:href="#mead050176e" x="50.640637" y="233.851276" style="fill: #ffffff; stroke: #ffffff; stroke-width: 0.6"/>
      </g>
     </g>
     <g id="line2d_52">
      <g>
       <use xlink:href="#mfa495e49b6" x="421.2" y="233.851276" style="fill: #ffffff; stroke: #ffffff; stroke-width: 0.6"/>
      </g>
     </g>
    </g>
    <g id="ytick_15">
     <g id="line2d_53">
      <g>
       <use xlink:href="#mead050176e" x="50.640637" y="228.318585" style="fill: #ffffff; stroke: #ffffff; stroke-width: 0.6"/>
      </g>
     </g>
     <g id="line2d_54">
      <g>
       <use xlink:href="#mfa495e49b6" x="421.2" y="228.318585" style="fill: #ffffff; stroke: #ffffff; stroke-width: 0.6"/>
      </g>
     </g>
    </g>
    <g id="ytick_16">
     <g id="line2d_55">
      <g>
       <use xlink:href="#mead050176e" x="50.640637" y="223.52595" style="fill: #ffffff; stroke: #ffffff; stroke-width: 0.6"/>
      </g>
     </g>
     <g id="line2d_56">
      <g>
       <use xlink:href="#mfa495e49b6" x="421.2" y="223.52595" style="fill: #ffffff; stroke: #ffffff; stroke-width: 0.6"/>
      </g>
     </g>
    </g>
    <g id="ytick_17">
     <g id="line2d_57">
      <g>
       <use xlink:href="#mead050176e" x="50.640637" y="219.298546" style="fill: #ffffff; stroke: #ffffff; stroke-width: 0.6"/>
      </g>
     </g>
     <g id="line2d_58">
      <g>
       <use xlink:href="#mfa495e49b6" x="421.2" y="219.298546" style="fill: #ffffff; stroke: #ffffff; stroke-width: 0.6"/>
      </g>
     </g>
    </g>
    <g id="ytick_18">
     <g id="line2d_59">
      <g>
       <use xlink:href="#mead050176e" x="50.640637" y="190.63895" style="fill: #ffffff; stroke: #ffffff; stroke-width: 0.6"/>
      </g>
     </g>
     <g id="line2d_60">
      <g>
       <use xlink:href="#mfa495e49b6" x="421.2" y="190.63895" style="fill: #ffffff; stroke: #ffffff; stroke-width: 0.6"/>
      </g>
     </g>
    </g>
    <g id="ytick_19">
     <g id="line2d_61">
      <g>
       <use xlink:href="#mead050176e" x="50.640637" y="176.086221" style="fill: #ffffff; stroke: #ffffff; stroke-width: 0.6"/>
      </g>
     </g>
     <g id="line2d_62">
      <g>
       <use xlink:href="#mfa495e49b6" x="421.2" y="176.086221" style="fill: #ffffff; stroke: #ffffff; stroke-width: 0.6"/>
      </g>
     </g>
    </g>
    <g id="ytick_20">
     <g id="line2d_63">
      <g>
       <use xlink:href="#mead050176e" x="50.640637" y="165.760895" style="fill: #ffffff; stroke: #ffffff; stroke-width: 0.6"/>
      </g>
     </g>
     <g id="line2d_64">
      <g>
       <use xlink:href="#mfa495e49b6" x="421.2" y="165.760895" style="fill: #ffffff; stroke: #ffffff; stroke-width: 0.6"/>
      </g>
     </g>
    </g>
    <g id="ytick_21">
     <g id="line2d_65">
      <g>
       <use xlink:href="#mead050176e" x="50.640637" y="157.75195" style="fill: #ffffff; stroke: #ffffff; stroke-width: 0.6"/>
      </g>
     </g>
     <g id="line2d_66">
      <g>
       <use xlink:href="#mfa495e49b6" x="421.2" y="157.75195" style="fill: #ffffff; stroke: #ffffff; stroke-width: 0.6"/>
      </g>
     </g>
    </g>
    <g id="ytick_22">
     <g id="line2d_67">
      <g>
       <use xlink:href="#mead050176e" x="50.640637" y="151.208165" style="fill: #ffffff; stroke: #ffffff; stroke-width: 0.6"/>
      </g>
     </g>
     <g id="line2d_68">
      <g>
       <use xlink:href="#mfa495e49b6" x="421.2" y="151.208165" style="fill: #ffffff; stroke: #ffffff; stroke-width: 0.6"/>
      </g>
     </g>
    </g>
    <g id="ytick_23">
     <g id="line2d_69">
      <g>
       <use xlink:href="#mead050176e" x="50.640637" y="145.675474" style="fill: #ffffff; stroke: #ffffff; stroke-width: 0.6"/>
      </g>
     </g>
     <g id="line2d_70">
      <g>
       <use xlink:href="#mfa495e49b6" x="421.2" y="145.675474" style="fill: #ffffff; stroke: #ffffff; stroke-width: 0.6"/>
      </g>
     </g>
    </g>
    <g id="ytick_24">
     <g id="line2d_71">
      <g>
       <use xlink:href="#mead050176e" x="50.640637" y="140.88284" style="fill: #ffffff; stroke: #ffffff; stroke-width: 0.6"/>
      </g>
     </g>
     <g id="line2d_72">
      <g>
       <use xlink:href="#mfa495e49b6" x="421.2" y="140.88284" style="fill: #ffffff; stroke: #ffffff; stroke-width: 0.6"/>
      </g>
     </g>
    </g>
    <g id="ytick_25">
     <g id="line2d_73">
      <g>
       <use xlink:href="#mead050176e" x="50.640637" y="136.655436" style="fill: #ffffff; stroke: #ffffff; stroke-width: 0.6"/>
      </g>
     </g>
     <g id="line2d_74">
      <g>
       <use xlink:href="#mfa495e49b6" x="421.2" y="136.655436" style="fill: #ffffff; stroke: #ffffff; stroke-width: 0.6"/>
      </g>
     </g>
    </g>
    <g id="ytick_26">
     <g id="line2d_75">
      <g>
       <use xlink:href="#mead050176e" x="50.640637" y="107.99584" style="fill: #ffffff; stroke: #ffffff; stroke-width: 0.6"/>
      </g>
     </g>
     <g id="line2d_76">
      <g>
       <use xlink:href="#mfa495e49b6" x="421.2" y="107.99584" style="fill: #ffffff; stroke: #ffffff; stroke-width: 0.6"/>
      </g>
     </g>
    </g>
    <g id="ytick_27">
     <g id="line2d_77">
      <g>
       <use xlink:href="#mead050176e" x="50.640637" y="93.44311" style="fill: #ffffff; stroke: #ffffff; stroke-width: 0.6"/>
      </g>
     </g>
     <g id="line2d_78">
      <g>
       <use xlink:href="#mfa495e49b6" x="421.2" y="93.44311" style="fill: #ffffff; stroke: #ffffff; stroke-width: 0.6"/>
      </g>
     </g>
    </g>
    <g id="ytick_28">
     <g id="line2d_79">
      <g>
       <use xlink:href="#mead050176e" x="50.640637" y="83.117784" style="fill: #ffffff; stroke: #ffffff; stroke-width: 0.6"/>
      </g>
     </g>
     <g id="line2d_80">
      <g>
       <use xlink:href="#mfa495e49b6" x="421.2" y="83.117784" style="fill: #ffffff; stroke: #ffffff; stroke-width: 0.6"/>
      </g>
     </g>
    </g>
    <g id="ytick_29">
     <g id="line2d_81">
      <g>
       <use xlink:href="#mead050176e" x="50.640637" y="75.10884" style="fill: #ffffff; stroke: #ffffff; stroke-width: 0.6"/>
      </g>
     </g>
     <g id="line2d_82">
      <g>
       <use xlink:href="#mfa495e49b6" x="421.2" y="75.10884" style="fill: #ffffff; stroke: #ffffff; stroke-width: 0.6"/>
      </g>
     </g>
    </g>
    <g id="ytick_30">
     <g id="line2d_83">
      <g>
       <use xlink:href="#mead050176e" x="50.640637" y="68.565055" style="fill: #ffffff; stroke: #ffffff; stroke-width: 0.6"/>
      </g>
     </g>
     <g id="line2d_84">
      <g>
       <use xlink:href="#mfa495e49b6" x="421.2" y="68.565055" style="fill: #ffffff; stroke: #ffffff; stroke-width: 0.6"/>
      </g>
     </g>
    </g>
    <g id="ytick_31">
     <g id="line2d_85">
      <g>
       <use xlink:href="#mead050176e" x="50.640637" y="63.032364" style="fill: #ffffff; stroke: #ffffff; stroke-width: 0.6"/>
      </g>
     </g>
     <g id="line2d_86">
      <g>
       <use xlink:href="#mfa495e49b6" x="421.2" y="63.032364" style="fill: #ffffff; stroke: #ffffff; stroke-width: 0.6"/>
      </g>
     </g>
    </g>
    <g id="ytick_32">
     <g id="line2d_87">
      <g>
       <use xlink:href="#mead050176e" x="50.640637" y="58.239729" style="fill: #ffffff; stroke: #ffffff; stroke-width: 0.6"/>
      </g>
     </g>
     <g id="line2d_88">
      <g>
       <use xlink:href="#mfa495e49b6" x="421.2" y="58.239729" style="fill: #ffffff; stroke: #ffffff; stroke-width: 0.6"/>
      </g>
     </g>
    </g>
    <g id="ytick_33">
     <g id="line2d_89">
      <g>
       <use xlink:href="#mead050176e" x="50.640637" y="54.012326" style="fill: #ffffff; stroke: #ffffff; stroke-width: 0.6"/>
      </g>
     </g>
     <g id="line2d_90">
      <g>
       <use xlink:href="#mfa495e49b6" x="421.2" y="54.012326" style="fill: #ffffff; stroke: #ffffff; stroke-width: 0.6"/>
      </g>
     </g>
    </g>
    <g id="ytick_34">
     <g id="line2d_91">
      <g>
       <use xlink:href="#mead050176e" x="50.640637" y="25.352729" style="fill: #ffffff; stroke: #ffffff; stroke-width: 0.6"/>
      </g>
     </g>
     <g id="line2d_92">
      <g>
       <use xlink:href="#mfa495e49b6" x="421.2" y="25.352729" style="fill: #ffffff; stroke: #ffffff; stroke-width: 0.6"/>
      </g>
     </g>
    </g>
    <g id="ytick_35">
     <g id="line2d_93">
      <g>
       <use xlink:href="#mead050176e" x="50.640637" y="10.8" style="fill: #ffffff; stroke: #ffffff; stroke-width: 0.6"/>
      </g>
     </g>
     <g id="line2d_94">
      <g>
       <use xlink:href="#mfa495e49b6" x="421.2" y="10.8" style="fill: #ffffff; stroke: #ffffff; stroke-width: 0.6"/>
      </g>
     </g>
    </g>
    <g id="text_8">
     <!-- $\tau_\lambda/N_{\rm H}\ ({\rm cm}^{2}\ {\rm H}^{-1})$ -->
     <g style="fill: #ffffff" transform="translate(19.384188 204.374681) rotate(-90) scale(0.1 -0.1)">
      <defs>
       <path id="CMMI12-1c" d="M 1837 2408 
L 2899 2408 
C 2982 2408 3194 2408 3194 2612 
C 3194 2752 3072 2752 2957 2752 
L 1197 2752 
C 1050 2752 832 2752 538 2440 
C 371 2255 166 1917 166 1879 
C 166 1841 198 1828 237 1828 
C 282 1828 288 1847 320 1885 
C 653 2408 986 2408 1146 2408 
L 1677 2408 
L 1011 223 
C 979 127 979 114 979 95 
C 979 25 1024 -64 1152 -64 
C 1350 -64 1382 108 1402 203 
L 1837 2408 
z
" transform="scale(0.015625)"/>
       <path id="CMMI12-3d" d="M 2746 4562 
C 2746 4569 2784 4666 2784 4678 
C 2784 4755 2720 4800 2669 4800 
C 2637 4800 2579 4800 2528 4659 
L 384 -1363 
C 384 -1370 346 -1465 346 -1478 
C 346 -1555 410 -1600 461 -1600 
C 499 -1600 557 -1593 602 -1459 
L 2746 4562 
z
" transform="scale(0.015625)"/>
       <path id="NimbusSanL-ReguItal-4e" d="M 5126 4672 
L 4557 4672 
L 3744 840 
L 2144 4672 
L 1478 4672 
L 486 0 
L 1056 0 
L 1862 3788 
L 3456 0 
L 4134 0 
L 5126 4672 
z
" transform="scale(0.015625)"/>
       <path id="NimbusSanL-Regu-48" d="M 3526 2112 
L 3526 -2 
L 4122 -2 
L 4122 4672 
L 3526 4672 
L 3526 2638 
L 1126 2638 
L 1126 4672 
L 531 4672 
L 531 -2 
L 1133 -2 
L 1133 2112 
L 3526 2112 
z
" transform="scale(0.015625)"/>
       <path id="NimbusSanL-Regu-63" d="M 3014 2236 
C 2989 2562 2918 2773 2790 2958 
C 2560 3271 2157 3456 1690 3456 
C 787 3456 198 2742 198 1632 
C 198 554 774 -128 1683 -128 
C 2483 -128 2989 350 3053 1167 
L 2515 1167 
C 2426 632 2150 365 1696 365 
C 1107 365 755 843 755 1632 
C 755 2466 1101 2962 1683 2962 
C 2131 2962 2413 2701 2477 2236 
L 3014 2236 
z
" transform="scale(0.015625)"/>
      </defs>
      <use xlink:href="#CMMI12-1c" transform="scale(0.996264)"/>
      <use xlink:href="#CMMI12-15" transform="translate(42.363841 -14.943915) scale(0.697382)"/>
      <use xlink:href="#CMMI12-3d" transform="translate(82.694641 0) scale(0.996264)"/>
      <use xlink:href="#NimbusSanL-ReguItal-4e" transform="translate(131.469559 0) scale(0.996264)"/>
      <use xlink:href="#NimbusSanL-Regu-48" transform="translate(203.399544 -16.069485) scale(0.697382)"/>
      <use xlink:href="#NimbusSanL-Regu-28" transform="translate(281.943612 0) scale(0.996264)"/>
      <use xlink:href="#NimbusSanL-Regu-63" transform="translate(315.118841 0) scale(0.996264)"/>
      <use xlink:href="#NimbusSanL-Regu-6d" transform="translate(364.932042 0) scale(0.996264)"/>
      <use xlink:href="#NimbusSanL-Regu-32" transform="translate(447.920472 36.153639) scale(0.697382)"/>
      <use xlink:href="#NimbusSanL-Regu-48" transform="translate(514.887774 0) scale(0.996264)"/>
      <use xlink:href="#CMSY10-0" transform="translate(586.817759 36.153639) scale(0.697382)"/>
      <use xlink:href="#NimbusSanL-Regu-31" transform="translate(641.058752 36.153639) scale(0.697382)"/>
      <use xlink:href="#NimbusSanL-Regu-29" transform="translate(680.330885 0) scale(0.996264)"/>
     </g>
    </g>
   </g>
   <g id="line2d_95">
    <path d="M 50.640637 54.087815 
L 58.453579 55.692693 
L 64.692042 57.24887 
L 70.935736 58.950372 
L 78.746199 61.444394 
L 92.798613 66.144731 
L 102.172641 69.714789 
L 106.853644 71.1941 
L 109.978282 71.955081 
L 113.100608 72.542815 
L 117.788557 73.051924 
L 124.032648 73.419549 
L 130.282382 73.585559 
L 159.948706 73.835335 
L 170.88107 74.254307 
L 181.810794 74.918838 
L 191.179417 75.698795 
L 200.548908 76.69131 
L 209.918856 77.907802 
L 217.728455 79.106397 
L 227.095621 80.776332 
L 234.902823 82.372073 
L 242.710671 84.159928 
L 250.520236 86.143537 
L 259.889871 88.777393 
L 267.697857 91.209885 
L 277.065628 94.400605 
L 286.435445 97.89403 
L 294.244028 101.03987 
L 303.61192 105.09461 
L 311.420416 108.698587 
L 319.228602 112.50634 
L 328.597873 117.358705 
L 334.843093 120.812203 
L 347.340029 127.769726 
L 369.201308 139.82116 
L 373.885668 142.403979 
L 381.694154 147.031507 
L 392.62013 153.256594 
L 403.553733 159.265269 
L 411.362435 163.296529 
L 417.60436 166.285706 
L 423.849435 169.004294 
L 430.099724 171.455463 
L 433 172.518188 
L 433 172.518188 
" clip-path="url(#p321d2b80a4)" style="fill: none; stroke-dasharray: 5.55,2.4; stroke-dashoffset: 0; stroke: #8dd3c7; stroke-width: 1.5"/>
   </g>
   <g id="line2d_96">
    <path d="M 50.640637 65.957955 
L 58.453579 72.307087 
L 61.57251 74.944955 
L 64.692042 77.847417 
L 70.935736 84.172655 
L 78.746199 91.943886 
L 81.870019 94.939596 
L 83.436051 96.912463 
L 86.556132 99.287168 
L 89.680667 101.35854 
L 92.798613 103.09977 
L 95.9257 104.484947 
L 99.050972 105.489727 
L 102.172641 106.075629 
L 105.297006 106.236664 
L 106.853644 106.152547 
L 108.421953 105.955548 
L 109.978282 105.643932 
L 111.537957 105.215766 
L 113.100608 104.669583 
L 114.665882 104.003517 
L 117.788557 102.312809 
L 120.911456 100.203393 
L 124.032648 97.600657 
L 127.157007 94.415021 
L 130.282382 90.588077 
L 133.400442 86.123739 
L 141.213594 74.202064 
L 142.773922 72.39304 
L 144.332213 71.070869 
L 145.894027 70.350885 
L 147.458989 70.304704 
L 149.021151 70.987725 
L 150.580373 72.300715 
L 152.141967 74.126854 
L 153.7056 76.336533 
L 156.827224 81.395683 
L 161.51321 89.168492 
L 164.633305 93.858455 
L 167.758243 97.971959 
L 170.88107 101.525636 
L 174.004586 104.568138 
L 177.126823 107.163767 
L 180.250298 109.377466 
L 183.373001 111.259835 
L 188.058708 113.728052 
L 192.742109 116.9935 
L 200.548908 122.685834 
L 208.356131 128.648554 
L 214.603732 133.685024 
L 220.851188 139.055946 
L 227.095621 144.773314 
L 234.902823 152.218943 
L 239.590042 156.94034 
L 244.274271 162.023775 
L 250.520236 169.244964 
L 258.328275 178.628887 
L 264.573886 186.510401 
L 272.380832 196.852061 
L 284.873871 213.8024 
L 292.682449 224.235263 
L 297.366499 230.155946 
L 302.051522 235.76614 
L 306.735744 241.042139 
L 311.420416 245.911313 
L 314.543032 248.854351 
L 317.665911 251.453984 
L 320.789903 253.624783 
L 322.350998 254.524977 
L 323.913008 255.280953 
L 325.474314 255.865529 
L 327.036022 256.216504 
L 328.597873 256.26943 
L 330.159617 255.910487 
L 331.721014 254.954245 
L 333.281832 253.108574 
L 334.843093 249.924427 
L 336.409446 244.790878 
L 337.970758 237.185492 
L 339.524579 227.845053 
L 341.094584 221.180621 
L 342.656583 223.756524 
L 345.779535 242.759187 
L 347.340029 250.163849 
L 348.892179 255.376817 
L 350.457968 258.900582 
L 352.025826 261.161857 
L 353.584743 262.426691 
L 355.145359 262.835649 
L 356.707367 262.453338 
L 358.270471 261.335206 
L 361.388803 257.914079 
L 362.953646 256.840961 
L 364.508722 257.145064 
L 366.073466 259.04192 
L 367.637737 262.118399 
L 370.763959 269.260449 
L 372.32548 272.52059 
L 373.885668 275.402857 
L 375.44433 277.911912 
L 377.001279 280.113032 
L 378.565068 282.066788 
L 381.694154 285.423153 
L 384.812452 288.275785 
L 387.935027 290.808091 
L 392.62013 294.239923 
L 398.865111 298.464099 
L 406.674024 303.732635 
L 409.798948 306.150561 
L 414.483592 310.174718 
L 416.04737 311.122897 
L 417.60436 311.743142 
L 420.729061 312.700427 
L 423.849435 313.932588 
L 428.535914 316.204412 
L 433 318.555372 
L 433 318.555372 
" clip-path="url(#p321d2b80a4)" style="fill: none; stroke-dasharray: 5.55,2.4; stroke-dashoffset: 0; stroke: #feffb3; stroke-width: 1.5"/>
   </g>
   <g id="line2d_97">
    <path d="M 50.640637 65.957955 
L 58.453579 72.307087 
L 61.57251 74.944955 
L 64.692042 77.847417 
L 70.935736 84.172655 
L 78.746199 91.943886 
L 81.870019 94.939596 
L 83.436051 96.912463 
L 86.556132 99.287168 
L 89.680667 101.35854 
L 92.798613 103.09977 
L 95.9257 104.484947 
L 99.050972 105.489727 
L 102.172641 106.075629 
L 105.297006 106.236664 
L 106.853644 106.152547 
L 108.421953 105.955548 
L 109.978282 105.643932 
L 111.537957 105.215766 
L 113.100608 104.669583 
L 114.665882 104.003517 
L 117.788557 102.312809 
L 120.911456 100.203393 
L 124.032648 97.600657 
L 127.157007 94.415021 
L 130.282382 90.588077 
L 133.400442 86.123739 
L 141.213594 74.202064 
L 142.773922 72.39304 
L 144.332213 71.070869 
L 145.894027 70.350885 
L 147.458989 70.304704 
L 149.021151 70.987725 
L 150.580373 72.300715 
L 152.141967 74.126854 
L 153.7056 76.336533 
L 156.827224 81.395683 
L 161.51321 89.168492 
L 164.633305 93.858455 
L 167.758243 97.971959 
L 170.88107 101.525636 
L 174.004586 104.568138 
L 177.126823 107.163767 
L 180.250298 109.377466 
L 183.373001 111.259835 
L 188.058708 113.728052 
L 192.742109 116.9935 
L 200.548908 122.685834 
L 208.356131 128.648554 
L 214.603732 133.685024 
L 220.851188 139.055946 
L 227.095621 144.773314 
L 234.902823 152.218943 
L 239.590042 156.94034 
L 244.274271 162.023775 
L 250.520236 169.244964 
L 258.328275 178.628887 
L 264.573886 186.510401 
L 272.380832 196.852061 
L 284.873871 213.8024 
L 292.682449 224.235263 
L 297.366499 230.155946 
L 302.051522 235.76614 
L 306.735744 241.042139 
L 311.420416 245.911313 
L 314.543032 248.854351 
L 317.665911 251.453984 
L 320.789903 253.624783 
L 322.350998 254.524977 
L 323.913008 255.280953 
L 325.474314 255.865529 
L 327.036022 256.216504 
L 328.597873 256.26943 
L 330.159617 255.910487 
L 331.721014 254.954245 
L 333.281832 253.108574 
L 334.843093 249.924427 
L 336.409446 244.790878 
L 337.970758 237.185492 
L 339.524579 227.845053 
L 341.094584 221.180621 
L 342.656583 223.756524 
L 345.779535 242.759187 
L 347.340029 250.163849 
L 348.892179 255.376817 
L 350.457968 258.900582 
L 352.025826 261.161857 
L 353.584743 262.426691 
L 355.145359 262.835649 
L 356.707367 262.453338 
L 358.270471 261.335206 
L 361.388803 257.914079 
L 362.953646 256.840961 
L 364.508722 257.145064 
L 366.073466 259.04192 
L 367.637737 262.118399 
L 370.763959 269.260449 
L 372.32548 272.52059 
L 373.885668 275.402857 
L 375.44433 277.911912 
L 377.001279 280.113032 
L 378.565068 282.066788 
L 381.694154 285.423153 
L 384.812452 288.275785 
L 387.935027 290.808091 
L 392.62013 294.239923 
L 398.865111 298.464099 
L 406.674024 303.732635 
L 409.798948 306.150561 
L 414.483592 310.174718 
L 416.04737 311.122897 
L 417.60436 311.743142 
L 420.729061 312.700427 
L 423.849435 313.932588 
L 428.535914 316.204412 
L 433 318.555372 
L 433 318.555372 
" clip-path="url(#p321d2b80a4)" style="fill: none; stroke-dasharray: 5.55,2.4; stroke-dashoffset: 0; stroke: #feffb3; stroke-opacity: 0.5; stroke-width: 1.5"/>
   </g>
   <g id="patch_3">
    <path d="M 50.640637 323.03817 
L 50.640637 10.8 
" style="fill: none; stroke: #ffffff; stroke-width: 0.8; stroke-linejoin: miter; stroke-linecap: square"/>
   </g>
   <g id="patch_4">
    <path d="M 421.2 323.03817 
L 421.2 10.8 
" style="fill: none; stroke: #ffffff; stroke-width: 0.8; stroke-linejoin: miter; stroke-linecap: square"/>
   </g>
   <g id="patch_5">
    <path d="M 50.640637 323.03817 
L 421.2 323.03817 
" style="fill: none; stroke: #ffffff; stroke-width: 0.8; stroke-linejoin: miter; stroke-linecap: square"/>
   </g>
   <g id="patch_6">
    <path d="M 50.640637 10.8 
L 421.2 10.8 
" style="fill: none; stroke: #ffffff; stroke-width: 0.8; stroke-linejoin: miter; stroke-linecap: square"/>
   </g>
   <g id="legend_1">
    <g id="line2d_98">
     <path d="M 325.221858 23.39832 
L 335.221858 23.39832 
L 345.221858 23.39832 
" style="fill: none; stroke-dasharray: 5.55,2.4; stroke-dashoffset: 0; stroke: #8dd3c7; stroke-width: 1.5"/>
    </g>
    <g id="text_9">
     <!-- ${\rm Astrodust}$ -->
     <g style="fill: #ffffff" transform="translate(353.221858 26.89832) scale(0.1 -0.1)">
      <defs>
       <path id="NimbusSanL-Regu-41" d="M 3034 1408 
L 3514 0 
L 4179 0 
L 2541 4672 
L 1773 4672 
L 109 0 
L 742 0 
L 1235 1408 
L 3034 1408 
z
M 2867 1908 
L 1382 1908 
L 2150 4032 
L 2867 1908 
z
" transform="scale(0.015625)"/>
       <path id="NimbusSanL-Regu-73" d="M 2803 2427 
C 2797 3085 2362 3456 1587 3456 
C 806 3456 301 3054 301 2436 
C 301 1913 570 1665 1363 1474 
L 1862 1353 
C 2234 1263 2381 1130 2381 888 
C 2381 576 2067 365 1600 365 
C 1312 365 1069 448 934 588 
C 851 684 813 779 781 1014 
L 218 1014 
C 243 241 678 -128 1555 -128 
C 2400 -128 2938 285 2938 929 
C 2938 1426 2656 1701 1990 1860 
L 1478 1981 
C 1043 2082 858 2223 858 2458 
C 858 2764 1133 2962 1568 2962 
C 1997 2962 2227 2777 2240 2427 
L 2803 2427 
z
" transform="scale(0.015625)"/>
       <path id="NimbusSanL-Regu-74" d="M 1626 3380 
L 1075 3380 
L 1075 4288 
L 544 4288 
L 544 3380 
L 90 3380 
L 90 2944 
L 544 2944 
L 544 404 
C 544 64 774 -128 1190 -128 
C 1318 -128 1446 -116 1626 -83 
L 1626 366 
C 1555 346 1472 340 1370 340 
C 1139 340 1075 404 1075 641 
L 1075 2944 
L 1626 2944 
L 1626 3380 
z
" transform="scale(0.015625)"/>
       <path id="NimbusSanL-Regu-72" d="M 442 3359 
L 442 0 
L 979 0 
L 979 1741 
C 979 2221 1101 2535 1357 2720 
C 1523 2842 1683 2880 2054 2880 
L 2054 3432 
C 1965 3444 1920 3444 1850 3444 
C 1504 3444 1242 3240 934 2746 
L 934 3359 
L 442 3359 
z
" transform="scale(0.015625)"/>
       <path id="NimbusSanL-Regu-6f" d="M 1741 3456 
C 800 3456 230 2786 230 1663 
C 230 541 794 -128 1747 -128 
C 2688 -128 3264 541 3264 1638 
C 3264 2792 2707 3456 1741 3456 
z
M 1747 2962 
C 2349 2962 2707 2472 2707 1645 
C 2707 861 2336 365 1747 365 
C 1152 365 787 855 787 1663 
C 787 2466 1152 2962 1747 2962 
z
" transform="scale(0.015625)"/>
       <path id="NimbusSanL-Regu-64" d="M 3168 4672 
L 2637 4672 
L 2637 2937 
C 2413 3276 2054 3456 1606 3456 
C 736 3456 166 2761 166 1695 
C 166 566 723 -128 1626 -128 
C 2086 -128 2406 45 2694 461 
L 2694 -2 
L 3168 -2 
L 3168 4672 
z
M 1696 2956 
C 2272 2956 2637 2447 2637 1651 
C 2637 881 2266 372 1702 372 
C 1114 372 723 887 723 1664 
C 723 2440 1114 2956 1696 2956 
z
" transform="scale(0.015625)"/>
       <path id="NimbusSanL-Regu-75" d="M 3085 33 
L 3085 3392 
L 2554 3392 
L 2554 1479 
C 2554 790 2195 340 1638 340 
C 1216 340 947 597 947 1003 
L 947 3392 
L 416 3392 
L 416 792 
C 416 232 832 -128 1485 -128 
C 1978 -128 2291 45 2605 488 
L 2605 33 
L 3085 33 
z
" transform="scale(0.015625)"/>
      </defs>
      <use xlink:href="#NimbusSanL-Regu-41" transform="scale(0.996264)"/>
      <use xlink:href="#NimbusSanL-Regu-73" transform="translate(66.450031 0) scale(0.996264)"/>
      <use xlink:href="#NimbusSanL-Regu-74" transform="translate(116.263232 0) scale(0.996264)"/>
      <use xlink:href="#NimbusSanL-Regu-72" transform="translate(143.958401 0) scale(0.996264)"/>
      <use xlink:href="#NimbusSanL-Regu-6f" transform="translate(177.133631 0) scale(0.996264)"/>
      <use xlink:href="#NimbusSanL-Regu-64" transform="translate(232.525308 0) scale(0.996264)"/>
      <use xlink:href="#NimbusSanL-Regu-75" transform="translate(287.916985 0) scale(0.996264)"/>
      <use xlink:href="#NimbusSanL-Regu-73" transform="translate(343.308662 0) scale(0.996264)"/>
      <use xlink:href="#NimbusSanL-Regu-74" transform="translate(393.121862 0) scale(0.996264)"/>
     </g>
    </g>
    <g id="line2d_99">
     <path d="M 325.221858 37.802994 
L 335.221858 37.802994 
L 345.221858 37.802994 
" style="fill: none; stroke-dasharray: 5.55,2.4; stroke-dashoffset: 0; stroke: #feffb3; stroke-width: 1.5"/>
    </g>
    <g id="text_10">
     <!-- ${\rm PAHs}\ (1.00x)$ -->
     <g style="fill: #ffffff" transform="translate(353.221858 41.302994) scale(0.1 -0.1)">
      <defs>
       <path id="NimbusSanL-Regu-50" d="M 1178 1984 
L 2643 1984 
C 3008 1984 3296 2093 3546 2316 
C 3827 2573 3949 2873 3949 3303 
C 3949 4179 3430 4672 2509 4672 
L 582 4672 
L 582 -14 
L 1178 -14 
L 1178 1984 
z
M 1178 2510 
L 1178 4146 
L 2419 4146 
C 2989 4146 3328 3839 3328 3327 
C 3328 2816 2989 2510 2419 2510 
L 1178 2510 
z
" transform="scale(0.015625)"/>
       <path id="NimbusSanL-ReguItal-78" d="M 2240 1713 
L 3731 3360 
L 3110 3360 
L 2042 2129 
L 1478 3360 
L 883 3360 
L 1638 1712 
L 109 0 
L 736 0 
L 1850 1282 
L 2426 0 
L 3027 0 
L 2240 1713 
z
" transform="scale(0.015625)"/>
      </defs>
      <use xlink:href="#NimbusSanL-Regu-50" transform="scale(0.996264)"/>
      <use xlink:href="#NimbusSanL-Regu-41" transform="translate(54.495349 0) scale(0.996264)"/>
      <use xlink:href="#NimbusSanL-Regu-48" transform="translate(120.945381 0) scale(0.996264)"/>
      <use xlink:href="#NimbusSanL-Regu-73" transform="translate(192.875365 0) scale(0.996264)"/>
      <use xlink:href="#NimbusSanL-Regu-28" transform="translate(270.383736 0) scale(0.996264)"/>
      <use xlink:href="#NimbusSanL-Regu-31" transform="translate(303.558965 0) scale(0.996264)"/>
      <use xlink:href="#NimbusSanL-Regu-2e" transform="translate(358.950642 0) scale(0.996264)"/>
      <use xlink:href="#NimbusSanL-Regu-30" transform="translate(386.645812 0) scale(0.996264)"/>
      <use xlink:href="#NimbusSanL-Regu-30" transform="translate(442.037489 0) scale(0.996264)"/>
      <use xlink:href="#NimbusSanL-ReguItal-78" transform="translate(497.429166 0) scale(0.996264)"/>
      <use xlink:href="#NimbusSanL-Regu-29" transform="translate(556.606664 0) scale(0.996264)"/>
     </g>
    </g>
    <g id="line2d_100">
     <path d="M 325.221858 52.023301 
L 335.221858 52.023301 
L 345.221858 52.023301 
" style="fill: none; stroke: #ffffff; stroke-width: 1.5; stroke-linecap: square"/>
    </g>
    <g id="text_11">
     <!-- ${\rm Total}$ -->
     <g style="fill: #ffffff" transform="translate(353.221858 55.523301) scale(0.1 -0.1)">
      <defs>
       <path id="NimbusSanL-Regu-54" d="M 2266 4146 
L 3795 4146 
L 3795 4672 
L 134 4672 
L 134 4146 
L 1670 4146 
L 1670 -14 
L 2266 -14 
L 2266 4146 
z
" transform="scale(0.015625)"/>
       <path id="NimbusSanL-Regu-61" d="M 3424 333 
C 3366 320 3341 320 3309 320 
C 3123 320 3021 415 3021 581 
L 3021 2545 
C 3021 3137 2586 3456 1760 3456 
C 1274 3456 870 3316 646 3066 
C 493 2893 429 2702 416 2370 
L 954 2370 
C 998 2777 1242 2962 1741 2962 
C 2221 2962 2490 2783 2490 2465 
L 2490 2325 
C 2490 2101 2355 2006 1933 1955 
C 1178 1860 1062 1834 858 1751 
C 467 1592 269 1292 269 859 
C 269 254 691 -128 1370 -128 
C 1792 -128 2131 19 2509 365 
C 2547 25 2714 -128 3059 -128 
C 3168 -128 3251 -116 3424 -70 
L 3424 333 
z
M 2490 1072 
C 2490 893 2438 785 2278 639 
C 2061 441 1798 340 1485 340 
C 1069 340 826 537 826 874 
C 826 1225 1062 1403 1632 1486 
C 2195 1562 2310 1588 2490 1670 
L 2490 1072 
z
" transform="scale(0.015625)"/>
       <path id="NimbusSanL-Regu-6c" d="M 973 4672 
L 435 4672 
L 435 -2 
L 973 -2 
L 973 4672 
z
" transform="scale(0.015625)"/>
      </defs>
      <use xlink:href="#NimbusSanL-Regu-54" transform="scale(0.996264)"/>
      <use xlink:href="#NimbusSanL-Regu-6f" transform="translate(48.916949 0) scale(0.996264)"/>
      <use xlink:href="#NimbusSanL-Regu-74" transform="translate(104.308626 0) scale(0.996264)"/>
      <use xlink:href="#NimbusSanL-Regu-61" transform="translate(132.003796 0) scale(0.996264)"/>
      <use xlink:href="#NimbusSanL-Regu-6c" transform="translate(187.395473 0) scale(0.996264)"/>
     </g>
    </g>
   </g>
  </g>
 </g>
 <defs>
  <clipPath id="p321d2b80a4">
   <rect x="50.640637" y="10.8" width="370.559363" height="312.23817"/>
  </clipPath>
 </defs>
</svg>
